<?xml version="1.0" encoding="UTF-8"?>
<!DOCTYPE svg PUBLIC "-//W3C//DTD SVG 1.1//EN" "http://www.w3.org/Graphics/SVG/1.1/DTD/svg11.dtd">
<!-- Creator: CorelDRAW -->
<svg xmlns="http://www.w3.org/2000/svg" xml:space="preserve" width="10.1598mm" height="10.1598mm" version="1.1" style="shape-rendering:geometricPrecision; text-rendering:geometricPrecision; image-rendering:optimizeQuality; fill-rule:evenodd; clip-rule:evenodd"
viewBox="0 0 1015.98 1015.98"
 xmlns:xlink="http://www.w3.org/1999/xlink"
 xmlns:xodm="http://www.corel.com/coreldraw/odm/2003">
 <defs>
  <style type="text/css">
   <![CDATA[
    .str0 {stroke:#201E1E;stroke-width:16.93;stroke-miterlimit:22.926}
    .str1 {stroke:#201E1E;stroke-width:7.62;stroke-miterlimit:22.926}
    .fil6 {fill:none}
    .fil1 {fill:#FEFEFE}
    .fil3 {fill:#373435}
    .fil5 {fill:#F1A4C8}
    .fil7 {fill:#ECC1DA}
    .fil2 {fill:#201E1E}
    .fil4 {fill:#373435;fill-rule:nonzero}
    .fil0 {fill:#201E1E;fill-rule:nonzero}
   ]]>
  </style>
 </defs>
 <g id="Camada_x0020_1">
  <metadata id="CorelCorpID_0Corel-Layer"/>
  <g id="_1835878713600">
   <polygon class="fil0" points="353.01,805.75 408.14,726.47 425.02,738.2 369.89,817.45 "/>
   <path class="fil0" d="M348.01 802.26l55.13 -79.26 3.49 -5.05 5 3.5 16.88 11.7 4.99 3.49 -3.46 5.03 -55.14 79.28 -3.52 5.02 -4.96 -3.46 -16.89 -11.73 -5.02 -3.5 3.5 -5.02zm61.65 -67.3l-48.14 69.24 6.84 4.76 48.17 -69.23 -6.87 -4.77z"/>
   <polygon class="fil0" points="719.64,812.03 664.51,732.75 647.63,744.48 702.76,823.73 "/>
   <path class="fil0" d="M724.64 808.54l-55.13 -79.26 -3.49 -5.05 -5 3.5 -16.88 11.7 -4.99 3.49 3.46 5.02 55.14 79.29 3.52 5.02 4.96 -3.46 16.89 -11.73 5.02 -3.5 -3.5 -5.02zm-61.65 -67.3l48.14 69.23 -6.84 4.77 -48.17 -69.23 6.87 -4.77z"/>
   <path class="fil0" d="M616.64 858.31c20.77,0.47 41.62,0.62 62.46,0.78l12.35 0.1 0 0.03c12.86,0.12 15.17,0.16 17.44,0.16 16.7,0.22 33.37,0.4 50.05,0.08l1.31 -0.02 1.1 -0.44 0.06 -0.07 2.37 -0.99 1.03 -2.38c0.81,-1.8 0.56,-5.33 -0.84,-9.54 -2.31,-6.86 -7.93,-19.34 -16.57,-31.7 -8.83,-12.54 -20.84,-25.03 -35.94,-31.63 -12.27,-5.37 -26.34,-6.88 -42.13,-1.6l-0.12 0.03c-5.12,1.81 -9.89,4.25 -14.36,7.15 -4.52,2.96 -8.7,6.43 -12.6,10.33l-0.37 0.27 -0.38 0.38c-14.26,14.1 -24.06,32.07 -28.42,42.34 -1.03,2.43 -1.81,4.55 -2.28,6.17 -1.31,4.31 -0.43,7.68 2.31,9.49l0.25 0.16c0.97,0.59 2.03,0.93 3.28,0.93l0 -0.03zm62.55 -12.07c-17.94,-0.12 -35.88,-0.25 -53.85,-0.59 4.12,-9.37 12.7,-24.75 24.87,-36.94l0.47 -0.32 0.34 -0.34c3.37,-3.4 6.96,-6.46 10.86,-8.98 3.61,-2.37 7.45,-4.31 11.54,-5.78l0 0.04c12.39,-4.16 23.4,-3 32.89,1.15 12.57,5.51 22.86,16.29 30.54,27.2 6.53,9.33 11.11,18.66 13.64,25.03 -13.89,0.15 -27.68,-0.03 -41.5,-0.19 -9.33,-0.09 -16.19,-0.19 -17.44,-0.19l0 0 -12.36 -0.09z"/>
   <path class="fil1" d="M622.93 848.74c22.71,0.5 45.46,0.6 68.23,0.78 20.5,0.19 40.91,0.62 61.47,0.25l0.06 -0.03c1.4,-3.22 -27.46,-77.57 -79.88,-60.03 -8.64,3.06 -16.22,8.27 -22.74,14.91l-0.22 0.16 -0.16 0.1c-18.37,18.15 -28.21,43.83 -26.76,43.86z"/>
   <path class="fil0" d="M631.16 842.81c16.38,0.32 32.73,0.44 49.05,0.53l10.98 0.1 0.03 0 15.79 0.18c12.54,0.13 25.12,0.25 37.66,0.16 -2.31,-5.77 -6.46,-14.17 -12.33,-22.5 -7.01,-9.95 -16.44,-19.84 -27.92,-24.8l0 -0.03c-8.55,-3.68 -18.5,-4.68 -29.61,-0.97 -3.74,1.31 -7.27,3.12 -10.52,5.21 -3.52,2.31 -6.83,5.12 -9.91,8.21l-0.32 0.31 -0.21 0.19 -0.26 0.16 -0.06 0.08c-10.85,10.89 -18.59,24.65 -22.37,33.17zm48.95 12.74c-19.13,-0.14 -38.31,-0.32 -57.34,-0.73l-0.84 -0.03 -0.91 -0.28 -0.07 -0.03 -0.74 -0.25 -0.63 -0.37c-2.65,-1.72 -3.49,-4.93 -2.31,-8.99 0.41,-1.25 1.13,-3.18 2.15,-5.58l0 -0.04c3.97,-9.35 12.95,-25.79 26,-38.72l0.53 -0.49 0.22 -0.16c3.49,-3.49 7.33,-6.68 11.44,-9.36 4.13,-2.69 8.56,-4.93 13.17,-6.55l0.06 -0.04c14.36,-4.8 27.25,-3.43 38.42,1.38l0 0c13.91,6.02 24.99,17.47 33.04,28.95 7.92,11.23 13.07,22.78 15.16,29.12 1.32,3.83 1.53,7.05 0.85,8.73l-0.88 2.06 -2 1 -0.06 0.06 -1.28 0.63 -1.37 0.02c-15.29,0.26 -30.58,0.1 -45.81,-0.09l-15.81 -0.16 -10.99 -0.08z"/>
   <path class="fil0" d="M715.38 525.55c-2.5,3.46 -7.31,4.25 -10.77,1.74 -3.43,-2.45 -4.24,-7.29 -1.75,-10.76l56.41 -78.34c2.47,-3.47 7.31,-4.25 10.74,-1.75 3.46,2.46 4.24,7.3 1.78,10.73l-56.41 78.38z"/>
   <path class="fil0" d="M722.97 531.83c-2.22,3.06 -5.52,4.96 -8.99,5.56 -3.43,0.56 -9.83,-2.91 -12.91,-5.12l-0.53 -0.38 -0.14 -0.12c-2.7,-2.18 -4.39,-5.27 -4.92,-8.48 -0.56,-3.47 0.18,-7.18 2.37,-10.27l0.34 -0.5 0.19 -0.16 55.94 -77.72 0 -0.03c2.22,-3.06 5.53,-4.99 8.98,-5.59 3.45,-0.53 7.19,0.23 10.27,2.44l0.04 0.03c3.05,2.19 8.98,8.17 9.54,11.64l0 0c0.57,3.49 -0.18,7.24 -2.37,10.3l-0.03 0.02 -57.78 78.35 0 0.03zm-10.93 -6.52c0.38,-0.06 0.79,-0.28 1.04,-0.65l0 0.03 57.75 -78.31 -0.03 -0.04c0.24,-0.34 0.34,-0.81 0.28,-1.18l0 -0.07c-0.06,-0.37 -0.31,-0.75 -0.63,-1 -0.33,-0.24 -0.8,-0.3 -1.18,-0.28l-0.03 0c-0.38,0.06 -4.78,-2.4 -5.02,-2.02l0 -0.03 -56.41 78.34 2.68 2.68c-0.25,0.38 -3,-1.86 -2.97,-1.46 0.09,0.38 0.29,0.78 0.66,1.03 0.34,0.25 3.46,3.03 3.84,2.96l0.02 0z"/>
   <path class="fil0" d="M282.74 521.99c2.43,3.49 7.24,4.37 10.7,1.93 3.53,-2.44 4.37,-7.2 1.94,-10.73l-55.14 -79.25c-2.4,-3.5 -7.2,-4.37 -10.7,-1.94 -3.49,2.44 -4.37,7.24 -1.94,10.73l55.14 79.26z"/>
   <path class="fil0" d="M275.05 528.15c2.15,3.09 5.42,5.05 8.89,5.72 3.43,0.59 9.86,-2.75 13.01,-4.9l0.53 -0.38 0.12 -0.13c2.75,-2.15 4.49,-5.21 5.09,-8.42 0.59,-3.43 -0.09,-7.14 -2.22,-10.27l-0.38 -0.53 -0.15 -0.15 -54.66 -78.62 0 -0.04c-2.19,-3.09 -5.43,-5.09 -8.93,-5.71 -3.43,-0.62 -7.17,0.09 -10.29,2.24l-0.04 0.04c-3.09,2.15 -9.11,8.05 -9.7,11.48l-0.03 0c-0.63,3.49 0.09,7.24 2.21,10.36l0.04 0 56.51 79.28 0 0.03zm11.01 -6.33c-0.37,-0.1 -0.75,-0.31 -1,-0.69l-0.03 0.04 -56.44 -79.22 0.02 -0.04c-0.24,-0.34 -0.34,-0.81 -0.27,-1.21l0 -0.04c0.06,-0.37 0.27,-0.75 0.65,-1 0.34,-0.24 0.81,-0.31 1.19,-0.24l0.02 0c0.39,0.06 4.81,-2.35 5.06,-1.97l0 -0.03 55.13 79.22 -2.71 2.69c0.25,0.37 2.99,-1.85 2.97,-1.45 -0.1,0.38 -0.32,0.79 -0.67,1 -0.37,0.25 -3.52,3 -3.9,2.94l-0.02 0z"/>
   <path class="fil0" d="M436.17 856.86c-20.78,0.13 -41.63,-0.07 -62.47,-0.22l-12.32 -0.12 -0.04 0.03c-12.85,-0.09 -15.16,-0.09 -17.44,-0.13 -16.69,-0.06 -33.35,-0.16 -50.04,-0.71l-1.31 -0.04 -1.1 -0.5 -0.06 -0.03 -2.33 -1.03 -1 -2.4c-0.78,-1.81 -0.47,-5.34 1,-9.55 2.39,-6.8 8.19,-19.21 17.06,-31.42 9.02,-12.38 21.25,-24.68 36.47,-31.04 12.33,-5.15 26.43,-6.46 42.13,-0.91l0.12 0.07c5.09,1.87 9.83,4.37 14.26,7.36 4.47,3.03 8.58,6.55 12.42,10.51l0.37 0.26 0.38 0.4c14.01,14.32 23.52,32.45 27.73,42.81 1,2.43 1.76,4.58 2.19,6.21 1.22,4.31 0.31,7.68 -2.47,9.45l-0.25 0.15c-1,0.57 -2.06,0.88 -3.3,0.88l0 -0.03zm-62.38 -13.08c17.95,0.16 35.92,0.32 53.86,0.26 -3.96,-9.43 -12.26,-24.97 -24.28,-37.32l-0.43 -0.34 -0.35 -0.34c-3.31,-3.47 -6.86,-6.53 -10.7,-9.15 -3.59,-2.43 -7.39,-4.43 -11.45,-5.96l0 0.03c-12.32,-4.36 -23.33,-3.37 -32.89,0.62 -12.7,5.31 -23.14,15.92 -30.98,26.71 -6.68,9.21 -11.42,18.48 -14.07,24.81 13.89,0.35 27.71,0.41 41.53,0.47 9.33,0.06 16.19,0.06 17.44,0.06l0 0.03 12.32 0.12z"/>
   <path class="fil2 str0" d="M742.37 619.52c-4.24,26.11 -21.9,35.75 -41.12,43.21 17.59,46.87 -11.88,88.55 -51.26,78.19 -4.1,40.87 -52.33,52.92 -79.35,23.21 -9.2,-10.14 -18.16,16.42 -24.56,21.85 -4.83,4.11 -13.13,7.17 -19.09,6.82 -0.1,-0.86 -19.59,-1.21 -51.3,-31.45 -35.69,48.93 -104.4,-8.86 -87.55,-54.35 -25.83,-3.74 -32.32,-35.35 -30.73,-63.4 -13.57,7.18 -28.93,-0.21 -39.41,-9.54 -10.35,-9.11 -15.5,-22.5 -18.19,-36.54 -2.02,-10.86 13.21,-29.21 7.31,-37.76 -12.58,-18.4 -33.02,-26.96 -24.81,-54.63 6.71,-22.55 22.71,-25.02 41.03,-33.32 -11.2,-19.66 8.08,-57.75 32.79,-56.26 -4.43,-14.85 -3.77,-30.32 1.68,-43.25l1.41 1.51 2.12 0.87 -0.06 0.56 0.53 0.1 -0.06 0.53c0.81,0.15 1.06,0.47 0.94,1.27 0.34,0.06 3.37,3.25 3.68,3.66 -2.84,12.85 -1.88,25.67 3.43,38.65 1.9,4.59 -5.37,6.12 -7.52,5.99 -24.43,-1.84 -34.13,34.29 -26.14,45.15 1.96,2.72 -0.88,5.46 -2.57,6.4 -17.06,8.98 -40.53,9.51 -41.22,35.19 -0.55,19.66 9.99,24.5 20.73,36.88 8.86,10.17 7.82,16.54 3.02,27.59 -5.84,13.44 -6.37,28.67 3.66,42.09 10.01,13.38 26.79,28.83 39.84,10.01 1.78,-2.43 11.44,-4.37 10.51,1.78 -3.37,23.4 -3.87,69.14 26.18,67.65 2.22,-0.14 6.89,1.96 5.06,5.52 -22.73,43.58 45.27,92.29 68.23,48.17 1.56,-3 6.86,-5.59 9.76,-2.53 14.2,14.85 44.93,49.3 65.13,24.71 6.17,-7.67 8.54,-18.99 18.22,-21.5 8.23,-2.11 14.25,3.1 20.21,9.9 23.09,26.24 56.7,5.31 55.92,-28.46 -0.1,-4.36 6.27,-5.49 8.89,-4.3 39.9,17.72 56.94,-29.71 40.84,-67.62 -4.12,-9.7 40.46,-7.45 42.34,-41.99 1.28,-24.09 -8.11,-39.22 -29.8,-39.98 -4.12,-0.15 -7.39,-4.14 -3.39,-7.58 31.19,-27.04 5.61,-92.66 -32.12,-97.28 -2.58,-0.34 -4.33,-2.5 -3.55,-5.46 3.96,-14.79 8.83,-33.76 4.61,-50.08 -6.64,-25.55 -22.83,-27.71 -39.9,-25.67l1.71 -11.52c9.93,-3.33 20.54,0.16 29.31,4.99 27.45,15.39 22.87,53.3 16.31,79.6 40.28,9.33 63.84,71.82 37.32,105.08 19.41,4.37 35.45,20.01 30.98,47.34z"/>
   <path class="fil1" d="M730.89 620.08c1.27,-24.08 -8.08,-39.19 -29.83,-39.99 -4.09,-0.16 -7.36,-4.12 -3.37,-7.59 31.2,-27.02 5.65,-92.64 -32.07,-97.26 -2.63,-0.37 -4.34,-2.52 -3.59,-5.45 3.96,-14.79 8.82,-33.76 4.61,-50.11 -2.15,-8.27 -5.3,-14.1 -9.14,-18.1 -13.01,10.74 -28.42,19.56 -45.96,26.49 -40.37,15.95 -80.53,22.87 -119.65,19.09 -37.17,-3.55 -73.39,-16.75 -107.96,-40.96 -6.96,-4.9 -13.29,-10.08 -18.97,-15.63 -0.66,9.58 0.87,19.18 4.84,28.89 1.9,4.58 -5.37,6.11 -7.52,5.96 -24.4,-1.84 -34.14,34.29 -26.15,45.18 2,2.68 -0.84,5.46 -2.56,6.36 -5.71,3.03 -12.85,5.12 -19.53,7.86 -11.2,4.68 -21.22,11.24 -21.69,27.37 -0.56,19.66 9.99,24.49 20.75,36.88 8.83,10.17 7.8,16.54 2.97,27.59 -5.81,13.44 -6.34,28.67 3.68,42.09 6.98,9.32 17.6,20.12 27.93,18.62 4.08,-0.65 8.17,-3.18 11.91,-8.61 1.78,-2.43 11.42,-4.37 10.52,1.78 -3.37,23.4 -3.84,69.14 26.18,67.67 2.21,-0.16 6.92,1.9 5.05,5.5 -22.72,43.55 45.27,92.29 68.2,48.14 1.6,-3 6.9,-5.56 9.8,-2.53 11.67,12.26 30.27,32.3 47.08,33.35 6.43,0.38 12.58,-1.97 18.04,-8.64 6.18,-7.64 8.55,-18.97 18.23,-21.49 8.23,-2.13 14.28,3.11 20.21,9.88 23.12,26.24 56.69,5.34 55.91,-28.39 -0.09,-4.4 6.27,-5.55 8.92,-4.37 39.85,17.75 56.94,-29.67 40.85,-67.58 -1.35,-3.15 2.9,-5.24 4.49,-5.81 15.54,-5.7 36.57,-12.95 37.82,-36.19z"/>
   <path class="fil3" d="M676.79 187.57c5.8,9.52 12.85,17.79 16.16,27.27 5.08,14.6 13.6,25.46 25.58,35.51 21.91,18.38 46.71,23.71 73.92,19.34 23.15,-3.71 30.02,-16.72 18.62,-36.75 -30.82,-54.11 -70.01,-71.88 -134.28,-45.37zm-235.13 -112.38c-27.84,-3.06 -38.51,2.81 -53.52,28.79 -31.13,6.31 -47.83,22.94 -43.46,45.44 5.74,29.55 26.08,38.28 55.95,35.19 14.97,24.71 35.56,33.98 64.09,19.38 17.68,2.53 31.38,7.82 43.21,5.23 11.76,-2.55 21.59,-13.03 33.48,-20.87 29.89,13.11 44.4,7.92 64.71,-24.9 18.84,20.73 35.1,26.24 54.16,18.38 16.08,-6.64 26.21,-22.93 24.78,-39.78 -1.63,-19.53 -12.52,-31.42 -37.64,-37.13 -11.32,-34.25 -31.6,-30.98 -51.69,-31.17 -26.77,-16.13 -25.59,-33.76 -76.76,-18.81 -29.14,-23.5 -62.05,-19.29 -77.31,20.25zm249.42 162.15l0.19 0.16c-7.84,-16.38 -15.64,-32.77 -23.53,-49.3 -23.99,9.52 -42.34,4.31 -59.75,-8.68 -17.73,22.84 -40.44,28.84 -67.11,18.69 -19.14,22.03 -41.07,27.33 -67.65,15.23 -3.53,-1.59 -9.39,0.62 -13.73,2.19 -19.03,6.76 -38.75,5.55 -51.26,-9.18 -13.02,-15.29 -29.01,-11.79 -47.52,-16.76 -9.02,21.38 -19.97,41.63 -26.15,63.25 -17.41,60.88 6.84,118.37 62.22,152.64 26.76,16.56 56.25,25.8 87.39,29.29 57.78,6.47 112.88,-0.25 161.71,-33.07 58.39,-39.25 70.52,-109.99 45.19,-164.46zm-353.45 -23.09c6.02,-9.73 12.07,-19.5 18.6,-30.05 -3.9,-2.53 -7.33,-5.86 -11.45,-7.27 -57.41,-19.38 -97.05,3.06 -121.85,56.38 -5.92,12.79 -1.49,20.69 11.2,26.09 34.82,14.82 95.51,-2.03 103.69,-45.3l-0.19 0.15zm347.83 -42.02c15.04,-1.66 30.08,-4.63 45.15,-4.78 39.9,-0.41 87.34,39.28 93.88,77.38 2.34,13.54 -2.68,23.65 -16.56,28.92 -31.3,11.85 -60.78,6.74 -88.33,-11.6 -3.31,-2.22 -6.4,-4.78 -10.46,-7.84 1.04,16.42 3.37,31.49 2.65,46.36 -3.12,62.82 -38.27,104.81 -96.56,126.81 -80.91,30.57 -161.09,26.95 -234.39,-22.9 -47.89,-32.58 -66.21,-79.63 -58.47,-135.6 0.44,-3.09 0.69,-6.21 1.03,-9.34 0.16,-1.74 0.32,-3.49 0.69,-7.27 -21.22,15.83 -43.91,22.79 -69.27,20.48 -3.25,-0.28 -6.52,-0.44 -9.67,-1.1 -32.48,-6.76 -42.27,-25.46 -25.28,-53.01 29.84,-48.36 62.31,-64.95 111.55,-54.19 1.78,0.37 3.65,0.09 6.77,0.12 -0.34,-3.02 -0.52,-5.86 -1.03,-8.64 -5.11,-29.18 7.93,-49.21 37.44,-58.1 3.69,-1.12 7.74,-3.28 9.99,-6.14 11.23,-24.34 21.31,-26.87 49.39,-26.21 20.63,-39.98 57.13,-42.35 86.37,-20.41 30.45,-11.89 57.28,-6.99 79.12,19.03 0.69,0.85 39.23,-11.26 59.66,35.33 40.31,11.04 40.96,47.11 26.3,72.91l-0.09 0.41 0.12 -0.62z"/>
   <path class="fil4" d="M678.71 188.19c1.55,2.5 3.24,4.96 4.9,7.37 4.21,6.23 8.29,12.23 10.6,18.87 2.5,7.18 5.84,13.45 10.02,19.13 4.21,5.71 9.26,10.85 15.16,15.85 10.8,9.05 22.31,14.89 34.45,17.91 12.14,3.03 25,3.27 38.38,1.12 5.39,-0.87 9.86,-2.24 13.35,-4.08 3.84,-2 6.49,-4.56 8.02,-7.62 1.53,-3.06 1.97,-6.67 1.19,-10.8 -0.69,-3.74 -2.32,-7.86 -4.87,-12.38 -15.26,-26.77 -32.54,-44.56 -53.88,-52.32 -21.04,-7.68 -46.15,-5.65 -77.32,6.95zm2.65 8.77c-1.9,-2.84 -3.87,-5.71 -5.71,-8.73l-0.78 -1.29 1.37 -0.55c32.49,-13.39 58.69,-15.58 80.69,-7.58 22.03,8.04 39.75,26.2 55.28,53.53 2.76,4.78 4.47,9.17 5.19,13.17 0.87,4.68 0.37,8.8 -1.41,12.36 -1.78,3.55 -4.84,6.49 -9.11,8.74 -3.77,1.98 -8.52,3.45 -14.19,4.36 -13.77,2.22 -26.96,1.97 -39.48,-1.15 -12.54,-3.15 -24.43,-9.18 -35.53,-18.47 -6.05,-5.09 -11.26,-10.43 -15.61,-16.32 -4.36,-5.9 -7.82,-12.39 -10.39,-19.78 -2.21,-6.34 -6.17,-12.2 -10.32,-18.29zm-239.84 -120.5c-13.61,-1.5 -23.03,-0.81 -30.77,3.34 -7.77,4.21 -14.07,12.05 -21.47,24.8l-0.28 0.51 -0.59 0.12c-15.41,3.12 -27.17,8.8 -34.51,16.44 -7.08,7.43 -9.98,16.79 -7.89,27.53 2.77,14.34 9.08,23.65 18.28,28.94 9.24,5.31 21.53,6.68 36.2,5.22l0.84 -0.1 0.47 0.72c7.29,12.07 15.97,20.38 26.2,23.84 10.24,3.46 22.16,2.15 36.07,-4.97l0.41 -0.18 0.4 0.03c5.78,0.84 11.14,1.97 16.16,3.03 10.17,2.12 18.89,3.93 26.56,2.28 7.8,-1.72 14.88,-7.18 22.31,-12.89 3.47,-2.65 6.99,-5.36 10.76,-7.83l0.63 -0.41 0.65 0.31c14.61,6.4 25.4,8.33 34.91,4.75 9.62,-3.65 18.1,-13.01 28.08,-29.18l0.94 -1.49 1.22 1.34c9.3,10.2 17.88,16.63 26.46,19.53 8.45,2.88 17,2.31 26.21,-1.49 7.77,-3.22 14.1,-8.78 18.31,-15.54 4.22,-6.8 6.33,-14.83 5.65,-22.97 -0.78,-9.46 -3.81,-17.06 -9.64,-22.96 -5.86,-5.93 -14.66,-10.24 -26.96,-13.01l-0.75 -0.16 -0.22 -0.72c-10.07,-30.45 -27.49,-30.35 -45.33,-30.26 -1.71,0.03 -3.4,0.03 -5.12,0.03l-0.37 -0.03 -0.32 -0.16c-6.61,-4.03 -11.57,-8.08 -15.97,-11.76 -13.17,-10.92 -21.75,-18.04 -59.68,-6.93l-0.69 0.19 -0.57 -0.44c-6.27,-5.05 -12.69,-8.8 -19.06,-11.13 -8.3,-3.1 -16.48,-3.82 -24.08,-2 -7.62,1.77 -14.7,6.11 -20.73,13.13 -4.39,5.12 -8.23,11.68 -11.35,19.69l-0.35 0.94 -1.02 -0.1zm-32.08 1.1c8.11,-4.37 17.69,-5.19 31.33,-3.78 3.14,-7.9 6.98,-14.38 11.41,-19.5 6.4,-7.46 13.95,-12.08 22.12,-13.98 8.15,-1.93 16.89,-1.18 25.69,2.06 6.45,2.4 12.95,6.15 19.28,11.14 38.72,-11.21 47.73,-3.74 61.47,7.68 4.27,3.49 9.05,7.45 15.34,11.29 1.57,0.03 3.16,0 4.69,0 18.72,-0.1 36.97,-0.19 47.67,31.39 12.45,2.9 21.44,7.36 27.59,13.57 6.27,6.36 9.51,14.47 10.38,24.52 0.72,8.7 -1.53,17.26 -6.02,24.47 -4.52,7.23 -11.3,13.16 -19.57,16.6 -9.85,4.05 -18.99,4.64 -28.14,1.55 -8.64,-2.92 -17.25,-9.17 -26.36,-18.97 -9.89,15.76 -18.6,24.96 -28.46,28.74 -10.13,3.84 -21.37,1.93 -36.29,-4.52 -3.45,2.31 -6.76,4.84 -9.98,7.33 -7.67,5.86 -14.97,11.48 -23.37,13.35 -8.27,1.81 -17.22,-0.06 -27.71,-2.28 -4.83,-1 -9.97,-2.08 -15.56,-2.9 -14.45,7.31 -26.96,8.62 -37.79,4.94 -10.7,-3.63 -19.69,-12.05 -27.24,-24.25 -14.81,1.4 -27.36,-0.13 -36.97,-5.65 -9.9,-5.71 -16.63,-15.54 -19.56,-30.7 -2.25,-11.61 0.87,-21.68 8.54,-29.73 7.59,-7.96 19.66,-13.82 35.33,-17.11 7.51,-12.91 14.01,-20.87 22.18,-25.26zm283.03 159.43l3.43 7.21 5.33 -2.4c10.87,27.05 6.77,59.06 -0.99,87.45 -7.77,28.3 -25.31,54.61 -53.55,73.6 -24.58,16.54 -50.76,26.5 -78.03,31.49 -27.24,4.99 -55.6,5.06 -84.58,1.78 -15.67,-1.75 -30.96,-4.93 -45.66,-9.77 -14.72,-4.86 -28.86,-11.35 -42.36,-19.68 -28.06,-17.36 -48.18,-40.66 -59.07,-67.37 -10.76,-26.43 -12.45,-56.16 -3.71,-86.7 4.27,-14.93 10.79,-29.15 17.34,-43.5 3,-6.58 6.03,-13.2 8.86,-19.91l0.45 -1.06 1.15 0.32c5.43,1.46 10.67,2.18 15.66,2.86 12.17,1.69 23.06,3.19 32.51,14.32 5.74,6.71 13.05,10.52 21.1,11.99 8.95,1.59 18.91,0.28 28.67,-3.21l0.59 -0.23c4.5,-1.59 10.3,-3.65 14.16,-1.9 13.02,5.93 24.85,7.58 35.76,5.09 10.92,-2.5 20.97,-9.21 30.33,-20l0.63 -0.72 0.9 0.34c13.11,5 25.21,6.02 36.19,2.94 10.9,-3.03 20.69,-10.05 29.36,-21.19l0.78 -1.03 1.06 0.78c8.56,6.39 17.32,10.86 26.84,12.54 9.51,1.69 19.87,0.63 31.63,-4.02l1.16 -0.47 0.53 1.12 15.2 31.89 8.33 17.44zm-5.84 -6.18l-4.9 -10.23 -14.63 -30.74c-11.79,4.47 -22.25,5.43 -31.92,3.75 -9.61,-1.71 -18.41,-6.08 -26.93,-12.26 -8.8,10.98 -18.81,18 -29.92,21.09 -11.29,3.12 -23.68,2.22 -37.03,-2.68 -9.58,10.79 -19.88,17.57 -31.14,20.12 -11.48,2.66 -23.93,0.9 -37.51,-5.24 -2.8,-1.31 -8.05,0.56 -12.1,2l-0.57 0.22c-10.19,3.61 -20.62,4.99 -30.1,3.31 -8.64,-1.53 -16.48,-5.66 -22.65,-12.89 -8.84,-10.36 -19.2,-11.76 -30.86,-13.39 -4.72,-0.66 -9.7,-1.34 -14.85,-2.65 -2.72,6.36 -5.59,12.67 -8.47,18.9 -6.51,14.33 -12.97,28.47 -17.18,43.16 -8.61,30.01 -7,59.19 3.58,85.12 10.68,26.17 30.45,49.05 58.04,66.08 13.29,8.23 27.27,14.63 41.78,19.41 14.51,4.8 29.61,7.96 45.05,9.67 28.77,3.25 56.85,3.19 83.81,-1.75 26.93,-4.93 52.73,-14.75 77,-31.07 27.71,-18.63 44.9,-44.43 52.51,-72.17 8.31,-30.14 5.31,-62.62 -7.8,-90.7l-3.24 -7.08 0.03 0.02zm-350.17 -17.22l12.3 -19.78 5.7 -9.24c-0.9,-0.62 -1.78,-1.27 -2.65,-1.93 -2.43,-1.81 -4.87,-3.62 -7.42,-4.5 -27.71,-9.35 -51.18,-8.85 -70.77,0.2 -20.56,9.51 -36.91,28.48 -49.46,55.47l0 0.04c-2.83,6.04 -3.18,10.85 -1.4,14.78 1.81,3.9 5.87,7.02 11.89,9.58 4.03,1.68 8.42,2.99 13.04,3.84 15.5,2.9 33.55,1 49.4,-5.34 15.78,-6.33 29.35,-17.06 35.97,-31.89 1.03,-2.3 1.9,-4.71 2.55,-7.2l-3.43 2.87 4.28 -6.9zm14.57 -18.44l-11.91 19.22c-0.79,4.06 -2,7.9 -3.6,11.48 -6.92,15.51 -21.03,26.68 -37.41,33.23 -16.32,6.55 -34.92,8.49 -50.89,5.53 -4.8,-0.91 -9.39,-2.25 -13.6,-4.06 -6.68,-2.81 -11.2,-6.36 -13.29,-10.89 -2.13,-4.62 -1.75,-10.14 1.4,-16.91 12.79,-27.55 29.58,-46.96 50.73,-56.72 20.22,-9.37 44.38,-9.9 72.73,-0.32 3.04,1.04 5.59,2.94 8.21,4.87 1.16,0.87 2.31,1.72 3.59,2.56l1.06 0.68 -0.65 1.04 -6.37 10.29zm336.88 -24.49c3.87,-0.47 7.67,-1 11.48,-1.53 10.36,-1.43 20.75,-2.87 31.21,-2.96 20.18,-0.22 42.24,9.66 60.09,24.33 18,14.86 31.79,34.67 35.1,54.14 1.25,7.18 0.5,13.45 -2.47,18.66 -2.9,4.99 -7.8,8.92 -14.91,11.64 -15.54,5.89 -30.64,7.64 -45.34,5.74 -15.25,-2.04 -30.01,-8.03 -44.24,-17.48 -10.36,-6.93 -8.42,-8.46 -7.08,6.39 0.94,10.71 1.87,20.97 1.37,31.15 -1.56,31.1 -10.89,57.16 -26.96,78.25 -16.66,21.87 -40.53,38.4 -70.45,49.7 -41.69,15.76 -83.21,22.46 -123.68,18.5 -38.5,-3.77 -76.04,-17.12 -111.95,-41.56 -23.81,-16.18 -40.37,-35.94 -50.11,-58.56 -10.05,-23.3 -12.89,-49.64 -8.92,-78.25 0.31,-2.25 0.53,-4.52 0.77,-6.77l0.25 -2.56 0.29 -2.99 0.12 -1.35c-9.95,7.11 -20.28,12.26 -31.07,15.51 -11.64,3.43 -23.85,4.61 -36.73,3.46 -0.81,-0.06 -1.52,-0.12 -2.25,-0.18 -2.52,-0.22 -5.05,-0.41 -7.54,-0.91l0 -0.03c-8.03,-1.65 -14.7,-4.06 -20.01,-7.11 -5.83,-3.44 -9.98,-7.68 -12.32,-12.7 -2.34,-5.03 -2.87,-10.8 -1.49,-17.23 1.18,-5.48 3.7,-11.45 7.66,-17.88 15.05,-24.4 30.8,-40.78 49.03,-49.76 18.28,-8.99 39.03,-10.48 63.95,-5.05 0.98,0.21 2.1,0.18 3.53,0.15l1.47 -0.03 -0.12 -1.41c-0.23,-1.96 -0.41,-3.86 -0.76,-5.77 -2.59,-14.88 -0.55,-27.45 5.9,-37.5 6.5,-10.05 17.38,-17.48 32.48,-22.03 1.84,-0.56 3.78,-1.4 5.53,-2.44 1.43,-0.9 2.74,-1.96 3.68,-3.12 5.74,-12.35 11.23,-19.24 18.93,-22.96 7.56,-3.61 17.01,-4.18 30.8,-3.86 2.65,-4.96 5.49,-9.37 8.55,-13.17 9.15,-11.46 20.1,-17.95 31.64,-20.16 11.54,-2.22 23.71,-0.18 35.29,5.49 4.06,1.97 8.05,4.4 11.89,7.24 15.23,-5.8 29.57,-7.48 42.9,-4.49 13.54,3.06 25.96,10.92 37.07,24.18 0.4,0.5 -0.04,-0.53 0.59,-0.6 8.11,-1.12 40.59,-5.61 59.03,35.66 4.81,1.38 9.05,3.1 12.76,5.1 11.02,5.93 17.5,14.38 20.56,23.9 3,9.42 2.6,19.91 -0.22,29.88 -1.31,4.59 -3.08,9.09 -5.3,13.33zm11.86 1.03c-4.72,0.65 -9.46,1.31 -14.16,1.81l-0.07 -0.63 -1.5 -0.28 0.12 -0.62 0.16 -0.9 0.38 -0.06c2.52,-4.53 4.52,-9.4 5.93,-14.36 2.71,-9.55 3.11,-19.54 0.25,-28.49 -2.84,-8.89 -8.96,-16.82 -19.26,-22.36 -3.71,-2 -7.98,-3.69 -12.82,-5.03l-0.66 -0.16 -0.24 -0.59c-17.57,-40.03 -48.67,-35.76 -56.41,-34.7 -1.57,0.25 -2.51,0.35 -3.06,-0.31l0 0c-10.71,-12.79 -22.63,-20.37 -35.6,-23.31 -12.95,-2.9 -27,-1.18 -42,4.69l-0.72 0.27 -0.59 -0.47c-3.93,-2.92 -7.96,-5.42 -12.11,-7.45 -11.01,-5.4 -22.56,-7.36 -33.5,-5.24 -10.96,2.09 -21.38,8.3 -30.08,19.22 -3.13,3.87 -6.03,8.36 -8.65,13.48l-0.38 0.68 -0.84 0c-13.82,-0.31 -23.21,0.12 -30.39,3.59 -7.11,3.43 -12.29,9.99 -17.75,21.87l-0.06 0.13 -0.13 0.12c-1.15,1.47 -2.71,2.75 -4.46,3.84 -1.94,1.16 -4.09,2.1 -6.15,2.71 -14.44,4.37 -24.87,11.46 -30.98,20.97 -6.14,9.49 -8.05,21.5 -5.59,35.7 0.38,1.96 0.57,3.93 0.79,5.95 0.09,0.85 0.19,1.72 0.27,2.78l0.2 1.44 -1.51 0c-1.21,-0.03 -2.08,-0.03 -2.86,0 -1.63,0.06 -2.9,0.09 -4.18,-0.19 -24.31,-5.3 -44.47,-3.87 -62.19,4.84 -17.75,8.7 -33.17,24.8 -47.95,48.8 -3.81,6.15 -6.25,11.85 -7.34,17.06 -1.24,5.9 -0.81,11.14 1.31,15.66 2.09,4.53 5.9,8.4 11.23,11.52 5.06,2.94 11.46,5.21 19.2,6.84 2.33,0.46 4.76,0.68 7.21,0.86l0.02 -0.02c0.78,0.08 1.59,0.15 2.28,0.22 12.51,1.12 24.37,0 35.69,-3.41 11.33,-3.37 22.16,-8.98 32.64,-16.81l2.44 -1.81 -0.28 2.96 -0.41 4.24c-0.1,1.03 -0.16,1.82 -0.28,3.03l-0.25 2.53c-0.25,2.27 -0.47,4.61 -0.78,6.86l0 0.03c-3.9,28.18 -1.16,54.05 8.7,76.91 9.58,22.19 25.84,41.53 49.2,57.44 35.51,24.12 72.62,37.38 110.65,41.09 40.06,3.94 81.18,-2.74 122.49,-18.34 29.43,-11.11 52.92,-27.36 69.27,-48.83 15.76,-20.72 24.93,-46.3 26.46,-76.85 0.5,-10.05 -0.44,-20.22 -1.41,-30.82 -0.37,-4.28 -3.49,-14.29 0.91,-16.51 1.19,0.91 2.5,1.91 3.74,2.93 2.35,1.78 4.4,3.4 6.62,4.87 13.89,9.23 28.27,15.07 43.09,17.03 14.22,1.88 28.89,0.16 44.03,-5.58 6.48,-2.49 10.95,-6.02 13.54,-10.52 2.64,-4.65 3.31,-10.39 2.18,-17 -3.22,-18.82 -16.63,-38.06 -34.2,-52.51 -17.38,-14.36 -38.81,-23.96 -58.35,-23.74 -10.26,0.09 -20.56,1.49 -30.85,2.93z"/>
   <path class="fil0 str1" d="M697.31 189.13c1.59,2.47 3.24,5.05 4.93,8.02 2.15,3.77 4.05,7.73 5.42,11.89 1.13,3.39 2.41,6.52 3.84,9.32l0.04 0c1.4,2.84 3.08,5.61 4.99,8.27l-0.03 0.03c1.84,2.56 3.93,5.12 6.24,7.58 2.34,2.53 4.93,4.99 7.61,7.34l0.04 0.03c4.86,4.21 9.95,7.7 15.22,10.48 5.21,2.78 10.55,4.84 15.91,6.17l0.03 0c5.52,1.41 11.2,2.16 16.94,2.29 5.94,0.12 12.08,-0.37 18.29,-1.44 2.15,-0.34 4.24,-0.87 6.24,-1.5 1.81,-0.59 3.3,-1.21 4.4,-1.8l0.06 -0.04c1.06,-0.59 2.06,-1.31 2.81,-2.06 0.56,-0.56 1.03,-1.15 1.31,-1.78 0.31,-0.68 0.53,-1.4 0.62,-2.18l0.03 0c0.07,-1 0.04,-2.15 -0.19,-3.37l-0.02 -0.03c-0.25,-1.34 -0.66,-2.81 -1.25,-4.43l0.03 0c-0.68,-1.78 -1.56,-3.65 -2.62,-5.59 -7.31,-13.32 -15.07,-24.37 -23.46,-32.94 -8.05,-8.18 -16.76,-14.14 -26.27,-17.69 -9.33,-3.47 -19.75,-4.72 -31.37,-3.59 -9.07,0.84 -18.99,3.18 -29.79,7.02zm-257.69 -112.04c-6.21,-0.66 -11.45,-0.85 -15.94,-0.38 -3.81,0.4 -7.06,1.38 -9.8,2.93l-0.04 -0.03c-2.84,1.62 -5.58,4.09 -8.39,7.49 -3.11,3.8 -6.36,8.86 -9.89,15.13l-0.06 0.1 -0.31 0.53 -2.12 3.68 -4.19 0.96 -0.59 0.13 -0.12 0.03c-6.96,1.47 -13.17,3.56 -18.41,6.18 -4.87,2.4 -8.86,5.3 -11.86,8.49 -2.65,2.9 -4.53,6.08 -5.49,9.45 -0.94,3.4 -1.09,7.21 -0.31,11.36 1.15,6.39 3.02,11.54 5.49,15.54 2.25,3.61 5.09,6.42 8.42,8.35 3.53,2.1 7.84,3.47 12.76,4.09l0.04 0.06c5.27,0.73 11.44,0.63 18.22,-0.12l0.03 0 0.87 -0.09 6.25 -0.69 3.21 5.46 0.43 0.78 -0.03 0c3.28,5.59 6.77,10.24 10.52,13.82l0.06 0c3.43,3.25 7.09,5.65 10.92,6.96 3.71,1.31 7.93,1.69 12.51,1.03 5.06,-0.68 10.68,-2.62 16.7,-5.87l0.06 -0.02 0.4 -0.19 2.71 -1.44 2.98 0.38 0.43 0.06 0.18 0.03c5.87,0.85 11.55,2.03 16.83,3.15l0.02 -0.03 0.25 0.03 0.06 0.03c4.88,1.06 9.43,2 13.61,2.47 3.46,0.43 6.61,0.47 9.36,-0.19l0 0.03c2.72,-0.62 5.58,-2.06 8.46,-3.93l0 -0.03c3.43,-2.21 6.96,-5.03 10.54,-7.89l0.12 -0.06c3.63,-2.91 7.37,-5.9 11.52,-8.72l0.03 0 0.53 -0.37 4.59 -3.21 4.99 2.34 0.68 0.31 0 0c6.66,2.97 12.27,4.9 17.1,5.61 4.12,0.57 7.74,0.29 10.96,-0.99 3.52,-1.38 7.05,-4.06 10.73,-8.05 4.21,-4.59 8.61,-10.86 13.41,-18.88l0.98 -1.59 6.86 -11.48 8.77 10.05 1.24 1.4 -0.02 0c4.29,4.9 8.39,8.86 12.32,11.85 3.61,2.75 7.11,4.74 10.48,5.9 3.06,1.06 6.18,1.5 9.33,1.29 3.31,-0.23 6.8,-1.16 10.51,-2.78l0 0.03c2.9,-1.25 5.66,-3.03 8.09,-5.15l0 0.03c2.46,-2.15 4.61,-4.75 6.3,-7.55 1.68,-2.78 2.96,-5.84 3.75,-9.02 0.71,-3.05 0.99,-6.27 0.74,-9.54 -0.31,-4.03 -1.06,-7.62 -2.25,-10.68l0 0c-1.15,-2.84 -2.74,-5.39 -4.8,-7.54 -2.15,-2.25 -5.05,-4.31 -8.62,-6.06l0.04 -0.03c-3.96,-1.94 -8.64,-3.55 -14.07,-4.81l-0.16 0 -0.78 -0.19 -5.21 -1.27 -1.69 -5.12 -0.25 -0.72 -0.02 -0.12c-7.99,-25.3 -22.25,-25.15 -36.86,-25l-0.15 0.04 -0.03 0 -0.03 -0.06 -5.06 0.06 -0.12 0.03 -0.37 0 -2.66 -0.03 -2.34 -1.41 -0.31 -0.22 -0.04 -0.02c-3.83,-2.37 -7.04,-4.69 -9.85,-6.87 -2.75,-2.15 -5.3,-4.3 -7.68,-6.4l0 0c-10.92,-9.36 -18.06,-15.41 -51.85,-5.05l-0.04 0 -0.71 0.22 -4.99 1.52 -4.06 -3.37 -0.57 -0.47c-2.8,-2.33 -5.64,-4.36 -8.39,-6.01l0 0c-2.71,-1.65 -5.52,-3 -8.23,-4.02 -3.4,-1.29 -6.77,-2.1 -9.95,-2.35 -3.13,-0.25 -6.15,-0.03 -8.96,0.66 -2.84,0.71 -5.68,1.96 -8.36,3.71 -2.69,1.78 -5.31,4.15 -7.74,7.08l-0.04 0.03c-1.86,2.25 -3.67,4.94 -5.36,7.93 -1.68,3.02 -3.28,6.43 -4.67,10.17l-0.38 1 -2.66 6.98 -7.45 -0.77 -1.06 -0.09zm241.18 154.31l-3.96 -8.73 -11.2 -24.47c-3.68,1 -7.3,1.72 -10.83,2.12 -6.42,0.76 -12.54,0.57 -18.34,-0.46 -5.78,-1.03 -11.33,-2.87 -16.6,-5.4l-0.07 -0.03c-2.49,-1.18 -4.96,-2.56 -7.39,-4.02 -3.33,3.49 -6.84,6.61 -10.48,9.26 -6.06,4.43 -12.52,7.68 -19.28,9.64 -6.87,2 -14.05,2.72 -21.5,2.22 -5.27,-0.38 -10.68,-1.37 -16.16,-3 -4.12,4.25 -8.43,7.87 -12.86,10.86 -6.27,4.25 -12.89,7.18 -19.72,8.83 -7.05,1.72 -14.39,2.03 -22.03,0.97 -7.17,-0.97 -14.57,-3.24 -22.18,-6.74l0.06 0.31c0.09,0.07 0.09,0.09 0.03,0.13l-0.06 0c-1.37,0.31 -3.58,1.12 -5.46,1.84l-0.04 0 -0.55 0.18 0 0.04c-6.06,2.24 -12.23,3.8 -18.32,4.52l0 -0.03c-6.02,0.72 -11.95,0.62 -17.6,-0.38 -5.62,-0.99 -11.01,-2.93 -16,-5.83l0 -0.03c-4.75,-2.81 -9.14,-6.46 -12.92,-11.05 -3.21,-3.93 -6.71,-6.17 -10.46,-7.54l0 0.02c-4.39,-1.59 -9.48,-2.31 -14.85,-3.02l-0.37 -0.06c-2.49,-0.35 -5.06,-0.72 -7.67,-1.16l-1.19 2.75 -0.06 0.12 -4.43 9.99 0 0.02c-3.25,7.34 -6.52,14.67 -9.64,22.41l-0.04 0c-2.96,7.36 -5.64,14.72 -7.7,21.99 -4.12,14.74 -5.87,29.3 -5.4,43.25 0.53,14.2 3.37,27.86 8.33,40.66 5.02,12.85 12.26,24.92 21.53,35.85 9.2,10.86 20.5,20.65 33.66,29.04l0.04 0.04c6.21,3.98 12.76,7.61 19.53,10.8l0.03 0.02c6.74,3.21 13.7,6.05 20.94,8.46 7.05,2.37 14.16,4.33 21.34,5.86 7.42,1.63 15.04,2.88 22.71,3.69 14.3,1.58 28.46,2.31 42.28,2.05 13.76,-0.31 27.33,-1.65 40.53,-4.24l0.03 0c13.07,-2.53 25.99,-6.34 38.57,-11.57 12.54,-5.19 24.77,-11.83 36.63,-20.13 12.86,-8.95 23.36,-19.57 31.57,-31.2 8.7,-12.35 14.95,-25.96 18.72,-40 3.99,-14.76 5.37,-30.17 4.15,-45.3 -1.18,-15.29 -4.92,-30.3 -11.11,-44.13l-3.3 -7.45 -0.91 -1.97zm-212.6 -8.95l-0.1 -0.03 0.07 0.25 0.09 0.09 -0.06 -0.31zm-0.1 -0.03l-0.43 -0.22c-0.63,-0.28 0.12,0.18 0.5,0.47l-0.07 -0.25zm-143.99 -14.38l12.67 -21 1.27 -2.12 -0.53 -0.22 0 0c-12.91,-4.43 -24.8,-6.56 -35.6,-6.46 -10.66,0.06 -20.5,2.31 -29.35,6.62 -9.18,4.39 -17.54,11.1 -25.06,19.77 -7.61,8.84 -14.41,19.75 -20.34,32.49l0 0.09 -0.87 1.87c-0.98,2.19 -1.57,4.05 -1.72,5.56 -0.06,0.9 0.03,1.61 0.25,2.14l0 0c0.25,0.6 0.87,1.29 1.71,2l0 0.04c1.31,1.09 3.15,2.11 5.4,3.09l0 0c1.5,0.65 3.24,1.3 5.24,1.86l0.07 0.06c2.02,0.61 3.99,1.1 5.92,1.45 6.96,1.3 14.58,1.49 22.32,0.59l0 -0.04c7.73,-0.9 15.5,-2.9 22.71,-5.89 5.9,-2.5 11.48,-5.68 16.38,-9.55l15.13 -25.02 4.4 -7.33zm383.09 -54.17c4.24,-0.62 8.27,-1.22 11.63,-1.59 5.44,-0.63 11.05,-1.06 16.92,-1.16l0.03 0c11.39,-0.18 23.22,2.44 34.54,7.15l0 0c11.76,4.86 23.15,12.05 33.23,20.59 10.17,8.64 19.13,18.85 25.89,29.67 6.59,10.55 11.24,21.91 13.05,33.27 0.78,4.77 0.88,9.29 0.34,13.5l-0.06 0.06c-0.59,4.43 -1.97,8.62 -4.02,12.39l0 0.03c-2.1,3.72 -4.94,7.09 -8.46,9.96l0 0c-3.28,2.68 -7.21,4.96 -11.76,6.77 -8.59,3.4 -17.17,5.67 -25.62,6.8 -8.67,1.16 -17.22,1.18 -25.59,0.09l-0.03 0c-8.51,-1.09 -16.91,-3.36 -25.11,-6.67l-0.03 0c-5.34,-2.15 -10.61,-4.78 -15.82,-7.83 0.24,3.33 0.49,6.58 0.62,9.64 0.28,5.74 0.38,11.45 0.07,17.22 -0.94,17.22 -3.9,33.07 -8.8,47.55 -5.03,14.95 -12.15,28.52 -21.06,40.62 -9.09,12.29 -20.13,23.16 -32.92,32.51 -12.83,9.4 -27.46,17.32 -43.68,23.75 -22.28,8.76 -44.59,15.1 -66.68,18.6 -21.69,3.46 -43.25,4.3 -64.44,2.27 -20.77,-2 -41.31,-6.74 -61.46,-14.38 -19.5,-7.43 -38.75,-17.63 -57.54,-30.77 -12.72,-8.92 -23.59,-18.9 -32.57,-29.76l0.03 0c-9.2,-11.17 -16.44,-23.28 -21.78,-36.16 -5.4,-13.1 -8.89,-27.09 -10.38,-41.65 -1.38,-12.89 -1.22,-26.43 0.33,-40.44 -5.49,2.8 -11.23,5.17 -17.09,7.01 -6.62,2.06 -13.39,3.47 -20.25,4.19 -6.9,0.69 -13.95,0.75 -21.09,0.12l-2.31 -0.21 -3.84 -0.32 -0.25 -0.03c-1.53,-0.16 -3.12,-0.4 -4.81,-0.75l-7.8 -1.68 0 -0.28c-1.68,-0.51 -3.24,-1.04 -4.74,-1.57 -3.99,-1.46 -7.62,-3.15 -10.85,-5.08 -3.75,-2.28 -7.02,-4.87 -9.68,-7.67 -2.84,-3.03 -5.12,-6.4 -6.74,-10.05l-0.03 -0.03c-1.62,-3.68 -2.65,-7.62 -2.97,-11.79l0.04 0c-0.32,-3.9 0,-8.06 0.88,-12.36l0.02 -0.03c0.72,-3.47 1.88,-7.11 3.47,-10.89 1.49,-3.62 3.4,-7.33 5.61,-11.01 8.14,-13.58 16.51,-25 25.31,-34.27 9.01,-9.54 18.65,-16.97 29.02,-22.27 10.54,-5.37 21.74,-8.58 33.85,-9.58 9.42,-0.82 19.4,-0.29 29.98,1.47 -0.72,-6.93 -0.62,-13.48 0.34,-19.63 1.25,-7.96 3.94,-15.2 7.96,-21.65l0.03 -0.04c4.02,-6.39 9.39,-12.01 16.04,-16.69l-0.03 0c6.37,-4.49 13.91,-8.11 22.62,-10.86l0 0c0.56,-0.18 1.19,-0.43 1.78,-0.68l0.03 -0.03 1.53 -0.84 0 0 0.87 -0.66c3.06,-6.49 6.15,-11.8 9.58,-16.13 4.03,-5.09 8.52,-8.8 13.7,-11.42l0.03 0c4.93,-2.47 10.33,-3.9 16.56,-4.62l0.04 0c4.12,-0.46 8.61,-0.66 13.57,-0.69l1.72 -2.81 -0.03 -0.02c1.55,-2.5 3.3,-4.97 5.14,-7.37 5.25,-6.77 11.08,-12.16 17.28,-16.28l0 0c6.62,-4.41 13.68,-7.31 20.95,-8.77 7.01,-1.41 14.19,-1.53 21.28,-0.44 7.11,1.09 14.26,3.47 21.06,6.9l0 0.02c2.43,1.22 4.77,2.51 6.98,3.9l2.25 1.51c6.78,-2.37 13.54,-4 20.16,-4.75l0 -0.06c8.39,-0.97 16.56,-0.6 24.46,1.18l0.03 0.06c8.12,1.85 15.88,5.22 23.24,10.15l0.04 0c5.49,3.71 10.82,8.33 15.88,13.91 6.05,-0.65 15.73,-0.87 26.45,2.87 13.05,4.52 27.37,14.73 37.85,36.76l3.5 1.28 0.03 0.03c2.47,1 4.86,2.19 7.15,3.43l0 -0.03c6.49,3.59 11.76,8.05 15.91,13.01l0.03 0c4.49,5.43 7.64,11.49 9.58,17.85 1.74,5.74 2.52,11.86 2.46,18.03l0 0.03c-0.09,6.27 -1.03,12.55 -2.65,18.6z"/>
   <path class="fil0" d="M692.99 192.75c1.59,2.34 3.19,4.77 4.84,7.61 2.12,3.59 4.02,7.33 5.39,11.26 1.13,3.22 2.41,6.15 3.81,8.83l0 0c1.4,2.68 3.09,5.3 4.93,7.83l-0.03 0.04c1.81,2.43 3.87,4.84 6.14,7.21 2.31,2.39 4.84,4.74 7.5,6.95l0.02 0.03c4.78,3.99 9.78,7.33 14.92,9.99 5.11,2.65 10.32,4.61 15.57,5.92l0.06 0c5.4,1.37 10.95,2.09 16.57,2.25 5.77,0.16 11.8,-0.28 17.88,-1.28 2.09,-0.31 4.11,-0.81 6.05,-1.4 1.78,-0.53 3.25,-1.1 4.34,-1.69l0.03 -0.03c1.06,-0.56 2,-1.22 2.75,-1.91 0.52,-0.53 0.96,-1.12 1.27,-1.68 0.29,-0.65 0.51,-1.34 0.6,-2.06l0 0c0.09,-0.96 0.03,-2.02 -0.19,-3.18l-0.04 -0.03c-0.21,-1.24 -0.65,-2.69 -1.21,-4.21l0.03 0c-0.68,-1.65 -1.56,-3.44 -2.62,-5.3 -7.17,-12.61 -14.85,-23.12 -23.08,-31.24 -7.9,-7.77 -16.45,-13.45 -25.78,-16.85 -9.14,-3.34 -19.31,-4.56 -30.64,-3.56 -8.89,0.76 -18.57,2.94 -29.11,6.5zm-252.42 -107.21c-6.08,-0.65 -11.23,-0.81 -15.57,-0.38 -3.75,0.38 -6.89,1.22 -9.61,2.69l0 0c-2.78,1.53 -5.46,3.8 -8.17,7.05 -3.06,3.59 -6.18,8.3 -9.62,14.23l-0.02 0.09 -0.31 0.47 -2.06 3.53 -4.06 0.87 -0.62 0.13 -0.1 0c-6.8,1.37 -12.85,3.3 -18,5.76 -4.71,2.25 -8.61,4.96 -11.51,7.96 -2.59,2.72 -4.41,5.74 -5.31,8.93 -0.9,3.21 -1.03,6.8 -0.28,10.72 1.16,6.03 3.02,10.93 5.46,14.7 2.21,3.44 5.03,6.09 8.27,7.96 3.46,1.99 7.67,3.31 12.48,3.93l0.06 0.06c5.15,0.69 11.17,0.63 17.79,-0.02l0.03 0 0.87 -0.1 6.11 -0.66 3.13 5.21 0.43 0.72 0 0.04c3.22,5.29 6.65,9.72 10.33,13.09l0.06 0c3.35,3.13 6.93,5.37 10.7,6.66 3.66,1.21 7.74,1.61 12.24,1.02 4.96,-0.62 10.41,-2.43 16.29,-5.46l0.06 -0.03 0.37 -0.19 2.68 -1.34 2.87 0.38 0.44 0.06 0.18 0.03c5.72,0.81 11.31,1.97 16.48,3.06l0 -0.03 0.25 0.06 0.06 0.03c4.75,0.97 9.21,1.94 13.33,2.41 3.37,0.37 6.46,0.43 9.14,-0.16l0 0.03c2.65,-0.59 5.46,-1.97 8.27,-3.71l-0.03 0c3.33,-2.09 6.8,-4.72 10.29,-7.4l0.1 -0.09c3.52,-2.72 7.17,-5.52 11.23,-8.18l0 0 0.53 -0.31 4.46 -3.03 4.9 2.25 0.68 0.28 0 0c6.49,2.84 12.02,4.68 16.73,5.37 4.02,0.59 7.55,0.34 10.73,-0.84 3.44,-1.31 6.83,-3.84 10.42,-7.58 4.12,-4.31 8.4,-10.21 13.05,-17.79l0.94 -1.5 6.64 -10.79 8.64 9.51 1.18 1.34 0 0c4.22,4.65 8.25,8.39 12.09,11.27 3.55,2.62 6.98,4.52 10.29,5.64 2.99,1 6.02,1.41 9.11,1.22 3.21,-0.18 6.64,-1.06 10.26,-2.53l0 0.04c2.84,-1.19 5.53,-2.88 7.9,-4.88l0 0.04c2.4,-2.03 4.46,-4.46 6.11,-7.11 1.63,-2.59 2.87,-5.49 3.59,-8.49 0.69,-2.87 0.97,-5.96 0.69,-9.01 -0.32,-3.84 -1.06,-7.25 -2.25,-10.11l0 0c-1.12,-2.72 -2.68,-5.12 -4.71,-7.19 -2.12,-2.12 -4.96,-4.08 -8.45,-5.76l0.03 0c-3.87,-1.88 -8.46,-3.41 -13.8,-4.63l-0.12 0 -0.75 -0.18 -5.11 -1.22 -1.69 -4.87 -0.22 -0.68 -0.06 -0.12c-7.92,-23.94 -21.84,-23.87 -36.14,-23.81l-0.15 0.06 -0.03 -0.04 0 -0.02 -4.96 0 -0.13 0.06 -0.37 0 -2.59 -0.06 -2.27 -1.35 -0.35 -0.18 -0.03 -0.03c-3.75,-2.28 -6.93,-4.47 -9.67,-6.55 -2.69,-2.04 -5.18,-4.12 -7.53,-6.09l0 0c-10.7,-8.9 -17.71,-14.66 -50.69,-5.02l-0.04 0 -0.68 0.22 -4.9 1.4 -3.96 -3.19 -0.57 -0.46c-2.78,-2.22 -5.52,-4.15 -8.23,-5.75l0 0c-2.66,-1.55 -5.37,-2.83 -8.05,-3.83 -3.34,-1.22 -6.65,-1.99 -9.77,-2.24 -3.06,-0.28 -5.99,-0.07 -8.73,0.56 -2.82,0.65 -5.56,1.84 -8.15,3.49 -2.65,1.65 -5.18,3.87 -7.52,6.65l-0.06 0.03c-1.81,2.08 -3.55,4.61 -5.21,7.45 -1.63,2.84 -3.16,6.06 -4.53,9.62l-0.34 0.9 -2.58 6.61 -7.27 -0.77 -1.04 -0.13zm236.51 147.11l-3.94 -8.27 -11.04 -23.24c-3.62,0.96 -7.14,1.63 -10.61,2 -6.27,0.68 -12.23,0.47 -17.91,-0.53 -5.65,-1 -11.07,-2.78 -16.25,-5.19l-0.06 -0.02c-2.47,-1.16 -4.87,-2.47 -7.28,-3.88 -3.24,3.31 -6.64,6.25 -10.17,8.72 -5.9,4.17 -12.19,7.19 -18.81,9.01 -6.68,1.87 -13.7,2.53 -21,2 -5.15,-0.37 -10.42,-1.35 -15.82,-2.9 -4.02,3.98 -8.21,7.39 -12.51,10.19 -6.11,3.97 -12.54,6.74 -19.22,8.27 -6.87,1.59 -14.07,1.84 -21.53,0.82 -7.02,-0.97 -14.29,-3.15 -21.71,-6.5l0.06 0.29c0.06,0.06 0.06,0.09 0.03,0.12l-0.09 0c-1.35,0.28 -3.47,1.06 -5.31,1.72l-0.03 0 -0.54 0.18 0 0c-5.92,2.13 -11.94,3.56 -17.87,4.21l0 -0.06c-5.9,0.69 -11.7,0.57 -17.22,-0.43 -5.49,-0.97 -10.76,-2.81 -15.66,-5.56l0 -0.06c-4.68,-2.65 -8.99,-6.15 -12.68,-10.48 -3.17,-3.75 -6.6,-5.9 -10.26,-7.21l-0.03 0.06c-4.27,-1.56 -9.26,-2.24 -14.51,-2.96l-0.37 -0.06c-2.44,-0.35 -4.93,-0.69 -7.53,-1.12l-1.12 2.58 -0.06 0.1 -4.27 9.45 0 0.03c-3.15,6.93 -6.31,13.82 -9.33,21.13l-0.03 0c-2.87,6.95 -5.43,13.88 -7.39,20.75 -4,13.91 -5.62,27.63 -5.09,40.84 0.59,13.42 3.4,26.36 8.36,38.5 4.96,12.13 12.07,23.61 21.22,34.01 9.01,10.29 20.12,19.6 33.04,27.58l0 0.06c6.11,3.78 12.54,7.24 19.16,10.3l0.02 0.03c6.59,3.06 13.46,5.77 20.5,8.08 6.9,2.25 13.89,4.15 20.91,5.65 7.27,1.56 14.73,2.78 22.22,3.58 13.97,1.59 27.8,2.35 41.34,2.13 13.44,-0.19 26.67,-1.4 39.6,-3.75l0.02 0c12.76,-2.34 25.37,-5.86 37.64,-10.76 12.23,-4.86 24.18,-11.08 35.72,-18.87 12.51,-8.4 22.75,-18.38 30.7,-29.37 8.45,-11.64 14.48,-24.43 18.13,-37.69 3.8,-13.91 5.05,-28.49 3.8,-42.81 -1.21,-14.48 -4.99,-28.67 -11.07,-41.77l-3.27 -7.06 -0.88 -1.84zm-207.86 -9.52l-0.1 -0.02 0.06 0.21 0.1 0.1 -0.06 -0.29zm-0.1 -0.02l-0.43 -0.22c-0.63,-0.25 0.12,0.16 0.49,0.43l-0.06 -0.21zm-140.81 -14.29l12.26 -19.79 1.25 -1.99 -0.53 -0.22 0 -0.04c-12.64,-4.23 -24.28,-6.29 -34.79,-6.29 -10.48,0.02 -20.06,2.12 -28.7,6.14 -8.96,4.12 -17.1,10.39 -24.4,18.57 -7.4,8.33 -13.98,18.59 -19.75,30.64l0 0.06 -0.82 1.75c-0.94,2.09 -1.49,3.86 -1.62,5.27 -0.09,0.84 0,1.53 0.22,2.03l0 0c0.28,0.56 0.87,1.22 1.72,1.9l-0.04 0.03c1.29,1 3.09,2 5.31,2.93l0 0.03c1.47,0.6 3.19,1.23 5.11,1.78l0.1 0.04c1.96,0.59 3.9,1.05 5.77,1.4 6.81,1.28 14.29,1.46 21.81,0.65l0 -0.03c7.55,-0.81 15.17,-2.65 22.19,-5.46 5.77,-2.31 11.2,-5.3 15.94,-8.92l14.66 -23.59 4.31 -6.89zm374.2 -49.37c4.12,-0.56 8.08,-1.09 11.35,-1.43 5.31,-0.56 10.8,-0.97 16.51,-1.03l0.06 0c11.14,-0.09 22.65,2.43 33.79,6.92l0 0.04c11.52,4.65 22.69,11.48 32.58,19.62 9.98,8.21 18.78,17.91 25.45,28.18 6.5,10.01 11.09,20.78 12.93,31.48 0.77,4.53 0.9,8.83 0.37,12.79l-0.03 0.03c-0.57,4.21 -1.88,8.15 -3.9,11.7l0 0.03c-2.03,3.53 -4.78,6.68 -8.21,9.39l0 0c-3.18,2.53 -7.02,4.62 -11.45,6.31 -8.4,3.18 -16.75,5.31 -24.99,6.33 -8.49,1.06 -16.85,1.03 -25.03,-0.03l-0.06 0c-8.3,-1.09 -16.5,-3.28 -24.55,-6.42l-0.04 -0.04c-5.21,-2.06 -10.38,-4.55 -15.5,-7.48 0.25,3.17 0.49,6.23 0.65,9.13 0.31,5.41 0.41,10.83 0.13,16.3 -0.78,16.25 -3.62,31.23 -8.33,44.89 -4.87,14.11 -11.71,26.9 -20.41,38.31 -8.8,11.58 -19.56,21.79 -32.01,30.59 -12.48,8.79 -26.77,16.22 -42.59,22.21 -21.75,8.18 -43.49,14.04 -65.05,17.25 -21.22,3.15 -42.28,3.84 -63,1.84 -20.31,-1.99 -40.4,-6.58 -60.13,-13.88 -19.12,-7.11 -37.97,-16.88 -56.37,-29.39 -12.52,-8.49 -23.19,-17.98 -32.02,-28.27l0.04 -0.03c-9.09,-10.57 -16.2,-22.06 -21.48,-34.29 -5.36,-12.42 -8.82,-25.62 -10.38,-39.41 -1.38,-12.19 -1.31,-24.99 0.15,-38.22 -5.36,2.62 -10.91,4.83 -16.69,6.55 -6.43,1.9 -13.04,3.22 -19.75,3.84 -6.74,0.63 -13.64,0.65 -20.62,0.03l-2.29 -0.22 -3.74 -0.34 -0.22 0c-1.49,-0.19 -3.09,-0.41 -4.74,-0.74l-7.58 -1.63 -0.03 -0.28c-1.62,-0.47 -3.18,-0.97 -4.65,-1.46 -3.9,-1.41 -7.43,-3.04 -10.61,-4.9 -3.71,-2.13 -6.86,-4.62 -9.52,-7.31 -2.77,-2.87 -5.02,-6.05 -6.6,-9.52l-0.04 -0.02c-1.62,-3.47 -2.62,-7.21 -2.96,-11.15l0.02 -0.02c-0.33,-3.72 -0.06,-7.62 0.82,-11.68l0 -0.02c0.69,-3.25 1.81,-6.72 3.34,-10.27 1.46,-3.43 3.31,-6.93 5.42,-10.39 7.9,-12.79 16.01,-23.56 24.56,-32.26 8.8,-8.99 18.16,-15.95 28.27,-20.94 10.27,-5.02 21.22,-7.96 33.04,-8.89 9.24,-0.72 18.97,-0.15 29.36,1.56 -0.78,-6.55 -0.68,-12.76 0.22,-18.54 1.18,-7.51 3.78,-14.38 7.64,-20.43l0.04 -0.03c3.93,-6.06 9.14,-11.33 15.6,-15.73l0 0c6.17,-4.21 13.54,-7.61 22.03,-10.17l0 0.03c0.56,-0.15 1.15,-0.41 1.72,-0.66l0.06 -0.02 1.49 -0.79 0 0 0.84 -0.59c2.97,-6.15 5.93,-11.14 9.3,-15.22 3.9,-4.81 8.24,-8.27 13.33,-10.7l0.02 0c4.81,-2.31 10.09,-3.66 16.17,-4.31l0.03 0c4.02,-0.41 8.39,-0.59 13.26,-0.56l1.66 -2.69 -0.04 0c1.53,-2.37 3.21,-4.68 5.03,-6.96 5.05,-6.36 10.76,-11.44 16.81,-15.28l-0.03 -0.04c6.46,-4.08 13.32,-6.8 20.44,-8.17 6.83,-1.31 13.88,-1.37 20.81,-0.31 6.96,1.09 13.92,3.34 20.63,6.64l0 0c2.37,1.16 4.64,2.44 6.83,3.75l2.18 1.4c6.64,-2.18 13.23,-3.68 19.72,-4.39l0 -0.04c8.18,-0.87 16.16,-0.47 23.87,1.25l0.06 0.03c7.92,1.82 15.57,5.03 22.75,9.7l0.03 0c5.43,3.56 10.64,7.96 15.6,13.26 5.93,-0.59 15.38,-0.74 25.93,2.81 12.72,4.37 26.8,14.1 37.16,34.95l3.4 1.25 0.03 0.03c2.43,0.93 4.78,2.05 6.99,3.25l0 0c6.37,3.39 11.54,7.64 15.63,12.38l0.03 -0.03c4.43,5.15 7.52,10.92 9.46,16.94 1.71,5.43 2.53,11.21 2.49,17.07l0 0.03c-0.06,5.9 -0.94,11.86 -2.49,17.53z"/>
   <path class="fil2" d="M695.11 194.08c48.3,-20.19 77.76,-6.65 100.95,34.5 8.58,15.23 3.43,25.16 -13.99,28 -20.46,3.33 -39.13,-0.76 -55.57,-14.73 -9.01,-7.65 -15.41,-15.91 -19.25,-27.02 -2.46,-7.21 -7.77,-13.51 -12.14,-20.75z"/>
   <path class="fil3" d="M695.11 194.08l1.13 2.46c15.01,-6.27 27.99,-9.17 39.35,-9.01 12.35,0.18 22.8,3.84 32.29,10.86 9.45,7.07 17.93,17.59 25.73,31.48 2.6,4.59 3.75,8.51 3.72,11.57 -0.03,3.31 -1.19,5.68 -3.65,7.8 -2.46,2.09 -6.49,3.78 -12.1,4.68 -4.62,0.75 -9.11,1.13 -13.48,1.06 -14.45,-0.22 -27.59,-4.8 -39.78,-15.13 -8.74,-7.46 -14.77,-15.23 -18.42,-25.87 -2.71,-7.86 -8.2,-14.22 -12.38,-21.24l-2.41 1.34 1.13 2.46 -1.13 -2.46 -2.39 1.34c4.52,7.46 9.7,13.67 11.91,20.21 3.96,11.62 10.76,20.38 20.03,28.24 13.08,11.11 27.78,16.3 43.4,16.48 4.74,0.06 9.58,-0.32 14.48,-1.12 6.27,-1.04 11.23,-2.94 14.82,-5.9 3.59,-2.96 5.56,-7.15 5.52,-11.8 0.04,-4.36 -1.49,-9.07 -4.39,-14.22 -8.05,-14.29 -16.91,-25.46 -27.28,-33.17 -10.29,-7.67 -22.14,-11.82 -35.6,-11.98 -12.41,-0.16 -26.14,2.96 -41.62,9.45l-2.86 1.19 1.59 2.62 2.39 -1.34z"/>
   <path class="fil0" d="M718.62 195.58c-3.24,0.75 -6.61,1.66 -10.11,2.84 2.75,4.19 5.36,8.49 7.14,13.57l0.04 0c1.61,4.75 3.77,8.9 6.45,12.55l0 0c2.72,3.77 6.09,7.24 10.11,10.67 5.53,4.68 11.3,8.08 17.23,10.29 5.89,2.22 12.14,3.31 18.59,3.37l0.06 0.04c1.88,0 3.9,-0.1 6.09,-0.25l0.06 0c2.22,-0.16 4.37,-0.44 6.31,-0.75 2.31,-0.37 4.3,-0.9 5.92,-1.53 1.37,-0.53 2.53,-1.16 3.25,-1.78 0.53,-0.47 0.94,-0.94 1.15,-1.41 0.22,-0.46 0.34,-1.08 0.34,-1.84 -0.02,-0.9 -0.24,-2.08 -0.65,-3.43l0 0c-0.47,-1.47 -1.25,-3.18 -2.31,-5.08 -3.74,-6.65 -7.61,-12.48 -11.64,-17.42 -3.96,-4.83 -8.11,-8.92 -12.44,-12.13l0.02 0c-4.24,-3.15 -8.66,-5.52 -13.38,-7.11 -4.74,-1.63 -9.86,-2.5 -15.32,-2.56 -5.18,-0.07 -10.86,0.56 -16.91,1.96zm-31.14 2.97l-3.24 -5.37 0 -0.03 -1.94 -3.24 6.49 -2.75 2.87 -1.19c8.02,-3.37 15.69,-5.9 22.94,-7.52 7.39,-1.68 14.41,-2.46 21.06,-2.4 7.33,0.09 14.25,1.28 20.75,3.46 6.58,2.19 12.72,5.5 18.44,9.74l0.02 0c5.56,4.18 10.77,9.26 15.58,15.16 4.74,5.84 9.2,12.52 13.34,19.94 1.63,2.84 2.94,5.71 3.82,8.55 0.9,2.96 1.4,5.86 1.4,8.61 0,3.21 -0.69,6.34 -2,9.14 -1.3,2.78 -3.28,5.31 -5.74,7.37l-0.03 0c-2.34,1.9 -5.05,3.46 -8.01,4.64l-0.08 0c-2.86,1.12 -6.07,2 -9.6,2.59l-0.04 0c-2.77,0.41 -5.42,0.78 -7.76,0.94 -2.47,0.19 -5.09,0.28 -7.74,0.25 -8.64,-0.06 -17.13,-1.62 -25.14,-4.65 -7.74,-2.93 -15.2,-7.33 -22.16,-13.29 -4.99,-4.21 -9.33,-8.76 -12.98,-13.76 -3.68,-5.09 -6.68,-10.73 -8.86,-17.13l0 0c-1.22,-3.65 -3.93,-7.67 -6.81,-11.98l0 0 -1.39 -2.12 -0.16 0.09 -2.44 -4.09 -0.59 -0.96z"/>
   <path class="fil2" d="M246.86 250.51c-10.39,-1.99 -13.14,-10.08 -8.58,-19.81 18.97,-40.5 49.26,-57.56 93.23,-42.81 3.15,1.06 5.77,3.56 8.76,5.53 -4.98,8.01 -37.15,67.95 -93.41,57.09z"/>
   <path class="fil5" d="M246.86 250.51l0.53 -2.65c-3.15,-0.59 -5.21,-1.78 -6.49,-3.18 -1.28,-1.44 -1.97,-3.22 -1.94,-5.55 0,-2.1 0.59,-4.59 1.88,-7.31 7.14,-15.32 15.88,-27.02 26.2,-34.85 10.33,-7.8 22.22,-11.8 36.14,-11.64 8.36,0.13 17.5,1.75 27.43,5.09 2.33,0.72 4.86,3.06 8.13,5.21l1.53 -2.21 -2.37 -1.41c-1.22,1.94 -3.77,6.43 -7.7,12.23 -5.93,8.67 -14.95,20.1 -26.83,29.21 -11.89,9.11 -26.55,15.87 -43.93,15.69 -3.88,-0.06 -7.9,-0.47 -12.05,-1.28l-0.53 2.65 -0.53 2.62c4.53,0.88 8.89,1.31 13.11,1.38 25.33,0.31 45.05,-12.99 58.87,-27.02 6.96,-7.05 12.45,-14.3 16.53,-20.26 4.06,-5.95 6.74,-10.7 7.8,-12.42l1.38 -2.21 -2.22 -1.43c-2.71,-1.69 -5.39,-4.43 -9.42,-5.84 -10.39,-3.49 -20.13,-5.27 -29.2,-5.36 -15.07,-0.23 -28.4,4.24 -39.6,12.76 -11.23,8.51 -20.4,20.99 -27.83,36.82 -1.53,3.27 -2.33,6.49 -2.37,9.51 0,3.4 1.06,6.62 3.33,9.14 2.29,2.5 5.59,4.18 9.62,4.93l0.53 -2.62z"/>
   <path class="fil0" d="M246.52 240.55c0.47,0.25 1.21,0.49 2.09,0.65 1.94,0.38 3.84,0.66 5.59,0.84 1.93,0.19 3.74,0.31 5.33,0.31l0 0c7.74,0.13 14.91,-1.37 21.5,-3.9 6.68,-2.55 12.76,-6.23 18.22,-10.38 5.56,-4.25 10.48,-9.08 14.69,-13.89 4.19,-4.75 7.78,-9.57 10.64,-13.76l2.66 -4c-4.15,-1.37 -8.24,-2.37 -12.04,-3.08 -4.31,-0.82 -8.37,-1.21 -12.11,-1.25 -6.18,-0.1 -11.92,0.81 -17.25,2.53 -5.25,1.68 -10.17,4.31 -14.7,7.74 -4.62,3.49 -8.99,7.95 -12.92,13.22 -4.12,5.43 -7.86,11.86 -11.26,19.1 -0.41,0.87 -0.75,1.78 -0.94,2.59l-0.03 0.03c-0.16,0.6 -0.25,1.25 -0.25,1.81l0.09 0.81 0.13 0.22 0.56 0.41zm-1.47 19.24l-0.55 -0.08 -6.12 -1.16 0.12 -0.84 -0.74 -0.37 -0.04 -0.04c-2.27,-1.15 -4.33,-2.71 -5.99,-4.55 -1.75,-1.91 -2.99,-4.09 -3.83,-6.34l-0.07 -0.06c-0.77,-2.25 -1.22,-4.77 -1.22,-7.3l0 0c0,-2.06 0.25,-4.18 0.82,-6.27 0.47,-2 1.21,-4.06 2.21,-6.12l0 0c3.93,-8.36 8.39,-15.91 13.39,-22.52l0 -0.04c4.93,-6.55 10.45,-12.19 16.5,-16.79l0 0.04c6.27,-4.78 13.17,-8.43 20.47,-10.8l0.06 0c7.21,-2.31 15.01,-3.43 23.22,-3.33 4.96,0.02 10.11,0.55 15.29,1.53 5.15,0.93 10.51,2.33 15.94,4.17l0.12 0.04c3.65,1.31 6.25,3.21 8.55,4.9l0.03 0.02 2.19 1.57 0.09 0.03 2.21 1.43 5.62 3.62 -3.52 5.65 -1.37 2.22 -0.04 -0.04 -1.02 1.72 0 0c-1.47,2.46 -3.88,6.49 -6.9,10.95l-0.06 0.03c-2.13,3.06 -4.59,6.56 -7.46,10.11 -2.9,3.62 -6.21,7.4 -9.8,11.05l-0.03 0.02c-7.33,7.43 -16.35,14.73 -26.83,20.13 -10.74,5.5 -23.09,9.02 -36.94,8.87 -2.47,0 -4.81,-0.16 -7.05,-0.38l-0.57 -0.07 -0.06 0.31 -6.62 -1.31z"/>
   <path class="fil3" d="M496.83 343.62c3.87,8.27 10.64,13.54 16.38,20.91 4.84,1.37 16.22,-14.95 17.85,-19.93 -10.68,-10.24 -30.49,-6.34 -34.23,-0.98zm41.03 37.04c-9.17,11.3 -39.35,10.55 -47.11,-1.06 5.61,0.72 11.66,2.72 16.97,1.59 2.43,-0.5 3.46,-7.05 4.37,-9.17 -7.72,-8.06 -15.05,-13.73 -19.66,-21.03 -5.3,-8.43 -1.99,-15.91 8.3,-18.48 5.71,-1.43 12.29,-2.92 17.65,-1.46 7,1.84 18.44,6.58 18.54,10.14 0.16,7.24 -5.55,14.85 -9.86,21.69 -2.37,3.77 -7.8,5.8 -9.92,9.61 -1.06,1.99 1.69,8.67 3.37,8.95 5.4,0.84 11.08,-0.34 17.35,-0.78z"/>
   <path class="fil0" d="M504.96 345.5c1.94,2.77 4.24,5.3 6.65,7.9l3.86 4.3c0.25,-0.69 0.63,-1.69 1.47,-2.65 2.43,-2.69 4.78,-5.93 6.36,-8.55 -3.64,-1.87 -8.07,-2.4 -12.13,-2.13l0 0c-2.4,0.2 -4.52,0.57 -6.21,1.13zm37.63 39c-1.34,1.69 -3.03,3.15 -4.87,4.41 -6.27,4.17 -15.47,6.13 -24.33,5.89 -8.93,-0.25 -17.98,-2.78 -23.65,-7.42 -1.6,-1.29 -2.97,-2.76 -4.06,-4.37l-7.49 -11.11 13.29 1.65c1.96,0.25 3.68,0.56 5.39,0.9 3.51,0.66 7.09,1.31 9.62,0.78l0.16 -0.06c-2.04,-2.12 -4.12,-4.09 -6.09,-5.99 -5.12,-4.92 -9.74,-9.39 -13.26,-14.94l-0.03 -0.03c-1.35,-2.12 -2.34,-4.37 -2.9,-6.59l0 0c-0.91,-3.62 -0.66,-7.08 0.62,-10.2l0 -0.03c1.28,-3.03 3.59,-5.68 6.77,-7.68 2.12,-1.34 4.65,-2.4 7.49,-3.11l0 0c3.09,-0.76 6.42,-1.53 9.71,-1.98 3.7,-0.43 7.48,-0.4 10.97,0.51 4.31,1.15 10.33,3.37 14.74,5.77 4.74,2.59 8.26,6.05 8.35,10.17 0.16,8.05 -4.55,15.35 -8.95,22.15l-1.84 2.88c-1.72,2.77 -4.09,4.55 -6.4,6.29 -1,0.79 -2,1.53 -2.68,2.22l0.37 0.91 -0.02 0.09c2.58,0.13 5.52,-0.18 8.54,-0.5l0.1 0 5.17 -0.5 14.39 -1.34 -9.11 11.23z"/>
   <line class="fil6" x1="691.09" y1="237.34" x2="691.24" y2= "237.52" />
   <line class="fil6" x1="643.73" y1="236.91" x2="643.89" y2= "237.06" />
   <line class="fil6" x1="643.9" y1="237.06" x2="643.7" y2= "236.9" />
   <line class="fil6" x1="251.46" y1="215.51" x2="251.3" y2= "215.67" />
   <line class="fil6" x1="329.52" y1="219.37" x2="329.46" y2= "219.39" />
   <polygon class="fil3" points="329.45,219.38 329.14,219.69 329.51,219.36 "/>
   <line class="fil6" x1="337.8" y1="214.1" x2="337.61" y2= "214.25" />
   <path class="fil1" d="M421.96 297.73c0.16,-12.02 9.21,-20.81 21.63,-21.03 12.63,-0.22 23.43,9.54 23.65,21.34 0.15,11.82 -10.27,21.96 -22.63,21.96 -12.35,0.03 -22.81,-10.26 -22.65,-22.27zm200.88 76.41c-18.44,-0.25 -33.39,-12.95 -33.36,-28.37 0.03,-15.32 15,-27.58 33.45,-27.33 18.62,0.29 33.57,12.99 33.54,28.3 -0.03,15.42 -15.01,27.68 -33.63,27.4zm-248.71 -26.52c0.03,-15.35 15.01,-27.62 33.54,-27.36 18.54,0.27 33.48,12.97 33.45,28.32 -0.04,15.36 -15.01,27.62 -33.54,27.37 -18.54,-0.28 -33.48,-12.99 -33.45,-28.33zm172.92 -52.2c0.18,-12.02 9.23,-20.81 21.61,-21.03 12.64,-0.25 23.47,9.51 23.66,21.3 0.15,11.83 -10.26,21.97 -22.62,22 -12.33,0.04 -22.81,-10.29 -22.65,-22.27zm-55.16 61.25c-5.56,-8.71 -2.16,-16.42 8.58,-19.04 5.96,-1.46 12.78,-2.99 18.4,-1.5 7.27,1.94 19.22,6.8 19.32,10.49 0.18,7.48 -5.74,15.28 -10.24,22.34 -2.46,3.87 -8.14,5.95 -10.29,9.89 -1.12,2.06 1.74,8.95 3.52,9.23 5.59,0.88 11.51,-0.31 18.07,-0.75 -9.55,11.61 -41,10.77 -49.12,-1.21 5.87,0.75 12.17,2.8 17.69,1.72 2.53,-0.54 3.59,-7.31 4.56,-9.49 -8.05,-8.3 -15.73,-14.2 -20.49,-21.68zm206.89 -116.63l-24.56 -50.86c-25.02,9.77 -44.15,4.36 -62.27,-9.02 -18.44,23.46 -42.06,29.61 -69.86,19.13 -19.91,22.65 -42.78,28.08 -70.48,15.57 -3.66,-1.63 -9.78,0.62 -14.3,2.21 -19.81,6.96 -40.35,5.65 -53.42,-9.55 -13.56,-15.76 -30.23,-12.2 -49.51,-17.35 -9.33,22 -20.75,42.91 -27.14,65.12 -18.05,62.72 7.36,122.06 65.08,157.44 27.89,17.13 58.66,26.68 91.11,30.33 60.19,6.8 117.56,-0.03 168.39,-33.79 60.75,-40.34 73.26,-113.2 46.77,-169.42l0.19 0.19z"/>
   <path class="fil1" d="M507.92 207.1c8.31,-1.84 15.82,-7.68 23.75,-13.85 3.68,-2.84 7.43,-5.74 11.42,-8.39l0.65 -0.44 0.72 0.31c15.54,6.83 27.02,8.93 37.13,5.03 10.2,-3.94 19.29,-13.95 29.95,-31.33l1 -1.63 1.28 1.44c9.86,10.92 19,17.85 28.11,20.94 8.99,3.08 18.07,2.43 27.86,-1.66 8.27,-3.46 15.01,-9.45 19.54,-16.72 4.49,-7.27 6.74,-15.89 6.02,-24.65 -0.81,-10.14 -4.02,-18.28 -10.2,-24.61 -6.25,-6.37 -15.61,-10.96 -28.68,-13.93l-0.78 -0.18 -0.24 -0.75c-10.68,-32.67 -29.18,-32.54 -48.21,-32.42l-5.4 0 -0.41 0.04 -0.31 -0.22c-7.05,-4.28 -12.29,-8.64 -17,-12.61 -14.01,-11.7 -23.09,-19.31 -63.46,-7.33l-0.75 0.21 -0.6 -0.47c-6.65,-5.42 -13.48,-9.41 -20.25,-11.94 -8.79,-3.28 -17.53,-4.03 -25.64,-2.09 -8.09,1.94 -15.64,6.58 -22.03,14.13 -4.68,5.49 -8.8,12.54 -12.11,21.16l-0.37 1 -1.1 -0.1c-14.48,-1.59 -24.49,-0.88 -32.72,3.65 -8.27,4.52 -14.99,12.89 -22.85,26.65l-0.33 0.53 -0.6 0.13c-16.41,3.37 -28.95,9.48 -36.76,17.71 -7.55,8 -10.67,18.01 -8.45,29.52 2.96,15.45 9.64,25.4 19.4,31.05 9.83,5.74 22.9,7.17 38.5,5.52l0.92 -0.09 0.46 0.78c7.77,12.97 16.98,21.87 27.86,25.58 10.89,3.68 23.56,2.25 38.38,-5.4l0.41 -0.21 0.47 0.06c6.11,0.87 11.82,2.09 17.15,3.18 10.83,2.28 20.1,4.21 28.27,2.4z"/>
   <path class="fil1" d="M719.41 249.4c10.79,9.02 22.27,14.89 34.41,17.91 12.17,3.03 24.99,3.28 38.41,1.13 5.36,-0.88 9.86,-2.25 13.35,-4.09 3.81,-2 6.49,-4.56 8.02,-7.62 1.53,-3.06 1.94,-6.67 1.19,-10.79 -0.69,-3.75 -2.31,-7.86 -4.87,-12.39 -15.25,-26.73 -32.57,-44.55 -53.91,-52.32 -21.03,-7.64 -46.12,-5.65 -77.29,6.96l4.87 7.36c4.21,6.24 8.3,12.23 10.64,18.91 2.46,7.14 5.83,13.42 10.01,19.09 4.19,5.72 9.27,10.86 15.17,15.85zm48.67 10.95c-15.66,-0.18 -30.33,-5.36 -43.4,-16.47 -9.27,-7.86 -16.07,-16.63 -20.07,-28.24 -2.21,-6.55 -7.36,-12.76 -11.88,-20.21l-1.62 -2.62 2.86 -1.22c15.48,-6.46 29.24,-9.58 41.66,-9.42 13.42,0.15 25.27,4.27 35.6,11.97 10.36,7.68 19.22,18.89 27.27,33.18 2.91,5.11 4.4,9.85 4.4,14.19 0.03,4.65 -1.94,8.83 -5.55,11.83 -3.56,2.96 -8.56,4.86 -14.79,5.89 -4.9,0.79 -9.74,1.18 -14.48,1.12z"/>
   <path class="fil1" d="M297.08 256.71c15.79,-6.33 29.35,-17.06 35.97,-31.89 1.06,-2.3 1.9,-4.71 2.59,-7.2l-3.47 2.87 4.31 -6.9 12.27 -19.78 5.7 -9.24 -2.65 -1.93c-2.43,-1.84 -4.87,-3.62 -7.42,-4.5 -27.71,-9.32 -51.18,-8.85 -70.74,0.2 -20.59,9.51 -36.94,28.48 -49.48,55.51 -2.81,6.04 -3.19,10.85 -1.41,14.75 1.81,3.93 5.87,7.05 11.92,9.61 4,1.72 8.39,2.99 13.01,3.84 15.51,2.87 33.58,1 49.4,-5.34zm21.24 -29.23c-13.85,14.03 -33.57,27.33 -58.9,27.04 -4.22,-0.06 -8.59,-0.49 -13.08,-1.37 -4.05,-0.78 -7.33,-2.46 -9.61,-4.96 -2.28,-2.49 -3.37,-5.74 -3.34,-9.14 0,-3.03 0.85,-6.24 2.38,-9.51 7.39,-15.82 16.59,-28.3 27.82,-36.82 11.21,-8.52 24.5,-12.95 39.6,-12.76 9.08,0.12 18.81,1.9 29.2,5.36 4,1.41 6.68,4.15 9.42,5.84l2.22 1.43 -1.37 2.22c-1.09,1.75 -3.77,6.49 -7.83,12.41 -4.05,6 -9.58,13.23 -16.51,20.26z"/>
   <path class="fil2" d="M532.45 349.01c-11.74,-11.26 -33.51,-6.99 -37.66,-1.06 4.23,9.08 11.7,14.92 18,22.99 5.33,1.51 17.88,-16.44 19.66,-21.93z"/>
   <path class="fil2" d="M452.84 293.85c-2.74,-3 -5.46,-6.99 -6.03,-6.43 -2.08,1.99 -3.43,5.55 -5.02,8.52 1.88,1.72 3.78,4.83 5.62,4.77 1.59,-0.06 3.08,-3.72 5.43,-6.86zm14.26 3.93c0.15,12.32 -10.64,22.94 -23.41,22.96 -12.72,0.06 -23.49,-10.7 -23.33,-23.21 0.19,-12.51 9.54,-21.72 22.33,-21.97 13.08,-0.24 24.22,9.89 24.41,22.22z"/>
   <path class="fil1" d="M447.42 300.73c1.55,-0.07 3.08,-3.74 5.43,-6.9 -2.75,-2.96 -5.47,-6.95 -6.03,-6.42 -2.09,2.02 -3.43,5.55 -5.06,8.51 1.91,1.75 3.82,4.84 5.66,4.81z"/>
   <path class="fil0" d="M778.01 378.88c7,0.06 13.7,1.37 19.89,3.61l0.02 0c6.4,2.41 12.21,5.9 17.04,10.17l0.03 0c5.03,4.4 9.05,9.77 11.79,15.67 2.69,5.8 4.16,12.13 4.09,18.75 -0.06,6.65 -1.62,12.98 -4.4,18.69l0 0.03c-2.84,5.83 -6.99,11.11 -12.07,15.44 -4.9,4.21 -10.76,7.62 -17.19,9.89l-0.04 0c-6.21,2.16 -12.95,3.35 -19.94,3.31 -6.95,-0.06 -13.69,-1.37 -19.87,-3.64l-0.03 0c-6.36,-2.38 -12.17,-5.84 -17,-10.15 -5.03,-4.43 -9.09,-9.76 -11.86,-15.69 -2.68,-5.77 -4.15,-12.11 -4.09,-18.72 0.04,-6.62 1.63,-12.95 4.4,-18.69 2.84,-5.86 6.99,-11.14 12.1,-15.51 4.9,-4.18 10.77,-7.58 17.2,-9.86 6.18,-2.15 12.95,-3.37 19.93,-3.3zm22.01 30.67c-2.81,-2.5 -6.22,-4.57 -9.99,-5.94l0 0.04c-3.71,-1.37 -7.83,-2.16 -12.2,-2.19 -4.37,-0.03 -8.52,0.69 -12.23,1.97l0 0.03c-3.84,1.31 -7.27,3.28 -10.11,5.71l-0.03 0c-2.65,2.28 -4.84,5.06 -6.31,8.08l-0.02 0c-1.38,2.78 -2.16,5.9 -2.16,9.15 -0.03,3.27 0.69,6.42 2,9.26 1.43,3 3.55,5.77 6.21,8.11l0.03 0.03c2.81,2.47 6.21,4.53 10.01,5.9 3.66,1.34 7.8,2.12 12.2,2.15 4.41,0.04 8.55,-0.65 12.23,-1.94 3.84,-1.33 7.27,-3.29 10.11,-5.76l0.04 -0.04c2.68,-2.27 4.9,-5.02 6.33,-8.01 1.37,-2.81 2.15,-5.9 2.18,-9.21 0,-3.24 -0.71,-6.37 -2.02,-9.17l0 0c-1.44,-3.02 -3.59,-5.84 -6.25,-8.17l-0.02 0z"/>
   <path class="fil1" d="M777.9 390.15c23.18,0.2 41.84,16.67 41.68,36.82 -0.18,20.16 -19.09,36.35 -42.27,36.17 -23.19,-0.19 -41.81,-16.67 -41.66,-36.82 0.16,-20.16 19.09,-36.35 42.25,-36.17z"/>
   <path class="fil0" d="M777.89 384.06l0.03 0 0.07 0c13.03,0.12 24.92,4.86 33.53,12.48 8.81,7.76 14.24,18.5 14.14,30.41l0.03 0 0 0 -0.03 0.07c-0.06,11.88 -5.68,22.66 -14.64,30.3 -8.7,7.45 -20.62,12.01 -33.66,11.91l0 0 -0.04 0 -0.06 0c-13.07,-0.09 -24.98,-4.89 -33.56,-12.44 -8.8,-7.8 -14.23,-18.63 -14.15,-30.52 0.1,-11.92 5.68,-22.62 14.64,-30.3 8.7,-7.45 20.65,-12.01 33.7,-11.91zm0.06 12.2l0 0.03 -0.03 0 -0.07 -0.03c-10.04,-0.1 -19.18,3.37 -25.73,8.98 -6.34,5.4 -10.33,12.92 -10.4,21.12 -0.02,8.21 3.82,15.79 10.05,21.28 6.46,5.74 15.51,9.33 25.55,9.39l0 0 0 0 0.07 0c10.02,0.1 19.16,-3.37 25.71,-8.98 6.34,-5.4 10.3,-12.89 10.36,-21.06l0 0 0 0 0.03 -0.06c0.03,-8.21 -3.78,-15.76 -10.01,-21.28 -6.47,-5.68 -15.54,-9.3 -25.53,-9.39z"/>
   <path class="fil2" d="M516.26 557.34c-7.08,-0.31 -5.9,-4.9 -11.11,-7.15 -11.29,-7.76 -22.25,-14.25 -32.7,-18.69 -14.98,-3.96 -37.38,-9.61 -52.35,-4.3 -20.88,9.7 -14.92,33.2 -9.18,46.74 13.01,23.77 34.42,43.99 53.14,62.71 12.26,12.73 42.46,44.9 67.58,38.38 40.22,-24.5 88.8,-75.23 93.7,-119.53 2.99,-25.06 -7.84,-58.75 -40,-56.85 -32.14,1.93 -53.49,28.18 -65.05,56.19 0.37,1.38 -1.85,1.93 -4.03,2.5zm47.92 11.64c-2.37,0.02 -7.48,-1.28 -8.52,-4.59 1.16,-3.99 4.66,-7.99 7.03,-8.02 4.3,-1.34 9.64,0.62 8.48,4.62 1.03,3.31 -2.68,6.64 -6.99,7.99zm-77.57 9.07c1.19,3.96 -2.49,7.31 -2.9,6 -4.52,0.68 -5.12,-1.32 -8.29,-3.96 0.93,-4.66 4.43,-8.62 6.8,-8.65 2.56,0.66 3.37,3.3 4.39,6.61zm-36.56 -19.03c1.03,3.31 -0.53,5.96 -2.69,6.65 -4.52,0.68 -10.04,-1.94 -10.85,-4.59 1.15,-3.96 4.83,-7.3 7.2,-7.33 2.16,-0.66 7.49,1.31 6.34,5.27zm12.69 33.76c1.04,3.28 -2.27,7.96 -6.8,8.65 -4.49,0.68 -5.52,-2.63 -6.52,-5.94 -1.02,-3.3 0.31,-6.64 4.84,-7.33 4.52,-0.68 7.68,1.97 8.48,4.62zm63.22 51.99c4.52,-0.69 7.49,1.27 6.34,5.27 1.02,3.3 -0.53,5.96 -5.06,6.64 -4.5,0.69 -7.27,-0.59 -8.27,-3.9 1.12,-3.99 2.5,-7.33 6.99,-8.01zm50.29 -44.03c0.94,-4.65 2.31,-7.96 4.88,-7.33 2.33,0 5.33,1.96 8.48,4.59 -1.12,3.99 -4.64,7.98 -6.99,8.01 -2.59,-0.65 -5.33,-1.96 -6.37,-5.27zm-55.12 -10.3c1.12,-3.99 4.83,-7.3 7.02,-7.98 4.49,-0.69 7.86,2.59 8.89,5.89 0.81,2.65 -2.9,5.99 -7.43,6.67 -2.15,0.69 -7.27,-0.61 -8.48,-4.58zm22.09 25.74c-1.26,-3.99 0.49,-5.99 2.86,-5.99 4.53,-0.69 7.5,1.29 8.5,4.59 -1.13,3.99 -2.69,6.65 -5.03,6.65 -4.53,0.71 -7.52,-1.29 -6.33,-5.25zm62.34 -42.09c-4.68,0.65 -10.42,-1.99 -11.49,-5.33 1.19,-3.97 5.18,-6.62 7.65,-6.62 2.22,-0.65 7.74,1.31 6.36,4.65 1.07,3.31 -2.52,7.3 -2.52,7.3zm-22.41 -35.72c-6.27,2.68 -5.33,-1.97 -6.55,-5.93 -0.81,-2.65 0.75,-5.3 5.06,-6.65 2.55,0.63 3.58,3.94 4.39,6.59 1.22,3.99 -0.34,6.62 -2.9,5.99zm-90.73 74.1c4.53,-0.68 5.93,3.96 6.77,6.61 0.82,2.66 -2.49,7.31 -7.02,7.99 -4.52,0.69 -5.71,-3.27 -6.52,-5.93 -0.84,-2.65 2.25,-7.98 6.77,-8.67z"/>
   <path class="fil2" d="M578.76 292.19c-2.75,-2.99 -5.46,-6.99 -6.03,-6.43 -2.08,2.04 -3.43,5.56 -5.02,8.53 1.87,1.71 3.78,4.83 5.65,4.8 1.56,-0.06 3.05,-3.75 5.4,-6.9zm14.25 3.94c0.16,12.32 -10.64,22.93 -23.4,22.96 -12.73,0.06 -23.53,-10.67 -23.33,-23.22 0.19,-12.5 9.54,-21.71 22.33,-21.96 13.08,-0.25 24.22,9.89 24.4,22.22z"/>
   <path class="fil1" d="M573.34 299.07c1.56,-0.06 3.09,-3.74 5.4,-6.89 -2.74,-2.96 -5.46,-6.96 -6.02,-6.43 -2.06,2.03 -3.44,5.56 -5.03,8.52 1.88,1.75 3.81,4.84 5.65,4.8z"/>
   <path class="fil2" d="M332.89 934.57l-23.91 62.74c-1.43,3.9 -2.84,6.56 -4.15,8.03 -1.3,1.46 -2.98,2.18 -4.98,2.18 -1.69,0 -3.19,-0.43 -4.53,-1.41 -1,-0.74 -1.78,-1.53 -2.37,-2.52 -0.56,-0.97 -1.28,-2.71 -2.15,-5.24l-21.44 -60.82c-1.19,-3.39 -2.25,-5.7 -3.21,-6.95 -0.97,-1.25 -2.34,-2.06 -4.12,-2.47 -2.06,-0.5 -3.15,-2.15 -3.15,-4.99 0,-3.46 1.84,-6.15 5.49,-8.02 3.65,-1.87 8.89,-2.81 15.73,-2.81 7.08,-0.02 12.32,0.66 15.62,2.06 3.37,1.41 5.03,3.56 5.06,6.46 0,1.94 -0.91,3.69 -2.75,5.28 -1.37,1.25 -2.06,2.4 -2.06,3.46 0,1 0.32,2.4 0.94,4.24l6.55 19.06c0.94,2.78 2,4.16 3.21,4.16 1.13,0 2.16,-0.73 3.06,-2.22 0.91,-1.47 2.13,-4.4 3.66,-8.8 2.71,-7.83 4.33,-12.42 4.77,-13.85 0.47,-1.43 0.68,-2.53 0.68,-3.31 0,-1.49 -0.84,-2.8 -2.43,-3.9 -1.84,-1.22 -2.74,-2.74 -2.78,-4.65 0,-5.33 5.56,-8.05 16.67,-8.08 5.55,0 9.45,0.56 11.73,1.72 2.28,1.18 3.43,3.12 3.43,5.93 0,3.3 -1.52,5.24 -4.5,5.74 -2.11,0.3 -3.49,0.77 -4.11,1.34 -1.12,1.06 -2.43,3.59 -3.96,7.64zm24.74 -20.97l26.8 -0.03c5.43,0 9.4,-0.15 11.89,-0.43 2.5,-0.32 4.93,-0.91 7.27,-1.85 0.74,-0.25 1.31,-0.37 1.72,-0.37 1.8,0 3.43,1.25 4.8,3.78 2.31,4.08 3.47,9.05 3.47,14.85 0,2.9 -0.47,5.21 -1.41,6.92 -0.97,1.69 -2.28,2.51 -3.93,2.53 -1.15,0 -2.06,-0.31 -2.72,-0.9 -0.62,-0.59 -1.49,-1.96 -2.56,-4.06 -1.53,-3.06 -3.49,-5.09 -5.86,-6.08 -2.34,-1 -6.18,-1.5 -11.54,-1.5 -4.03,0 -6.47,0.96 -7.31,2.8 -0.47,0.98 -0.71,2.31 -0.81,3.97 -0.09,1.69 -0.13,5.93 -0.13,12.76 0,2.69 0.39,4.37 1.07,5.02 0.69,0.66 2.49,1 5.46,1 1.46,-0.02 2.56,-0.4 3.21,-1.18 0.66,-0.82 1.09,-2.21 1.25,-4.25 0.22,-2.62 0.47,-4.37 0.72,-5.36 0.28,-0.97 0.75,-1.81 1.44,-2.53 0.74,-0.81 1.58,-1.22 2.58,-1.22 1.41,0 2.63,0.88 3.63,2.63 0.74,1.31 1.37,3.62 1.86,6.92 0.53,3.31 0.78,6.77 0.82,10.36 0,7.11 -0.84,12.95 -2.56,17.5 -0.94,2.47 -2.37,3.68 -4.28,3.68 -1.19,0.04 -2.03,-0.37 -2.46,-1.15 -0.47,-0.77 -0.81,-2.4 -1.06,-4.87 -0.53,-5.11 -2.81,-7.64 -6.9,-7.64 -1.56,0 -2.62,0.63 -3.18,1.94 -0.62,1.3 -0.88,3.65 -0.88,7.11 0,2.12 0.13,4.87 0.35,8.2 0.22,3.37 0.46,5.58 0.71,6.65 0.29,1.34 1.16,2.3 2.59,2.81 1.47,0.49 3.88,0.78 7.25,0.75 5.21,0 9.13,-0.88 11.79,-2.63 2.65,-1.71 4.8,-4.83 6.45,-9.42 0.98,-2.59 1.85,-4.36 2.63,-5.27 0.78,-0.87 1.8,-1.34 3.05,-1.34 1.44,0 2.69,0.81 3.63,2.47 0.96,1.65 1.43,3.7 1.43,6.17 0,2.69 -0.49,6.08 -1.59,10.14 -1.06,4.06 -2.37,7.65 -3.96,10.83 -0.78,1.49 -1.44,2.49 -1.97,3.06 -0.53,0.5 -1.18,0.74 -2,0.78 -0.65,-0.04 -1.59,-0.13 -2.87,-0.41 -2.21,-0.53 -5.21,-0.87 -8.92,-1.03l-44.27 0.07c-1.79,0 -3.16,-0.51 -4.12,-1.51 -0.97,-1 -1.47,-2.46 -1.47,-4.3 0,-1.31 0.22,-2.25 0.63,-2.81 0.43,-0.59 1.37,-1.37 2.86,-2.24 1.04,-0.6 1.84,-1.29 2.31,-2.16 0.51,-0.87 0.91,-2.12 1.19,-3.77 1.12,-6.8 1.71,-15.98 1.69,-27.52 0,-17.35 -0.88,-28.31 -2.56,-32.86 -0.35,-0.9 -0.73,-1.53 -1.12,-1.9 -0.45,-0.35 -1.32,-0.78 -2.63,-1.25 -2,-0.81 -2.99,-2.49 -2.99,-5.15 0,-1.46 0.34,-2.71 0.99,-3.83 0.66,-1.16 1.53,-1.88 2.63,-2.25 1.33,-0.41 3.99,-0.63 7.89,-0.63zm103.19 -1.99c4.58,0 8.88,0.81 12.91,2.46 1.81,0.79 3.06,1.16 3.71,1.16 0.72,0 2.15,-0.53 4.37,-1.56 0.72,-0.32 1.47,-0.47 2.25,-0.5 1.94,0 3.8,1.53 5.58,4.49 2.87,4.78 4.31,9.95 4.34,15.63 0,3.87 -0.78,7.02 -2.28,9.39 -1.53,2.41 -3.52,3.59 -5.99,3.59 -2.02,0 -4,-0.94 -5.92,-2.8 -0.6,-0.59 -2.1,-2.72 -4.35,-6.37 -3.86,-6.08 -8.27,-9.11 -13.25,-9.08 -4.53,0 -8.09,2.16 -10.74,6.39 -2.65,4.28 -3.99,10.05 -3.99,17.29 0,10.77 2.15,19.91 6.39,27.52 1.6,2.75 3.53,4.9 5.78,6.55 2.21,1.63 4.43,2.47 6.61,2.47 1.81,0 3.3,-0.81 4.46,-2.34 1.15,-1.56 1.75,-3.56 1.75,-5.96 0,-2.18 -0.5,-3.71 -1.46,-4.62 -0.41,-0.34 -0.76,-0.56 -1.06,-0.62 -0.35,-0.06 -1.35,-0.13 -3.03,-0.13 -1.5,0 -2.75,-0.62 -3.71,-1.84 -1.04,-1.25 -1.51,-2.81 -1.51,-4.68 0,-3.74 1.91,-6.4 5.72,-7.99 4.21,-1.72 9.08,-2.58 14.56,-2.58 5.9,0 10.84,0.78 14.86,2.37 3.8,1.49 5.68,4.27 5.68,8.29 0,1.6 -0.41,3 -1.28,4.19 -0.88,1.21 -2,1.93 -3.4,2.15 -1.22,0.22 -2,0.56 -2.38,1.06 -0.37,0.47 -0.71,1.63 -1.12,3.49 -1.46,7.15 -4.4,13.14 -8.73,17.95 -3,3.31 -6.62,5.86 -10.83,7.7 -4.24,1.84 -8.67,2.78 -13.35,2.81 -7.62,0 -14.64,-2.28 -21.01,-6.81 -6.52,-4.64 -11.54,-11.1 -14.94,-19.43 -2.87,-6.9 -4.28,-14.41 -4.3,-22.5 0,-8.14 1.68,-15.87 5.08,-23.21 3.62,-7.89 8.68,-13.94 15.16,-18.25 5.68,-3.78 12.15,-5.68 19.42,-5.68zm106.54 47.27l9.89 27.33c0.94,2.5 1.72,4.15 2.37,4.93 0.6,0.81 1.57,1.34 2.84,1.59 2.53,0.5 3.78,2.15 3.81,4.93 -0.03,3.31 -1.56,5.68 -4.61,7.12 -3.06,1.43 -8.09,2.15 -15.05,2.18 -7.86,0 -13.69,-0.4 -17.46,-1.28 -1.76,-0.41 -3.16,-1.22 -4.19,-2.47 -1,-1.24 -1.53,-2.71 -1.53,-4.46 0,-1.37 0.25,-2.4 0.82,-3.15 0.53,-0.75 1.53,-1.44 2.99,-2.09 1.62,-0.72 2.46,-1.94 2.44,-3.65 0.02,-2.99 -1.41,-4.77 -4.21,-5.3 -3.04,-0.53 -7.27,-0.81 -12.8,-0.79 -4.65,0 -7.42,0.35 -8.33,1.1 -0.53,0.43 -1,1.21 -1.44,2.4 -0.4,1.19 -0.62,2.31 -0.62,3.4 0,0.97 0.15,1.63 0.44,1.9 0.31,0.32 1.27,0.78 2.9,1.47 2.12,0.78 3.18,2.41 3.21,4.87 0,5.34 -4.96,8.02 -14.89,8.05 -5.64,0 -9.76,-0.5 -12.41,-1.5 -2.44,-0.94 -3.68,-3.03 -3.68,-6.17 0,-1.45 0.28,-2.5 0.81,-3.29 0.56,-0.74 1.5,-1.45 2.9,-2.08 2.25,-1.03 3.96,-2.5 5.15,-4.37 1.16,-1.88 2.81,-5.84 4.96,-11.99l7.33 -20.87c2.72,-7.64 4.52,-13.38 5.43,-17.18 0.94,-3.82 1.41,-7.53 1.44,-11.21 0.03,-3.84 0.18,-6.52 0.53,-8.05 0.34,-1.49 1.06,-2.96 2.22,-4.43 2.37,-3.15 5.45,-4.71 9.17,-4.71 3.52,-0.03 6.89,1.75 10.11,5.3 4.46,4.87 10.95,19 19.46,42.47zm-36.31 8.55l10.2 -0.04c1.87,0 2.84,-0.53 2.84,-1.62 0,-1.46 -1.31,-5.12 -3.93,-10.92 -1.19,-2.65 -2.1,-4.43 -2.72,-5.33 -0.65,-0.9 -1.31,-1.35 -2.02,-1.35 -1.22,0 -2.28,1.51 -3.1,4.53 -0.15,0.41 -0.65,2 -1.49,4.8 -1.47,4.59 -2.21,7.31 -2.21,8.21 0,1.13 0.8,1.72 2.43,1.72zm85.92 -50.89l26.06 29.39c2.4,2.75 4.18,4.12 5.24,4.12 1.81,0 2.71,-2.5 2.71,-7.49 -0.03,-5.68 -0.27,-9.55 -0.8,-11.61 -0.51,-2.06 -1.63,-3.65 -3.31,-4.65 -1.35,-0.87 -2.31,-1.78 -2.88,-2.74 -0.53,-0.94 -0.84,-2.18 -0.84,-3.75 0,-3.77 2,-6.21 5.99,-7.3 1.65,-0.43 4.49,-0.69 8.58,-0.69 5.24,0 8.9,0.41 10.92,1.22 3.22,1.25 4.81,3.62 4.78,7.15 0,2.93 -1.28,5.11 -3.88,6.62 -1.05,0.59 -1.77,1.12 -2.11,1.55 -0.41,0.47 -0.72,1.13 -1,2.03 -0.97,2.97 -1.44,8.59 -1.47,16.88l0.03 22.03c0,3.37 0.04,7.95 0.1,13.82 0.03,7.92 -0.35,13.64 -1.09,17.13 -0.94,4.4 -2.65,6.55 -5.12,6.58 -1.06,-0.03 -2.03,-0.27 -2.81,-0.87 -0.75,-0.59 -2.06,-1.93 -3.9,-4.06l-30.99 -35.78c-2.15,-2.53 -3.96,-3.78 -5.36,-3.78 -2.12,0 -3.18,3.78 -3.18,11.39 0,6.24 0.31,10.55 0.81,12.86 0.56,2.27 1.66,3.96 3.34,5.02 2.31,1.49 3.49,3.43 3.49,5.8 0,6.27 -5.17,9.42 -15.6,9.42 -4.68,0 -8.33,-0.78 -10.95,-2.37 -2.56,-1.62 -3.87,-3.87 -3.87,-6.8 0,-1.53 0.22,-2.68 0.72,-3.43 0.47,-0.75 1.59,-1.78 3.31,-3.13 1.62,-1.27 2.58,-3.49 2.93,-6.66 0.59,-5.84 0.87,-14.17 0.87,-25.06 0,-11.64 -0.55,-20.09 -1.59,-25.4 -0.37,-1.94 -0.88,-3.37 -1.47,-4.31 -0.62,-0.96 -1.55,-1.84 -2.93,-2.68 -1.56,-1.03 -2.65,-1.96 -3.28,-2.93 -0.62,-0.94 -0.9,-2.09 -0.9,-3.44 -0.03,-4.3 2.88,-7.05 8.62,-8.17 1.92,-0.37 5.33,-0.56 10.23,-0.56 2.78,0 4.8,0.28 6.05,0.84 1.28,0.56 2.81,1.84 4.55,3.81zm98.95 -5.25c8.95,0 16.78,3.28 23.46,9.9 4.52,4.55 8.2,10.45 11.04,17.69 2.75,7.21 4.12,14.38 4.16,21.59 0,10.64 -2.69,20.13 -8.12,28.49 -4.59,7.14 -10.55,12.23 -17.98,15.35 -4.55,1.9 -9.13,2.86 -13.72,2.86 -6.05,0 -11.79,-1.59 -17.32,-4.83 -6.64,-3.93 -11.85,-9.83 -15.63,-17.75 -3.65,-7.65 -5.49,-16.1 -5.49,-25.31 0,-10.73 2.31,-20.15 6.99,-28.36 4.18,-7.3 9.8,-12.67 16.85,-16.1 4.74,-2.34 9.98,-3.53 15.76,-3.53zm-4.94 19.38c-2.9,0 -5.21,1.69 -6.92,5.06 -1.34,2.52 -2,5.55 -2,8.99 0.03,5.11 0.85,10.97 2.46,17.65 1.6,6.68 3.62,12.64 6.06,17.79 1.09,2.22 2.4,3.96 3.99,5.3 1.59,1.25 3.21,1.94 4.84,1.94 2.65,0 4.78,-1.32 6.39,-3.88 1.63,-2.59 2.44,-5.92 2.44,-10.13 -0.03,-5.43 -0.68,-11.33 -2.06,-17.6 -1.38,-6.33 -3.12,-11.7 -5.3,-16.16 -1.35,-2.75 -2.88,-4.9 -4.59,-6.47 -1.78,-1.55 -3.53,-2.39 -5.31,-2.49z"/>
   <path class="fil7" d="M407.5 377.93c18.48,-0.03 33.42,-13.17 33.42,-29.39 -0.03,-16.19 -15,-29.3 -33.48,-29.27 -18.47,0 -33.42,13.17 -33.42,29.37 0.04,16.18 15.01,29.33 33.48,29.29z"/>
   <path class="fil7" d="M623.36 376.11c18.47,-0.03 33.44,-13.17 33.41,-29.39 -0.03,-16.2 -15.01,-29.3 -33.47,-29.27 -18.48,0 -33.43,13.17 -33.43,29.37 0.04,16.18 15.01,29.29 33.49,29.29z"/>
   <path class="fil0" d="M226.45 379.19c6.99,0.06 13.7,1.37 19.88,3.61l0.02 0c6.4,2.41 12.21,5.9 17.04,10.17l0.03 0c5.03,4.4 9.05,9.77 11.79,15.67 2.69,5.8 4.16,12.13 4.09,18.75 -0.06,6.65 -1.62,12.98 -4.4,18.69l0 0.03c-2.83,5.83 -6.98,11.11 -12.07,15.44 -4.9,4.21 -10.76,7.62 -17.19,9.89l-0.04 0c-6.21,2.16 -12.95,3.34 -19.93,3.31 -6.95,-0.06 -13.69,-1.37 -19.88,-3.64l-0.02 0c-6.37,-2.38 -12.17,-5.84 -17.01,-10.15 -5.02,-4.43 -9.08,-9.76 -11.86,-15.69 -2.68,-5.77 -4.15,-12.11 -4.09,-18.72 0.04,-6.62 1.63,-12.95 4.41,-18.69 2.84,-5.86 6.98,-11.14 12.1,-15.51 4.9,-4.18 10.76,-7.58 17.19,-9.86 6.18,-2.15 12.95,-3.37 19.94,-3.3zm22 30.67c-2.81,-2.5 -6.22,-4.57 -9.98,-5.94l0 0.04c-3.72,-1.37 -7.84,-2.16 -12.21,-2.19 -4.37,-0.03 -8.52,0.69 -12.23,1.97l0 0.03c-3.84,1.31 -7.27,3.28 -10.11,5.71l-0.03 0c-2.65,2.28 -4.84,5.06 -6.3,8.08l-0.03 0c-1.38,2.78 -2.16,5.9 -2.16,9.15 -0.02,3.27 0.69,6.42 2,9.26 1.43,3 3.56,5.77 6.21,8.11l0.03 0.03c2.81,2.47 6.21,4.53 10.02,5.9 3.65,1.34 7.8,2.12 12.19,2.15 4.41,0.04 8.56,-0.65 12.24,-1.94 3.83,-1.33 7.27,-3.29 10.1,-5.76l0.04 -0.04c2.68,-2.27 4.9,-5.02 6.33,-8.01 1.37,-2.81 2.15,-5.9 2.19,-9.21 0,-3.24 -0.72,-6.37 -2.03,-9.17l0 0c-1.44,-3.02 -3.59,-5.84 -6.24,-8.17l-0.03 0z"/>
   <path class="fil1" d="M226.33 390.46c23.18,0.2 41.84,16.67 41.68,36.82 -0.18,20.16 -19.09,36.35 -42.27,36.17 -23.18,-0.19 -41.81,-16.67 -41.66,-36.82 0.16,-20.16 19.1,-36.35 42.25,-36.17z"/>
   <path class="fil0" d="M226.32 384.37l0.03 0 0.07 0c13.04,0.12 24.92,4.86 33.54,12.48 8.8,7.76 14.23,18.5 14.13,30.41l0.04 0 0 0 -0.04 0.07c-0.06,11.88 -5.68,22.66 -14.64,30.3 -8.7,7.45 -20.61,12.01 -33.66,11.91l0 0 -0.03 0 -0.07 0c-13.07,-0.09 -24.98,-4.89 -33.56,-12.44 -8.8,-7.8 -14.23,-18.63 -14.14,-30.52 0.09,-11.92 5.68,-22.62 14.63,-30.3 8.71,-7.45 20.66,-12.01 33.7,-11.91zm0.06 12.19l0 0.04 -0.03 0 -0.06 -0.04c-10.05,-0.09 -19.19,3.37 -25.74,8.99 -6.33,5.4 -10.33,12.92 -10.39,21.12 -0.03,8.21 3.81,15.79 10.04,21.28 6.46,5.74 15.52,9.33 25.56,9.39l0 0 0 0 0.07 0c10.01,0.1 19.15,-3.37 25.7,-8.98 6.34,-5.4 10.3,-12.89 10.36,-21.06l0 0 0 0 0.03 -0.06c0.04,-8.21 -3.78,-15.76 -10.01,-21.28 -6.47,-5.68 -15.54,-9.3 -25.53,-9.4z"/>
   <path class="fil1" d="M430.03 847.16c-22.71,0.16 -45.46,-0.12 -68.24,-0.28 -20.46,-0.19 -40.9,-0.03 -61.43,-0.74l-0.06 -0.04c-1.38,-3.25 28.67,-77.13 80.81,-58.75 8.58,3.22 16.06,8.51 22.49,15.25l0.25 0.16 0.16 0.13c18.03,18.44 27.49,44.27 26.02,44.27z"/>
   <path class="fil0" d="M430.06 853.26c-18.62,0.12 -37.25,-0.07 -55.85,-0.19l-12.45 -0.12 -16.2 -0.09c-15.16,-0.07 -30.35,-0.14 -45.42,-0.63l-1.28 -0.06 -1.22 -0.63 -0.06 0 -2.03 -1 -0.87 -2.09c-0.72,-1.71 -0.47,-4.99 0.9,-8.86 2.15,-6.21 7.49,-17.56 15.6,-28.7 8.24,-11.36 19.47,-22.62 33.36,-28.43 11.27,-4.74 24.24,-5.92 38.59,-0.87l0.07 0.06c4.74,1.75 9.11,4.03 13.1,6.71l0 0.03c4.03,2.75 7.8,5.96 11.3,9.55l0.12 0.13 0.19 0.15 0.43 0.44c12.83,13.07 21.54,29.67 25.37,39.09 0.87,2.12 1.56,4.09 1.97,5.65 1.15,3.99 0.15,7.33 -2.31,8.89l-0.63 0.37 -0.75 0.26 -0.03 0.03 -0.93 0.31 -0.97 0zm-55.79 -12.36c15.85,0.1 31.8,0.26 47.61,0.22 -3.64,-8.58 -11.17,-22.53 -21.93,-33.63l-0.09 -0.09 -0.28 -0.22 -0.38 -0.38c-2.99,-3.15 -6.24,-5.93 -9.7,-8.3l-0.03 0c-3.28,-2.21 -6.8,-4.05 -10.4,-5.4l0 0c-11.17,-3.93 -21.18,-3.02 -29.85,0.6 -11.52,4.83 -21.06,14.54 -28.17,24.34 -5.96,8.17 -10.24,16.47 -12.64,22.21 12.48,0.34 24.83,0.4 37.19,0.44l16.22 0.09 0.03 0 12.42 0.12z"/>
  </g>
 </g>
</svg>
