<?xml version="1.0" encoding="UTF-8"?>
<!DOCTYPE svg PUBLIC "-//W3C//DTD SVG 1.1//EN" "http://www.w3.org/Graphics/SVG/1.1/DTD/svg11.dtd">
<!-- Creator: CorelDRAW -->
<svg xmlns="http://www.w3.org/2000/svg" xml:space="preserve" width="10.1598mm" height="10.1598mm" version="1.1" style="shape-rendering:geometricPrecision; text-rendering:geometricPrecision; image-rendering:optimizeQuality; fill-rule:evenodd; clip-rule:evenodd"
viewBox="0 0 1015.98 1015.98"
 xmlns:xlink="http://www.w3.org/1999/xlink"
 xmlns:xodm="http://www.corel.com/coreldraw/odm/2003">
 <defs>
  <style type="text/css">
   <![CDATA[
    .fil2 {fill:#FEFEFE}
    .fil1 {fill:#201E1E}
    .fil0 {fill:#201E1E}
   ]]>
  </style>
 </defs>
 <g id="Camada_x0020_1">
  <metadata id="CorelCorpID_0Corel-Layer"/>
  <g id="_1872991185776">
   <g>
    <path class="fil0" d="M638.28 322.06l-279.6 0 0 35.98c-15.16,36.93 -21.9,61.71 -22.89,88.29l0 286.14c-3.27,53.31 43.65,70.28 77.26,75.21 53.46,2.7 91.02,0.53 192.53,0 48.52,-2.07 73.56,-40.72 71.94,-106.28 56.51,-8.37 99.86,-13.86 115.57,-79.02 12.57,-52.14 11.05,-145.12 -31.09,-186.37 -18.13,-17.75 -41.9,-26.36 -71.4,-25.66 -20.98,0.78 -37.34,-7.88 -52.32,-52.31l0 -35.98zm36.89 146.46c-0.13,-15.19 28.24,-17.96 50.54,-5.62 33.94,18.76 39.32,80.05 36.16,114.28 -3.01,32.57 -5.86,59.89 -38.4,73 -15.55,6.28 -31.11,5.35 -46.67,-2.62l-1.63 -179.04z"/>
    <path class="fil1" d="M337.35 8.45c0,0 -11.81,117 165.25,176.58 0,0 22.3,-141.83 -165.25,-176.58z"/>
    <path class="fil1" d="M672.92 22.46c0,-0.85 -2.15,-1.15 -3.07,-0.85 -51.5,6.73 -105.26,24.47 -139.08,66.1 -19.03,23.45 -29.97,52.93 -31.71,83.03 -0.35,6.02 -0.5,12.24 0.25,18.25 0.15,1.04 2.31,1.02 3.03,0.83 50.12,-13.98 100.65,-36.93 134.99,-77.33 17.96,-21.14 30.99,-47.08 34.77,-74.73 0.62,-5.02 1.22,-10.24 0.82,-15.3z"/>
    <path class="fil1" d="M499.13 183.4c-0.94,6.27 -1.87,12.53 -2.8,18.8 -1.49,9.9 -2.96,19.8 -4.44,29.7 -0.34,2.26 -0.68,4.52 -1.01,6.78 -0.05,0.33 7.18,0.39 7.23,0.07 0.94,-6.27 1.87,-12.53 2.81,-18.8 1.49,-9.9 2.95,-19.8 4.43,-29.7 0.34,-2.26 0.68,-4.52 1.02,-6.78 0.05,-0.34 -7.19,-0.39 -7.24,-0.07z"/>
    <g>
     <path class="fil2" d="M619.41 508.14c-5.64,7.07 -11.3,14.13 -16.96,21.19 -6.46,-44.89 -45.43,-79.2 -91.95,-79 -50.37,0.23 -91.44,40.79 -92.2,91.03 -0.1,6.48 13.49,6.24 13.59,-0.34 0.66,-43.13 34.53,-80.93 78.86,-80.93 41.61,-0.01 73.95,33.18 78.53,72.88 -6.12,-4.81 -12.25,-9.62 -18.38,-14.43 -4.78,-3.76 -16.22,-1 -9.27,4.47 10.55,8.28 21.1,16.58 31.64,24.86 2.21,1.73 7.77,4.45 10.24,1.35 9.05,-11.3 18.08,-22.59 27.12,-33.9 4.14,-5.16 -7.68,-11.58 -11.22,-7.18z"/>
     <path class="fil2" d="M594.6 597.69c-0.65,42.65 -33.37,78.6 -76.3,81.78 -43.05,3.19 -80.07,-29.01 -84,-71.07 6.15,4.83 12.32,9.68 18.48,14.52 3.12,2.44 14.93,-2.93 12.15,-5.13 -10.55,-8.29 -21.1,-16.57 -31.64,-24.85 -2.88,-2.27 -10.04,0.4 -12.08,2.95 -9.04,11.3 -18.08,22.61 -27.12,33.9 -3,3.75 9.75,2.04 12.01,-0.79 5.87,-7.33 11.72,-14.65 17.58,-21.97 5.12,45.18 41.68,83.6 88.8,85.09 50.98,1.6 92.21,-39.45 92.97,-89.95 0.11,-6.07 -10.73,-12.78 -10.85,-4.48z"/>
    </g>
    <path class="fil0" d="M363.14 309.46l270.88 0c6.93,0 12.59,-5.66 12.59,-12.6l0 -50.42c0,-6.93 -5.66,-12.6 -12.59,-12.6l-270.88 0c-6.93,0 -12.6,5.67 -12.6,12.6l0 50.42c0,6.94 5.67,12.6 12.6,12.6z"/>
   </g>
   <path class="fil1" d="M204.72 912.3c-0.93,1.2 -2.18,1.93 -3.76,2.2 -1.57,0.28 -3.08,-0.13 -4.54,-1.26l-8.05 -6.22c-1.27,-0.99 -1.99,-2.31 -2.16,-3.94 -0.17,-1.62 0.2,-3.04 1.12,-4.24l46.18 -59.67 -1.02 -0.79 -57.53 51.91c-1.18,1 -2.46,1.55 -3.82,1.64 -1.37,0.1 -2.62,-0.28 -3.72,-1.14l-3.32 -2.57c-1.28,-0.99 -2.05,-2.19 -2.3,-3.62 -0.27,-1.42 -0.02,-2.73 0.76,-3.89l36.93 -68.07 -1.15 -0.88 -46.28 59.8c-0.92,1.19 -2.17,1.92 -3.75,2.2 -1.57,0.29 -3.08,-0.14 -4.54,-1.26l-6.13 -4.74c-1.19,-0.93 -1.89,-2.22 -2.11,-3.88 -0.21,-1.67 0.15,-3.09 1.07,-4.28l71 -91.76c0.99,-1.28 2.31,-2.02 3.98,-2.24 1.66,-0.21 3.09,0.15 4.27,1.07l18.53 14.34c1.28,0.99 2.05,2.2 2.32,3.61 0.25,1.44 0,2.73 -0.78,3.91l-26.49 46.92 1.15 0.89 39.4 -36.93c0.94,-1.04 2.13,-1.62 3.58,-1.74 1.44,-0.09 2.8,0.34 4.08,1.33l17 13.16c1.45,1.12 2.24,2.47 2.37,4.06 0.12,1.61 -0.31,3.05 -1.29,4.32l-71 91.76zm64.67 34.57c-0.68,1.35 -1.79,2.3 -3.33,2.84 -1.55,0.56 -3.09,0.44 -4.63,-0.34l-29.43 -14.84c-1.34,-0.68 -2.28,-1.82 -2.81,-3.42 -0.52,-1.58 -0.44,-3.05 0.24,-4.4l52.26 -103.58c0.73,-1.44 1.89,-2.42 3.48,-2.95 1.59,-0.53 3.06,-0.45 4.4,0.24l29.43 14.84c1.54,0.78 2.55,1.95 3.03,3.52 0.47,1.57 0.34,3.07 -0.38,4.51l-4.15 8.22c-0.73,1.45 -1.85,2.43 -3.37,2.92 -1.51,0.5 -3.05,0.37 -4.59,-0.41l-14.86 -7.5 -13.17 26.11 7.79 3.93c1.63,0.82 2.69,1.96 3.16,3.41 0.49,1.45 0.31,2.99 -0.51,4.62l-4.81 9.53c-0.77,1.54 -1.9,2.57 -3.37,3.09 -1.47,0.52 -3.03,0.37 -4.66,-0.45l-7.79 -3.93 -14.56 28.85 14.86 7.49c1.54,0.78 2.56,1.93 3.06,3.45 0.51,1.52 0.36,3.05 -0.41,4.59l-4.88 9.66zm103.19 -60.51c0.52,-1.87 0.46,-3.28 -0.16,-4.24 -0.63,-0.96 -1.62,-1.62 -2.96,-2l-3.9 -1.09 -8.7 31.13 3.9 1.08c3,0.85 4.96,-0.34 5.86,-3.56l5.96 -21.32zm-2.68 96.05c0.06,1.81 -0.74,3.16 -2.38,4.04 -1.65,0.88 -3.3,1.09 -4.96,0.63l-9.34 -2.61c-1.24,-0.35 -2.27,-0.98 -3.09,-1.87 -0.81,-0.9 -1.2,-2.01 -1.16,-3.35 0.14,-5.33 0.95,-10.59 2.4,-15.77l7.21 -25.84c0.38,-1.34 0.29,-2.6 -0.28,-3.77 -0.57,-1.16 -1.74,-1.99 -3.5,-2.48l-3.59 -1 -12.3 44.03c-0.41,1.46 -1.34,2.6 -2.8,3.41 -1.46,0.82 -2.97,1.03 -4.52,0.59l-9.96 -2.78c-1.45,-0.41 -2.59,-1.34 -3.42,-2.81 -0.82,-1.45 -1.02,-2.9 -0.62,-4.36l31.22 -111.74c0.44,-1.55 1.38,-2.74 2.84,-3.57 1.47,-0.82 2.92,-1.02 4.37,-0.62l21.33 5.96c2.58,0.72 5.16,1.91 7.71,3.57 2.56,1.68 4.68,3.72 6.34,6.15 1.68,2.42 2.86,5.26 3.57,8.54 0.71,3.28 0.52,6.84 -0.55,10.67l-7.73 27.7c-0.85,3 -2.38,5.4 -4.62,7.19 -2.22,1.77 -5.01,3.04 -8.35,3.79l0.16 0.04c2.36,2.34 4.14,4.87 5.33,7.61 1.2,2.74 1.36,5.61 0.53,8.62l-7.05 25.21c-0.75,2.71 -1.35,5.27 -1.81,7.72 -0.47,2.44 -0.79,4.81 -0.98,7.1zm69.91 14.82c-0.28,1.49 -1.08,2.7 -2.41,3.66 -1.33,0.96 -2.84,1.28 -4.54,0.97l-32.41 -6.02c-1.48,-0.28 -2.69,-1.12 -3.64,-2.49 -0.95,-1.39 -1.28,-2.81 -1,-4.3l21.2 -114.06c0.3,-1.59 1.13,-2.86 2.52,-3.81 1.38,-0.95 2.81,-1.28 4.29,-1.01l32.4 6.03c1.7,0.32 3,1.16 3.89,2.52 0.9,1.39 1.2,2.86 0.9,4.45l-1.68 9.06c-0.3,1.58 -1.1,2.84 -2.42,3.74 -1.32,0.9 -2.83,1.2 -4.53,0.89l-16.36 -3.05 -5.34 28.75 8.58 1.6c1.79,0.33 3.13,1.12 3.99,2.39 0.86,1.25 1.13,2.78 0.8,4.58l-1.95 10.49c-0.32,1.69 -1.11,2.99 -2.37,3.9 -1.28,0.92 -2.81,1.21 -4.61,0.88l-8.57 -1.6 -5.91 31.78 16.36 3.04c1.69,0.31 3,1.13 3.89,2.45 0.92,1.32 1.21,2.83 0.9,4.52l-1.98 10.64zm78.36 -14.09c-0.11,3.23 -0.86,6.3 -2.25,9.22 -1.39,2.92 -3.2,5.53 -5.48,7.82 -2.28,2.31 -4.98,4.13 -8.07,5.49 -3.12,1.34 -6.55,1.96 -10.3,1.84 -3.76,-0.12 -7.24,-0.97 -10.48,-2.52 -3.21,-1.56 -5.95,-3.56 -8.19,-6.01 -2.23,-2.44 -3.95,-5.17 -5.21,-8.17 -1.24,-3 -1.82,-6.13 -1.71,-9.35l3.19 -98.36c0.05,-1.61 0.67,-2.98 1.83,-4.14 1.15,-1.15 2.54,-1.69 4.13,-1.64l9.31 0.3c1.69,0.06 3.13,0.69 4.28,1.91 1.11,1.23 1.66,2.65 1.61,4.26l-3.17 97.88c-0.04,1.18 0.41,2.11 1.39,2.79 0.95,0.68 2.19,1.04 3.73,1.09 1.43,0.04 2.65,-0.25 3.64,-0.86 1.02,-0.61 1.53,-1.51 1.57,-2.69l3.17 -97.87c0.05,-1.61 0.7,-3 1.89,-4.15 1.22,-1.14 2.59,-1.68 4.07,-1.64l8.5 0.28c1.7,0.06 3.11,0.68 4.2,1.91 1.07,1.22 1.58,2.64 1.53,4.25l-3.18 98.36zm64.4 -94.88c0.18,1.49 -0.21,2.9 -1.2,4.21 -0.98,1.32 -2.32,2.07 -4.04,2.28l-9.13 1.09 11.93 99.3c0.17,1.51 -0.25,2.92 -1.29,4.23 -1.03,1.32 -2.3,2.07 -3.8,2.25l-10.27 1.24c-1.71,0.2 -3.2,-0.22 -4.46,-1.26 -1.27,-1.04 -1.98,-2.31 -2.16,-3.81l-11.94 -99.31 -9.78 1.18c-1.71,0.21 -3.23,-0.2 -4.54,-1.24 -1.32,-1.04 -2.07,-2.31 -2.26,-3.79l-1.21 -10.12c-0.19,-1.6 0.23,-3.06 1.27,-4.38 1.03,-1.33 2.4,-2.08 4.12,-2.28l40.9 -4.92c1.72,-0.2 3.2,0.21 4.47,1.25 1.26,1.04 1.99,2.37 2.18,3.96l1.21 10.12zm59.99 94.76c0.35,1.47 0.09,2.91 -0.74,4.31 -0.84,1.41 -2.09,2.31 -3.77,2.7l-9.92 2.29c-1.57,0.37 -3.05,0.09 -4.41,-0.81 -1.38,-0.89 -2.23,-2.08 -2.57,-3.56l-26.09 -113.04c-0.36,-1.56 -0.12,-3.06 0.72,-4.48 0.83,-1.4 2.04,-2.28 3.61,-2.65l9.92 -2.28c1.68,-0.39 3.2,-0.14 4.58,0.75 1.36,0.91 2.23,2.15 2.6,3.72l26.07 113.05zm71.03 -22.85c0.5,1.43 0.41,2.89 -0.27,4.38 -0.68,1.49 -1.83,2.52 -3.46,3.09l-31.02 10.83c-1.4,0.48 -2.87,0.36 -4.35,-0.37 -1.51,-0.73 -2.51,-1.8 -3.01,-3.23l-38.22 -109.54c-0.54,-1.52 -0.44,-3.04 0.29,-4.55 0.7,-1.5 1.78,-2.5 3.18,-2.99l9.86 -3.44c1.6,-0.56 3.14,-0.47 4.57,0.28 1.47,0.75 2.47,1.89 2.99,3.41l32.69 93.67 15.57 -5.43c1.62,-0.57 3.16,-0.51 4.6,0.19 1.44,0.69 2.45,1.86 3.01,3.48l3.57 10.22zm44.59 -21.15c0.68,1.36 0.77,2.82 0.29,4.38 -0.49,1.56 -1.5,2.73 -3.04,3.5l-9.11 4.54c-1.44,0.72 -2.94,0.8 -4.48,0.24 -1.55,-0.55 -2.65,-1.5 -3.33,-2.85l-51.74 -103.84c-0.72,-1.44 -0.84,-2.95 -0.35,-4.52 0.47,-1.57 1.45,-2.7 2.9,-3.43l9.1 -4.54c1.55,-0.76 3.08,-0.87 4.62,-0.32 1.55,0.56 2.68,1.56 3.4,3l51.74 103.84zm-8.26 -136.67c1.18,-0.75 2.6,-0.99 4.25,-0.7 1.65,0.29 2.91,1.12 3.78,2.48 0.34,0.55 0.51,1.02 0.51,1.4l34.79 93.91 13.51 -8.58c1.36,-0.86 2.81,-1.13 4.38,-0.78 1.56,0.35 2.8,1.26 3.73,2.71l5.81 9.13c0.8,1.28 1.05,2.72 0.73,4.32 -0.32,1.61 -1.16,2.85 -2.52,3.71l-28.5 18.12c-1.37,0.87 -2.84,1.1 -4.44,0.71 -1.58,-0.4 -2.79,-1.23 -3.6,-2.5 -0.29,-0.45 -0.42,-0.88 -0.42,-1.26l-35.2 -95.75 -11.45 7.27c-1.46,0.93 -2.97,1.21 -4.53,0.87 -1.56,-0.35 -2.77,-1.2 -3.64,-2.57l-4.95 -7.77c-0.86,-1.36 -1.13,-2.85 -0.82,-4.46 0.32,-1.61 1.21,-2.87 2.67,-3.79l25.91 -16.47zm126.81 54.36c0.98,1.15 1.43,2.54 1.33,4.18 -0.08,1.63 -0.78,3.01 -2.09,4.14l-25.03 21.45c-1.14,0.97 -2.55,1.4 -4.23,1.28 -1.66,-0.13 -2.98,-0.78 -3.97,-1.92l-75.49 -88.09c-1.05,-1.23 -1.51,-2.68 -1.39,-4.35 0.13,-1.68 0.77,-3 1.91,-3.98l25.03 -21.45c1.31,-1.12 2.78,-1.6 4.41,-1.44 1.63,0.17 2.98,0.87 4.02,2.09l5.99 6.99c1.06,1.24 1.52,2.65 1.4,4.24 -0.13,1.59 -0.84,2.95 -2.15,4.08l-12.64 10.83 19.04 22.2 6.62 -5.68c1.39,-1.19 2.84,-1.73 4.37,-1.61 1.52,0.12 2.88,0.87 4.06,2.26l6.94 8.1c1.13,1.31 1.64,2.74 1.56,4.3 -0.09,1.56 -0.82,2.94 -2.21,4.13l-6.63 5.68 21.03 24.54 12.64 -10.83c1.31,-1.12 2.76,-1.63 4.36,-1.5 1.59,0.12 2.95,0.84 4.07,2.15l7.05 8.21z"/>
   <polygon class="fil1" points="70.71,612.67 58.55,637.07 32.73,641.69 51.04,661.38 47.23,688.64 70.71,676.41 94.19,688.64 90.37,661.38 108.69,641.69 82.86,637.07 "/>
   <polygon class="fil1" points="130.69,710.14 118.53,734.54 92.71,739.15 111.02,758.85 107.21,786.1 130.69,773.88 154.17,786.1 150.35,758.85 168.67,739.15 142.84,734.54 "/>
   <polygon class="fil1" points="945.27,612.67 957.43,637.07 983.25,641.69 964.94,661.38 968.75,688.64 945.27,676.41 921.79,688.64 925.61,661.38 907.29,641.69 933.12,637.07 "/>
   <polygon class="fil1" points="885.29,710.14 897.45,734.54 923.27,739.15 904.96,758.85 908.77,786.1 885.29,773.88 861.81,786.1 865.63,758.85 847.31,739.15 873.14,734.54 "/>
  </g>
 </g>
</svg>
