<?xml version="1.0" encoding="UTF-8"?>
<!DOCTYPE svg PUBLIC "-//W3C//DTD SVG 1.1//EN" "http://www.w3.org/Graphics/SVG/1.1/DTD/svg11.dtd">
<!-- Creator: CorelDRAW -->
<svg xmlns="http://www.w3.org/2000/svg" xml:space="preserve" width="10.1598mm" height="10.1598mm" version="1.1" style="shape-rendering:geometricPrecision; text-rendering:geometricPrecision; image-rendering:optimizeQuality; fill-rule:evenodd; clip-rule:evenodd"
viewBox="0 0 1015.98 1015.98"
 xmlns:xlink="http://www.w3.org/1999/xlink"
 xmlns:xodm="http://www.corel.com/coreldraw/odm/2003">
 <defs>
  <style type="text/css">
   <![CDATA[
    .fil1 {fill:#201E1E}
    .fil0 {fill:#201E1E;fill-rule:nonzero}
   ]]>
  </style>
 </defs>
 <g id="Camada_x0020_1">
  <metadata id="CorelCorpID_0Corel-Layer"/>
  <g id="_1872021289568">
   <path class="fil0" d="M930.45 779.67c1.13,0.85 1.84,1.96 2.1,3.32 0.25,1.39 -0.06,2.67 -0.97,3.86l-5.64 7.58c-0.8,1.05 -1.82,1.7 -3.16,1.96 -1.3,0.25 -2.58,0.02 -3.8,-0.66l-10.7 -6.92 -6.21 8.34 9.62 8.8c0.93,0.94 1.45,2.04 1.56,3.35 0.08,1.27 -0.26,2.44 -0.97,3.41l-4.06 5.42c-0.79,1.04 -1.92,1.67 -3.35,1.9 -1.44,0.2 -2.75,-0.12 -3.88,-0.97l-0.43 -0.34 -73.6 -70.5c-0.99,-0.87 -1.56,-1.98 -1.64,-3.34 -0.11,-1.37 0.26,-2.59 1.02,-3.64l8.29 -11.04c0.85,-1.13 1.9,-1.82 3.18,-2.04 1.28,-0.2 2.52,-0.03 3.75,0.54l88.89 50.97zm-69.45 -21.86l-0.77 1.02 27.11 25.01 4.48 -5.99 -30.82 -20.04zm19.33 60.91c1.95,2.05 3.37,4.4 4.25,7.16 0.88,2.75 1.28,5.59 1.22,8.51 -0.03,2.93 -0.71,5.87 -1.92,8.82 -1.28,2.99 -3.05,5.57 -5.35,7.78 -2.38,2.27 -5.07,4 -8.08,5.14 -3.01,1.14 -5.99,1.68 -8.94,1.65 -2.98,0 -5.82,-0.51 -8.58,-1.45 -2.72,-0.97 -5.07,-2.44 -7.04,-4.48l-49.01 -50.92c-1.95,-2.05 -3.34,-4.43 -4.2,-7.21 -0.85,-2.78 -1.22,-5.65 -1.13,-8.6 0.08,-2.98 0.79,-5.91 2.1,-8.8 1.33,-2.89 3.18,-5.47 5.53,-7.77 2.3,-2.19 4.94,-3.92 7.89,-5.11 2.93,-1.23 5.88,-1.79 8.8,-1.73 2.92,0.05 5.74,0.56 8.43,1.56 2.72,0.99 5.05,2.49 7.01,4.54l9.79 10.16c1.02,1.07 1.54,2.32 1.48,3.75 -0.06,1.44 -0.63,2.66 -1.74,3.71l-6.3 6.04c-0.93,0.95 -2.12,1.4 -3.55,1.4 -1.44,0 -2.66,-0.54 -3.71,-1.62l-9.28 -9.65c-0.8,-0.83 -1.7,-1.14 -2.7,-0.96 -0.99,0.17 -1.96,0.73 -2.89,1.64 -0.97,0.91 -1.56,1.87 -1.76,2.84 -0.23,1.02 0.05,1.93 0.85,2.73l48.22 50.12c0.71,0.73 1.59,1.02 2.58,0.85 1,-0.2 1.96,-0.74 2.93,-1.65 0.93,-0.91 1.53,-1.87 1.73,-2.86 0.22,-1 -0.06,-1.88 -0.77,-2.62l-9.45 -9.82c-0.97,-1.02 -1.45,-2.27 -1.45,-3.74 0.03,-1.45 0.54,-2.64 1.48,-3.55l6.3 -6.07c1.08,-1.06 2.36,-1.56 3.8,-1.54 1.48,0.03 2.7,0.57 3.67,1.59l9.79 10.16zm-105.53 0.97c-0.71,-0.89 -1.59,-1.28 -2.58,-1.19 -1.03,0.08 -2.07,0.59 -3.15,1.47 -1.05,0.82 -1.71,1.71 -2.02,2.7 -0.31,0.96 -0.08,1.87 0.63,2.75l43.62 54.18c0.65,0.8 1.48,1.17 2.5,1.08 0.99,-0.11 2.01,-0.54 3.03,-1.39 1.11,-0.88 1.82,-1.82 2.1,-2.78 0.32,-0.97 0.15,-1.85 -0.5,-2.67l-43.63 -54.15zm57.93 41.38c1.73,2.13 2.98,4.65 3.8,7.63 0.83,2.95 1.08,6.02 0.8,9.12 -0.26,3.12 -1.05,6.1 -2.42,8.94 -1.33,2.84 -3.34,5.33 -5.98,7.43 -2.64,2.13 -5.48,3.58 -8.55,4.25 -3.06,0.72 -6.13,0.89 -9.19,0.43 -3.07,-0.43 -5.97,-1.33 -8.75,-2.72 -2.75,-1.39 -4.99,-3.18 -6.69,-5.31l-42.58 -52.85c-1.7,-2.12 -2.95,-4.68 -3.72,-7.66 -0.79,-3.01 -1.04,-6.05 -0.76,-9.08 0.26,-3.04 1.05,-5.96 2.44,-8.77 1.37,-2.81 3.38,-5.28 6.05,-7.38 2.61,-2.13 5.45,-3.58 8.48,-4.32 3.04,-0.76 6.1,-0.96 9.14,-0.59 3.1,0.37 5.99,1.24 8.71,2.69 2.73,1.43 4.94,3.21 6.65,5.34l42.57 52.85zm-42.98 52.53c0.66,1.17 0.83,2.42 0.52,3.81 -0.34,1.39 -1.14,2.47 -2.44,3.23l-7.67 4.49c-1.19,0.73 -2.49,0.88 -3.86,0.51 -1.39,-0.4 -2.41,-1.17 -3.09,-2.3l-51.31 -87.33c-0.72,-1.22 -0.91,-2.53 -0.57,-3.92 0.31,-1.39 1.08,-2.44 2.3,-3.15l7.63 -4.51c1.31,-0.77 2.64,-0.94 4,-0.54 1.39,0.39 2.45,1.19 3.16,2.41l51.33 87.3zm-32.09 18.74c1.05,1.19 1.27,2.53 0.68,4.03 -0.62,1.5 -1.59,2.58 -2.98,3.2l-7.69 3.49c-1.06,0.46 -2.08,0.63 -3.12,0.46 -1.06,-0.14 -1.93,-0.66 -2.64,-1.59 -2.9,-3.64 -5.31,-7.6 -7.24,-11.89l-9.68 -21.35c-0.48,-1.11 -1.25,-1.89 -2.27,-2.35 -1.05,-0.45 -2.3,-0.37 -3.75,0.28l-2.95 1.33 16.44 36.39c0.53,1.23 0.56,2.5 0.05,3.87 -0.51,1.35 -1.41,2.32 -2.69,2.92l-8.23 3.71c-1.19,0.54 -2.47,0.54 -3.83,0.03 -1.4,-0.51 -2.34,-1.36 -2.88,-2.55l-41.74 -92.33c-0.57,-1.27 -0.6,-2.61 -0.09,-3.98 0.51,-1.36 1.37,-2.32 2.56,-2.86l17.59 -7.95c2.13,-0.96 4.54,-1.62 7.19,-1.93 2.64,-0.31 5.19,-0.14 7.66,0.57 2.47,0.69 4.85,1.93 7.18,3.72 2.29,1.78 4.17,4.25 5.59,7.43l10.36 22.88c1.13,2.5 1.44,4.97 0.94,7.41 -0.49,2.44 -1.65,4.85 -3.47,7.21l0.14 -0.05c2.9,0.24 5.51,0.93 7.83,2.09 2.34,1.16 4.07,3.01 5.2,5.48l9.4 20.83c1.02,2.25 2.04,4.29 3.12,6.19 1.04,1.9 2.18,3.66 3.32,5.31zm-52.03 -65.82c-0.71,-1.54 -1.53,-2.44 -2.49,-2.76 -0.94,-0.28 -1.99,-0.17 -3.1,0.35l-3.2 1.45 11.63 25.71 3.21 -1.45c2.46,-1.13 3.12,-3.04 1.9,-5.68l-7.95 -17.62zm-7.01 92.02c0.49,1.33 0.46,2.63 -0.11,3.94 -0.54,1.28 -1.5,2.19 -2.93,2.67l-8.9 3.14c-1.23,0.46 -2.47,0.43 -3.7,-0.11 -1.22,-0.51 -2.18,-1.39 -2.8,-2.64l-5.06 -11.69 -9.82 3.46 3.12 12.69c0.29,1.28 0.09,2.49 -0.56,3.63 -0.65,1.14 -1.54,1.91 -2.7,2.3l-6.36 2.27c-1.25,0.42 -2.53,0.34 -3.85,-0.31 -1.31,-0.63 -2.22,-1.59 -2.67,-2.93l-0.21 -0.54 -22.1 -99.48c-0.34,-1.27 -0.17,-2.49 0.51,-3.68 0.68,-1.19 1.62,-2.02 2.86,-2.45l13.01 -4.62c1.32,-0.45 2.58,-0.43 3.77,0.09 1.19,0.54 2.12,1.39 2.84,2.52l45.66 91.74zm-45.66 -56.72l-1.2 0.43 8.66 35.85 7.04 -2.5 -14.5 -33.78zm-18 61.03c0.54,2.78 0.43,5.53 -0.34,8.32 -0.79,2.77 -1.98,5.39 -3.63,7.8 -1.65,2.41 -3.81,4.51 -6.47,6.32 -2.67,1.8 -5.59,2.99 -8.71,3.58 -3.24,0.63 -6.42,0.57 -9.57,-0.11 -3.15,-0.71 -5.93,-1.87 -8.4,-3.52 -2.47,-1.64 -4.6,-3.61 -6.36,-5.9 -1.79,-2.3 -2.92,-4.83 -3.46,-7.61l-13.14 -69.45c-0.54,-2.78 -0.37,-5.53 0.43,-8.32 0.82,-2.8 2.06,-5.42 3.74,-7.83 1.7,-2.44 3.89,-4.48 6.59,-6.19 2.69,-1.7 5.64,-2.86 8.88,-3.49 3.12,-0.6 6.27,-0.6 9.4,0 3.12,0.63 5.89,1.74 8.28,3.41 2.44,1.64 4.52,3.6 6.25,5.93 1.69,2.3 2.84,4.83 3.37,7.6l2.61 13.86c0.28,1.47 0,2.8 -0.82,3.97 -0.82,1.17 -1.99,1.9 -3.47,2.16l-8.59 1.65c-1.28,0.22 -2.53,-0.04 -3.72,-0.8 -1.2,-0.8 -1.96,-1.93 -2.22,-3.4l-2.49 -13.17c-0.2,-1.11 -0.8,-1.88 -1.73,-2.28 -0.91,-0.36 -2.04,-0.45 -3.32,-0.23 -1.31,0.26 -2.33,0.74 -3.04,1.45 -0.74,0.71 -0.99,1.62 -0.79,2.73l12.97 68.34c0.16,1.03 0.74,1.73 1.69,2.13 0.91,0.4 2.02,0.48 3.33,0.22 1.31,-0.25 2.3,-0.73 3.04,-1.44 0.71,-0.71 0.99,-1.59 0.79,-2.61l-2.55 -13.4c-0.26,-1.39 0.03,-2.67 0.85,-3.91 0.82,-1.23 1.87,-1.94 3.14,-2.19l8.6 -1.62c1.48,-0.28 2.84,0 4.03,0.83 1.23,0.82 1.94,1.93 2.19,3.31l2.64 13.86zm-79.04 27.33c0.05,1.33 -0.4,2.52 -1.36,3.6 -0.94,1.06 -2.16,1.62 -3.66,1.68l-28.64 1.02c-1.31,0.05 -2.5,-0.43 -3.52,-1.42 -1.08,-1 -1.65,-2.16 -1.67,-3.46l-3.66 -101.24c-0.07,-1.42 0.41,-2.67 1.41,-3.72 0.97,-1.08 2.13,-1.65 3.44,-1.67l9.08 -0.35c1.5,-0.05 2.75,0.43 3.74,1.43 1.02,0.99 1.56,2.21 1.62,3.63l3.1 86.56 14.39 -0.5c1.5,-0.07 2.75,0.39 3.77,1.32 1.02,0.95 1.56,2.19 1.62,3.7l0.34 9.42zm-69.56 -85.94c0.08,-1.14 -0.29,-2.01 -1.09,-2.64 -0.79,-0.6 -1.9,-0.99 -3.29,-1.08 -1.3,-0.11 -2.41,0.09 -3.29,0.56 -0.91,0.52 -1.39,1.34 -1.47,2.47l-5.31 69.35c-0.09,1.02 0.28,1.84 1.08,2.49 0.79,0.63 1.87,1 3.17,1.08 1.4,0.11 2.56,-0.08 3.44,-0.6 0.88,-0.48 1.36,-1.24 1.45,-2.3l5.31 -69.33zm13.88 69.81c-0.21,2.73 -1.03,5.46 -2.47,8.18 -1.43,2.73 -3.36,5.14 -5.65,7.21 -2.34,2.07 -4.97,3.69 -7.89,4.86 -2.93,1.13 -6.11,1.56 -9.46,1.3 -3.38,-0.26 -6.44,-1.17 -9.14,-2.73 -2.75,-1.58 -5.05,-3.57 -6.98,-5.98 -1.96,-2.42 -3.46,-5.09 -4.51,-8.01 -1.05,-2.89 -1.48,-5.7 -1.28,-8.43l5.19 -67.66c0.2,-2.73 1.06,-5.45 2.56,-8.17 1.47,-2.7 3.35,-5.08 5.65,-7.12 2.27,-2.05 4.85,-3.64 7.8,-4.72 2.9,-1.11 6.05,-1.53 9.46,-1.25 3.34,0.26 6.44,1.14 9.14,2.67 2.72,1.53 5.07,3.49 7.06,5.85 1.99,2.39 3.49,4.99 4.51,7.91 1,2.9 1.4,5.71 1.19,8.43l-5.18 67.66zm-60.49 -9.87c-0.85,3.58 -2.16,6.81 -3.94,9.74 -1.8,2.89 -4.01,5.33 -6.56,7.29 -2.58,1.96 -5.57,3.38 -8.89,4.2 -3.35,0.88 -6.89,0.88 -10.63,0 -3.75,-0.88 -7.02,-2.33 -9.8,-4.28 -2.76,-1.97 -5.02,-4.18 -6.73,-6.73 -1.73,-2.53 -2.89,-5.2 -3.49,-7.98 -0.6,-2.81 -0.56,-5.56 0.09,-8.31l1.7 -7.3c0.34,-1.45 1.11,-2.55 2.3,-3.29 1.19,-0.74 2.47,-0.93 3.83,-0.63l7.41 1.74c1.36,0.34 2.44,1.08 3.24,2.29 0.76,1.23 0.99,2.56 0.62,4.04l-0.62 2.78c-0.52,2.13 -0.35,4 0.54,5.61 0.87,1.63 2.32,2.68 4.33,3.13 4.01,0.96 6.59,-0.96 7.69,-5.71 0.49,-2.04 0.69,-4.17 0.61,-6.41 -0.12,-2.24 -0.55,-4.57 -1.28,-6.98 -0.74,-2.38 -1.73,-4.85 -3.04,-7.32 -1.31,-2.47 -2.75,-5.26 -4.34,-8.35 -3.38,-5.73 -5.77,-11.75 -7.13,-18 -1.39,-6.26 -1.33,-12.54 0.12,-18.76 0.88,-3.77 2.24,-7.15 4.06,-10.15 1.81,-3.01 4.05,-5.45 6.69,-7.27 2.67,-1.87 5.65,-3.12 9,-3.78 3.35,-0.67 6.98,-0.54 10.9,0.37 3.23,0.77 6.07,2.05 8.6,3.83 2.52,1.82 4.54,3.95 6.07,6.45 1.56,2.47 2.62,5.11 3.16,7.91 0.56,2.79 0.5,5.54 -0.15,8.3l-1.73 7.4c-0.34,1.39 -1.08,2.45 -2.21,3.21 -1.14,0.74 -2.47,0.91 -4.03,0.56l-7.41 -1.75c-1.36,-0.31 -2.44,-1.08 -3.15,-2.24 -0.74,-1.23 -0.97,-2.5 -0.66,-3.87l0.89 -3.71c0.45,-1.9 0.34,-3.55 -0.35,-4.94 -0.71,-1.36 -1.82,-2.24 -3.38,-2.59 -1.56,-0.37 -3.03,-0.11 -4.45,0.78 -1.39,0.84 -2.33,2.27 -2.78,4.16 -0.46,1.94 -0.68,3.72 -0.68,5.37 0,1.64 0.22,3.4 0.7,5.31 0.46,1.9 1.26,4.09 2.36,6.58 1.11,2.47 2.53,5.5 4.29,9.11 0.11,0.4 0.23,0.8 0.39,1.2 0.15,0.36 0.29,0.71 0.41,1.02 1.36,2.83 2.69,5.7 4.03,8.62 1.36,2.92 2.4,5.97 3.18,9.09 0.76,3.12 1.19,6.39 1.3,9.79 0.11,3.4 -0.26,6.89 -1.08,10.47zm-71.86 -87.47c0.39,-1.03 0.34,-1.99 -0.23,-2.84 -0.57,-0.82 -1.51,-1.51 -2.81,-2.05 -1.22,-0.48 -2.33,-0.62 -3.32,-0.42 -1.03,0.2 -1.7,0.83 -2.13,1.87l-26.17 64.46c-0.39,0.93 -0.31,1.84 0.26,2.7 0.59,0.82 1.47,1.5 2.69,1.98 1.31,0.54 2.47,0.71 3.46,0.51 1,-0.23 1.68,-0.79 2.08,-1.75l26.17 -64.46zm-8.04 70.76c-1.02,2.52 -2.64,4.85 -4.82,7.03 -2.22,2.13 -4.77,3.83 -7.61,5.11 -2.84,1.28 -5.81,2.05 -8.97,2.22 -3.14,0.22 -6.3,-0.34 -9.42,-1.6 -3.12,-1.27 -5.76,-3.09 -7.86,-5.41 -2.13,-2.33 -3.75,-4.94 -4.83,-7.81 -1.13,-2.89 -1.76,-5.9 -1.87,-9 -0.11,-3.09 0.35,-5.87 1.37,-8.43l25.54 -62.87c1.02,-2.52 2.64,-4.85 4.88,-6.97 2.24,-2.17 4.77,-3.84 7.57,-5.09 2.79,-1.27 5.74,-1.98 8.86,-2.13 3.1,-0.13 6.25,0.43 9.37,1.68 3.15,1.27 5.79,3.07 7.91,5.34 2.14,2.3 3.79,4.85 4.94,7.75 1.17,2.84 1.82,5.81 1.91,8.88 0.06,3.06 -0.43,5.87 -1.45,8.43l-25.52 62.87zm-58.61 -22.74c-1.78,3.1 -3.91,5.39 -6.35,6.93 -2.44,1.5 -5,2.41 -7.69,2.78 -2.7,0.34 -5.37,0.19 -7.98,-0.4 -2.64,-0.6 -5.03,-1.53 -7.09,-2.72l-18.02 -10.45c-1.12,-0.65 -1.88,-1.68 -2.25,-3.09 -0.37,-1.43 -0.22,-2.7 0.43,-3.83l50.75 -87.53c0.7,-1.2 1.78,-2.02 3.17,-2.39 1.42,-0.37 2.7,-0.23 3.8,0.42l18.03 10.45c2.07,1.19 4.06,2.81 5.87,4.8 1.82,1.95 3.27,4.23 4.32,6.72 1.02,2.5 1.48,5.23 1.36,8.12 -0.12,2.92 -1.05,5.87 -2.78,8.88l-35.57 61.31zm16.87 -67.55c0.85,-1.45 1.13,-2.64 0.85,-3.57 -0.29,-0.94 -1,-1.71 -2.13,-2.39l-4.37 -2.53 -36.1 62.25 4.39 2.53c1.14,0.67 2.19,0.84 3.18,0.56 1,-0.32 1.85,-1.05 2.56,-2.3l31.62 -54.55zm-34.09 -83.02c0.87,-0.37 1.67,-0.56 2.32,-0.59 0.69,-0.03 1.54,0.37 2.59,1.16l4.45 3.44c1.73,1.3 2.64,2.58 2.81,3.74 0.14,1.2 -0.11,2.24 -0.79,3.12 -0.71,0.91 -1.56,1.5 -2.61,1.76l-12.8 2.08c-1.77,0.3 -2.92,0.22 -3.52,-0.24l-3.92 -3c-1.19,-0.91 -1.85,-1.81 -1.93,-2.7 -0.09,-0.91 0.4,-1.62 1.39,-2.16l12.01 -6.61zm-61.42 118.81c-0.82,1.05 -1.93,1.68 -3.32,1.9 -1.42,0.23 -2.73,-0.11 -3.92,-1.05l-22.79 -17.51c-1.05,-0.79 -1.68,-1.93 -1.85,-3.38 -0.19,-1.44 0.12,-2.69 0.91,-3.75l61.73 -80.31c0.86,-1.11 2.02,-1.76 3.46,-1.97 1.45,-0.19 2.68,0.12 3.75,0.91l22.8 17.52c1.19,0.93 1.84,2.1 2.01,3.51 0.14,1.43 -0.2,2.68 -1.08,3.81l-4.88 6.36c-0.88,1.13 -1.98,1.78 -3.38,1.96 -1.39,0.19 -2.67,-0.18 -3.86,-1.08l-11.52 -8.86 -15.56 20.27 6.05 4.62c1.25,0.97 1.99,2.1 2.16,3.44 0.17,1.33 -0.26,2.61 -1.22,3.89l-5.65 7.37c-0.94,1.19 -2.07,1.9 -3.41,2.1 -1.35,0.23 -2.67,-0.17 -3.91,-1.13l-6.05 -4.66 -17.17 22.4 11.49 8.86c1.2,0.9 1.88,2.04 2.08,3.42 0.17,1.4 -0.2,2.68 -1.11,3.87l-5.76 7.49zm23.64 -98.51c-0.94,0.91 -2.13,1.36 -3.54,1.36 -1.45,0.02 -2.67,-0.52 -3.73,-1.62l-5.56 -5.76 -62.92 60.57c-0.97,0.91 -2.16,1.36 -3.6,1.33 -1.48,-0.03 -2.68,-0.51 -3.58,-1.45l-6.25 -6.52c-1.04,-1.09 -1.53,-2.33 -1.47,-3.75 0.06,-1.42 0.56,-2.61 1.5,-3.52l62.93 -60.57 -5.96 -6.21c-1.05,-1.09 -1.57,-2.36 -1.53,-3.81 0.02,-1.44 0.5,-2.63 1.47,-3.54l6.39 -6.19c1.02,-0.97 2.27,-1.45 3.71,-1.42 1.48,0.03 2.73,0.59 3.75,1.68l24.94 25.88c1.06,1.08 1.54,2.32 1.48,3.77 -0.05,1.42 -0.59,2.62 -1.61,3.61l-6.42 6.16zm-104.75 23.72c-1.09,0.88 -2.34,1.28 -3.73,1.23 -1.38,-0.09 -2.58,-0.72 -3.51,-1.91l-5.93 -7.35c-0.83,-1.02 -1.2,-2.18 -1.11,-3.52 0.05,-1.33 0.59,-2.52 1.59,-3.55l9.36 -8.62 -6.55 -8.12 -10.9 7.15c-1.14,0.68 -2.36,0.91 -3.63,0.66 -1.28,-0.23 -2.3,-0.83 -3.07,-1.77l-4.26 -5.27c-0.82,-1.03 -1.14,-2.27 -0.99,-3.72 0.17,-1.45 0.8,-2.62 1.9,-3.52l0.42 -0.34 86.57 -53.79c1.08,-0.76 2.3,-1.02 3.64,-0.76 1.36,0.23 2.44,0.88 3.26,1.9l8.65 10.76c0.89,1.11 1.28,2.3 1.17,3.58 -0.09,1.3 -0.57,2.46 -1.42,3.51l-71.46 73.45zm38.4 -61.87l-0.8 -0.97 -30.93 20.04 4.68 5.82 27.05 -24.89z"/>
   <path class="fil1" d="M405.51 314.79c-11.89,68.58 -63.25,74.68 -85.18,88.07 13.28,58.9 -2.56,88.35 -31.49,117.35 29.04,28.77 44.62,58.57 31.49,117.35 23.31,13.84 73.62,20.8 85.18,88.05 67.75,-9.86 82.8,-2.77 120.3,31.39 29.42,-19.38 39.27,-48.12 117.32,-31.59 15.46,-26.33 6.61,-30.9 31.86,-56.01 25.09,-24.91 30.9,-16.64 55.95,-31.84 -5.08,-27.08 -9.32,-41.84 0.21,-69.63 10.53,-30.72 22.63,-33.55 31.25,-47.72 -6.58,-10.82 -9.44,-10.09 -16.35,-19.06 -25.58,-33.16 -21.63,-64.14 -15.11,-98.29 -25.02,-15.31 -29.92,-6.07 -55.91,-31.89 -25.14,-24.96 -16.47,-29.77 -31.9,-55.97 -78.78,16.4 -87.69,-12.4 -117.32,-31.57 -35.84,34.25 -54.26,41.07 -120.3,31.36zm-14.87 -26.44c-12.42,29.39 -1,41.14 -28.18,68.16 -28.17,27.98 -39.62,15.47 -68.13,28.21 0.33,19.12 31.28,68.37 -11.36,110.24 -10.76,10.59 -24.22,15.34 -23.6,24.9 8.91,18.59 31.25,20.65 41.78,53.52 14.25,44.47 -7.46,52.32 -6.61,81.12 29.3,12.18 43.76,2.95 68.48,28.12 25.26,25.66 15.29,44.2 28.3,68.19 22.84,-0.45 64.09,-31.93 109.95,11.47 10.12,9.6 11.56,18.98 24.54,23.49 19.68,-9.59 16.17,-28.59 53.29,-41.57 42.78,-14.96 53.79,7.28 80.71,6.4 12.92,-25.52 2.55,-42.93 28.26,-68.49 26.08,-25.9 44.46,-15.49 68.42,-28.32 0.68,-26.55 -21.48,-37.86 -6.22,-80.53 12.13,-33.95 34.13,-36.17 41.63,-53.4 -7.35,-17.35 -30.71,-21.65 -41.72,-53.26 -13.99,-40.12 10.45,-68.36 4.1,-81.29 -19.92,-12.39 -40.39,-3.33 -65.65,-28.26 -25.29,-24.97 -15.64,-39.78 -28.24,-68.41 -23.1,-0.52 -63.17,31.81 -109.97,-11.3 -7.02,-6.45 -13.72,-22.59 -24.66,-22.69 -11.01,-0.08 -17.77,16.09 -24.8,22.52 -7.63,7.02 -17.25,13.87 -28.99,17.76 -44.03,14.64 -51.32,-6.34 -81.33,-6.58z"/>
   <path class="fil1" d="M604.34 482.66c-44.38,7.31 -56,28.14 -32.31,68.39 12.46,21.13 41.25,49.92 80.64,42.66 51.93,-9.56 74.33,-131.33 -48.33,-111.05zm-199.61 -0.92c-85.57,13.6 -47.5,146.27 36.71,105.04 67.15,-32.9 74.47,-122.72 -36.71,-105.04zm-10.15 132.25c44.94,87.31 213.65,91.5 262.28,0.06 -67.21,4.63 -103.44,-38.3 -118.2,-93.25l-25.84 -0.32c-13.44,54.65 -52.61,98.38 -118.24,93.51zm7.32 -152.13c-46.74,7.55 -71.79,35.75 -62.26,90.31 4.72,26.97 45.85,87.49 58.3,99.23 56.42,53.17 158.45,71.2 233.31,17.82 56.98,-40.59 123.93,-158.39 50.66,-197.75 -54.62,-29.35 -139.65,15.9 -210.73,-3.89 -22.6,-6.29 -45.35,-9.59 -69.28,-5.72z"/>
   <path class="fil1" d="M689.56 459.03c20.34,-43.31 -129.61,-181.17 -260.89,-92.94 -50.6,34.02 -86.96,92.88 -60.75,92.85 13.92,0 12.69,-25.05 46.74,-56.62 22.96,-21.3 54.5,-40.19 97.57,-43.73 41.17,-3.36 82.29,9.89 108.53,29.84 58.24,44.25 41.57,72.08 68.8,70.6z"/>
   <path class="fil1" d="M559.56 590.02c-20.71,-6.26 -17.67,7.43 -40,3.93 -8.62,-1.37 -36.95,-15.94 -26.74,8.37 5.87,13.93 68.87,24.56 66.74,-12.3z"/>
   <polygon class="fil1" points="112.94,636.04 124.71,659.7 149.73,664.12 132,683.21 135.69,709.62 112.94,697.79 90.19,709.62 93.88,683.21 76.14,664.12 101.16,659.7 "/>
   <polygon class="fil1" points="76.95,499.72 92.26,530.53 124.9,536.32 101.76,561.19 106.57,595.59 76.95,580.19 47.32,595.59 52.13,561.19 29,536.32 61.63,530.53 "/>
   <polygon class="fil1" points="90.9,385.7 102.68,409.36 127.7,413.79 109.97,432.87 113.65,459.29 90.9,447.45 68.15,459.29 71.84,432.87 54.11,413.79 79.13,409.36 "/>
   <polygon class="fil1" points="913.02,636.04 901.24,659.7 876.22,664.13 893.96,683.22 890.27,709.63 913.02,697.8 935.77,709.63 932.08,683.22 949.81,664.13 924.79,659.7 "/>
   <polygon class="fil1" points="939.02,499.73 923.71,530.53 891.08,536.31 914.21,561.19 909.4,595.6 939.02,580.19 968.65,595.6 963.84,561.19 986.98,536.31 954.34,530.53 "/>
   <polygon class="fil1" points="935.05,385.69 923.28,409.36 898.26,413.79 915.99,432.88 912.3,459.29 935.05,447.45 957.8,459.29 954.11,432.88 971.85,413.79 946.82,409.36 "/>
   <path class="fil0" d="M124.78 300.04c-1.62,-0.93 -2.94,-1.21 -3.99,-0.84 -1.04,0.36 -1.9,1.14 -2.59,2.34l-1.89 3.28 28.33 16.31 1.89 -3.29c1.53,-2.65 0.81,-4.82 -2.15,-6.52l-19.6 -11.28zm33.48 -4.14c3.4,1.96 5.96,4.25 7.65,6.9 1.7,2.65 2.81,5.4 3.3,8.25 0.5,2.85 0.43,5.67 -0.21,8.45 -0.65,2.8 -1.62,5.3 -2.92,7.53l-2.77 4.84 35.45 20.4c1.26,0.73 2.1,1.85 2.55,3.34 0.45,1.49 0.26,2.97 -0.55,4.37l-5 8.69c-0.71,1.23 -1.85,2.07 -3.38,2.45 -1.56,0.42 -2.95,0.27 -4.21,-0.44l-96.42 -55.51c-1.34,-0.76 -2.23,-1.93 -2.64,-3.48 -0.42,-1.54 -0.27,-2.95 0.43,-4.18l10.65 -18.49c1.28,-2.25 2.98,-4.31 5.11,-6.24 2.11,-1.91 4.51,-3.39 7.19,-4.41 2.68,-1.02 5.58,-1.43 8.78,-1.27 3.18,0.17 6.42,1.21 9.73,3.11l27.26 15.69zm12.65 -58.23c-1.4,-1.22 -2.65,-1.75 -3.74,-1.59 -1.1,0.15 -2.06,0.73 -2.95,1.76l-2.53 2.92 23.47 20.25 2.53 -2.92c1.96,-2.28 1.72,-4.46 -0.71,-6.56l-16.07 -13.86zm82.27 41.52c1.58,0.68 2.42,1.93 2.52,3.71 0.09,1.79 -0.4,3.31 -1.48,4.56l-6.07 7.04c-0.81,0.93 -1.77,1.57 -2.88,1.92 -1.11,0.33 -2.24,0.21 -3.38,-0.37 -4.56,-2.29 -8.79,-5.14 -12.7,-8.51l-19.48 -16.81c-1.01,-0.87 -2.15,-1.29 -3.4,-1.27 -1.23,0.02 -2.43,0.69 -3.58,2.01l-2.32 2.7 33.2 28.64c1.09,0.95 1.69,2.23 1.81,3.83 0.12,1.6 -0.33,3 -1.35,4.16l-6.47 7.51c-0.95,1.09 -2.22,1.7 -3.82,1.82 -1.61,0.11 -2.95,-0.3 -4.05,-1.25l-84.22 -72.67c-1.18,-1.01 -1.83,-2.33 -1.94,-3.92 -0.13,-1.61 0.29,-2.96 1.24,-4.05l13.87 -16.07c1.68,-1.96 3.77,-3.71 6.26,-5.24 2.49,-1.54 5.13,-2.55 7.9,-3 2.8,-0.46 5.75,-0.33 8.88,0.39 3.13,0.72 6.14,2.33 9.04,4.82l20.88 18.03c2.26,1.95 3.72,4.27 4.34,6.93 0.65,2.65 0.6,5.6 -0.12,8.8l0.1 -0.12c3.01,-1.1 5.94,-1.61 8.79,-1.53 2.87,0.09 5.43,1.1 7.7,3.07l19.01 16.39c2.02,1.75 4.01,3.34 5.94,4.72 1.94,1.4 3.86,2.66 5.78,3.76zm34.46 -54.16c1.97,2.26 3.45,5.01 4.47,8.23 1.02,3.21 1.43,6.55 1.25,9.99 -0.17,3.42 -0.94,6.72 -2.31,9.9 -1.36,3.17 -3.47,5.98 -6.28,8.42 -2.8,2.43 -5.89,4.12 -9.22,5.02 -3.34,0.9 -6.69,1.18 -10.07,0.84 -3.39,-0.36 -6.64,-1.23 -9.72,-2.65 -3.08,-1.43 -5.6,-3.28 -7.56,-5.55l-48.83 -56.3c-1.96,-2.26 -3.44,-5.01 -4.41,-8.27 -0.98,-3.26 -1.36,-6.58 -1.2,-9.93 0.16,-3.36 0.95,-6.6 2.36,-9.75 1.4,-3.12 3.52,-5.91 6.33,-8.35 2.81,-2.44 5.87,-4.15 9.16,-5.08 3.31,-0.95 6.64,-1.28 10.04,-1 3.38,0.27 6.62,1.13 9.66,2.59 3.04,1.46 5.55,3.32 7.5,5.59l48.83 56.3zm-65.25 -43.09c-0.81,-0.93 -1.77,-1.33 -2.88,-1.19 -1.11,0.14 -2.25,0.73 -3.42,1.73 -1.09,0.95 -1.79,1.97 -2.08,3.04 -0.29,1.07 -0.05,2.08 0.77,3.02l50.05 57.72c0.74,0.85 1.66,1.2 2.77,1.06 1.11,-0.14 2.21,-0.68 3.3,-1.62 1.17,-1.02 1.91,-2.07 2.21,-3.15 0.29,-1.07 0.07,-2.04 -0.67,-2.9l-50.05 -57.71zm77.2 -61.39c0.72,1.25 0.9,2.63 0.53,4.16 -0.37,1.52 -1.28,2.7 -2.7,3.53l-7.65 4.42 47.97 83.05c0.71,1.25 0.87,2.66 0.46,4.2 -0.42,1.56 -1.25,2.69 -2.51,3.42l-8.58 4.96c-1.43,0.83 -2.9,1.02 -4.42,0.58 -1.49,-0.45 -2.61,-1.29 -3.34,-2.54l-47.97 -83.06 -8.18 4.73c-1.42,0.83 -2.92,1.03 -4.48,0.62 -1.55,-0.42 -2.69,-1.25 -3.41,-2.51l-4.89 -8.44c-0.76,-1.35 -0.94,-2.8 -0.53,-4.35 0.41,-1.56 1.34,-2.75 2.77,-3.57l34.21 -19.77c1.43,-0.82 2.91,-1.01 4.41,-0.57 1.51,0.45 2.66,1.34 3.42,2.68l4.89 8.46zm98.5 67.4c0.53,1.35 0.51,2.74 -0.09,4.2 -0.58,1.45 -1.66,2.48 -3.19,3.09l-29.4 11.6c-1.35,0.53 -2.77,0.48 -4.23,-0.17 -1.48,-0.63 -2.48,-1.62 -3,-2.97l-40.84 -103.49c-0.57,-1.44 -0.53,-2.89 0.11,-4.37 0.63,-1.48 1.62,-2.47 2.97,-3.01l29.41 -11.6c1.52,-0.6 3.02,-0.58 4.44,0.08 1.42,0.65 2.42,1.71 2.99,3.15l3.24 8.22c0.57,1.44 0.55,2.86 -0.06,4.28 -0.61,1.39 -1.69,2.41 -3.22,3.01l-14.85 5.86 10.3 26.08 7.78 -3.07c1.64,-0.64 3.11,-0.67 4.46,-0.09 1.34,0.59 2.33,1.69 2.97,3.33l3.75 9.51c0.61,1.53 0.63,3 0.07,4.39 -0.57,1.38 -1.65,2.4 -3.28,3.05l-7.79 3.06 11.37 28.83 14.84 -5.87c1.54,-0.6 3.02,-0.6 4.42,0.01 1.41,0.62 2.41,1.69 3.02,3.23l3.81 9.66zm55.98 -32.39c0.7,3.01 0.68,6.07 -0.03,9.15 -0.72,3.09 -1.94,5.98 -3.64,8.72 -1.71,2.72 -3.99,5.12 -6.85,7.21 -2.85,2.09 -5.99,3.53 -9.41,4.33 -3.53,0.81 -7.03,0.9 -10.52,0.27 -3.48,-0.63 -6.61,-1.79 -9.38,-3.47 -2.78,-1.7 -5.19,-3.76 -7.24,-6.21 -2.05,-2.44 -3.42,-5.19 -4.11,-8.2l-17.44 -75.64c-0.7,-3.02 -0.67,-6.07 0.11,-9.17 0.77,-3.09 2.02,-6.01 3.79,-8.74 1.74,-2.74 4.07,-5.1 6.95,-7.09 2.87,-1.99 6.08,-3.39 9.61,-4.2 3.42,-0.79 6.85,-0.92 10.31,-0.4 3.46,0.53 6.55,1.65 9.28,3.36 2.73,1.69 5.1,3.78 7.09,6.23 1.99,2.45 3.33,5.19 4.03,8.21l3.48 15.1c0.38,1.61 0.13,3.07 -0.74,4.38 -0.86,1.31 -2.09,2.16 -3.7,2.52l-9.36 2.17c-1.41,0.32 -2.8,0.08 -4.13,-0.72 -1.36,-0.8 -2.22,-2 -2.6,-3.62l-3.3 -14.34c-0.28,-1.21 -0.95,-2.01 -1.98,-2.41 -1.05,-0.39 -2.28,-0.43 -3.68,-0.1 -1.41,0.33 -2.5,0.9 -3.28,1.71 -0.76,0.81 -1,1.81 -0.72,3.02l17.16 74.44c0.25,1.1 0.9,1.86 1.95,2.25 1.04,0.4 2.27,0.43 3.68,0.11 1.41,-0.33 2.5,-0.9 3.26,-1.71 0.77,-0.81 1.02,-1.8 0.77,-2.9l-3.36 -14.6c-0.35,-1.51 -0.1,-2.95 0.74,-4.33 0.84,-1.36 1.98,-2.21 3.4,-2.53l9.35 -2.16c1.62,-0.37 3.1,-0.13 4.46,0.73 1.36,0.84 2.22,2.02 2.57,3.53l3.48 15.1zm-6.24 46.75c0.7,3.03 0.48,5.62 -0.67,7.8 -1.13,2.17 -3.11,3.58 -5.93,4.23 -2.51,0.57 -4.79,0.14 -6.82,-1.3 -2.03,-1.44 -3.4,-3.67 -4.09,-6.69 -0.18,-0.79 -0.11,-1.56 0.2,-2.27 0.3,-0.71 0.97,-1.18 1.97,-1.41l0.46 -0.11c1.01,-0.23 1.83,-0.1 2.47,0.39 0.64,0.48 1.06,1.14 1.25,1.95l0.52 2.26c0.14,0.6 0.47,1 0.99,1.19 0.52,0.2 1.08,0.24 1.69,0.1 0.6,-0.14 1.12,-0.43 1.56,-0.85 0.43,-0.41 0.58,-0.92 0.44,-1.51l-2.62 -11.34c-0.1,-0.41 -0.44,-0.74 -1.02,-1.03 -0.6,-0.28 -1.2,-0.36 -1.81,-0.22 -0.9,0.21 -1.47,0.76 -1.68,1.66 -0.01,0.43 -0.26,0.7 -0.76,0.81l-2.92 0.51c-1,0.23 -1.8,0.1 -2.39,-0.4 -0.59,-0.5 -1,-1.2 -1.21,-2.1l-2.19 -11.59 6.8 -1.56 1.35 8.59 0.9 -0.21c0.56,-0.76 1.22,-1.26 1.96,-1.49 0.75,-0.22 1.47,-0.41 2.18,-0.57 1.51,-0.35 2.94,-0.08 4.32,0.83 1.37,0.9 2.32,2.46 2.83,4.68l2.22 9.65zm39.32 -109.63l-1.38 0.11 -1.12 40.48 8.19 -0.63 -5.69 -39.96zm32.15 73.22c0.12,1.55 -0.29,2.93 -1.23,4.14 -0.95,1.21 -2.25,1.88 -3.89,2l-10.36 0.79c-1.43,0.11 -2.74,-0.28 -3.9,-1.18 -1.14,-0.9 -1.88,-2.1 -2.21,-3.63l-1.99 -13.84 -11.43 0.87 -0.31 14.32c-0.1,1.46 -0.65,2.69 -1.65,3.7 -1.02,1.01 -2.2,1.56 -3.52,1.67l-7.43 0.56c-1.44,0.11 -2.77,-0.36 -3.99,-1.4 -1.21,-1.05 -1.88,-2.34 -2,-3.89l-0.05 -0.62 5.16 -111.8c-0.01,-1.46 0.5,-2.72 1.57,-3.78 1.06,-1.06 2.32,-1.65 3.75,-1.76l15.15 -1.16c1.54,-0.12 2.87,0.28 3.97,1.18 1.1,0.9 1.86,2.05 2.28,3.48l22.08 110.35zm-12.68 -142.15c-0.11,10.99 -4.27,16.8 -12.51,17.43 -3.81,0.29 -7.99,-0.89 -12.55,-3.56 -2.8,-1.54 -4.79,-2.27 -5.92,-2.19 -1.64,0.13 -2.8,0.56 -3.48,1.28 -0.66,0.73 -1.17,1.51 -1.52,2.37 -0.35,0.85 -0.73,1.63 -1.14,2.35 -0.41,0.69 -1.19,1.09 -2.33,1.18l-4.94 0.38c-1.02,0.07 -1.8,-0.23 -2.32,-0.92 -0.53,-0.67 -0.82,-1.53 -0.9,-2.57l-0.05 -0.62c0.01,-10.77 4.19,-16.48 12.53,-17.12 2.07,-0.16 4.1,0.06 6.11,0.63 2.01,0.57 4.21,1.55 6.59,2.92 1.3,0.61 2.45,1.1 3.45,1.44 1.02,0.34 1.83,0.49 2.45,0.44 1.54,-0.12 2.63,-0.54 3.25,-1.26 0.61,-0.71 1.12,-1.53 1.52,-2.45 0.39,-0.91 0.82,-1.72 1.28,-2.42 0.47,-0.71 1.11,-1.1 1.94,-1.16l5.24 -0.4c1.04,-0.08 1.82,0.25 2.35,0.98 0.51,0.75 0.82,1.62 0.9,2.65l0.05 0.62zm75.6 127.95c-0.22,2.99 -1.12,5.98 -2.71,8.97 -1.56,2.98 -3.66,5.62 -6.22,7.92 -2.55,2.28 -5.43,4.06 -8.66,5.33 -3.2,1.25 -6.68,1.73 -10.39,1.45 -3.71,-0.28 -7.07,-1.28 -10.06,-3.02 -3,-1.74 -5.55,-3.92 -7.68,-6.56 -2.12,-2.66 -3.8,-5.58 -4.96,-8.77 -1.15,-3.2 -1.6,-6.29 -1.37,-9.28l5.65 -74.31c0.23,-2.99 1.15,-5.98 2.78,-8.95 1.62,-2.99 3.72,-5.61 6.22,-7.84 2.49,-2.26 5.35,-3.98 8.58,-5.18 3.2,-1.21 6.67,-1.67 10.38,-1.39 3.71,0.29 7.09,1.27 10.07,2.95 3,1.67 5.58,3.81 7.76,6.42 2.19,2.59 3.86,5.5 4.96,8.69 1.1,3.18 1.54,6.28 1.31,9.27l-5.66 74.3zm-15.28 -76.68c0.09,-1.24 -0.3,-2.19 -1.18,-2.88 -0.88,-0.69 -2.11,-1.1 -3.64,-1.21 -1.45,-0.11 -2.66,0.11 -3.62,0.65 -0.98,0.55 -1.52,1.44 -1.61,2.67l-5.8 76.17c-0.09,1.13 0.31,2.05 1.19,2.74 0.88,0.68 2.04,1.07 3.48,1.18 1.54,0.12 2.81,-0.09 3.78,-0.63 0.97,-0.55 1.51,-1.39 1.59,-2.53l5.81 -76.16zm105.13 25.76c0.6,-1.77 0.66,-3.11 0.15,-4.05 -0.49,-0.93 -1.43,-1.63 -2.8,-2.1l-5.28 -1.79 -25.47 74.79 5.27 1.8c1.37,0.47 2.56,0.44 3.56,-0.1 1,-0.53 1.74,-1.54 2.24,-3l22.33 -65.55zm-3.6 76.38c-1.25,3.71 -3.05,6.65 -5.36,8.81 -2.31,2.13 -4.86,3.7 -7.69,4.63 -2.84,0.95 -5.73,1.38 -8.69,1.3 -2.97,-0.08 -5.72,-0.56 -8.24,-1.42l-21.66 -7.37c-1.34,-0.46 -2.39,-1.41 -3.09,-2.85 -0.71,-1.45 -0.83,-2.84 -0.36,-4.22l35.82 -105.16c0.5,-1.47 1.47,-2.55 2.91,-3.26 1.43,-0.72 2.85,-0.84 4.18,-0.38l21.67 7.38c2.51,0.86 4.99,2.17 7.39,3.91 2.39,1.74 4.42,3.85 6.09,6.33 1.66,2.47 2.72,5.29 3.24,8.44 0.5,3.17 0.13,6.57 -1.11,10.18l-25.1 73.68zm61.02 -36.45l-1.25 -0.64 -22.04 33.98 7.31 3.73 15.98 -37.07zm-10.73 79.24c-0.71,1.39 -1.78,2.35 -3.21,2.88 -1.44,0.55 -2.91,0.44 -4.36,-0.31l-9.25 -4.72c-1.3,-0.66 -2.19,-1.67 -2.71,-3.05 -0.52,-1.35 -0.52,-2.78 0,-4.25l5.51 -12.84 -10.2 -5.21 -7.73 12.05c-0.85,1.2 -1.97,1.95 -3.34,2.29 -1.4,0.33 -2.7,0.2 -3.88,-0.41l-6.63 -3.39c-1.28,-0.66 -2.17,-1.74 -2.67,-3.28 -0.5,-1.52 -0.39,-2.97 0.31,-4.36l0.29 -0.55 62.68 -92.73c0.75,-1.24 1.86,-2.04 3.31,-2.39 1.46,-0.36 2.84,-0.21 4.12,0.45l13.53 6.9c1.38,0.71 2.3,1.74 2.77,3.08 0.48,1.34 0.52,2.73 0.14,4.15l-38.68 105.69zm76.91 38.52c-2.02,2.33 -4.49,4.12 -7.39,5.37 -2.93,1.25 -5.98,1.98 -9.19,2.22 -3.2,0.23 -6.5,-0.19 -9.87,-1.26 -3.37,-1.07 -6.39,-2.74 -9.04,-5.04 -2.75,-2.37 -4.89,-5.14 -6.44,-8.32 -1.54,-3.18 -2.47,-6.39 -2.74,-9.63 -0.28,-3.24 -0.03,-6.41 0.73,-9.5 0.75,-3.1 2.16,-5.82 4.18,-8.16l50.71 -58.77c2.03,-2.35 4.52,-4.13 7.46,-5.33 2.95,-1.21 6.06,-1.92 9.3,-2.11 3.24,-0.2 6.52,0.26 9.82,1.42 3.32,1.14 6.33,2.9 9.07,5.27 2.65,2.29 4.8,4.99 6.41,8.09 1.63,3.1 2.55,6.25 2.79,9.47 0.24,3.2 -0.04,6.33 -0.84,9.4 -0.81,3.04 -2.21,5.76 -4.25,8.1l-10.11 11.73c-1.09,1.26 -2.41,1.92 -3.98,2 -1.57,0.07 -2.98,-0.42 -4.23,-1.5l-7.28 -6.27c-1.08,-0.95 -1.71,-2.22 -1.86,-3.76 -0.15,-1.57 0.31,-2.98 1.4,-4.23l9.61 -11.15c0.81,-0.93 1.06,-1.94 0.76,-3.02 -0.29,-1.08 -0.99,-2.08 -2.09,-3.03 -1.09,-0.94 -2.19,-1.49 -3.31,-1.63 -1.1,-0.14 -2.05,0.26 -2.86,1.2l-49.92 57.84c-0.73,0.85 -0.96,1.82 -0.66,2.9 0.31,1.08 1,2.08 2.09,3.03 1.1,0.95 2.21,1.49 3.3,1.63 1.11,0.14 2.06,-0.25 2.8,-1.1l9.79 -11.34c1.01,-1.18 2.32,-1.83 3.93,-1.96 1.6,-0.12 2.95,0.29 4.05,1.24l7.27 6.27c1.25,1.09 1.93,2.43 2.05,4.02 0.13,1.6 -0.32,3 -1.34,4.16l-10.12 11.75zm44.76 47.37c-2.28,1.95 -5.01,3.44 -8.24,4.45 -3.22,1 -6.56,1.4 -10,1.22 -3.42,-0.18 -6.71,-0.94 -9.89,-2.33 -3.17,-1.37 -5.97,-3.47 -8.4,-6.3 -2.44,-2.81 -4.11,-5.89 -5.01,-9.22 -0.9,-3.34 -1.17,-6.7 -0.82,-10.08 0.37,-3.38 1.25,-6.63 2.67,-9.7 1.44,-3.1 3.3,-5.6 5.57,-7.56l56.4 -48.71c2.26,-1.96 5.03,-3.42 8.28,-4.39 3.26,-0.97 6.58,-1.35 9.93,-1.18 3.37,0.17 6.61,0.96 9.74,2.37 3.12,1.41 5.92,3.54 8.34,6.36 2.43,2.81 4.14,5.87 5.07,9.18 0.94,3.3 1.26,6.63 0.97,10.02 -0.27,3.39 -1.13,6.62 -2.61,9.66 -1.46,3.04 -3.33,5.54 -5.59,7.5l-56.41 48.71zm43.23 -65.17c0.94,-0.81 1.32,-1.77 1.18,-2.87 -0.12,-1.11 -0.71,-2.26 -1.72,-3.42 -0.95,-1.1 -1.96,-1.8 -3.03,-2.09 -1.07,-0.3 -2.09,-0.05 -3.02,0.76l-57.82 49.92c-0.86,0.74 -1.22,1.67 -1.08,2.78 0.14,1.1 0.68,2.21 1.63,3.3 1,1.18 2.05,1.91 3.13,2.21 1.08,0.3 2.04,0.08 2.9,-0.66l57.83 -49.93zm42.78 66.98c1.61,-0.92 2.52,-1.94 2.72,-3.01 0.22,-1.09 -0.01,-2.19 -0.67,-3.36l-1.94 -3.35 -26.84 15.48 1.92 3.35c1.5,2.59 3.64,3.1 6.42,1.5l18.39 -10.61zm-66.3 63.99c-1.17,1.28 -2.62,1.67 -4.33,1.17 -1.73,-0.5 -3,-1.47 -3.82,-2.89l-4.65 -8.06c-0.62,-1.07 -0.9,-2.19 -0.86,-3.34 0.05,-1.16 0.54,-2.2 1.46,-3.08 3.67,-3.55 7.74,-6.61 12.22,-9.19l22.28 -12.86c1.16,-0.67 1.94,-1.6 2.33,-2.78 0.38,-1.18 0.14,-2.53 -0.73,-4.05l-1.78 -3.09 -37.98 21.92c-1.26,0.72 -2.66,0.88 -4.21,0.46 -1.55,-0.42 -2.72,-1.3 -3.49,-2.65l-4.95 -8.58c-0.73,-1.25 -0.88,-2.66 -0.46,-4.2 0.42,-1.56 1.25,-2.7 2.5,-3.42l96.36 -55.6c1.34,-0.77 2.8,-0.94 4.34,-0.53 1.56,0.4 2.69,1.25 3.42,2.5l10.61 18.38c1.28,2.25 2.25,4.79 2.88,7.64 0.64,2.86 0.71,5.68 0.23,8.45 -0.49,2.8 -1.59,5.54 -3.29,8.26 -1.72,2.72 -4.23,5.03 -7.53,6.93l-23.89 13.79c-2.6,1.5 -5.26,2.11 -7.98,1.83 -2.73,-0.27 -5.49,-1.28 -8.27,-3.02l0.08 0.14c0.05,3.19 -0.44,6.13 -1.46,8.8 -1.02,2.67 -2.82,4.76 -5.43,6.27l-21.73 12.53c-2.33,1.34 -4.47,2.7 -6.43,4.06 -1.94,1.37 -3.76,2.78 -5.44,4.21z"/>
  </g>
 </g>
</svg>
