<?xml version="1.0" encoding="UTF-8"?>
<!DOCTYPE svg PUBLIC "-//W3C//DTD SVG 1.1//EN" "http://www.w3.org/Graphics/SVG/1.1/DTD/svg11.dtd">
<!-- Creator: CorelDRAW -->
<svg xmlns="http://www.w3.org/2000/svg" xml:space="preserve" width="10.1598mm" height="10.1598mm" version="1.1" style="shape-rendering:geometricPrecision; text-rendering:geometricPrecision; image-rendering:optimizeQuality; fill-rule:evenodd; clip-rule:evenodd"
viewBox="0 0 1015.98 1015.98"
 xmlns:xlink="http://www.w3.org/1999/xlink"
 xmlns:xodm="http://www.corel.com/coreldraw/odm/2003">
 <defs>
  <style type="text/css">
   <![CDATA[
    .fil3 {fill:#221929}
    .fil4 {fill:#221929}
    .fil0 {fill:#FEFEFE;fill-rule:nonzero}
    .fil1 {fill:#221929;fill-rule:nonzero}
    .fil2 {fill:white;fill-rule:nonzero}
   ]]>
  </style>
 </defs>
 <g id="Camada_x0020_1">
  <metadata id="CorelCorpID_0Corel-Layer"/>
  <g id="_1835841703792">
   <path class="fil0" d="M508.27 14.88c135.74,0.73 253.03,49.02 348.24,144.55 101.58,101.92 151.03,227.32 144.14,371.69 -6.48,135.7 -61.53,250.65 -162.25,341.91 -100.08,90.68 -219.16,133.6 -354.02,127.49 -126.11,-5.7 -235.66,-54.43 -324.34,-143.6 -103.4,-103.97 -152.14,-231.36 -144.58,-378.44 12.49,-243.31 218.17,-464.38 492.81,-463.6z"/>
   <path class="fil1" d="M508.28 8.47c68.83,0.36 133.04,12.83 192.09,37.32 58.82,24.41 112.57,60.82 160.7,109.12 51.58,51.75 89.91,109.54 114.42,172.74 24.34,62.8 35.05,130.94 31.57,203.77 -3.25,68.54 -18.8,131.93 -46.21,189.69 -27.53,58.01 -67.05,110.39 -118.14,156.68 -50.64,45.89 -106.18,79.74 -166.14,101.32 -59.92,21.58 -124.26,30.91 -192.46,27.83 -63.78,-2.87 -123.43,-16.64 -178.34,-40.96 -55.02,-24.35 -105.32,-59.34 -150.28,-104.53 -52.36,-52.66 -90.92,-111.29 -115.38,-175.36 -24.46,-64.02 -34.89,-133.53 -31.07,-207.94 6.5,-126.7 64.74,-247.49 157.55,-334.8 87.76,-82.57 206.49,-135.27 341.69,-134.88zm187.16 49.19c-57.51,-23.85 -120.09,-36 -187.19,-36.35 -131.71,-0.37 -247.37,50.95 -332.86,131.4 -90.43,85.06 -147.18,202.71 -153.51,326.11 -3.72,72.58 6.44,140.32 30.27,202.7 23.84,62.43 61.41,119.55 112.45,170.88 43.79,44.03 92.79,78.11 146.35,101.82 53.45,23.66 111.56,37.07 173.71,39.88 66.6,3 129.29,-6.06 187.59,-27.05 58.33,-20.99 112.43,-54 161.85,-98.78 49.82,-45.13 88.33,-96.16 115.12,-152.64 26.68,-56.22 41.82,-117.98 45,-184.82 3.38,-71.03 -7.03,-137.43 -30.72,-198.54 -23.86,-61.51 -61.23,-117.83 -111.53,-168.31 -46.89,-47.05 -99.25,-82.52 -156.53,-106.3z"/>
   <path class="fil1" d="M169.1 507.17c-0.55,-184.45 150.56,-345.11 353.21,-338.13 172.16,5.92 329.86,148.9 324.69,349.44 -4.55,176.38 -147.86,332.75 -349.18,328.32 -177.41,-3.9 -329.41,-149.57 -328.72,-339.63z"/>
   <path class="fil2" d="M507.38 637.41c-96.29,0 -192.58,-0.12 -288.86,0.2 -8.16,0.02 -11.99,-2.3 -14.83,-10.03 -10.2,-27.83 -17.14,-56.23 -20.83,-85.72 -6.96,-55.69 2.8,-108.71 23.75,-159.98 12.56,-30.75 30.2,-58.54 51.49,-84.26 31.83,-38.47 70.86,-67.14 115.97,-87.57 31.9,-14.45 65.34,-23.38 100.45,-27.41 55.74,-6.4 108.76,3.08 160,23.93 32.95,13.4 62.2,32.98 89.26,56.38 34.09,29.47 60.08,64.68 79.37,104.95 17.19,35.88 26.83,73.71 30.62,113.62 4.77,50.19 -4.22,97.6 -20.95,144.4 -3.22,8.99 -7.44,11.69 -16.58,11.66 -96.29,-0.28 -192.57,-0.17 -288.86,-0.17z"/>
   <path class="fil2" d="M508.84 646.73c94.33,0 188.65,-0.01 282.97,0.01 12.62,0 12.91,0.52 6.56,11.62 -11.63,20.33 -24.21,40.05 -38.78,58.41 -4.64,5.86 -9.89,9.46 -18.55,9.44 -155.26,-0.34 -310.53,-0.36 -465.79,0.03 -9.34,0.03 -14.64,-4.39 -19.31,-10.39 -13.92,-17.86 -27.28,-36.16 -37.52,-56.48 -6.33,-12.59 -6.28,-12.64 7.46,-12.64 94.32,-0.01 188.64,0 282.96,0z"/>
   <path class="fil2" d="M738.33 736.45c-120.34,132.96 -343.27,129.18 -462.53,-0.1 11.41,-1.55 452.14,-1.44 462.53,0.1z"/>
   <path class="fil1" d="M346.33 456.52c-1.32,-33.17 16.81,-54.81 43.05,-71.14 38.3,-23.83 75.42,-21.94 111,6.2 4.44,3.5 7.83,5.18 14.23,0.12 55.15,-43.55 114.3,-17.86 143.9,23.66 18.24,25.59 14.45,54.54 3.48,81.72 -22.72,56.28 -63.59,95.2 -119.69,117.79 -24.21,9.75 -49.45,9.19 -73.02,-1.35 -56.94,-25.47 -98.51,-66.14 -118.78,-126.38 -1.81,-5.41 -3.22,-11.03 -4.03,-16.67 -0.66,-4.56 -0.14,-9.29 -0.14,-13.95z"/>
   <path class="fil1" d="M576.43 208.61c19.22,0.12 39.17,14.44 45.47,31.35 2.55,6.86 1.24,12.72 -0.59,19 -8.71,29.9 -21.81,57.32 -44.63,79.31 -15.41,14.84 -31.18,12.37 -40.77,-6.62 -5.09,-10.06 -7.75,-21 -7.68,-32.1 0.1,-14.46 -1.26,-28.85 -0.51,-43.4 1.45,-27.93 20.82,-47.71 48.71,-47.54z"/>
   <path class="fil1" d="M479.12 291.37c-0.95,10.06 0.64,21.49 -2.05,33.09 -6.16,26.5 -26.88,27.72 -42.45,14.81 -21.38,-17.73 -39.11,-39.59 -46.73,-66.98 -6.51,-23.39 -1.95,-40.07 14.71,-53.12 16.3,-12.77 41.55,-13.55 58.98,-1.71 11.81,8.03 11.75,21.56 15.04,33.41 3.56,12.79 2.32,26.02 2.5,40.5z"/>
   <path class="fil1" d="M378.86 365.26c-0.01,17.33 -9.14,24.08 -25.85,19.19 -22.26,-6.52 -40.92,-18.91 -57.82,-34.49 -10.21,-9.42 -11.66,-20.24 -6.8,-32.44 5.3,-13.31 14.02,-22.84 29.05,-25.02 20.43,-2.97 34.71,6.64 43.67,23.57 8.15,15.41 19.53,30.05 17.75,49.19z"/>
   <path class="fil1" d="M691.56 292.61c15.28,-2.86 30.29,10.57 34.63,22.13 7.28,19.38 4.08,28.26 -9.8,39.57 -15.41,12.57 -31.56,24.4 -51.48,29.49 -7.94,2.03 -16.04,4.81 -22.72,-1.84 -6.71,-6.68 -7.89,-14.59 -5.13,-24.27 5.77,-20.19 13.49,-39.06 28.23,-54.45 7.31,-7.63 15.91,-12.12 26.27,-10.63z"/>
   <path class="fil2" d="M405.15 758.36c9.18,0.81 12.69,6.97 13,14.13 0.35,7.86 -4.89,13.7 -12.67,13.58 -7.78,-0.13 -12.26,-6.06 -12.53,-13.98 -0.29,-8.47 5.07,-12.2 12.2,-13.73z"/>
   <path class="fil1" d="M205.36 262.02c3.01,1.8 5.79,4.48 8.38,8 2.6,3.58 4.64,7.93 6.09,13.1 1.45,5.16 1.74,10.84 0.88,16.99 -0.82,6.17 -3.21,12.52 -7.11,19.02 -2.96,4.94 -6.16,9.19 -9.52,12.68 -3.36,3.49 -7.05,6.28 -11,8.41 -3.95,2.12 -8.41,3.59 -13.32,4.44 -4.4,0.69 -8.98,0.83 -13.67,0.39 -4.69,-0.43 -9.39,-1.44 -14.03,-3.05 -4.63,-1.62 -9.32,-3.82 -13.97,-6.61 -7.54,-4.52 -13.63,-9.69 -18.3,-15.47 -4.67,-5.77 -7.89,-11.95 -9.69,-18.63 -1.79,-6.63 -2.15,-13.36 -1.08,-20.2 1.1,-6.81 3.51,-13.35 7.25,-19.59 4.54,-7.58 10.12,-13.43 16.69,-17.57 6.55,-4.11 13.05,-6.43 19.4,-6.91 6.35,-0.49 11.48,0.47 15.46,2.85 2.19,1.31 3.62,3.23 4.38,5.76 0.76,2.52 0.5,4.89 -0.82,7.08 -1.44,2.42 -3.13,3.88 -5.02,4.42 -1.88,0.54 -4.65,0.69 -8.37,0.49 -6.14,-0.3 -11.37,0.51 -15.67,2.47 -4.33,2 -7.96,5.44 -10.9,10.34 -4.68,7.8 -5.42,15.79 -2.3,23.98 3.16,8.2 10.22,15.56 21.14,22.11 7.32,4.39 14,6.98 20.06,7.83 6.09,0.88 11.45,0.1 16.08,-2.23 4.67,-2.3 8.48,-5.98 11.49,-10.99 3.27,-5.46 4.66,-10.9 4.22,-16.31 -0.46,-5.38 -2.72,-10.62 -6.81,-15.7 -2,-2.31 -3.4,-4.51 -4.25,-6.64 -0.85,-2.12 -0.47,-4.52 1.11,-7.16 1.36,-2.27 3.3,-3.73 5.88,-4.41 2.55,-0.64 4.97,-0.3 7.32,1.11z"/>
   <path class="fil1" d="M239.98 149.22l-37.24 33.29 17.9 20.03 34.27 -30.64c2.52,-2.25 4.88,-3.38 7.15,-3.37 2.27,0 4.24,0.97 5.92,2.85 1.64,1.84 2.39,3.9 2.2,6.16 -0.19,2.26 -1.57,4.55 -4.13,6.83l-34.26 30.63 20.73 23.19 38.5 -34.42c2.61,-2.33 5.1,-3.45 7.49,-3.44 2.39,0.01 4.48,1.05 6.27,3.05 1.74,1.94 2.5,4.1 2.25,6.48 -0.26,2.37 -1.65,4.72 -4.26,7.06l-44.89 40.13c-3.59,3.21 -6.89,4.71 -9.89,4.54 -3,-0.16 -6.08,-2.06 -9.29,-5.64l-54.8 -61.3c-2.11,-2.36 -3.49,-4.61 -4.13,-6.77 -0.68,-2.12 -0.56,-4.2 0.35,-6.23 0.91,-2.04 2.53,-4.07 4.85,-6.15l43.63 -39c2.62,-2.34 5.11,-3.52 7.44,-3.51 2.3,0.03 4.3,0.97 6.01,2.88 1.73,1.94 2.47,4.06 2.25,6.35 -0.25,2.32 -1.71,4.66 -4.32,7z"/>
   <path class="fil1" d="M332.29 146.41l-7.06 3.21 14.54 31.98c1.92,4.22 2.41,7.71 1.48,10.56 -0.94,2.86 -2.94,4.96 -5.94,6.32 -3.19,1.45 -6.14,1.56 -8.87,0.27 -2.72,-1.28 -5.01,-3.91 -6.86,-7.97l-34.84 -76.62c-1.97,-4.34 -2.42,-7.94 -1.36,-10.75 1.05,-2.81 3.76,-5.24 8.13,-7.23l32.81 -14.91c4.54,-2.07 8.49,-3.63 11.89,-4.74 3.37,-1.06 6.65,-1.6 9.75,-1.58 3.71,-0.12 7.33,0.52 10.85,1.87 3.51,1.35 6.62,3.37 9.35,6.03 2.69,2.68 4.88,5.82 6.53,9.45 3.37,7.41 3.97,14.28 1.82,20.64 -2.19,6.37 -7.11,12.41 -14.78,18.14 4.45,0.26 9.15,1.5 14.11,3.72 4.98,2.26 9.65,4.89 14.11,7.91 4.47,3.01 8.16,5.9 11.14,8.59 2.96,2.74 4.73,4.75 5.31,6.01 0.59,1.3 0.75,2.8 0.51,4.48 -0.24,1.68 -0.91,3.22 -2.03,4.63 -1.12,1.42 -2.62,2.52 -4.55,3.4 -2.25,1.03 -4.37,1.37 -6.39,1.01 -2.03,-0.37 -4,-1.14 -5.83,-2.25 -1.84,-1.12 -4.44,-2.84 -7.8,-5.12l-14.22 -9.81c-5.12,-3.62 -9.43,-6.18 -12.9,-7.75 -3.45,-1.52 -6.58,-2.24 -9.34,-2.12 -2.8,0.13 -5.97,1 -9.56,2.63zm-7.47 -47.1l-18.61 8.47 12.44 27.37 18.06 -8.22c4.85,-2.2 8.72,-4.48 11.65,-6.82 2.94,-2.33 4.8,-4.94 5.62,-7.74 0.82,-2.8 0.43,-5.95 -1.16,-9.46 -1.26,-2.76 -3.08,-4.89 -5.43,-6.39 -2.33,-1.46 -5.02,-2.14 -7.97,-2.04 -2.81,0.09 -7.7,1.7 -14.6,4.83z"/>
   <path class="fil1" d="M474.08 61.04l-23.88 3.78 12.41 78.47c0.72,4.54 0.26,8.03 -1.41,10.53 -1.66,2.5 -4.1,4.03 -7.31,4.54 -3.25,0.51 -6.08,-0.18 -8.44,-2.09 -2.4,-1.86 -3.95,-5.03 -4.66,-9.53l-12.41 -78.47 -23.88 3.77c-3.72,0.59 -6.63,0.22 -8.69,-1.17 -2.11,-1.37 -3.34,-3.37 -3.77,-6.07 -0.45,-2.82 0.14,-5.19 1.81,-7.13 1.63,-1.88 4.24,-3.12 7.8,-3.68l69.57 -11c3.81,-0.61 6.76,-0.24 8.87,1.14 2.1,1.38 3.35,3.46 3.78,6.15 0.42,2.7 -0.18,4.99 -1.76,6.95 -1.62,1.96 -4.31,3.22 -8.03,3.81z"/>
   <path class="fil1" d="M515.09 140.55l4.59 -86.05c0.24,-4.45 1.46,-7.77 3.61,-9.91 2.15,-2.1 4.85,-3.08 8.05,-2.91 3.33,0.18 6,1.4 7.96,3.72 1.91,2.32 2.77,5.75 2.53,10.29l-4.6 86.04c-0.24,4.54 -1.46,7.86 -3.61,9.96 -2.19,2.14 -4.98,3.12 -8.31,2.94 -3.16,-0.17 -5.74,-1.43 -7.65,-3.84 -1.95,-2.36 -2.81,-5.79 -2.57,-10.24z"/>
   <path class="fil1" d="M649.23 82.73l-42.18 -11.3 -7.24 27.04 35.24 9.43c3.26,0.88 5.5,2.24 6.74,4.14 1.24,1.9 1.5,4.08 0.84,6.55 -0.66,2.47 -1.97,4.18 -3.98,5.17 -2.03,1.03 -4.69,1.08 -7.91,0.21l-35.23 -9.43 -9.33 34.81c-1.19,4.44 -3.07,7.43 -5.6,9.04 -2.58,1.6 -5.43,2 -8.57,1.16 -3.18,-0.85 -5.48,-2.64 -6.86,-5.34 -1.44,-2.67 -1.57,-6.2 -0.39,-10.6l21.78 -81.3c0.81,-3.06 1.95,-5.45 3.39,-7.17 1.45,-1.72 3.26,-2.76 5.46,-3.11 2.16,-0.36 4.74,-0.12 7.79,0.7l50.47 13.52c3.39,0.9 5.74,2.34 7.01,4.3 1.23,1.94 1.54,4.13 0.88,6.6 -0.68,2.51 -2.05,4.29 -4.09,5.36 -2.07,1.06 -4.83,1.13 -8.22,0.22z"/>
   <path class="fil1" d="M656.54 173.66l38.86 -76.9c2.02,-3.98 4.47,-6.53 7.3,-7.62 2.82,-1.05 5.68,-0.87 8.54,0.58 2.98,1.5 4.93,3.7 5.79,6.61 0.82,2.89 0.22,6.38 -1.83,10.44l-38.87 76.9c-2.05,4.06 -4.5,6.6 -7.31,7.66 -2.88,1.07 -5.82,0.84 -8.8,-0.66 -2.82,-1.43 -4.67,-3.62 -5.45,-6.59 -0.84,-2.95 -0.25,-6.43 1.77,-10.42z"/>
   <path class="fil1" d="M807.59 177.98l-39.19 -30.97 -16.65 21.07 36.07 28.5c2.65,2.09 4.16,4.23 4.55,6.47 0.38,2.23 -0.23,4.34 -1.79,6.31 -1.53,1.94 -3.44,3.03 -5.7,3.23 -2.26,0.2 -4.75,-0.77 -7.43,-2.89l-36.07 -28.5 -19.28 24.41 40.52 32.01c2.75,2.18 4.28,4.44 4.68,6.79 0.4,2.36 -0.26,4.6 -1.93,6.71 -1.61,2.04 -3.61,3.17 -5.99,3.32 -2.39,0.16 -4.94,-0.81 -7.69,-2.98l-47.25 -37.33c-3.77,-2.99 -5.82,-5.98 -6.17,-8.97 -0.35,-2.98 0.98,-6.34 3.96,-10.11l50.98 -64.52c1.96,-2.48 3.95,-4.23 5.96,-5.23 1.97,-1.04 4.04,-1.28 6.2,-0.73 2.16,0.55 4.44,1.79 6.88,3.73l45.93 36.28c2.75,2.18 4.34,4.43 4.73,6.73 0.36,2.27 -0.22,4.4 -1.81,6.41 -1.61,2.04 -3.58,3.13 -5.87,3.31 -2.33,0.15 -4.88,-0.88 -7.64,-3.05z"/>
   <path class="fil1" d="M869.38 221.15l16 24c4.15,6.24 7.16,12 8.98,17.24 1.83,5.23 2.38,10.75 1.6,16.53 -1.79,14.89 -10.97,27.82 -27.52,38.85 -5.48,3.65 -10.77,6.5 -15.9,8.57 -5.15,2.03 -10.19,3.3 -15.15,3.74 -4.96,0.45 -9.91,0.05 -14.83,-1.15 -3.83,-0.99 -7.34,-2.5 -10.59,-4.5 -3.28,-2.03 -6.25,-4.53 -9.03,-7.52 -2.77,-2.99 -5.56,-6.55 -8.32,-10.7l-16.02 -24.04c-2.24,-3.35 -3.42,-6.21 -3.54,-8.58 -0.12,-2.37 0.58,-4.45 2.08,-6.18 1.48,-1.76 3.73,-3.62 6.65,-5.57l66.76 -44.49c3.97,-2.65 7.45,-3.67 10.39,-3.08 2.95,0.59 5.77,2.87 8.44,6.88zm-9.84 16.86l-61.76 41.16 9.3 13.95c2.04,3.06 3.73,5.43 5.06,7.04 1.3,1.64 2.89,3.17 4.83,4.59 1.87,1.41 3.89,2.41 5.99,2.98 9.34,2.68 20.38,-0.2 33.14,-8.7 8.98,-5.99 14.81,-11.85 17.47,-17.53 2.67,-5.68 3.29,-10.93 1.87,-15.72 -1.45,-4.75 -4.04,-9.96 -7.81,-15.62l-8.09 -12.15z"/>
   <path class="fil1" d="M262 784.84l-27.85 71.29 65.74 -40.16c3.46,-2.13 5.91,-3.56 7.35,-4.29 1.47,-0.74 3.14,-1.08 5.03,-1.07 1.92,0.03 3.85,0.86 5.8,2.5 1.43,1.19 2.45,2.68 3.09,4.43 0.62,1.73 0.79,3.49 0.48,5.27 -0.29,1.76 -0.95,3.24 -1.97,4.46 -0.68,0.81 -1.56,1.62 -2.6,2.39 -1,0.77 -2.09,1.47 -3.19,2.12 -1.12,0.64 -2.26,1.29 -3.42,2l-65.47 37.33c-2.46,1.45 -4.83,2.82 -7.11,4.09 -2.27,1.25 -4.47,2.2 -6.62,2.83 -2.11,0.64 -4.33,0.74 -6.66,0.34 -2.32,-0.41 -4.6,-1.57 -6.86,-3.46 -2.28,-1.91 -3.81,-3.96 -4.63,-6.16 -0.82,-2.19 -1.11,-4.4 -0.86,-6.66 0.29,-2.26 0.82,-4.61 1.66,-7.06 0.82,-2.44 1.76,-5 2.77,-7.67l25.33 -70.24c0.46,-1.26 0.92,-2.52 1.37,-3.75 0.43,-1.26 0.99,-2.52 1.65,-3.81 0.67,-1.31 1.33,-2.34 1.96,-3.09 1.61,-1.91 3.85,-3.02 6.72,-3.31 2.87,-0.28 5.49,0.56 7.82,2.52 2.86,2.4 4.15,4.96 3.86,7.71 -0.28,2.76 -1.41,6.57 -3.39,11.45zm140.73 84.75l-46.2 -17.42 -9.38 24.89 42.54 16.04c3.13,1.18 5.2,2.77 6.21,4.74 1.03,1.97 1.08,4.12 0.22,6.41 -0.86,2.28 -2.33,3.88 -4.38,4.75 -2.07,0.86 -4.68,0.71 -7.86,-0.49l-42.54 -16.04 -10.88 28.85 47.77 18.01c3.23,1.22 5.37,2.89 6.44,4.99 1.09,2.1 1.16,4.42 0.22,6.89 -0.89,2.38 -2.46,4.03 -4.67,4.89 -2.18,0.87 -4.89,0.71 -8.12,-0.51l-55.71 -21.01c-4.46,-1.67 -7.29,-3.87 -8.5,-6.59 -1.21,-2.72 -0.99,-6.3 0.67,-10.7l28.71 -76.13c1.11,-2.94 2.46,-5.18 4.03,-6.71 1.58,-1.53 3.46,-2.38 5.64,-2.53 2.18,-0.15 4.72,0.33 7.62,1.42l54.14 20.41c3.27,1.24 5.43,2.88 6.46,4.92 1.03,2.05 1.11,4.26 0.23,6.6 -0.91,2.4 -2.44,4.03 -4.57,4.9 -2.12,0.84 -4.82,0.66 -8.09,-0.58zm134.38 63.78l-1.13 20.69c-0.15,2.77 -0.55,4.94 -1.17,6.55 -0.64,1.63 -1.7,3.06 -3.23,4.29 -1.53,1.25 -3.47,2.43 -5.8,3.54 -6.7,3.16 -13.13,5.38 -19.25,6.69 -6.13,1.28 -12.76,1.72 -19.88,1.33 -8.3,-0.45 -15.8,-2.15 -22.47,-5.06 -6.71,-2.94 -12.31,-6.95 -16.85,-12.09 -4.56,-5.12 -7.94,-11.21 -10.12,-18.27 -2.22,-7.08 -3.08,-14.87 -2.61,-23.42 0.46,-8.4 2.14,-16 5.01,-22.86 2.9,-6.83 6.89,-12.54 12.04,-17.15 5.12,-4.59 11.23,-7.99 18.36,-10.17 7.11,-2.21 15.08,-3.06 23.93,-2.58 7.27,0.4 13.65,1.74 19.13,3.98 5.5,2.24 9.92,4.93 13.23,8.06 3.33,3.13 5.78,6.4 7.39,9.79 1.58,3.39 2.3,6.35 2.16,8.92 -0.15,2.74 -1.31,5.02 -3.46,6.85 -2.14,1.85 -4.63,2.67 -7.5,2.52 -1.56,-0.09 -3.05,-0.52 -4.47,-1.36 -1.41,-0.81 -2.57,-1.91 -3.47,-3.27 -2.49,-4.37 -4.58,-7.69 -6.32,-9.95 -1.77,-2.24 -4.19,-4.22 -7.25,-5.85 -3.09,-1.65 -7.1,-2.61 -12,-2.87 -5.05,-0.28 -9.63,0.35 -13.7,1.87 -4.07,1.52 -7.6,3.87 -10.6,7.04 -3,3.14 -5.38,7.1 -7.15,11.82 -1.75,4.74 -2.8,10.03 -3.12,15.87 -0.69,12.67 1.7,22.57 7.13,29.73 5.44,7.13 13.37,10.99 23.76,11.56 5.06,0.28 9.85,-0.12 14.37,-1.21 4.5,-1.09 9.13,-2.73 13.82,-4.94l0.95 -17.53 -16.92 -0.93c-4.08,-0.22 -7.14,-0.99 -9.16,-2.34 -2.02,-1.34 -2.93,-3.49 -2.77,-6.46 0.13,-2.39 1.12,-4.35 2.94,-5.81 1.82,-1.49 4.23,-2.14 7.25,-1.98l24.82 1.36c3.04,0.16 5.62,0.58 7.7,1.23 2.08,0.67 3.73,1.97 4.91,3.9 1.2,1.93 1.7,4.78 1.5,8.51zm119.38 5.42l-8.8 -11.55 -42.17 12.49 -1.02 14.75c-0.39,5.76 -1,9.75 -1.84,11.97 -0.81,2.21 -2.79,3.79 -5.9,4.72 -2.64,0.78 -5.26,0.5 -7.87,-0.83 -2.6,-1.33 -4.26,-3.23 -4.98,-5.66 -0.43,-1.43 -0.62,-2.97 -0.6,-4.61 0.03,-1.66 0.19,-3.97 0.47,-6.99l6.58 -75.19c0.2,-2.16 0.41,-4.74 0.67,-7.76 0.25,-3.05 0.72,-5.63 1.4,-7.77 0.68,-2.15 1.82,-4.06 3.45,-5.75 1.63,-1.69 3.88,-2.96 6.75,-3.81 2.95,-0.88 5.55,-1.04 7.83,-0.51 2.29,0.53 4.28,1.49 6,2.87 1.73,1.38 3.3,2.97 4.71,4.73 1.42,1.76 3.27,4.13 5.52,7.09l46.91 58.89c3.63,4.47 5.79,7.85 6.48,10.17 0.71,2.39 0.37,4.9 -1.04,7.5 -1.41,2.6 -3.55,4.31 -6.38,5.15 -1.64,0.49 -3.15,0.62 -4.51,0.36 -1.34,-0.23 -2.56,-0.73 -3.68,-1.51 -1.1,-0.77 -2.41,-2.09 -3.94,-3.9 -1.57,-1.82 -2.89,-3.45 -4.04,-4.85zm-50.12 -16.49l30.99 -9.18 -28.29 -38.12 -2.7 47.3zm95.41 -98.51l70.27 30.03 -35.45 -53.73c-2.3,-3.49 -3.27,-6.6 -2.93,-9.33 0.35,-2.73 1.78,-4.94 4.32,-6.62 2.61,-1.72 5.26,-2.23 7.93,-1.48 2.66,0.74 5.15,2.87 7.46,6.36l46.84 70.99c5.23,7.93 4.56,14.05 -2,18.37 -1.64,1.09 -3.27,1.83 -4.91,2.22 -1.61,0.39 -3.35,0.46 -5.15,0.2 -1.84,-0.27 -3.68,-0.78 -5.58,-1.51 -1.89,-0.72 -3.81,-1.47 -5.74,-2.25l-68.97 -29.93 34.88 52.85c2.27,3.45 3.19,6.58 2.76,9.4 -0.45,2.83 -1.93,5.08 -4.43,6.73 -2.59,1.7 -5.25,2.19 -7.99,1.43 -2.75,-0.74 -5.25,-2.84 -7.5,-6.24l-45.94 -69.63c-1.96,-2.97 -3.14,-5.5 -3.6,-7.61 -0.45,-2.37 -0.14,-4.74 0.89,-7.11 1.04,-2.35 2.61,-4.23 4.69,-5.6 1.66,-1.1 3.25,-1.75 4.76,-1.99 1.53,-0.23 3.03,-0.19 4.51,0.13 1.48,0.32 3.15,0.88 5.03,1.72 1.87,0.82 3.82,1.67 5.85,2.6z"/>
   <path class="fil3" d="M638.94 669.11l0 37.88c0,3.58 1.21,6.72 5.39,5.46 3.41,-1.02 2.57,-5.22 2.55,-9.13 -0.02,-7.75 -0.1,-15.6 0.03,-23.34 3.63,2.75 9,14.95 13.46,14.87 3.24,-0.06 5.34,-4.55 7.16,-7 1.91,-2.59 4.33,-5.62 5.96,-8.06 0.77,8.16 -1.44,26.77 1.25,32.32l4.79 0.62c1.46,-2 2.03,-2.27 2.03,-5.13l0 -39.1c0,-3.31 -1.81,-6.3 -5.37,-4.99 -3.28,1.21 -11.41,16.23 -15.8,20.24l-1.23 -1.18c-0.6,-0.68 -0.9,-1.14 -1.33,-1.73 -1.19,-1.61 -1.43,-2.07 -2.54,-3.57 -1.85,-2.5 -3.18,-4.46 -5.13,-7.09 -1.53,-2.08 -3.54,-5.94 -5.56,-6.66 -4.35,-1.57 -5.66,1.8 -5.66,5.59z"/>
   <path class="fil3" d="M413.65 692.31l0.12 9.84c-5.95,1.9 -9.44,3.98 -16.54,1.08 -17.84,-7.29 -12.41,-32.99 6.62,-33.23 7.52,-0.09 12.06,5.54 15.59,4.37 2.92,-0.96 3.28,-5.01 0.95,-7.13 -8.54,-7.8 -26.46,-7.62 -36.49,3.91 -16.22,18.66 3.12,48.42 28.16,40.38 11.69,-3.76 9.94,-6.95 9.93,-20.46 0,-8.31 -2.16,-6.77 -13.25,-6.84 -3.22,-0.01 -7.14,-0.57 -8.53,2.05 -1.57,2.95 0.15,5.57 3.07,5.97 2.55,0.35 7.57,0.06 10.37,0.06z"/>
   <path class="fil3" d="M720.19 670.69c10.07,-3.19 17.89,4.72 19.74,12.38 2.45,10.19 -3.99,18.67 -11.15,20.86 -19.84,6.07 -29.38,-26.67 -8.59,-33.24zm0.26 -8.44c-12.46,2.36 -22.17,13.89 -19.93,29.14 1.81,12.4 13.29,23.7 28.18,20.96 11.84,-2.17 22.15,-14.56 19.52,-29.59 -2.09,-11.96 -13.38,-23.24 -27.77,-20.51z"/>
   <path class="fil3" d="M505.42 680.34c6,7.26 12.5,17.22 18.38,25.2 1.86,2.52 4.1,7.45 7.68,7.1 4.62,-0.46 3.42,-7.04 3.42,-11.15l0.01 -29.34c0.04,-5.8 -0.24,-9.48 -6.72,-7.51 -2.46,5.09 -0.97,23.72 -1.16,31.27 -3.56,-2.33 -21.17,-30.88 -24.58,-31.95 -6.84,-2.14 -5.09,8.92 -5.09,13.09l0 18.94c0,4.64 -1.66,15.15 2.58,16.45 9.53,2.93 3.37,-18.72 5.48,-32.1z"/>
   <path class="fil3" d="M598.19 662.18c-16,2.88 -16.44,16.4 -10.86,21.97 6.52,6.51 25.76,5.48 26.37,13.15 0.42,5.14 -6.43,7.86 -11.34,7.96 -7.33,0.16 -9.86,-3.51 -14.09,-5.6 -4.78,-2.35 -9.54,3.31 -1.02,8.4 26.81,15.98 48.88,-14.65 21.82,-23.68 -4.96,-1.66 -11.24,-1.94 -15.39,-4.75 -5.51,-3.74 -0.49,-8.88 4.83,-10.1 7.68,-1.77 9.94,2.08 14.68,4.12 4.06,1.75 10.34,-2.62 0.84,-8.27 -4.45,-2.64 -9.74,-4.29 -15.84,-3.2z"/>
   <path class="fil3" d="M359.88 705.3l-20.78 -0.43 0.25 -13.16 17.43 -0.14c3.62,-1.19 3.92,-5.53 0.49,-6.94 -5.12,-1.26 -12.33,0.16 -17.81,-0.59 -0.9,-2.62 -0.78,-10.06 -0.11,-13.05l20.02 -0.14c4.22,-1.34 4.68,-7.53 -2.52,-7.7 -5.43,-0.13 -11.06,0.04 -16.52,0.01 -10.9,-0.05 -8.93,-0.73 -8.93,24.28 0,30.02 -4.62,25.33 24.24,25.39 9.57,0.01 7.08,-6.37 4.24,-7.53z"/>
   <path class="fil3" d="M461.27 679.08c1.32,1.47 5.26,11.81 5.27,14.16l-10.7 -0.12 5.43 -14.04zm-8.31 22.1l16.78 -0.1c1.52,3.03 4.61,16.54 10.22,10.54 2.55,-2.73 -2.57,-13.33 -3.96,-16.94l-9.35 -24.84c-1.09,-3.06 -1.67,-6.55 -5.37,-6.47 -4.26,0.09 -5.74,7.84 -8.3,14.56 -2.18,5.71 -4.06,10.99 -6.12,16.45 -1.24,3.31 -6.38,13.85 -4.43,16.74 2.15,3.18 5.95,1.64 7.3,-1.63 1.13,-2.72 1.9,-5.54 3.23,-8.31z"/>
   <path class="fil3" d="M312.71 665.45c-6.41,-5.59 -8.38,3.7 -12.19,12.72 -2.35,5.55 -5.79,15.3 -8.61,20.02 -3.31,-5.3 -12.27,-31.22 -14.52,-33.33 -2.34,-2.2 -6.76,-1.12 -6.64,2.97 0.06,1.84 2.49,6.77 3.39,8.85 2.37,5.52 4.79,11.46 7.19,17.22 1.73,4.13 5.07,13.55 7.11,16.71 5.26,8.13 9.67,-6.24 11.1,-9.61 2.56,-5.98 14.32,-30.67 13.17,-35.55z"/>
   <path class="fil3" d="M559.73 663.46c-4.16,1.41 -2.95,6.3 -2.95,11.15l0 28.72c-0.01,4.22 -0.69,10.63 5.14,9.21 4.18,-1.02 2.82,-8.01 2.81,-11.66l0.01 -28.71c0.02,-4 0.16,-10.47 -5.01,-8.71z"/>
   <path class="fil4" d="M524.71 787.95c-7.47,2.48 -12.21,3.54 -18.61,-1.37 -10.74,-8.23 -6.4,-25.91 8.12,-27.61 10.05,-1.18 10.74,6.01 17.47,3.05 1.52,-5.73 -3.22,-8.27 -9.3,-9.84 -6.09,-1.57 -12.04,-0.66 -17.22,1.95 -21.52,10.86 -13.72,44.26 12.03,43.32 4.59,-0.17 12.55,-2.94 14.33,-5.72 1.55,-2.43 0.94,-16.16 0.15,-18.98 -3.65,-1.71 -15.35,-1.67 -18.92,0.11 -2.18,8.09 5.53,6.15 12.19,6.15l-0.24 8.94z"/>
   <path class="fil3" d="M405.28 759.24c18,-4.14 23.67,25.54 6.21,30.32 -9.09,2.48 -16.37,-4.66 -17.8,-11.63 -2.05,-10 4.02,-16.95 11.59,-18.69zm-18.77 20.62c6.41,28.82 48.77,19.47 42.62,-10.48 -2.18,-10.62 -12.82,-20.59 -26.42,-17.32 -10.66,2.56 -19.22,14.19 -16.2,27.8z"/>
   <path class="fil4" d="M581.24 790.01l-0.12 -12.37c16.95,-5.51 21.56,16.15 0.12,12.37zm0.02 -30.1c4.9,0 10.13,-0.4 10.12,4.98 -0.01,5.53 -5.2,5.04 -10.26,5.04l0.14 -10.02zm15.25 11.77c4.37,-5.66 1.63,-13.41 -2.38,-16.38 -5.09,-3.77 -17.78,-3.06 -19.34,-1.39 -1.42,1.52 -1.78,38.97 0.14,42.97 6.01,1.56 19.02,2.17 24.66,-4.46 8.65,-10.14 -2.28,-19.56 -3.08,-20.74z"/>
   <path class="fil4" d="M454.81 759.91c6.66,0 14.46,-0.8 14.15,6.84 -0.3,7.02 -7.66,6.2 -14.23,6.2l0.08 -13.04zm16.81 17.56c1.76,-3.85 5.01,-4.94 4.56,-11.96 -0.78,-11.98 -11.02,-12.72 -19.5,-12.75 -12.1,-0.05 -8.99,-2.91 -9.14,38.37 -0.01,2.85 -0.1,4.98 2.03,5.92 7.78,3.41 4.46,-11.58 5.4,-16.96 5.74,0 12.33,-0.4 13.29,5.51 0.93,5.74 0.6,12.52 8.15,10.8 4.59,-4.29 -0.39,-4.46 -0.8,-9.04 -0.48,-5.21 -0.53,-7.32 -3.99,-9.89z"/>
   <path class="fil4" d="M624.5 759.91c6.64,0 14.4,-0.94 14.06,6.86 -0.31,7.15 -7.61,6.18 -14.14,6.18l0.08 -13.04zm16.79 17.49c0.85,-1.72 9.41,-10.77 1.19,-19.95 -2.14,-2.4 -4.74,-4.3 -9.27,-4.65 -18.92,-1.48 -15.97,1.31 -15.96,10.85l-0.03 27.48c-0.02,5.07 1.04,7.23 6.11,5.68 2.18,-4.12 0.43,-11.16 1.31,-16.72 5.61,0 12.4,-0.5 13.32,5.5 0.96,6.28 0.39,12.44 8.11,10.84 4.69,-4.51 -0.38,-4.43 -0.78,-9.07 -0.45,-5.18 -0.69,-7.49 -4,-9.96z"/>
   <path class="fil4" d="M551.52 793.59c0.38,5.57 9.66,6.08 9.5,-0.62 -0.16,-6.43 -9.96,-6.1 -9.5,0.62z"/>
   <path class="fil3" d="M368.16 794.21c0.88,5.36 10.15,4.9 9.36,-1.8 -0.72,-6.15 -10.5,-5.09 -9.36,1.8z"/>
  </g>
 </g>
</svg>
