<?xml version="1.0" encoding="UTF-8"?>
<!DOCTYPE svg PUBLIC "-//W3C//DTD SVG 1.1//EN" "http://www.w3.org/Graphics/SVG/1.1/DTD/svg11.dtd">
<!-- Creator: CorelDRAW -->
<svg xmlns="http://www.w3.org/2000/svg" xml:space="preserve" width="10.1598mm" height="10.1598mm" version="1.1" style="shape-rendering:geometricPrecision; text-rendering:geometricPrecision; image-rendering:optimizeQuality; fill-rule:evenodd; clip-rule:evenodd"
viewBox="0 0 1015.98 1015.98"
 xmlns:xlink="http://www.w3.org/1999/xlink"
 xmlns:xodm="http://www.corel.com/coreldraw/odm/2003">
 <defs>
  <style type="text/css">
   <![CDATA[
    .fil1 {fill:#201E1E}
    .fil0 {fill:#201E1E;fill-rule:nonzero}
   ]]>
  </style>
 </defs>
 <g id="Camada_x0020_1">
  <metadata id="CorelCorpID_0Corel-Layer"/>
  <g id="_1835088019056">
   <path class="fil0" d="M459.25 284.71c5.73,-0.83 11.03,3.11 11.83,8.82 0.79,5.71 -3.18,11.04 -8.88,11.86l0 0c-14.63,2.26 -23.04,17.79 -27.83,26.64 -3.37,6.24 -5.77,10.65 -11.06,12.31 -7.31,2.29 -12.25,-0.28 -15.04,-9.1 -2.12,-6.82 -4.27,-16.14 -3.61,-27.26 0.55,-9.48 3.14,-20.24 9.44,-31.83 -0.42,-0.74 -0.83,-1.51 -1.25,-2.31 -4.35,-8.86 -7.31,-21.99 -5.92,-35.8 1.34,-13.96 7.06,-28.74 19.99,-40.85 5.07,-4.77 11.19,-9.08 18.59,-12.69 0.02,-0.03 1.21,-0.47 1.27,-0.5 12.71,-4.25 24.41,-6.1 35.02,-5.93 19.79,0.33 36.03,7.45 48.83,18.76 12.44,11 21.38,25.95 26.92,42.44 4.88,14.46 7.17,30.13 6.92,45.33 -0.31,17.21 -3.03,33.23 -7.8,48.07 -16.25,50.42 -56.13,85.92 -106.36,108.48 -49.18,22.06 -108.4,31.75 -164.7,30.81 -39.22,-0.68 -77.2,-6.53 -109.61,-16.93 -5.48,-1.77 -8.52,-7.65 -6.75,-13.14 1.76,-5.49 7.66,-8.49 13.15,-6.72 30.31,9.73 66.23,15.19 103.52,15.83 53.54,0.91 109.58,-8.17 155.78,-28.9 45.15,-20.28 80.85,-51.7 95.05,-95.8 4.14,-12.8 6.48,-26.81 6.73,-42.04 0.22,-13.02 -1.68,-26.28 -5.73,-38.36 -4.44,-13.22 -11.45,-24.99 -20.97,-33.44 -9.16,-8.11 -20.9,-13.2 -35.27,-13.45 -8.25,-0.14 -17.33,1.26 -27.26,4.49 -5.24,2.62 -9.54,5.63 -13.02,8.88 -8.71,8.2 -12.58,18.21 -13.51,27.7 -0.94,9.62 1.05,18.61 4,24.6 0.83,1.71 1.68,3.04 2.45,3.83 2.71,2.9 3.34,9.49 1.19,12.8 -5.82,9 -8.5,17.3 -9.44,24.61 7.23,-9.58 17.6,-18.81 33.16,-21.21l0.08 0 0.09 0z"/>
   <path class="fil0" d="M245.1 12.96c3.29,-4.74 9.79,-5.93 14.54,-2.65 4.75,3.29 5.96,9.77 2.67,14.51 -65.89,95.16 -7.78,138.35 46.87,179.01 55.96,41.6 108.78,80.9 54.06,160.94 -3.26,4.78 -9.77,6.01 -14.54,2.76 -4.77,-3.25 -6.01,-9.73 -2.76,-14.5 43.45,-63.55 -1.57,-97.02 -49.2,-132.43 -62.53,-46.5 -128.98,-95.93 -51.64,-207.64z"/>
   <path class="fil0" d="M550.47 24.94c-3.33,-4.68 -2.25,-11.2 2.46,-14.53 4.71,-3.34 11.23,-2.26 14.59,2.43 28.94,40.46 37.9,73.26 34.45,101.03 -3.53,28.22 -19.61,50.42 -40.6,69.89 -4.22,3.95 -10.87,3.7 -14.79,-0.52 -3.94,-4.22 -3.69,-10.84 0.52,-14.76 17.75,-16.44 31.26,-34.78 34.05,-57.15 2.87,-22.86 -5.16,-50.72 -30.68,-86.39z"/>
   <path class="fil0" d="M622.31 123.14c0.14,-5.79 4.97,-10.34 10.74,-10.21 5.78,0.14 10.4,4.91 10.25,10.71l-0.03 0.39c-0.13,5.48 -0.6,11.03 -1.4,16.6 -0.8,5.57 -1.9,11 -3.31,16.19 -7.48,27.42 -23.91,51.63 -51.06,68.18 -4.93,3.01 -11.36,1.43 -14.37,-3.48 -3,-4.93 -1.46,-11.36 3.48,-14.37 22.15,-13.48 35.58,-33.31 41.71,-55.82 1.24,-4.52 2.17,-9.08 2.83,-13.63 0.64,-4.55 1.03,-9.3 1.16,-14.17l0 -0.39z"/>
   <path class="fil0" d="M631.48 215.24c2.12,-5.33 8.16,-7.98 13.51,-5.9 5.37,2.09 8.06,8.13 5.95,13.48l0 0.03 -0.13 0.28c-1.52,3.61 -3.31,7.11 -5.29,10.4 -2.02,3.41 -4.26,6.73 -6.6,9.87 -12.16,16.25 -29.15,30.39 -41.67,36.35 -5.22,2.51 -11.48,0.28 -13.96,-4.93 -2.49,-5.22 -0.27,-11.45 4.93,-13.96 9.93,-4.71 23.7,-16.36 33.9,-29.98 2.01,-2.68 3.81,-5.35 5.38,-7.97 1.57,-2.65 2.93,-5.25 3.98,-7.67z"/>
   <path class="fil0" d="M629.03 281.22c2.95,-4.97 9.37,-6.59 14.37,-3.67 4.96,2.95 6.62,9.35 3.67,14.29 -7.89,13.18 -16.91,23.58 -26.71,31.63 -9.89,8.14 -20.51,13.9 -31.52,17.8 -5.43,1.93 -11.42,-0.92 -13.32,-6.35 -1.93,-5.46 0.94,-11.42 6.37,-13.38 8.83,-3.11 17.32,-7.69 25.21,-14.17 7.94,-6.54 15.36,-15.12 21.93,-26.15z"/>
   <path class="fil1" d="M456.86 235.32c6.21,0 11.23,5.02 11.23,11.22 0,6.18 -5.02,11.2 -11.23,11.2 -6.21,0 -11.25,-5.02 -11.25,-11.2 0,-6.2 5.04,-11.22 11.25,-11.22z"/>
   <path class="fil1" d="M221.98 826.37l0 -211.83c0,-31.11 10.29,-56.41 30.75,-75.88 20.41,-19.25 44.95,-28.88 73.73,-28.88 27,0 50.42,8.08 70.36,24.27 23.08,18.95 34.59,44.14 34.59,75.44 0,29.1 -9.52,53.23 -28.55,72.46 -17.24,17.46 -36.74,26.2 -58.44,26.2l-61.98 0 0 -39 47.16 0c21.88,0 37.84,-7.69 47.88,-23.17 7.04,-10.59 10.6,-22.73 10.6,-36.49 0,-15.03 -3.87,-27.89 -11.45,-38.56 -10.67,-14.73 -27.39,-22.15 -50.17,-22.15 -22.62,0 -39.2,7.95 -49.71,23.83 -7.58,11.86 -11.42,26.15 -11.42,42.72l0 211.04 -43.35 0zm474.74 0l0.91 -206.67c0,-31.89 10.29,-58.26 30.76,-78.89 20.71,-20.66 46.33,-31.03 76.87,-31.03 33.29,0 60.29,10.37 81.14,31.03 20.49,20.93 30.78,50.47 30.78,88.65l0 196.91 -43.35 0 0 -141.39 -115.76 0 0 -39.88 115.76 0c0,-64.18 -21.88,-96.32 -65.65,-96.32 -23.95,0 -41.98,8.74 -53.95,26.2 -8.83,13.05 -13.27,27.91 -13.27,44.72l0 206.67 -44.24 0z"/>
   <path class="fil1" d="M448.22 670.07c0,-41.16 11.19,-75.03 33.51,-101.67 17.76,-20.69 41.61,-36.33 71.4,-46.94 22.65,-7.75 44.27,-11.67 64.96,-11.67l33.29 0 0 39.66 -35.06 0c-35.22,0 -64.48,10.37 -87.82,31.06 -20.21,17.84 -31.63,38.31 -34.33,61.56l157.21 0 0 40.57 -157.21 0c0,24.66 9.4,47.42 28.24,68.1 21.48,24.01 49.12,35.98 82.86,35.98l46.11 0 0 39.66 -38.94 0c-41.62,0 -78.59,-13.63 -110.85,-40.8 -35.62,-29.95 -53.37,-68.49 -53.37,-115.51z"/>
   <path class="fil0" d="M162.48 334.85c4.08,-4.08 10.7,-4.08 14.81,-0.03 4.08,4.08 4.08,10.68 0.03,14.76 -75.25,75.16 -48.3,148.91 -21.52,222.2 30.59,83.66 60.96,166.79 -40.87,253.7 -4.39,3.76 -11.01,3.23 -14.76,-1.15 -3.75,-4.39 -3.23,-10.98 1.16,-14.71 90.83,-77.53 62.91,-153.88 34.81,-230.72 -29.05,-79.52 -58.28,-159.49 26.34,-244.05z"/>
   <path class="fil0" d="M179.69 124.36c0.9,-5.68 6.28,-9.57 11.97,-8.66 5.7,0.91 9.6,6.26 8.68,11.95 -3.03,18.83 -1.95,34.77 4.31,48.07 6.23,13.21 17.82,24.33 35.91,33.68 5.13,2.67 7.14,8.97 4.5,14.09 -2.65,5.13 -8.97,7.14 -14.07,4.5 -22.4,-11.61 -37.02,-25.96 -45.26,-43.42 -8.17,-17.35 -9.74,-37.28 -6.04,-60.21z"/>
   <path class="fil0" d="M164.54 212.64c-1.35,-5.63 2.15,-11.25 7.78,-12.58 5.62,-1.32 11.28,2.15 12.63,7.76 3.73,15.69 9.6,27.11 18.01,35.91 8.56,8.94 20.08,15.55 34.97,21.45 5.38,2.13 8.03,8.2 5.91,13.58 -2.12,5.38 -8.22,8 -13.6,5.87 -17.6,-6.95 -31.52,-15.08 -42.45,-26.51 -11.03,-11.55 -18.62,-26.03 -23.25,-45.48z"/>
   <path class="fil0" d="M186.88 300.78c-2.82,-5.02 -0.99,-11.37 4.03,-14.18 5.05,-2.81 11.44,-0.99 14.23,4.03 7.64,13.6 16.19,23.5 26.84,30.31 10.7,6.89 23.83,10.9 40.51,12.66 5.74,0.61 9.91,5.77 9.3,11.51 -0.61,5.73 -5.76,9.89 -11.53,9.29 -19.97,-2.16 -36.05,-7.14 -49.6,-15.86 -13.65,-8.77 -24.43,-21.07 -33.78,-37.76z"/>
   <path class="fil1" d="M113.71 938.13l9.19 31.47 8.35 -29.24c0.88,-3.09 1.55,-5.16 1.99,-6.29 0.41,-1.1 1.24,-2.18 2.4,-3.2 1.22,-0.99 2.81,-1.52 4.88,-1.52 2.1,0 3.76,0.53 4.94,1.52 1.19,1.02 2.04,2.13 2.51,3.32 0.47,1.15 1.15,3.22 2.01,6.17l8.36 29.24 9.27 -31.47c0.63,-2.29 1.13,-3.92 1.51,-4.94 0.39,-0.99 1.03,-1.91 1.91,-2.68 0.91,-0.77 2.17,-1.16 3.86,-1.16 1.68,0 3.15,0.58 4.41,1.77 1.22,1.16 1.85,2.53 1.85,4.11 0,1.47 -0.53,3.64 -1.63,6.56l-11.47 33.74c-1.02,2.87 -1.8,4.93 -2.34,6.2 -0.56,1.28 -1.41,2.4 -2.6,3.39 -1.19,1.03 -2.81,1.52 -4.88,1.52 -2.12,0 -3.81,-0.55 -5.05,-1.63 -1.21,-1.04 -2.09,-2.36 -2.67,-3.91 -0.61,-1.52 -1.25,-3.56 -1.93,-6.04l-8.06 -27.44 -7.78 27.44c-1.04,3.83 -2.15,6.7 -3.36,8.66 -1.19,1.93 -3.31,2.92 -6.35,2.92 -1.54,0 -2.87,-0.3 -3.94,-0.91 -1.08,-0.61 -1.98,-1.46 -2.7,-2.59 -0.72,-1.1 -1.36,-2.43 -1.93,-3.97 -0.53,-1.52 -0.97,-2.73 -1.27,-3.64l-11.39 -33.74c-1.16,-3.17 -1.71,-5.34 -1.71,-6.56 0,-1.51 0.57,-2.87 1.79,-4.05 1.22,-1.22 2.68,-1.83 4.44,-1.83 2.34,0 3.91,0.69 4.74,1.99 0.83,1.32 1.72,3.59 2.65,6.79zm85.89 0l9.19 31.47 8.36 -29.24c0.88,-3.09 1.57,-5.16 1.98,-6.29 0.44,-1.1 1.24,-2.18 2.43,-3.2 1.18,-0.99 2.81,-1.52 4.88,-1.52 2.1,0 3.75,0.53 4.94,1.52 1.18,1.02 2.01,2.13 2.48,3.32 0.49,1.15 1.16,3.22 2.01,6.17l8.36 29.24 9.3 -31.47c0.63,-2.29 1.13,-3.92 1.49,-4.94 0.38,-0.99 1.01,-1.91 1.93,-2.68 0.88,-0.77 2.17,-1.16 3.85,-1.16 1.69,0 3.16,0.58 4.39,1.77 1.24,1.16 1.85,2.53 1.85,4.11 0,1.47 -0.52,3.64 -1.6,6.56l-11.5 33.74c-0.99,2.87 -1.79,4.93 -2.31,6.2 -0.56,1.28 -1.44,2.4 -2.62,3.39 -1.17,1.03 -2.82,1.52 -4.86,1.52 -2.15,0 -3.81,-0.55 -5.05,-1.63 -1.21,-1.04 -2.1,-2.36 -2.71,-3.91 -0.57,-1.52 -1.21,-3.56 -1.9,-6.04l-8.05 -27.44 -7.78 27.44c-1.05,3.83 -2.15,6.7 -3.36,8.66 -1.22,1.93 -3.31,2.92 -6.35,2.92 -1.54,0 -2.87,-0.3 -3.94,-0.91 -1.1,-0.61 -1.99,-1.46 -2.7,-2.59 -0.75,-1.1 -1.36,-2.43 -1.94,-3.97 -0.54,-1.52 -0.96,-2.73 -1.29,-3.64l-11.4 -33.74c-1.12,-3.17 -1.7,-5.34 -1.7,-6.56 0,-1.51 0.6,-2.87 1.81,-4.05 1.19,-1.22 2.69,-1.83 4.45,-1.83 2.32,0 3.91,0.69 4.74,1.99 0.83,1.32 1.71,3.59 2.62,6.79zm85.92 0l9.19 31.47 8.35 -29.24c0.89,-3.09 1.55,-5.16 1.99,-6.29 0.41,-1.1 1.24,-2.18 2.42,-3.2 1.19,-0.99 2.82,-1.52 4.86,-1.52 2.09,0 3.78,0.53 4.94,1.52 1.19,1.02 2.04,2.13 2.51,3.32 0.47,1.15 1.16,3.22 2.01,6.17l8.36 29.24 9.27 -31.47c0.63,-2.29 1.13,-3.92 1.52,-4.94 0.38,-0.99 1.01,-1.91 1.9,-2.68 0.9,-0.77 2.2,-1.16 3.86,-1.16 1.68,0 3.14,0.58 4.41,1.77 1.24,1.16 1.85,2.53 1.85,4.11 0,1.47 -0.52,3.64 -1.6,6.56l-11.5 33.74c-1,2.87 -1.79,4.93 -2.35,6.2 -0.52,1.28 -1.41,2.4 -2.59,3.39 -1.18,1.03 -2.81,1.52 -4.88,1.52 -2.12,0 -3.78,-0.55 -5.02,-1.63 -1.24,-1.04 -2.13,-2.36 -2.71,-3.91 -0.6,-1.52 -1.23,-3.56 -1.93,-6.04l-8.05 -27.44 -7.75 27.44c-1.05,3.83 -2.15,6.7 -3.39,8.66 -1.19,1.93 -3.29,2.92 -6.32,2.92 -1.57,0 -2.89,-0.3 -3.97,-0.91 -1.07,-0.61 -1.96,-1.46 -2.7,-2.59 -0.72,-1.1 -1.35,-2.43 -1.91,-3.97 -0.54,-1.52 -0.99,-2.73 -1.3,-3.64l-11.39 -33.74c-1.15,-3.17 -1.7,-5.34 -1.7,-6.56 0,-1.51 0.6,-2.87 1.81,-4.05 1.19,-1.22 2.68,-1.83 4.44,-1.83 2.33,0 3.9,0.69 4.75,1.99 0.8,1.32 1.68,3.59 2.62,6.79zm77.18 48.51c-2.13,0 -3.94,-0.71 -5.49,-2.06 -1.55,-1.39 -2.32,-3.34 -2.32,-5.8 0,-2.09 0.71,-3.88 2.21,-5.41 1.46,-1.51 3.31,-2.28 5.49,-2.28 2.15,0 3.99,0.74 5.54,2.23 1.52,1.51 2.26,3.31 2.26,5.46 0,2.43 -0.74,4.36 -2.26,5.74 -1.55,1.41 -3.34,2.12 -5.43,2.12zm36.77 -49.37l0 1.69c2.62,-3.26 5.4,-5.69 8.24,-7.21 2.84,-1.54 6.1,-2.29 9.71,-2.29 4.33,0 8.33,1.11 11.97,3.34 3.64,2.26 6.53,5.52 8.66,9.82 2.1,4.3 3.14,9.38 3.14,15.28 0,4.31 -0.6,8.3 -1.82,11.92 -1.21,3.64 -2.89,6.67 -5.04,9.16 -2.13,2.45 -4.64,4.32 -7.56,5.65 -2.89,1.32 -6.04,2.01 -9.35,2.01 -4.05,0 -7.42,-0.82 -10.15,-2.45 -2.73,-1.6 -5.35,-3.98 -7.8,-7.12l0 21.19c0,6.18 -2.27,9.26 -6.79,9.26 -2.65,0 -4.39,-0.77 -5.27,-2.37 -0.85,-1.63 -1.27,-3.94 -1.27,-7.01l0 -60.79c0,-2.67 0.58,-4.69 1.76,-6.01 1.17,-1.3 2.76,-1.99 4.78,-1.99 2.01,0 3.64,0.69 4.88,2.04 1.27,1.36 1.91,3.32 1.91,5.88zm27.6 20.47c0,-3.69 -0.57,-6.9 -1.71,-9.57 -1.12,-2.66 -2.73,-4.72 -4.71,-6.13 -2.02,-1.44 -4.25,-2.15 -6.68,-2.15 -3.89,0 -7.17,1.52 -9.84,4.61 -2.68,3.06 -4.01,7.56 -4.01,13.49 0,5.63 1.33,9.98 3.98,13.1 2.65,3.11 5.93,4.66 9.87,4.66 2.32,0 4.5,-0.69 6.48,-2.04 1.99,-1.35 3.59,-3.39 4.8,-6.12 1.21,-2.71 1.82,-6.02 1.82,-9.85zm64.71 3.69l-27.53 0c0.06,3.23 0.7,6.05 1.93,8.47 1.28,2.46 2.93,4.3 5.02,5.52 2.07,1.27 4.39,1.87 6.87,1.87 1.71,0 3.23,-0.19 4.63,-0.6 1.39,-0.39 2.74,-1 4.03,-1.86 1.35,-0.82 2.54,-1.73 3.62,-2.69 1.13,-0.97 2.53,-2.27 4.3,-3.92 0.72,-0.63 1.74,-0.94 3.09,-0.94 1.44,0 2.62,0.39 3.5,1.19 0.88,0.8 1.35,1.9 1.35,3.33 0,1.28 -0.5,2.76 -1.49,4.5 -1.02,1.69 -2.51,3.31 -4.52,4.88 -2.02,1.58 -4.53,2.87 -7.58,3.89 -3.04,1.05 -6.57,1.57 -10.49,1.57 -9.04,0 -16.1,-2.59 -21.12,-7.75 -5.02,-5.16 -7.53,-12.16 -7.53,-20.99 0,-4.16 0.6,-8.05 1.84,-11.61 1.25,-3.56 3.07,-6.59 5.44,-9.16 2.37,-2.54 5.3,-4.47 8.77,-5.85 3.48,-1.35 7.33,-2.04 11.55,-2.04 5.52,0 10.24,1.16 14.18,3.48 3.92,2.34 6.87,5.32 8.86,9.02 1.93,3.67 2.92,7.42 2.92,11.25 0,3.53 -1.02,5.82 -3.03,6.9 -2.04,1.02 -4.91,1.54 -8.61,1.54zm-27.53 -7.97l25.54 0c-0.32,-4.83 -1.65,-8.44 -3.88,-10.81 -2.27,-2.4 -5.22,-3.59 -8.88,-3.59 -3.54,0 -6.43,1.22 -8.67,3.62 -2.26,2.45 -3.64,6.04 -4.11,10.78zm86.64 25.21c-3.42,2.65 -6.7,4.63 -9.88,5.96 -3.19,1.32 -6.78,2.01 -10.72,2.01 -3.62,0 -6.79,-0.74 -9.52,-2.15 -2.73,-1.43 -4.83,-3.36 -6.32,-5.82 -1.49,-2.43 -2.23,-5.07 -2.23,-7.92 0,-3.86 1.21,-7.13 3.67,-9.87 2.45,-2.73 5.79,-4.55 10.07,-5.46 0.88,-0.22 3.12,-0.66 6.67,-1.37 3.53,-0.76 6.56,-1.41 9.1,-1.99 2.51,-0.64 5.27,-1.35 8.22,-2.21 -0.19,-3.73 -0.91,-6.45 -2.24,-8.19 -1.34,-1.74 -4.08,-2.6 -8.24,-2.6 -3.58,0 -6.26,0.5 -8.06,1.49 -1.81,0.99 -3.36,2.49 -4.66,4.5 -1.29,1.98 -2.2,3.31 -2.73,3.94 -0.55,0.64 -1.68,0.97 -3.41,0.97 -1.61,0 -2.98,-0.53 -4.11,-1.54 -1.16,-1 -1.74,-2.32 -1.74,-3.9 0,-2.48 0.85,-4.88 2.62,-7.22 1.77,-2.35 4.49,-4.25 8.22,-5.76 3.72,-1.52 8.33,-2.3 13.87,-2.3 6.2,0 11.06,0.75 14.59,2.21 3.56,1.46 6.04,3.75 7.5,6.95 1.46,3.14 2.21,7.37 2.21,12.58 0,3.28 0,6.12 -0.03,8.41 0,2.29 -0.02,4.88 -0.08,7.7 0,2.65 0.44,5.41 1.35,8.27 0.86,2.87 1.27,4.72 1.27,5.55 0,1.43 -0.66,2.75 -2.01,3.94 -1.36,1.19 -2.9,1.79 -4.61,1.79 -1.46,0 -2.87,-0.71 -4.28,-2.06 -1.43,-1.36 -2.92,-3.32 -4.49,-5.91zm-0.94 -20.36c-2.06,0.75 -5.07,1.55 -8.99,2.38 -3.94,0.85 -6.68,1.49 -8.19,1.88 -1.52,0.38 -2.95,1.15 -4.34,2.34 -1.37,1.13 -2.06,2.73 -2.06,4.8 0,2.15 0.83,3.94 2.42,5.46 1.63,1.49 3.73,2.24 6.35,2.24 2.79,0 5.35,-0.61 7.73,-1.86 2.33,-1.18 4.08,-2.78 5.18,-4.71 1.27,-2.13 1.9,-5.63 1.9,-10.54l0 -1.99zm37.43 28.33c-2.12,0 -3.94,-0.71 -5.49,-2.06 -1.57,-1.39 -2.35,-3.34 -2.35,-5.8 0,-2.09 0.75,-3.88 2.24,-5.41 1.46,-1.51 3.32,-2.28 5.47,-2.28 2.17,0 4.02,0.74 5.54,2.23 1.54,1.51 2.31,3.31 2.31,5.46 0,2.43 -0.77,4.36 -2.31,5.74 -1.52,1.41 -3.32,2.12 -5.41,2.12zm76.49 -28.65c0,4.19 -0.67,8.08 -1.97,11.61 -1.32,3.53 -3.22,6.59 -5.67,9.13 -2.49,2.53 -5.44,4.49 -8.88,5.85 -3.45,1.35 -7.31,2.06 -11.59,2.06 -4.28,0 -8.11,-0.71 -11.53,-2.06 -3.39,-1.39 -6.34,-3.37 -8.82,-5.94 -2.51,-2.53 -4.39,-5.56 -5.69,-9.04 -1.26,-3.51 -1.93,-7.39 -1.93,-11.61 0,-4.25 0.67,-8.17 1.96,-11.7 1.3,-3.56 3.17,-6.56 5.63,-9.1 2.42,-2.51 5.38,-4.44 8.85,-5.8 3.5,-1.35 7.31,-2.04 11.53,-2.04 4.25,0 8.11,0.69 11.59,2.08 3.47,1.37 6.45,3.33 8.93,5.87 2.48,2.56 4.36,5.6 5.66,9.1 1.26,3.5 1.93,7.36 1.93,11.59zm-14.15 0c0,-5.74 -1.27,-10.21 -3.78,-13.41 -2.54,-3.2 -5.93,-4.8 -10.18,-4.8 -2.78,0 -5.18,0.72 -7.28,2.15 -2.09,1.43 -3.73,3.51 -4.85,6.29 -1.14,2.81 -1.69,6.04 -1.69,9.77 0,3.69 0.55,6.89 1.65,9.65 1.14,2.75 2.71,4.86 4.8,6.32 2.1,1.46 4.55,2.2 7.37,2.2 4.25,0 7.64,-1.62 10.18,-4.83 2.51,-3.22 3.78,-7.66 3.78,-13.34zm39.22 8.3l0 11.77c0,2.87 -0.66,5 -2.02,6.43 -1.32,1.41 -3.03,2.15 -5.1,2.15 -2.04,0 -3.69,-0.74 -5.02,-2.17 -1.29,-1.46 -1.96,-3.59 -1.96,-6.41l0 -39.21c0,-6.32 2.3,-9.5 6.87,-9.5 2.35,0 4.03,0.75 5.07,2.21 1.03,1.49 1.61,3.67 1.69,6.57 1.68,-2.9 3.42,-5.08 5.19,-6.57 1.79,-1.46 4.13,-2.21 7.11,-2.21 2.96,0 5.82,0.75 8.61,2.21 2.78,1.49 4.16,3.45 4.16,5.9 0,1.71 -0.58,3.14 -1.79,4.26 -1.16,1.1 -2.46,1.64 -3.81,1.64 -0.52,0 -1.77,-0.3 -3.75,-0.93 -1.99,-0.64 -3.72,-0.97 -5.24,-0.97 -2.06,0 -3.75,0.55 -5.07,1.63 -1.3,1.08 -2.32,2.71 -3.04,4.83 -0.72,2.12 -1.21,4.66 -1.48,7.61 -0.29,2.95 -0.42,6.54 -0.42,10.76zm81.45 -26.62l0 40.93c0,4.66 -0.47,8.69 -1.49,12.08 -0.99,3.37 -2.56,6.16 -4.77,8.36 -2.21,2.21 -5.1,3.83 -8.66,4.88 -3.56,1.08 -8,1.6 -13.27,1.6 -4.85,0 -9.19,-0.68 -13.02,-2.04 -3.8,-1.35 -6.76,-3.08 -8.82,-5.27 -2.04,-2.12 -3.07,-4.35 -3.07,-6.62 0,-1.7 0.56,-3.11 1.74,-4.19 1.16,-1.07 2.57,-1.63 4.22,-1.63 2.07,0 3.86,0.91 5.41,2.73 0.77,0.94 1.57,1.86 2.37,2.82 0.8,0.94 1.68,1.73 2.67,2.4 1,0.69 2.15,1.19 3.54,1.52 1.37,0.32 2.98,0.5 4.74,0.5 3.67,0 6.48,-0.54 8.49,-1.53 2.02,-1.02 3.43,-2.45 4.23,-4.27 0.79,-1.82 1.29,-3.78 1.43,-5.85 0.14,-2.09 0.22,-5.43 0.3,-10.04 -2.18,3.04 -4.66,5.33 -7.5,6.92 -2.84,1.58 -6.24,2.38 -10.15,2.38 -4.72,0 -8.83,-1.22 -12.36,-3.62 -3.53,-2.4 -6.23,-5.78 -8.1,-10.09 -1.91,-4.36 -2.85,-9.38 -2.85,-15.03 0,-4.25 0.58,-8.06 1.71,-11.45 1.16,-3.42 2.82,-6.29 4.94,-8.64 2.12,-2.33 4.61,-4.1 7.39,-5.29 2.79,-1.19 5.82,-1.77 9.16,-1.77 4,0 7.45,0.75 10.37,2.29 2.93,1.52 5.66,3.95 8.17,7.21l0 -1.91c0,-2.46 0.57,-4.33 1.82,-5.68 1.18,-1.33 2.73,-2.02 4.63,-2.02 2.7,0 4.52,0.89 5.41,2.65 0.9,1.79 1.32,4.34 1.32,7.67zm-40.77 17.85c0,5.7 1.24,10.04 3.72,12.96 2.49,2.92 5.72,4.39 9.69,4.39 2.31,0 4.52,-0.64 6.62,-1.88 2.07,-1.27 3.78,-3.17 5.07,-5.68 1.33,-2.54 1.96,-5.6 1.96,-9.21 0,-5.74 -1.26,-10.21 -3.77,-13.44 -2.55,-3.17 -5.88,-4.77 -10,-4.77 -4.02,0 -7.24,1.52 -9.68,4.61 -2.42,3.03 -3.61,7.39 -3.61,13.02zm60.32 29.12c-2.12,0 -3.94,-0.71 -5.49,-2.06 -1.57,-1.39 -2.34,-3.34 -2.34,-5.8 0,-2.09 0.75,-3.88 2.23,-5.41 1.5,-1.51 3.32,-2.28 5.47,-2.28 2.17,0 4.03,0.74 5.54,2.23 1.54,1.51 2.29,3.31 2.29,5.46 0,2.43 -0.75,4.36 -2.29,5.74 -1.51,1.41 -3.31,2.12 -5.41,2.12zm36.74 -70.16l0 21.51c2.65,-2.79 5.36,-4.86 8.12,-6.32 2.75,-1.46 6.14,-2.21 10.2,-2.21 4.69,0 8.8,1.11 12.33,3.34 3.53,2.21 6.26,5.44 8.19,9.63 1.96,4.22 2.92,9.21 2.92,15 0,4.25 -0.52,8.17 -1.63,11.73 -1.07,3.56 -2.64,6.64 -4.71,9.26 -2.07,2.62 -4.58,4.64 -7.51,6.07 -2.94,1.41 -6.17,2.15 -9.73,2.15 -2.15,0 -4.19,-0.27 -6.12,-0.8 -1.9,-0.49 -3.54,-1.19 -4.88,-2.04 -1.33,-0.83 -2.49,-1.71 -3.43,-2.59 -0.93,-0.89 -2.2,-2.23 -3.75,-4.03l0 1.41c0,2.62 -0.6,4.63 -1.9,5.99 -1.27,1.35 -2.89,2.06 -4.85,2.06 -1.99,0 -3.59,-0.71 -4.77,-2.06 -1.19,-1.36 -1.77,-3.37 -1.77,-5.99l0 -61.51c0,-2.84 0.58,-5.02 1.71,-6.48 1.16,-1.47 2.79,-2.18 4.83,-2.18 2.18,0 3.83,0.69 5.02,2.1 1.15,1.37 1.73,3.39 1.73,5.96zm0.7 41.83c0,5.6 1.26,9.91 3.83,12.91 2.56,3.04 5.92,4.53 10.09,4.53 3.56,0 6.59,-1.55 9.16,-4.61 2.56,-3.08 3.84,-7.5 3.84,-13.24 0,-3.72 -0.53,-6.92 -1.61,-9.59 -1.04,-2.71 -2.56,-4.78 -4.55,-6.24 -1.93,-1.47 -4.22,-2.18 -6.84,-2.18 -2.67,0 -5.07,0.71 -7.17,2.18 -2.09,1.46 -3.75,3.59 -4.96,6.37 -1.21,2.76 -1.79,6.04 -1.79,9.87zm66.33 7.98l0 11.77c0,2.87 -0.66,5 -1.99,6.43 -1.35,1.41 -3.06,2.15 -5.12,2.15 -2.05,0 -3.68,-0.74 -5.02,-2.17 -1.3,-1.46 -1.94,-3.59 -1.94,-6.41l0 -39.21c0,-6.32 2.29,-9.5 6.87,-9.5 2.34,0 4,0.75 5.05,2.21 1.05,1.49 1.59,3.67 1.7,6.57 1.66,-2.9 3.4,-5.08 5.16,-6.57 1.8,-1.46 4.17,-2.21 7.12,-2.21 2.96,0 5.82,0.75 8.61,2.21 2.78,1.49 4.17,3.45 4.17,5.9 0,1.71 -0.58,3.14 -1.77,4.26 -1.19,1.1 -2.46,1.64 -3.86,1.64 -0.5,0 -1.74,-0.3 -3.73,-0.93 -1.98,-0.64 -3.73,-0.97 -5.24,-0.97 -2.07,0 -3.75,0.55 -5.05,1.63 -1.29,1.08 -2.34,2.71 -3.06,4.83 -0.71,2.12 -1.21,4.66 -1.49,7.61 -0.25,2.95 -0.41,6.54 -0.41,10.76z"/>
  </g>
 </g>
</svg>
