<?xml version="1.0" encoding="UTF-8"?>
<!DOCTYPE svg PUBLIC "-//W3C//DTD SVG 1.1//EN" "http://www.w3.org/Graphics/SVG/1.1/DTD/svg11.dtd">
<!-- Creator: CorelDRAW -->
<svg xmlns="http://www.w3.org/2000/svg" xml:space="preserve" width="10.1598mm" height="10.1598mm" version="1.1" style="shape-rendering:geometricPrecision; text-rendering:geometricPrecision; image-rendering:optimizeQuality; fill-rule:evenodd; clip-rule:evenodd"
viewBox="0 0 1015.98 1015.98"
 xmlns:xlink="http://www.w3.org/1999/xlink"
 xmlns:xodm="http://www.corel.com/coreldraw/odm/2003">
 <defs>
  <style type="text/css">
   <![CDATA[
    .fil1 {fill:#FEFEFE}
    .fil0 {fill:#201E1E}
   ]]>
  </style>
 </defs>
 <g id="Camada_x0020_1">
  <metadata id="CorelCorpID_0Corel-Layer"/>
  <g id="_1871955115520">
   <path class="fil0" d="M243.47 235.9c1.13,1.08 1.75,2.45 1.81,4.15 0.1,1.67 -0.47,3.19 -1.7,4.47l-23.37 24.68c-1.07,1.11 -2.47,1.7 -4.2,1.76 -1.73,0.04 -3.16,-0.47 -4.29,-1.58l-86.84 -82.27c-1.22,-1.14 -1.85,-2.57 -1.88,-4.33 -0.06,-1.73 0.45,-3.12 1.52,-4.25l23.37 -24.69c1.23,-1.28 2.72,-1.94 4.39,-1.94 1.7,0 3.13,0.54 4.35,1.7l6.89 6.53c1.22,1.16 1.84,2.53 1.87,4.2 0.06,1.64 -0.54,3.13 -1.75,4.41l-11.81 12.46 21.88 20.72 6.2 -6.49c1.29,-1.38 2.74,-2.09 4.29,-2.12 1.58,-0.06 3.07,0.56 4.45,1.88l7.95 7.57c1.32,1.22 2,2.62 2.06,4.23 0.09,1.61 -0.54,3.1 -1.81,4.47l-6.21 6.53 24.2 22.92 11.81 -12.45c1.23,-1.29 2.65,-1.97 4.29,-2 1.68,-0.03 3.14,0.56 4.42,1.79l8.11 7.65zm85.49 -60.84c0.84,1.32 1.1,2.77 0.81,4.41 -0.27,1.62 -1.23,2.93 -2.83,3.97l-8.86 5.61c-1.4,0.89 -2.92,1.13 -4.56,0.71 -1.64,-0.42 -2.89,-1.25 -3.7,-2.56l-41.67 -65.74 -1.13 0.69 30.16 74.02c0.54,1.49 0.6,2.95 0.21,4.29 -0.35,1.35 -1.16,2.44 -2.38,3.22l-3.67 2.3c-1.4,0.89 -2.86,1.22 -4.32,0.95 -1.46,-0.24 -2.66,-0.92 -3.52,-2.08l-53.03 -59.74 -1.25 0.8 41.73 65.88c0.84,1.31 1.1,2.8 0.84,4.42 -0.3,1.63 -1.22,2.94 -2.84,3.96l-6.73 4.29c-1.35,0.8 -2.83,1.04 -4.53,0.65 -1.68,-0.35 -2.93,-1.22 -3.76,-2.5l-64.03 -101.09c-0.9,-1.39 -1.17,-2.95 -0.78,-4.65 0.39,-1.7 1.23,-2.92 2.54,-3.75l20.41 -12.97c1.41,-0.86 2.84,-1.19 4.33,-0.95 1.46,0.23 2.62,0.95 3.51,2.12l36.16 42.17 1.29 -0.8 -21.97 -51.18c-0.65,-1.29 -0.81,-2.63 -0.42,-4.09 0.39,-1.43 1.31,-2.59 2.72,-3.49l18.71 -11.86c1.62,-1.01 3.2,-1.28 4.78,-0.86 1.6,0.44 2.85,1.37 3.75,2.77l64.03 101.08zm9.99 -108.78c-0.75,-1.87 -1.7,-2.97 -2.8,-3.36 -1.11,-0.39 -2.33,-0.33 -3.67,0.2l-3.88 1.58 11.21 27.82 3.88 -1.56c2.98,-1.21 3.85,-3.36 2.62,-6.46l-7.36 -18.22zm19.89 49.28c-0.63,-1.52 -1.56,-2.57 -2.69,-3.04 -1.16,-0.51 -2.42,-0.45 -3.73,0.09l-3.87 1.55 11.89 29.52 3.88 -1.56c1.34,-0.53 2.26,-1.4 2.74,-2.56 0.48,-1.13 0.42,-2.51 -0.2,-4.03l-8.02 -19.97zm29.29 16.07c1.56,3.9 2.24,7.51 2.03,10.82 -0.2,3.34 -1.04,6.32 -2.5,9.04 -1.4,2.65 -3.31,4.97 -5.64,6.91 -2.32,1.97 -4.76,3.49 -7.33,4.5l-21.19 8.55c-1.43,0.57 -2.95,0.54 -4.53,-0.14 -1.62,-0.66 -2.69,-1.73 -3.26,-3.19l-44.77 -110.96c-0.6,-1.55 -0.6,-3.12 0.09,-4.7 0.66,-1.62 1.73,-2.69 3.19,-3.26l21.16 -8.52c2.57,-1.04 5.37,-1.7 8.41,-1.88 3.04,-0.21 5.99,0.15 8.89,1.07 2.89,0.93 5.57,2.57 8.04,4.83 2.51,2.32 4.51,5.37 6.03,9.19l9.92 24.56c2.3,5.66 1.26,11.3 -3.07,16.87 6.85,0.71 11.51,4.03 13.93,10.02l10.6 26.29zm35.27 -71.64l-1.49 0.24 2.86 43.49 8.71 -1.48 -10.08 -42.25zm41.74 75.22c0.26,1.64 -0.03,3.16 -0.9,4.53 -0.89,1.4 -2.2,2.23 -3.96,2.56l-11 1.88c-1.56,0.24 -2.98,-0.06 -4.33,-0.89 -1.31,-0.84 -2.23,-2.09 -2.71,-3.67l-3.52 -14.61 -12.16 2.06 1.1 15.38c0.06,1.55 -0.41,2.95 -1.4,4.12 -0.98,1.19 -2.17,1.91 -3.6,2.14l-7.9 1.34c-1.52,0.27 -2.98,-0.09 -4.41,-1.1 -1.4,-0.98 -2.24,-2.32 -2.54,-3.96l-0.12 -0.66 -5.63 -120.26c-0.15,-1.54 0.27,-2.95 1.31,-4.17 1.01,-1.25 2.3,-2.03 3.82,-2.29l16.12 -2.71c1.61,-0.31 3.08,0 4.35,0.82 1.29,0.87 2.21,2.03 2.81,3.49l34.67 116zm61.68 -1.5c0.02,1.56 -0.54,2.96 -1.68,4.21 -1.15,1.25 -2.62,1.88 -4.37,1.9l-33.91 0.64c-1.51,0 -2.91,-0.57 -4.14,-1.79 -1.22,-1.2 -1.87,-2.57 -1.87,-4.12l-2.18 -119.63c-0.03,-1.66 0.54,-3.13 1.76,-4.38 1.16,-1.22 2.53,-1.88 4.05,-1.91l10.79 -0.17c1.73,-0.04 3.22,0.56 4.39,1.75 1.19,1.2 1.79,2.62 1.82,4.3l1.87 102.3 16.97 -0.29c1.78,-0.06 3.28,0.51 4.47,1.66 1.19,1.14 1.78,2.6 1.82,4.39l0.21 11.14zm54.55 -74.75l-1.49 -0.25 -11.72 41.95 8.71 1.48 4.5 -43.18zm14.43 84.8c-0.3,1.64 -1.08,2.98 -2.39,4 -1.28,1.01 -2.8,1.37 -4.56,1.07l-11.03 -1.87c-1.52,-0.27 -2.77,-1.02 -3.76,-2.28 -0.95,-1.21 -1.43,-2.68 -1.37,-4.35l1.55 -14.96 -12.16 -2.08 -4.06 14.87c-0.47,1.49 -1.37,2.62 -2.68,3.43 -1.3,0.8 -2.68,1.04 -4.11,0.8l-7.9 -1.34c-1.52,-0.27 -2.81,-1.1 -3.79,-2.5 -1.01,-1.4 -1.37,-2.95 -1.07,-4.57l0.09 -0.68 34.58 -115.31c0.36,-1.51 1.25,-2.68 2.65,-3.52 1.35,-0.83 2.8,-1.13 4.36,-0.86l16.09 2.74c1.64,0.3 2.93,1.05 3.85,2.27 0.89,1.22 1.4,2.65 1.46,4.23l-5.75 120.91zm67.57 22.63c-0.5,1.46 -1.58,2.56 -3.09,3.34 -1.58,0.74 -3.19,0.8 -4.89,0.24l-4.08 -1.43c-1.47,-0.54 -2.3,-1.52 -2.48,-3.02l-0.36 -2.95 -1.28 -0.45c-1.88,1.02 -4.33,1.7 -7.33,2.12 -3.05,0.39 -6,0.12 -8.8,-0.89 -3.46,-1.23 -6.44,-2.95 -8.94,-5.25 -2.48,-2.3 -4.39,-4.89 -5.64,-7.81 -1.27,-2.92 -1.97,-6.08 -2.09,-9.45 -0.08,-3.4 0.45,-6.82 1.7,-10.29l27.64 -78.79c1.1,-3.16 2.8,-5.93 5.12,-8.34 2.34,-2.41 5.11,-4.38 8.33,-5.81 3.22,-1.46 6.67,-2.3 10.31,-2.51 3.64,-0.18 7.33,0.39 11,1.67 3.67,1.29 6.85,3.16 9.6,5.58 2.75,2.44 4.92,5.21 6.5,8.37 1.61,3.17 2.56,6.41 2.86,9.76 0.3,3.33 -0.09,6.58 -1.19,9.74l-5.85 16.64c-0.59,1.7 -1.66,2.85 -3.18,3.48 -1.52,0.66 -3.02,0.72 -4.48,0.19l-9.9 -3.47c-1.48,-0.51 -2.59,-1.49 -3.39,-2.95 -0.78,-1.46 -0.9,-3.01 -0.3,-4.71l5.58 -15.86c0.44,-1.25 0.29,-2.38 -0.39,-3.31 -0.72,-0.98 -1.79,-1.72 -3.25,-2.2 -1.43,-0.51 -2.72,-0.6 -3.87,-0.33 -1.15,0.33 -1.95,1.1 -2.4,2.35l-27.75 79.09c-0.35,1.07 -0.21,2.12 0.45,3.16 0.69,1.07 1.73,1.88 3.19,2.36 1.43,0.5 2.74,0.56 3.93,0.17 1.17,-0.44 1.94,-1.15 2.33,-2.2l7.33 -20.92 -0.92 -0.31c-0.95,-0.35 -1.64,-1.04 -2.03,-2.05 -0.42,-1.02 -0.44,-1.97 -0.17,-2.81l3.03 -8.64c0.6,-1.67 1.64,-2.86 3.1,-3.58 1.5,-0.71 3.02,-0.8 4.6,-0.23l14.78 5.18c1.67,0.6 2.9,1.61 3.67,3.13 0.77,1.52 0.87,3.1 0.27,4.77l-17.27 49.22zm55.93 31.21c-0.77,1.38 -1.96,2.3 -3.58,2.8 -1.6,0.48 -3.18,0.3 -4.74,-0.56l-29.66 -16.58c-1.37,-0.77 -2.29,-1.96 -2.77,-3.64 -0.47,-1.67 -0.33,-3.16 0.45,-4.53l58.36 -104.46c0.78,-1.45 2.03,-2.4 3.7,-2.89 1.67,-0.47 3.19,-0.33 4.53,0.43l29.7 16.6c1.52,0.83 2.53,2.09 2.95,3.73 0.41,1.64 0.21,3.18 -0.6,4.64l-4.62 8.29c-0.83,1.47 -2.03,2.41 -3.61,2.86 -1.58,0.45 -3.16,0.25 -4.71,-0.62l-14.99 -8.38 -14.7 26.32 7.84 4.41c1.64,0.93 2.72,2.13 3.13,3.64 0.42,1.52 0.18,3.1 -0.74,4.74l-5.37 9.6c-0.87,1.58 -2.06,2.57 -3.61,3.04 -1.52,0.48 -3.13,0.27 -4.77,-0.65l-7.87 -4.42 -16.25 29.13 15 8.37c1.55,0.84 2.54,2.06 2.98,3.67 0.48,1.58 0.24,3.16 -0.62,4.71l-5.43 9.75zm79.17 68.99c-1.07,1.13 -2.4,1.75 -4.08,1.9 -1.64,0.09 -3.12,-0.48 -4.5,-1.79l-7.63 -7.21c-1.19,-1.17 -1.82,-2.56 -1.82,-4.27 0,-1.7 0.54,-3.09 1.58,-4.23l53.54 -56.46 -0.95 -0.92 -64.39 47.34c-1.31,0.89 -2.69,1.33 -4.09,1.27 -1.43,-0.02 -2.65,-0.56 -3.72,-1.54l-3.14 -2.99c-1.19,-1.13 -1.87,-2.44 -1.99,-3.93 -0.12,-1.49 0.29,-2.8 1.19,-3.93l44.92 -66.03 -1.1 -1.05 -53.63 56.62c-1.1,1.13 -2.44,1.75 -4.08,1.87 -1.64,0.15 -3.16,-0.45 -4.53,-1.76l-5.81 -5.51c-1.14,-1.04 -1.7,-2.45 -1.76,-4.18 -0.06,-1.72 0.47,-3.16 1.54,-4.29l82.28 -86.87c1.17,-1.19 2.6,-1.82 4.32,-1.88 1.73,-0.03 3.16,0.48 4.29,1.55l17.54 16.61c1.22,1.16 1.87,2.47 1.99,3.97 0.12,1.48 -0.29,2.79 -1.19,3.93l-32.02 45.4 1.08 1.05 44.23 -33.85c1.08,-0.98 2.36,-1.45 3.88,-1.42 1.49,0.06 2.83,0.66 4.06,1.79l16.06 15.26c1.4,1.28 2.06,2.77 2.03,4.41 -0.03,1.64 -0.63,3.08 -1.78,4.29l-82.32 86.85z"/>
   <polygon class="fil0" points="115.32,292.96 127.83,318.15 154.49,322.89 135.58,343.22 139.52,371.3 115.32,358.69 91.11,371.3 95.05,343.22 76.14,322.89 102.76,318.15 "/>
   <polygon class="fil0" points="76.38,432.89 88.89,458.08 115.55,462.82 96.64,483.16 100.58,511.24 76.38,498.63 52.17,511.24 56.11,483.16 37.21,462.82 63.82,458.08 "/>
   <polygon class="fil0" points="86.85,572.81 99.4,598 126.02,602.74 107.11,623.07 111.05,651.15 86.85,638.55 62.64,651.15 66.58,623.07 47.67,602.74 74.29,598 "/>
   <polygon class="fil0" points="141.4,712.74 153.94,737.93 180.56,742.67 161.67,762.97 165.6,791.08 141.4,778.47 117.19,791.08 121.12,762.97 102.22,742.67 128.84,737.93 "/>
   <polygon class="fil0" points="900.67,292.96 888.15,318.15 861.5,322.89 880.4,343.22 876.46,371.3 900.67,358.69 924.87,371.3 920.94,343.22 939.84,322.89 913.22,318.15 "/>
   <polygon class="fil0" points="939.61,432.89 927.09,458.08 900.43,462.82 919.34,483.16 915.4,511.24 939.61,498.63 963.81,511.24 959.88,483.16 978.78,462.82 952.16,458.08 "/>
   <polygon class="fil0" points="929.14,572.81 916.62,598 889.96,602.74 908.87,623.07 904.93,651.15 929.14,638.55 953.34,651.15 949.41,623.07 968.31,602.74 941.69,598 "/>
   <polygon class="fil0" points="874.59,712.74 862.04,737.93 835.43,742.67 854.32,762.97 850.39,791.08 874.59,778.47 898.8,791.08 894.86,762.97 913.77,742.67 887.12,737.93 "/>
   <path class="fil0" d="M237.78 837.32c0.98,-1.72 1.31,-3.16 0.92,-4.29 -0.36,-1.1 -1.19,-2.03 -2.44,-2.74l-3.61 -2.09 -16.66 28.86 3.57 2.09c2.81,1.6 5.07,0.92 6.8,-2.06l11.42 -19.77zm-27.34 95.25c-0.42,1.82 -1.55,2.98 -3.43,3.42 -1.87,0.49 -3.57,0.25 -5.09,-0.65l-8.68 -5.01c-1.13,-0.66 -2.03,-1.54 -2.6,-2.65 -0.59,-1.1 -0.68,-2.32 -0.29,-3.63 1.48,-5.29 3.67,-10.32 6.44,-15.15l13.83 -23.94c0.72,-1.25 0.95,-2.53 0.72,-3.84 -0.31,-1.32 -1.26,-2.45 -2.9,-3.41l-3.3 -1.9 -23.61 40.84c-0.78,1.35 -2.01,2.23 -3.67,2.68 -1.67,0.45 -3.25,0.24 -4.65,-0.57l-9.28 -5.36c-1.31,-0.77 -2.2,-2 -2.68,-3.67 -0.44,-1.64 -0.27,-3.16 0.51,-4.53l59.89 -103.59c0.83,-1.43 2.08,-2.36 3.76,-2.83 1.66,-0.45 3.16,-0.27 4.53,0.51l19.76 11.45c2.38,1.37 4.65,3.22 6.77,5.54 2.15,2.32 3.73,4.88 4.77,7.75 1.04,2.86 1.52,5.99 1.37,9.45 -0.12,3.45 -1.22,6.98 -3.28,10.53l-14.85 25.66c-1.61,2.8 -3.75,4.8 -6.46,6.02 -2.69,1.2 -5.78,1.76 -9.31,1.61l0.15 0.09c1.76,2.95 2.87,5.93 3.38,9 0.47,3.01 -0.1,5.93 -1.71,8.74l-13.51 23.36c-1.42,2.51 -2.71,4.9 -3.78,7.22 -1.1,2.36 -2.03,4.62 -2.8,6.86zm66.51 31.5c-0.63,1.44 -1.73,2.48 -3.28,3.11 -1.58,0.62 -3.16,0.6 -4.8,-0.15l-31.03 -13.86c-1.4,-0.63 -2.45,-1.76 -3.04,-3.37 -0.63,-1.61 -0.6,-3.13 0.02,-4.54l48.83 -109.25c0.69,-1.52 1.82,-2.59 3.44,-3.18 1.6,-0.63 3.12,-0.63 4.52,0.02l31.07 13.87c1.6,0.71 2.71,1.87 3.28,3.45 0.56,1.61 0.5,3.16 -0.18,4.69l-3.88 8.67c-0.68,1.52 -1.79,2.56 -3.31,3.16 -1.55,0.6 -3.15,0.5 -4.77,-0.21l-15.65 -6.98 -12.31 27.52 8.2 3.66c1.73,0.78 2.89,1.91 3.45,3.38 0.54,1.46 0.45,3.06 -0.32,4.76l-4.5 10.05c-0.72,1.64 -1.82,2.75 -3.31,3.37 -1.49,0.59 -3.11,0.51 -4.83,-0.27l-8.23 -3.67 -13.6 30.44 15.69 7.01c1.61,0.71 2.74,1.85 3.31,3.39 0.59,1.55 0.53,3.13 -0.21,4.77l-4.56 10.16zm84.45 6c-0.89,3.22 -2.47,6.11 -4.74,8.61 -2.27,2.57 -4.89,4.65 -7.9,6.38 -3.01,1.7 -6.41,2.78 -10.2,3.28 -3.75,0.51 -7.47,0.24 -11.12,-0.74 -3.75,-1.07 -7.09,-2.81 -10.07,-5.15 -2.95,-2.4 -5.31,-5.11 -7.06,-8.15 -1.76,-3.03 -2.99,-6.23 -3.65,-9.57 -0.68,-3.37 -0.56,-6.65 0.33,-9.87l22.46 -80.39c0.92,-3.22 2.52,-6.09 4.86,-8.62 2.29,-2.53 5,-4.61 8.07,-6.31 3.07,-1.68 6.47,-2.72 10.19,-3.1 3.76,-0.39 7.52,-0.1 11.24,0.98 3.65,1.01 6.95,2.68 9.96,4.95 2.98,2.26 5.34,4.92 7.04,7.92 1.69,3.01 2.86,6.21 3.49,9.54 0.59,3.34 0.47,6.62 -0.43,9.84l-4.49 16.04c-0.48,1.7 -1.44,2.98 -2.96,3.76 -1.49,0.8 -3.07,0.95 -4.8,0.47l-9.95 -2.77c-1.49,-0.41 -2.68,-1.37 -3.55,-2.8 -0.83,-1.47 -1.04,-3.05 -0.57,-4.75l4.27 -15.26c0.35,-1.28 0.14,-2.38 -0.63,-3.3 -0.81,-0.9 -1.94,-1.56 -3.43,-2 -1.48,-0.42 -2.83,-0.42 -3.96,-0.03 -1.13,0.36 -1.88,1.19 -2.26,2.48l-22.09 79.11c-0.33,1.19 -0.13,2.24 0.68,3.13 0.77,0.92 1.91,1.58 3.42,2 1.5,0.41 2.81,0.45 3.97,0.06 1.14,-0.36 1.88,-1.17 2.21,-2.36l4.32 -15.5c0.45,-1.61 1.43,-2.83 2.95,-3.7 1.49,-0.86 3.01,-1.07 4.5,-0.65l9.96 2.77c1.7,0.47 2.98,1.49 3.85,2.98 0.83,1.53 1.04,3.07 0.59,4.69l-4.5 16.03zm46.8 25.4c-0.21,1.55 -0.95,2.89 -2.26,3.93 -1.31,1.08 -2.83,1.53 -4.59,1.31l-10.44 -1.25c-1.64,-0.21 -2.98,-0.98 -3.99,-2.32 -1.02,-1.38 -1.43,-2.81 -1.25,-4.35l14.28 -118.83c0.2,-1.64 0.95,-3.01 2.26,-4.08 1.31,-1.05 2.77,-1.5 4.45,-1.28l10.42 1.22c1.76,0.24 3.14,1.01 4.15,2.35 1.02,1.38 1.43,2.86 1.22,4.5l-14.25 118.8zm86.99 -13.02c-0.12,3.33 -0.96,6.49 -2.56,9.5 -1.62,2.98 -3.64,5.7 -6.18,8.02 -2.53,2.38 -5.57,4.26 -9.12,5.64 -3.55,1.39 -7.18,2.03 -10.97,1.9 -3.9,-0.12 -7.57,-0.98 -11,-2.62 -3.45,-1.61 -6.38,-3.67 -8.79,-6.2 -2.42,-2.5 -4.38,-5.34 -5.84,-8.44 -1.47,-3.1 -2.12,-6.32 -2.01,-9.63l2.69 -83.46c0.12,-3.35 0.98,-6.5 2.65,-9.52 1.64,-2.98 3.79,-5.66 6.35,-8.04 2.59,-2.36 5.64,-4.18 9.19,-5.46 3.55,-1.29 7.24,-1.85 11.14,-1.7 3.79,0.12 7.4,0.92 10.85,2.42 3.43,1.52 6.36,3.51 8.71,6.05 2.39,2.53 4.26,5.33 5.67,8.43 1.4,3.1 2.02,6.32 1.91,9.63l-0.55 16.67c-0.05,1.78 -0.68,3.22 -1.96,4.35 -1.26,1.13 -2.78,1.66 -4.53,1.61l-10.35 -0.33c-1.55,-0.05 -2.92,-0.69 -4.11,-1.91 -1.17,-1.19 -1.76,-2.68 -1.7,-4.44l0.53 -15.83c0.04,-1.34 -0.41,-2.36 -1.39,-3.04 -0.99,-0.72 -2.27,-1.1 -3.82,-1.17 -1.55,-0.02 -2.83,0.27 -3.85,0.9 -1.04,0.63 -1.58,1.61 -1.61,2.96l-2.65 82.13c-0.03,1.21 0.42,2.17 1.4,2.89 0.99,0.68 2.24,1.03 3.78,1.09 1.58,0.06 2.87,-0.23 3.88,-0.86 1.02,-0.66 1.55,-1.6 1.61,-2.83l0.51 -16.1c0.05,-1.67 0.71,-3.06 1.96,-4.29 1.26,-1.19 2.69,-1.73 4.24,-1.7l10.32 0.33c1.78,0.06 3.27,0.71 4.43,2 1.2,1.25 1.77,2.71 1.71,4.38l-0.54 16.67zm73.63 10.46c0.18,1.54 -0.21,3 -1.26,4.35 -1,1.34 -2.38,2.14 -4.16,2.36l-33.63 4.04c-1.52,0.19 -2.99,-0.26 -4.3,-1.33 -1.37,-1.07 -2.14,-2.39 -2.32,-3.94l-14.28 -118.79c-0.18,-1.64 0.24,-3.14 1.28,-4.51 1.04,-1.37 2.36,-2.14 3.88,-2.29l10.7 -1.31c1.73,-0.22 3.28,0.23 4.56,1.31 1.31,1.07 2.06,2.45 2.23,4.09l12.23 101.58 16.88 -2.02c1.78,-0.21 3.3,0.18 4.58,1.2 1.31,1.03 2.06,2.4 2.27,4.2l1.34 11.06zm33.47 -90.45l-1.42 0.33 5.33 43.23 8.62 -1.97 -12.53 -41.59zm46.03 72.68c0.39,1.61 0.15,3.13 -0.65,4.59 -0.78,1.43 -2.06,2.35 -3.78,2.77l-10.89 2.51c-1.52,0.33 -2.98,0.15 -4.35,-0.63 -1.37,-0.78 -2.36,-1.93 -2.92,-3.51l-4.38 -14.4 -12.02 2.79 2 15.27c0.15,1.55 -0.26,2.95 -1.16,4.2 -0.93,1.23 -2.06,2.03 -3.49,2.33l-7.78 1.81c-1.52,0.37 -3.01,0.06 -4.47,-0.86 -1.46,-0.92 -2.42,-2.18 -2.77,-3.82l-0.16 -0.62 -12.57 -119.75c-0.25,-1.52 0.12,-2.95 1.07,-4.26 0.95,-1.29 2.21,-2.12 3.73,-2.48l15.89 -3.66c1.63,-0.39 3.1,-0.18 4.41,0.6 1.31,0.76 2.32,1.9 3,3.33l41.29 113.79zm-66.09 -144.16c0.33,-1.11 0.72,-1.97 1.19,-2.57 0.49,-0.63 1.5,-1.14 2.99,-1.46l6.53 -1.52c2.47,-0.56 4.32,-0.48 5.51,0.27 1.22,0.75 1.97,1.76 2.26,3.07 0.31,1.31 0.19,2.53 -0.35,3.67l-7.72 13.23c-1.08,1.85 -2.03,2.89 -2.89,3.07l-5.7 1.32c-1.7,0.41 -3.01,0.29 -3.9,-0.27 -0.87,-0.63 -1.2,-1.58 -0.9,-2.89l2.98 -15.92zm87.53 0.41c1.67,-0.65 3.22,-0.59 4.68,0.15 1.49,0.72 2.53,1.82 3.07,3.25l0.45 1.1 26.67 117.84c0.43,1.4 0.3,2.75 -0.38,4.09 -0.65,1.34 -1.76,2.29 -3.34,2.92l-9.63 3.76c-1.34,0.5 -2.71,0.53 -4.17,0 -1.46,-0.48 -2.57,-1.37 -3.28,-2.63l-60.22 -104.78 -0.42 -1.08c-0.56,-1.46 -0.53,-2.95 0.04,-4.49 0.59,-1.52 1.75,-2.66 3.54,-3.35l9.16 -3.57c1.46,-0.57 2.91,-0.57 4.43,-0.03 1.52,0.53 2.66,1.55 3.37,3.07l32.8 64.84 1.25 -0.51 -19 -70.2c-0.49,-1.62 -0.38,-3.11 0.37,-4.53 0.77,-1.44 1.87,-2.42 3.3,-3.02l7.31 -2.83zm114.65 79.15c0.81,1.34 0.98,2.83 0.59,4.47 -0.38,1.64 -1.36,2.92 -2.89,3.81l-29.39 17.12c-1.31,0.8 -2.83,0.95 -4.5,0.54 -1.67,-0.45 -2.89,-1.35 -3.7,-2.69l-60.28 -103.36c-0.83,-1.42 -1.04,-2.97 -0.62,-4.64 0.48,-1.7 1.34,-2.93 2.69,-3.7l29.39 -17.11c1.52,-0.93 3.1,-1.13 4.7,-0.66 1.64,0.45 2.87,1.43 3.7,2.83l4.8 8.23c0.84,1.43 1.04,2.95 0.63,4.57 -0.42,1.58 -1.4,2.83 -2.95,3.72l-14.82 8.65 15.21 26.05 7.77 -4.53c1.64,-0.95 3.2,-1.22 4.72,-0.84 1.54,0.39 2.77,1.41 3.72,3.05l5.55 9.5c0.89,1.52 1.16,3.1 0.77,4.65 -0.36,1.58 -1.37,2.84 -3.01,3.8l-7.75 4.52 16.78 28.8 14.81 -8.64c1.56,-0.9 3.11,-1.17 4.72,-0.72 1.58,0.41 2.83,1.37 3.73,2.92l5.63 9.66zm58.84 -43.91c0.96,1.19 1.38,2.65 1.23,4.32 -0.16,1.7 -0.92,3.1 -2.3,4.2l-26.47 21.17c-1.22,0.96 -2.65,1.34 -4.38,1.13 -1.7,-0.17 -3.05,-0.89 -4,-2.12l-74.7 -93.48c-1.05,-1.28 -1.5,-2.8 -1.28,-4.5 0.15,-1.7 0.86,-3.04 2.06,-4.03l8.4 -6.7c1.37,-1.11 2.92,-1.55 4.56,-1.32 1.7,0.25 3.04,1.02 4.08,2.3l63.86 79.96 13.29 -10.62c1.4,-1.13 2.93,-1.58 4.54,-1.4 1.66,0.18 3.01,0.98 4.14,2.36l6.97 8.73z"/>
   <path class="fil0" d="M458.73 260.24l0 28.76 -88.03 49.25c-10.17,6.26 -14.19,17.59 -13.44,32.82 -0.98,127.09 -2.56,367.68 -2.98,367.89 -0.39,26.89 24.06,40.16 24.63,37.95 0.59,-2.18 204.41,0.6 243.93,0 22.47,-0.33 27.51,-14.58 27.99,-37.95 1.17,-58.67 -0.45,-259.53 -0.45,-368.9 -0.77,-17.77 -5.89,-27.46 -11.12,-31.81 -26.85,-21.88 -64.15,-35.57 -91,-49.25l0 -28.76 -89.53 0z"/>
   <path class="fil0" d="M458.33 250.96l88.83 0c3.91,0 7.06,-3.16 7.06,-7.06l0 -35.12c0,-3.87 -3.15,-7.03 -7.06,-7.03l-88.83 0c-3.91,0 -7.07,3.16 -7.07,7.03l0 35.12c0,3.9 3.16,7.06 7.07,7.06z"/>
   <path class="fil1" d="M615.66 474.06c-6.2,7.74 -12.43,15.53 -18.63,23.28 -7.1,-49.31 -49.91,-86.99 -101,-86.78 -55.29,0.24 -100.43,44.8 -101.26,99.98 -0.1,7.1 14.81,6.86 14.93,-0.39 0.72,-47.36 37.92,-88.86 86.6,-88.86 45.7,-0.02 81.24,36.43 86.27,80.04 -6.73,-5.27 -13.48,-10.58 -20.18,-15.86 -5.25,-4.11 -17.83,-1.1 -10.2,4.92 11.61,9.09 23.17,18.22 34.77,27.28 2.41,1.91 8.52,4.91 11.24,1.52 9.92,-12.43 19.85,-24.83 29.77,-37.23 4.57,-5.7 -8.44,-12.73 -12.31,-7.9z"/>
   <path class="fil1" d="M588.41 572.41c-0.71,46.86 -36.63,86.33 -83.79,89.82 -47.28,3.52 -87.94,-31.87 -92.29,-78.04 6.79,5.3 13.56,10.61 20.29,15.94 3.47,2.69 16.43,-3.24 13.36,-5.66 -11.6,-9.09 -23.16,-18.18 -34.76,-27.28 -3.16,-2.47 -11,0.45 -13.27,3.22 -9.89,12.43 -19.85,24.86 -29.78,37.27 -3.28,4.11 10.74,2.23 13.21,-0.87 6.44,-8.08 12.85,-16.1 19.29,-24.14 5.63,49.63 45.79,91.82 97.57,93.46 55.98,1.75 101.23,-43.32 102.1,-98.8 0.12,-6.68 -11.8,-14.04 -11.93,-4.92z"/>
  </g>
 </g>
</svg>
