<?xml version="1.0" encoding="UTF-8"?>
<!DOCTYPE svg PUBLIC "-//W3C//DTD SVG 1.1//EN" "http://www.w3.org/Graphics/SVG/1.1/DTD/svg11.dtd">
<!-- Creator: CorelDRAW -->
<svg xmlns="http://www.w3.org/2000/svg" xml:space="preserve" width="10.1598mm" height="10.1598mm" version="1.1" style="shape-rendering:geometricPrecision; text-rendering:geometricPrecision; image-rendering:optimizeQuality; fill-rule:evenodd; clip-rule:evenodd"
viewBox="0 0 1015.98 1015.98"
 xmlns:xlink="http://www.w3.org/1999/xlink"
 xmlns:xodm="http://www.corel.com/coreldraw/odm/2003">
 <defs>
  <style type="text/css">
   <![CDATA[
    .fil1 {fill:#373435}
    .fil3 {fill:#2B2929}
    .fil0 {fill:#282829}
    .fil2 {fill:#201E1E}
   ]]>
  </style>
 </defs>
 <g id="Camada_x0020_1">
  <metadata id="CorelCorpID_0Corel-Layer"/>
  <g id="_1872021288512">
   <path class="fil0" d="M370.87 165.87c0.68,1.5 0.69,3.11 0.05,4.83 -0.66,1.71 -1.84,2.96 -3.56,3.74l-4.19 1.89c-1.5,0.67 -2.87,0.52 -4.09,-0.48l-2.45 -2 -1.3 0.59c-0.71,2.13 -2.08,4.46 -4.11,7 -2.02,2.52 -4.49,4.45 -7.39,5.76 -3.55,1.6 -7.12,2.44 -10.71,2.5 -3.59,0.07 -6.94,-0.55 -10.05,-1.86 -3.12,-1.31 -5.96,-3.23 -8.52,-5.76 -2.56,-2.53 -4.65,-5.56 -6.24,-9.11l-36.46 -80.75c-1.45,-3.22 -2.18,-6.61 -2.18,-10.17 0.02,-3.57 0.72,-7.08 2.12,-10.57 1.41,-3.47 3.45,-6.62 6.12,-9.45 2.67,-2.82 5.88,-5.08 9.64,-6.78 3.77,-1.69 7.59,-2.61 11.47,-2.75 3.89,-0.14 7.59,0.42 11.13,1.66 3.55,1.26 6.65,3.05 9.33,5.4 2.67,2.35 4.74,5.14 6.19,8.36l7.71 17.09c0.79,1.72 0.83,3.38 0.13,4.98 -0.7,1.61 -1.8,2.76 -3.3,3.44l-10.15 4.57c-1.51,0.69 -3.1,0.76 -4.76,0.22 -1.67,-0.54 -2.89,-1.67 -3.66,-3.4l-7.36 -16.27c-0.58,-1.29 -1.5,-2.04 -2.73,-2.26 -1.26,-0.21 -2.62,0.02 -4.09,0.68 -1.48,0.67 -2.54,1.54 -3.22,2.62 -0.65,1.06 -0.69,2.26 -0.11,3.54l36.6 81.07c0.48,1.07 1.38,1.77 2.66,2.1 1.3,0.31 2.69,0.15 4.16,-0.52 1.48,-0.67 2.52,-1.59 3.15,-2.78 0.6,-1.18 0.67,-2.31 0.18,-3.38l-9.67 -21.44 -0.98 0.44c-0.96,0.44 -1.97,0.41 -3.03,-0.08 -1.07,-0.5 -1.79,-1.16 -2.18,-2.02l-4 -8.87c-0.78,-1.73 -0.85,-3.4 -0.25,-5.04 0.63,-1.63 1.74,-2.82 3.36,-3.55l15.14 -6.83c1.73,-0.78 3.43,-0.87 5.12,-0.28 1.69,0.6 2.93,1.75 3.7,3.48l22.78 50.44zm60.15 -17.62c0.46,1.58 0.28,3.16 -0.55,4.75 -0.83,1.59 -2.15,2.65 -3.96,3.17l-34.56 9.96c-1.55,0.46 -3.15,0.23 -4.73,-0.66 -1.6,-0.88 -2.63,-2.12 -3.09,-3.7l-35.17 -122c-0.49,-1.7 -0.29,-3.35 0.59,-4.96 0.86,-1.59 2.09,-2.63 3.65,-3.07l10.99 -3.18c1.79,-0.51 3.47,-0.32 4.99,0.6 1.54,0.89 2.57,2.2 3.05,3.89l30.09 104.33 17.33 -5c1.81,-0.52 3.48,-0.36 5.02,0.49 1.53,0.85 2.55,2.18 3.07,3.99l3.28 11.39zm36.39 -4.15c0.22,1.63 -0.19,3.18 -1.25,4.63 -1.06,1.44 -2.52,2.29 -4.39,2.54l-11.04 1.48c-1.75,0.24 -3.33,-0.21 -4.73,-1.33 -1.4,-1.12 -2.21,-2.5 -2.42,-4.13l-16.83 -125.85c-0.24,-1.75 0.17,-3.35 1.23,-4.8 1.05,-1.45 2.46,-2.3 4.21,-2.53l11.04 -1.47c1.87,-0.25 3.51,0.18 4.91,1.3 1.4,1.12 2.21,2.56 2.44,4.31l16.83 125.85zm71.65 -117.02c-0.03,1.66 -0.68,3.12 -1.95,4.39 -1.25,1.28 -2.83,1.89 -4.72,1.86l-10.06 -0.19 -2.02 109.44c-0.02,1.65 -0.7,3.12 -2.02,4.38 -1.32,1.28 -2.81,1.9 -4.46,1.87l-11.32 -0.2c-1.88,-0.04 -3.43,-0.72 -4.65,-2.04 -1.21,-1.32 -1.8,-2.81 -1.77,-4.45l2 -109.44 -10.77 -0.21c-1.89,-0.03 -3.48,-0.7 -4.74,-2.02 -1.28,-1.32 -1.89,-2.81 -1.87,-4.46l0.21 -11.14c0.03,-1.76 0.7,-3.29 2.02,-4.55 1.33,-1.28 2.93,-1.9 4.81,-1.86l45.09 0.82c1.88,0.03 3.44,0.71 4.65,2.03 1.21,1.32 1.81,2.87 1.77,4.64l-0.2 11.13zm81.35 11.68c-0.28,1.63 -1.15,2.98 -2.58,4.05 -1.44,1.07 -3.09,1.44 -4.95,1.12l-9.93 -1.7 -18.52 107.88c-0.28,1.62 -1.17,2.97 -2.67,4.03 -1.49,1.05 -3.06,1.45 -4.68,1.17l-11.16 -1.92c-1.86,-0.32 -3.28,-1.22 -4.29,-2.71 -1,-1.49 -1.36,-3.04 -1.09,-4.67l18.53 -107.89 -10.63 -1.82c-1.86,-0.32 -3.32,-1.22 -4.38,-2.72 -1.06,-1.49 -1.45,-3.06 -1.17,-4.69l1.89 -10.98c0.3,-1.74 1.19,-3.14 2.69,-4.2 1.5,-1.06 3.18,-1.43 5.04,-1.11l44.44 7.63c1.86,0.32 3.29,1.23 4.28,2.71 1.01,1.49 1.36,3.1 1.06,4.85l-1.88 10.97zm36.72 133.26c-0.53,1.55 -1.59,2.75 -3.18,3.57 -1.59,0.83 -3.28,0.94 -5.07,0.33l-34.12 -11.7c-1.57,-0.54 -2.75,-1.63 -3.56,-3.28 -0.8,-1.64 -0.94,-3.25 -0.4,-4.81l41.17 -120.1c0.58,-1.67 1.68,-2.91 3.33,-3.72 1.65,-0.8 3.25,-0.95 4.82,-0.41l34.12 11.7c1.78,0.61 3.05,1.73 3.8,3.36 0.75,1.63 0.84,3.28 0.27,4.96l-3.27 9.53c-0.58,1.67 -1.65,2.89 -3.22,3.66 -1.57,0.77 -3.25,0.85 -5.03,0.23l-17.23 -5.9 -10.38 30.28 9.02 3.09c1.9,0.65 3.22,1.73 3.95,3.22 0.74,1.5 0.78,3.2 0.13,5.1l-3.79 11.03c-0.61,1.79 -1.67,3.08 -3.19,3.87 -1.52,0.79 -3.23,0.85 -5.12,0.2l-9.03 -3.09 -11.47 33.45 17.22 5.91c1.79,0.62 3.07,1.7 3.84,3.27 0.77,1.58 0.85,3.25 0.24,5.04l-3.85 11.21zm91.53 -67.79c1.06,-1.85 1.37,-3.35 0.97,-4.54 -0.41,-1.19 -1.28,-2.16 -2.61,-2.92l-3.84 -2.19 -17.55 30.7 3.83 2.19c2.98,1.7 5.36,0.96 7.17,-2.21l12.03 -21.03zm-28.53 101.21c-0.43,1.93 -1.63,3.15 -3.61,3.65 -1.99,0.49 -3.79,0.28 -5.43,-0.66l-9.21 -5.27c-1.23,-0.7 -2.15,-1.64 -2.77,-2.8 -0.62,-1.18 -0.74,-2.47 -0.34,-3.87 1.58,-5.61 3.83,-10.98 6.76,-16.1l14.57 -25.48c0.76,-1.33 0.99,-2.69 0.69,-4.08 -0.29,-1.39 -1.3,-2.58 -3.04,-3.57l-3.53 -2.02 -24.84 43.44c-0.82,1.44 -2.11,2.39 -3.88,2.87 -1.77,0.49 -3.43,0.29 -4.96,-0.59l-9.82 -5.61c-1.44,-0.83 -2.4,-2.12 -2.88,-3.89 -0.48,-1.77 -0.3,-3.37 0.51,-4.8l63.01 -110.22c0.88,-1.54 2.2,-2.55 3.97,-3.03 1.77,-0.49 3.37,-0.32 4.81,0.5l21.03 12.02c2.55,1.46 4.97,3.42 7.24,5.88 2.26,2.44 3.96,5.18 5.08,8.19 1.13,3.03 1.63,6.36 1.5,10.03 -0.12,3.67 -1.26,7.39 -3.43,11.18l-15.62 27.33c-1.7,2.96 -3.98,5.09 -6.82,6.39 -2.84,1.29 -6.14,1.88 -9.87,1.78l0.15 0.09c1.88,3.11 3.09,6.28 3.62,9.5 0.54,3.23 -0.04,6.33 -1.74,9.3l-14.21 24.87c-1.53,2.66 -2.86,5.22 -4,7.7 -1.14,2.47 -2.13,4.89 -2.94,7.27z"/>
   <path class="fil1" d="M192.54 736.81c1.73,-1.23 2.66,-2.47 2.79,-3.71 0.12,-1.24 -0.26,-2.5 -1.14,-3.74l-2.56 -3.61 -25.96 18.42 2.55 3.6c1.99,2.79 4.42,3.16 7.3,1.11l17.02 -12.07zm-46.01 32.63c1.44,-1.01 2.27,-2.19 2.5,-3.49 0.22,-1.32 -0.11,-2.61 -0.99,-3.85l-2.56 -3.61 -27.55 19.55 2.55 3.6c0.89,1.25 1.99,1.99 3.31,2.21 1.32,0.22 2.69,-0.18 4.13,-1.2l18.61 -13.21zm-9.36 34.18c-3.66,2.6 -7.22,4.19 -10.7,4.78 -3.49,0.59 -6.79,0.47 -9.9,-0.34 -3.11,-0.83 -5.97,-2.21 -8.56,-4.13 -2.59,-1.92 -4.74,-4.08 -6.44,-6.48l-14.02 -19.76c-0.95,-1.35 -1.28,-2.93 -0.98,-4.74 0.31,-1.8 1.14,-3.18 2.49,-4.14l103.55 -73.46c1.44,-1.03 3.07,-1.38 4.87,-1.08 1.81,0.31 3.2,1.14 4.15,2.49l14.02 19.76c1.71,2.4 3.04,5.14 3.99,8.22 0.96,3.08 1.31,6.23 1.06,9.44 -0.25,3.2 -1.25,6.38 -3.01,9.51 -1.76,3.12 -4.42,5.95 -7.98,8.47l-22.92 16.27c-5.3,3.75 -11.35,4.08 -18.19,0.97 0.98,7.27 -1.34,12.87 -6.91,16.83l-24.52 17.39zm21.63 52.25c-1.2,1.13 -2.69,1.7 -4.48,1.68 -1.79,0 -3.34,-0.69 -4.64,-2.07l-7.64 -8.1c-1.22,-1.28 -1.78,-2.82 -1.69,-4.61 0.1,-1.79 0.74,-3.26 1.94,-4.38l92.29 -87.19c1.29,-1.21 2.83,-1.81 4.62,-1.81 1.79,0.02 3.3,0.66 4.51,1.94l7.66 8.1c1.29,1.38 1.89,2.96 1.8,4.75 -0.1,1.79 -0.78,3.29 -2.07,4.5l-92.3 87.19zm82.25 42.64c-2.12,2.68 -4.87,4.94 -8.26,6.77 -3.4,1.83 -7.06,3 -10.94,3.55 -3.87,0.54 -7.74,0.39 -11.6,-0.48 -3.83,-0.85 -7.44,-2.6 -10.78,-5.22 -3.33,-2.62 -5.87,-5.73 -7.59,-9.26 -1.74,-3.55 -2.77,-7.25 -3.11,-11.11 -0.33,-3.86 -0.05,-7.7 0.89,-11.46 0.94,-3.76 2.47,-6.98 4.59,-9.67l52.63 -66.81c2.12,-2.69 4.89,-4.92 8.33,-6.72 3.44,-1.79 7.09,-2.94 10.88,-3.47 3.79,-0.54 7.6,-0.36 11.42,0.55 3.79,0.89 7.39,2.68 10.72,5.3 3.33,2.62 5.9,5.7 7.65,9.18 1.79,3.51 2.87,7.18 3.29,11.03 0.42,3.85 0.15,7.66 -0.83,11.39 -0.99,3.73 -2.54,6.93 -4.66,9.61l-52.63 66.82zm34.29 -82.39c0.88,-1.11 1.12,-2.28 0.73,-3.48 -0.4,-1.22 -1.29,-2.37 -2.68,-3.47 -1.3,-1.02 -2.59,-1.58 -3.85,-1.68 -1.27,-0.1 -2.35,0.41 -3.23,1.52l-53.95 68.47c-0.8,1.02 -1,2.14 -0.6,3.35 0.39,1.21 1.24,2.33 2.53,3.35 1.39,1.09 2.72,1.7 4,1.8 1.26,0.1 2.3,-0.36 3.1,-1.39l53.95 -68.47zm55.72 39.99c0.95,-1.89 1.21,-3.41 0.8,-4.54 -0.42,-1.13 -1.36,-2.08 -2.84,-2.82l-5.68 -2.87 -40.62 80.52 5.68 2.87c1.47,0.74 2.81,0.89 4.04,0.45 1.2,-0.45 2.21,-1.46 3.01,-3.04l35.61 -70.57zm-16.14 85.77c-2.02,4 -4.52,7.04 -7.47,9.11 -2.95,2.05 -6.08,3.41 -9.43,4.03 -3.35,0.62 -6.69,0.65 -10.01,0.09 -3.36,-0.57 -6.39,-1.53 -9.11,-2.9l-23.31 -11.77c-1.45,-0.73 -2.47,-1.97 -3.05,-3.71 -0.57,-1.74 -0.48,-3.36 0.26,-4.82l57.12 -113.21c0.79,-1.57 2.06,-2.65 3.8,-3.22 1.74,-0.58 3.35,-0.49 4.81,0.25l23.3 11.75c2.71,1.37 5.3,3.24 7.75,5.6 2.42,2.34 4.38,5.05 5.87,8.11 1.49,3.07 2.25,6.41 2.32,10.05 0.07,3.67 -0.88,7.44 -2.85,11.34l-40 79.3zm66.21 43.92c-0.52,1.56 -1.57,2.76 -3.15,3.6 -1.59,0.84 -3.28,0.96 -5.07,0.37l-34.21 -11.43c-1.57,-0.52 -2.77,-1.61 -3.58,-3.25 -0.82,-1.64 -0.96,-3.25 -0.44,-4.81l40.22 -120.42c0.56,-1.68 1.65,-2.93 3.29,-3.75 1.64,-0.82 3.24,-0.97 4.81,-0.44l34.22 11.42c1.79,0.6 3.06,1.71 3.83,3.33 0.76,1.62 0.87,3.28 0.3,4.95l-3.19 9.56c-0.56,1.68 -1.63,2.9 -3.19,3.69 -1.56,0.78 -3.24,0.87 -5.03,0.27l-17.28 -5.76 -10.14 30.35 9.06 3.03c1.9,0.63 3.22,1.69 3.97,3.19 0.75,1.49 0.8,3.19 0.16,5.09l-3.69 11.07c-0.6,1.79 -1.65,3.08 -3.17,3.88 -1.51,0.81 -3.21,0.88 -5.11,0.25l-9.06 -3.02 -11.2 33.54 17.27 5.78c1.79,0.59 3.08,1.67 3.86,3.24 0.78,1.56 0.88,3.24 0.28,5.03l-3.76 11.24zm86.54 14.01c-0.2,1.64 -1.03,3.02 -2.47,4.16 -1.44,1.13 -3.09,1.59 -4.97,1.36l-4.56 -0.55c-1.64,-0.2 -2.73,-1.04 -3.26,-2.52l-1.07 -2.98 -1.4 -0.17c-1.72,1.45 -4.1,2.74 -7.15,3.86 -3.04,1.12 -6.14,1.48 -9.3,1.11 -3.86,-0.47 -7.35,-1.6 -10.46,-3.4 -3.11,-1.8 -5.65,-4.07 -7.65,-6.79 -1.98,-2.73 -3.42,-5.85 -4.3,-9.34 -0.89,-3.49 -1.09,-7.16 -0.63,-11.03l10.57 -87.96c0.42,-3.51 1.55,-6.8 3.4,-9.83 1.85,-3.05 4.28,-5.69 7.28,-7.94 3,-2.26 6.38,-3.9 10.12,-4.94 3.75,-1.02 7.67,-1.29 11.76,-0.81 4.1,0.5 7.85,1.69 11.24,3.58 3.39,1.89 6.28,4.29 8.67,7.19 2.38,2.9 4.11,6.04 5.18,9.44 1.08,3.39 1.41,6.85 0.98,10.36l-2.23 18.61c-0.23,1.87 -1.05,3.31 -2.48,4.33 -1.43,1.02 -2.96,1.43 -4.6,1.23l-11.06 -1.33c-1.64,-0.2 -3.03,-0.96 -4.18,-2.28 -1.15,-1.33 -1.6,-2.93 -1.38,-4.8l2.13 -17.73c0.17,-1.41 -0.23,-2.53 -1.18,-3.35 -0.97,-0.83 -2.23,-1.34 -3.85,-1.54 -1.61,-0.19 -2.97,0.01 -4.11,0.58 -1.1,0.58 -1.75,1.57 -1.92,2.98l-10.61 88.31c-0.15,1.17 0.26,2.23 1.18,3.17 0.96,0.94 2.22,1.52 3.84,1.71 1.61,0.19 2.97,-0.07 4.12,-0.75 1.13,-0.7 1.78,-1.63 1.92,-2.8l2.81 -23.35 -1.06 -0.13c-1.06,-0.13 -1.91,-0.68 -2.56,-1.64 -0.66,-0.97 -0.93,-1.92 -0.82,-2.86l1.16 -9.65c0.23,-1.88 1.03,-3.36 2.4,-4.44 1.38,-1.08 2.95,-1.51 4.7,-1.31l16.51 1.99c1.87,0.23 3.38,1.03 4.51,2.41 1.14,1.38 1.6,3.01 1.38,4.89l-6.6 54.95zm61.59 -102.23c-0.07,-2.12 -0.59,-3.57 -1.56,-4.37 -0.96,-0.8 -2.22,-1.16 -3.75,-1.11l-4.41 0.14 1.15 35.34 4.41 -0.14c3.42,-0.11 5.07,-1.99 4.95,-5.64l-0.79 -24.22zm28.76 101.15c0.66,1.88 0.27,3.53 -1.16,5 -1.43,1.46 -3.08,2.22 -4.97,2.29l-10.6 0.34c-1.41,0.04 -2.69,-0.27 -3.83,-0.94 -1.15,-0.67 -1.92,-1.7 -2.32,-3.11 -1.6,-5.61 -2.49,-11.36 -2.68,-17.25l-0.95 -29.34c-0.05,-1.54 -0.57,-2.81 -1.54,-3.84 -0.98,-1.03 -2.47,-1.51 -4.47,-1.45l-4.07 0.14 1.63 50.01c0.05,1.65 -0.55,3.14 -1.81,4.48 -1.25,1.34 -2.76,2.04 -4.53,2.09l-11.31 0.37c-1.65,0.06 -3.15,-0.54 -4.48,-1.8 -1.34,-1.25 -2.03,-2.7 -2.08,-4.35l-4.13 -126.9c-0.06,-1.77 0.54,-3.32 1.79,-4.66 1.25,-1.34 2.71,-2.04 4.36,-2.09l24.21 -0.79c2.95,-0.09 6.03,0.31 9.24,1.21 3.22,0.9 6.09,2.34 8.64,4.32 2.54,1.98 4.72,4.56 6.53,7.74 1.81,3.19 2.79,6.96 2.93,11.33l1.02 31.46c0.12,3.41 -0.71,6.42 -2.45,9.01 -1.74,2.59 -4.23,4.83 -7.47,6.7l0.18 0c3.23,1.66 5.92,3.72 8.07,6.19 2.14,2.46 3.27,5.41 3.38,8.82l0.93 28.64c0.1,3.06 0.31,5.94 0.63,8.65 0.33,2.69 0.76,5.28 1.31,7.73zm35.56 -93.81l-1.56 0.35 5.7 45.89 9.13 -2.12 -13.27 -44.12zm48.84 77.1c0.4,1.73 0.18,3.35 -0.68,4.88 -0.86,1.53 -2.2,2.5 -4.05,2.93l-11.54 2.67c-1.61,0.37 -3.14,0.15 -4.6,-0.67 -1.45,-0.81 -2.5,-2.05 -3.13,-3.72l-4.61 -15.26 -12.75 2.94 2.11 16.21c0.13,1.66 -0.28,3.15 -1.23,4.46 -0.98,1.31 -2.21,2.14 -3.7,2.49l-8.27 1.91c-1.6,0.37 -3.19,0.06 -4.74,-0.91 -1.56,-0.97 -2.54,-2.31 -2.94,-4.04l-0.15 -0.68 -13.39 -127.04c-0.25,-1.64 0.12,-3.15 1.13,-4.53 1.02,-1.39 2.32,-2.26 3.93,-2.63l16.89 -3.91c1.73,-0.39 3.29,-0.18 4.68,0.65 1.41,0.82 2.47,2 3.18,3.53l43.86 120.72zm17.98 -116.37c-0.88,-1.94 -1.89,-3.1 -3.03,-3.48 -1.15,-0.39 -2.47,-0.24 -3.98,0.43l-5.8 2.63 37.18 82.17 5.8 -2.63c1.5,-0.68 2.46,-1.63 2.88,-2.86 0.41,-1.22 0.26,-2.63 -0.47,-4.25l-32.58 -72.01zm56.63 66.41c1.85,4.08 2.65,7.92 2.4,11.53 -0.26,3.58 -1.16,6.86 -2.78,9.86 -1.62,3 -3.7,5.62 -6.22,7.86 -2.54,2.25 -5.2,4 -7.97,5.26l-23.79 10.75c-1.48,0.67 -3.09,0.69 -4.8,0.04 -1.72,-0.65 -2.92,-1.72 -3.6,-3.22l-52.26 -115.53c-0.73,-1.61 -0.77,-3.27 -0.12,-4.98 0.64,-1.72 1.72,-2.92 3.2,-3.58l23.79 -10.76c2.76,-1.26 5.84,-2.1 9.22,-2.53 3.33,-0.4 6.68,-0.23 10,0.53 3.32,0.76 6.39,2.27 9.28,4.5 2.9,2.25 5.23,5.36 7.04,9.33l36.61 80.94zm11.46 -84.54l-1.35 0.86 20.64 41.36 7.91 -5.02 -27.2 -37.2zm71.71 56.47c0.95,1.49 1.28,3.1 0.97,4.82 -0.3,1.73 -1.23,3.1 -2.83,4.11l-10 6.35c-1.39,0.89 -2.9,1.19 -4.56,0.91 -1.64,-0.28 -3.04,-1.11 -4.19,-2.47l-9.43 -12.86 -11.04 7.02 7.38 14.59c0.68,1.52 0.79,3.05 0.32,4.61 -0.48,1.56 -1.36,2.76 -2.66,3.57l-7.16 4.56c-1.39,0.88 -2.99,1.12 -4.77,0.72 -1.79,-0.39 -3.17,-1.34 -4.11,-2.84l-0.38 -0.58 -54.88 -115.36c-0.78,-1.46 -0.93,-3.01 -0.44,-4.64 0.5,-1.65 1.44,-2.91 2.84,-3.8l14.62 -9.29c1.49,-0.95 3.04,-1.27 4.63,-0.95 1.6,0.3 2.99,1.06 4.17,2.27l81.52 99.26zm-117.05 -120.88c-0.08,-1.22 0.02,-2.22 0.28,-3.02 0.26,-0.79 1.09,-1.63 2.49,-2.52l5.96 -3.79c2.29,-1.46 4.17,-2.02 5.63,-1.7 1.46,0.33 2.58,1.09 3.34,2.28 0.76,1.2 1.07,2.47 0.94,3.8l-3.05 15.98c-0.4,2.22 -1,3.58 -1.79,4.08l-5.22 3.32c-1.6,1.02 -2.94,1.37 -4.03,1.09 -1.09,-0.28 -1.74,-1.14 -1.93,-2.54l-2.62 -16.98zm81.91 -27.49c1.37,-1.29 2.93,-1.87 4.68,-1.74 1.75,0.14 3.19,0.81 4.32,2l0.85 0.9 73.15 105.3c0.97,1.2 1.39,2.59 1.27,4.17 -0.13,1.58 -0.84,2.98 -2.12,4.19l-7.97 7.53c-1.12,1.05 -2.5,1.62 -4.12,1.7 -1.63,0.08 -3.05,-0.36 -4.28,-1.32l-100.93 -79.07 -0.85 -0.91c-1.13,-1.19 -1.71,-2.67 -1.75,-4.42 -0.03,-1.76 0.68,-3.32 2.13,-4.7l7.59 -7.16c1.2,-1.13 2.65,-1.74 4.37,-1.81 1.71,-0.08 3.22,0.49 4.51,1.7l58.09 50.7 1.03 -0.98 -46.63 -61.5c-1.14,-1.37 -1.62,-2.91 -1.44,-4.61 0.17,-1.71 0.86,-3.13 2.06,-4.26l6.04 -5.71zm144.78 32.7c1.3,1.01 2.09,2.41 2.35,4.18 0.27,1.76 -0.17,3.4 -1.32,4.89l-22.08 28.53c-1.01,1.31 -2.43,2.08 -4.25,2.31 -1.82,0.24 -3.38,-0.16 -4.68,-1.17l-100.41 -77.7c-1.41,-1.08 -2.22,-2.52 -2.45,-4.34 -0.24,-1.82 0.15,-3.39 1.17,-4.69l22.07 -28.53c1.16,-1.5 2.62,-2.34 4.41,-2.52 1.78,-0.18 3.37,0.26 4.77,1.34l7.97 6.17c1.4,1.09 2.2,2.5 2.43,4.23 0.22,1.74 -0.24,3.35 -1.4,4.84l-11.14 14.41 25.31 19.59 5.84 -7.55c1.23,-1.59 2.67,-2.49 4.32,-2.7 1.66,-0.22 3.28,0.3 4.86,1.52l9.23 7.14c1.49,1.16 2.37,2.58 2.63,4.27 0.25,1.7 -0.23,3.33 -1.46,4.91l-5.84 7.56 27.97 21.64 11.15 -14.4c1.15,-1.5 2.6,-2.36 4.33,-2.58 1.73,-0.21 3.35,0.25 4.85,1.4l9.37 7.25zm38.02 -67.66c1.47,0.74 2.51,1.95 3.11,3.64 0.6,1.69 0.48,3.38 -0.37,5.06l-16.2 32.11c-0.73,1.44 -1.98,2.47 -3.7,3.02 -1.74,0.57 -3.36,0.48 -4.82,-0.26l-113.36 -57.19c-1.58,-0.8 -2.65,-2.07 -3.22,-3.81 -0.59,-1.72 -0.51,-3.33 0.22,-4.77l5.15 -10.21c0.84,-1.66 2.12,-2.76 3.82,-3.25 1.72,-0.52 3.37,-0.39 4.95,0.41l96.93 48.9 8.13 -16.1c0.84,-1.68 2.1,-2.8 3.76,-3.35 1.66,-0.54 3.33,-0.39 5.02,0.46l10.58 5.34z"/>
   <g>
    <path class="fil2" d="M332.59 267.96c0,0 -11.88,117.77 166.35,177.74 0.01,0 22.45,-142.77 -166.35,-177.74z"/>
    <path class="fil2" d="M670.39 282.05c0,-0.85 -2.15,-1.15 -3.08,-0.85 -51.84,6.78 -105.96,24.63 -140.01,66.54 -19.16,23.6 -30.17,53.28 -31.91,83.58 -0.36,6.06 -0.52,12.33 0.24,18.37 0.15,1.05 2.33,1.03 3.06,0.83 50.45,-14.06 101.31,-37.16 135.88,-77.84 18.07,-21.28 31.2,-47.39 35,-75.22 0.62,-5.06 1.23,-10.31 0.82,-15.41z"/>
    <path class="fil2" d="M495.45 444.07c-0.95,6.3 -1.88,12.61 -2.82,18.92 -1.5,9.96 -2.98,19.93 -4.47,29.9 -0.34,2.27 -0.68,4.55 -1.02,6.82 -0.04,0.34 7.24,0.39 7.29,0.07 0.94,-6.31 1.88,-12.61 2.83,-18.92 1.49,-9.97 2.97,-19.94 4.46,-29.9 0.34,-2.28 0.67,-4.55 1.02,-6.83 0.05,-0.33 -7.24,-0.39 -7.29,-0.06z"/>
   </g>
   <polygon class="fil2" points="395.1,491.89 423.19,548.3 482.89,558.97 440.55,604.49 449.36,667.49 395.1,639.22 340.83,667.49 349.64,604.49 307.29,558.97 367,548.3 "/>
   <polygon class="fil2" points="523.97,598.87 542.78,636.64 582.75,643.78 554.41,674.26 560.3,716.44 523.97,697.51 487.64,716.44 493.54,674.26 465.19,643.78 505.16,636.64 "/>
   <polygon class="fil2" points="605.09,498.81 623.9,536.58 663.87,543.72 635.53,574.2 641.42,616.38 605.09,597.45 568.76,616.38 574.66,574.2 546.31,543.72 586.28,536.58 "/>
   <polygon class="fil3" points="187.54,179.77 198.65,202.1 222.29,206.32 205.53,224.34 209.01,249.27 187.54,238.08 166.05,249.27 169.54,224.34 152.78,206.32 176.41,202.1 "/>
   <polygon class="fil3" points="104.69,304.73 115.81,327.06 139.45,331.28 122.69,349.3 126.17,374.23 104.69,363.04 83.21,374.23 86.7,349.3 69.94,331.28 93.57,327.06 "/>
   <polygon class="fil3" points="80.03,449.32 91.15,471.64 114.78,475.87 98.03,493.89 101.51,518.82 80.03,507.63 58.55,518.82 62.04,493.89 45.28,475.87 68.91,471.64 "/>
   <polygon class="fil3" points="102.32,593.68 113.44,616.01 137.07,620.23 120.31,638.25 123.8,663.19 102.32,652 80.84,663.19 84.33,638.25 67.57,620.23 91.2,616.01 "/>
   <polygon class="fil3" points="828.45,179.77 817.33,202.1 793.69,206.32 810.45,224.34 806.97,249.27 828.45,238.08 849.93,249.27 846.44,224.34 863.2,206.32 839.57,202.1 "/>
   <polygon class="fil3" points="907.76,297.57 896.64,319.9 873.01,324.12 889.77,342.14 886.29,367.07 907.76,355.88 929.24,367.07 925.76,342.14 942.52,324.12 918.89,319.9 "/>
   <polygon class="fil3" points="935.95,442.15 924.83,464.48 901.2,468.7 917.96,486.73 914.47,511.66 935.95,500.47 957.43,511.66 953.94,486.73 970.7,468.7 947.07,464.48 "/>
   <polygon class="fil3" points="913.66,579.36 902.54,601.69 878.91,605.91 895.67,623.93 892.18,648.87 913.66,637.68 935.14,648.87 931.65,623.93 948.42,605.91 924.78,601.69 "/>
  </g>
 </g>
</svg>
