<?xml version="1.0" encoding="UTF-8"?>
<!DOCTYPE svg PUBLIC "-//W3C//DTD SVG 1.1//EN" "http://www.w3.org/Graphics/SVG/1.1/DTD/svg11.dtd">
<!-- Creator: CorelDRAW -->
<svg xmlns="http://www.w3.org/2000/svg" xml:space="preserve" width="10.1598mm" height="10.1598mm" version="1.1" style="shape-rendering:geometricPrecision; text-rendering:geometricPrecision; image-rendering:optimizeQuality; fill-rule:evenodd; clip-rule:evenodd"
viewBox="0 0 1015.98 1015.98"
 xmlns:xlink="http://www.w3.org/1999/xlink"
 xmlns:xodm="http://www.corel.com/coreldraw/odm/2003">
 <defs>
  <style type="text/css">
   <![CDATA[
    .str4 {stroke:#201E1E;stroke-width:7.73;stroke-miterlimit:22.926}
    .str2 {stroke:#201E1E;stroke-width:7.62;stroke-miterlimit:10}
    .str0 {stroke:#201E1E;stroke-width:7.62;stroke-miterlimit:22.926}
    .str3 {stroke:#2C2825;stroke-width:7.62;stroke-miterlimit:10}
    .str1 {stroke:#2C2825;stroke-width:7.62;stroke-miterlimit:22.926}
    .fil5 {fill:none}
    .fil3 {fill:#FEFEFE}
    .fil4 {fill:#373435}
    .fil6 {fill:#ECC1DA}
    .fil1 {fill:#E0E1E2}
    .fil0 {fill:#201E1E}
    .fil2 {fill:#FF8D11}
    .fil9 {fill:#FEFEFE;fill-rule:nonzero}
    .fil8 {fill:#373435;fill-rule:nonzero}
    .fil7 {fill:#201E1E;fill-rule:nonzero}
   ]]>
  </style>
 </defs>
 <g id="Camada_x0020_1">
  <metadata id="CorelCorpID_0Corel-Layer"/>
  <g id="_1872408690096">
   <path class="fil0 str0" d="M777.29 427.8c-15.15,19.45 -11.49,219.8 -104.27,231.12 -10.28,1.16 -92.01,4.05 -78.78,-30.76 13.91,-20.65 59.82,-144.38 39.87,-209.48 -2.89,-9.64 4.33,-1.44 12.5,3.09 18.04,10.33 36.97,18.77 58.36,18.48 19.95,-0.42 24.97,-10.03 20.48,-30.45 -5.81,-25.71 -43.29,-76.9 -100.02,-92.97 -2.61,-0.99 -8.85,-27.17 -16.52,-49.96 -5.29,-15.65 -25.46,-56.47 -9.61,-63.21 16.07,-6.74 28.1,-17.78 39.39,-30.01 25.45,-27.38 30.26,-61.75 19.47,-93.95 -20.68,-60.26 -85.27,-88.86 -142.94,-59.81 -1.49,0.73 -2.85,1.44 -4.34,2.16 -10.08,5.51 -18.03,12.5 -24.97,20.2 -0.26,0.25 -0.26,0.25 -0.48,0.45 -8.4,9.64 -14.89,20.68 -20.67,33.41 -0.71,1.68 -1.69,3.11 -2.9,4.32 -6.94,8.41 -21.86,13.21 -38.15,14.64 -15.68,1.71 -32.96,0.5 -46.67,-2.39 -13.15,-3.14 -23.01,-7.92 -25.17,-13.93 -0.26,-0.45 -0.51,-0.96 -0.74,-1.68 -6.96,-17.54 -34.55,-46.59 -72.79,-54.8 -21.16,-4.51 -45.62,-2.58 -71.81,11.55 -52.12,28.1 -75.43,103.09 -24.05,153.52 12.03,11.77 25.73,21.38 38.71,31.94 -4.6,14.89 -17.3,40.35 -30.53,77.83l0 0.25c-1.19,3.6 -1.41,7.45 -3.6,10.79 -8.18,12.03 -92.24,61.3 -103.02,111.98 -2.7,12.23 5.28,18.47 17.05,20.12 23.04,3.15 43.69,-5.96 62.91,-15.81 11.07,-5.54 9.85,-2.9 10.08,5.53 2.19,191.22 86.03,265.45 89.57,271.69 -6.47,0.98 -13.18,1.4 -19.42,3.11 -7.44,1.69 -55.77,13.91 -68.24,36.52 -5.26,9.58 0.7,24.48 12.02,25.71 6.97,0.96 13.94,0.26 20.85,0.26l403.37 0c6.99,0 13.96,0.47 20.96,-0.26 2.39,-0.24 6.68,-3.14 6.68,-5.06 0.51,-9.15 -2.64,-54.5 -85.75,-57.39 -3.09,-0.26 -6.48,-1.21 -9.6,-1.91 1.43,-2.42 20.87,-36.81 30.54,-31.47 31.69,17.03 62.67,19.16 96.27,19.95 110.06,-12.28 109.33,-209.03 123.51,-240.72 22.79,-51.64 83.34,52.37 137.62,83.33 1.18,0.73 -96.76,-180.41 -155.17,-105.93zm-60.33 -4.82l0 0c0,2.21 -28.06,4.55 -71.78,-18.49 -9.41,-5.03 -12.28,-29.3 -14.92,-51.61 -0.25,-1.24 -0.25,-2.19 -0.47,-3.37 -0.99,-6.52 -1.18,-8.4 -1.18,-12.76 45.11,8.43 88.35,74 88.35,86.23zm-538.78 -64.15l0 0 0 0.25 -8.87 47.83c-56,32.19 -73.3,6.93 -66.31,-2.65 17.78,-24.5 55.72,-55.76 79.28,-67.96l-4.1 22.53zm303.15 -282.02l0 0c0.25,-0.7 0.48,-1.4 0.98,-2.17 6.74,-14.6 23.33,-30.25 43.24,-39.86 23.27,-11.26 51.13,-14.64 73.75,0.53 78.08,52.06 32.4,135.95 0.96,150.09 -4.81,2.19 -10.37,2.89 -15.62,4.07 -9.87,2.42 -16.55,-4.32 -18.74,-11.01 -1.24,-4.33 4.8,-14.19 9.58,-15.88 13.96,-4.8 25.48,-16.09 31.27,-29.07 13.93,-52.32 -35.77,-79.74 -71.62,-60.55 -10.28,5.09 -19.44,14.22 -25.65,27.9 -2.7,5.98 -12.53,9.35 -19.02,5.25 -17.81,-11.26 -16.58,-10.78 -9.13,-29.3zm76.39 77.88l0 0c-12.22,2.39 -24.55,-8.2 -30.71,-22.11 -6.74,-14.89 -6.74,-33.61 8.12,-43.3 6.24,-4.52 15.18,-7.13 27.42,-7.13 36.22,0 54.76,61.19 -4.83,72.54zm-353.35 32.39l0 0c-20.9,-13.7 -31.25,-36.49 -34.65,-57.9 -2.61,-18.97 4.13,-41.3 16.64,-58.13 27.36,-31.5 58.13,-37.93 84.79,-32.65 8.09,1.69 16.07,4.3 23.32,7.7 4.32,2.14 8.09,4.3 11.99,6.72 9.84,6.26 18.01,13.45 24,20.68 7.21,8.65 11.29,17.02 11.07,23.03 -6.75,3.15 -13.94,6.01 -20.4,9.58 -4.55,2.7 -9.13,6.3 -13.03,10.12 -2.39,2.19 -3.09,-5.03 -6.22,-14.17 -1.43,-3.87 -3.09,-7.94 -5.5,-11.99 -4.86,-8.2 -12.25,-15.62 -24.75,-19.27 -1.47,-0.45 -3.18,-0.68 -4.58,-0.96 -57.91,-12.7 -95.36,60.32 -19.7,96.12 6.72,3.15 -14.89,30.26 -19.02,36.55 -7.89,-5.08 -16.01,-10.14 -23.96,-15.43zm89.84 -66.3l0 0c-1.91,9.38 -5.53,15.87 -10.33,20.68 -6.75,7 -15.63,10.31 -25.96,13.23 -18.23,5.5 -64.65,-51.95 -9.59,-71.13 6.02,-2.11 12.73,-1.95 19.22,0.22 8.6,2.41 16.77,7.95 21.86,15.39 0.96,1.21 1.66,2.39 2.39,3.57 2.67,5.57 3.85,11.55 2.41,18.04zm19.7 632.54l0 0 -58.89 0c-18.49,0 -36.72,0.25 -55.18,-0.28 -3.68,0 -3.68,-20.39 43.44,-34.36 30.74,-7.39 53.32,9.41 74.71,27.9 1.18,0.96 -2.17,6.74 -4.08,6.74zm264.26 -35.34l0 0c8.6,1.94 16.3,5.05 22.79,9.13l0.28 0 0.19 0c18.5,10.82 28.16,25.93 26.64,25.93 -23.04,0.28 -45.85,0.28 -68.89,0.28 -20.65,0 -41.58,0.25 -62.23,-0.28l0 -0.25c0,-1.41 4.35,-8.63 12.95,-16.04 1.24,-1.24 2.47,-2.19 3.83,-3.37 5.56,-4.33 12.33,-8.66 20.42,-11.75 12.08,-4.83 26.94,-6.99 44.02,-3.65zm-119.9 29.08l0 0c-54.54,9.13 -100.37,8.68 -145.82,-26.44 -54.53,-42.04 -83.08,-98.98 -102.61,-162.59 -6.69,-22.11 -10.28,-44.48 -14.66,-67.04 -5.48,-28.38 -7.17,-56.22 -5.71,-84.28 2.39,-20.26 5.51,-38.94 9.11,-56.53 3.87,-18.26 8.17,-35.29 12.95,-50.91 33.94,-110.25 90.35,-159.47 122.33,-178.74 5.76,-3.6 25.93,-12.93 54.03,-14.87 6.97,-0.5 14.35,-0.5 22.61,0 43.47,3.35 99.18,26.45 151.07,102.58 10.57,20.88 19.44,42.51 26.69,64.11 7.64,23.07 13.4,45.88 17.98,67.49 0.23,1.01 0.51,1.71 0.51,2.67 1.18,5.99 2.39,11.77 3.37,17.53 9.58,53.6 11.04,97.33 10.31,113.9 -0.5,14.14 -3.6,28.57 -6.71,42.26 -0.26,1.23 -0.48,2.39 -0.99,3.34 -12.98,39.67 -122.52,222.46 -154.46,227.52z"/>
   <path class="fil1" d="M313.92 753.32l-58.9 0c-18.48,0 -36.71,0.25 -55.17,-0.28 -3.68,0 -3.68,-20.39 43.44,-34.36 30.73,-7.39 53.32,9.44 74.67,27.9 1.21,0.96 -2.13,6.74 -4.04,6.74z"/>
   <path class="fil1" d="M628.07 753.04c-23.04,0.28 -45.85,0.28 -68.89,0.28 -20.65,0 -41.58,0.22 -62.23,-0.28l0 -0.25c0,-1.41 4.35,-8.63 12.95,-16.04 1.24,-1.24 2.47,-2.19 3.83,-3.37 5.56,-4.33 12.33,-8.66 20.42,-11.75 12.08,-4.83 26.94,-6.99 44.02,-3.65 8.6,1.94 16.3,5.03 22.79,9.13l0.28 0 0.19 0c18.5,10.82 28.16,25.93 26.64,25.93z"/>
   <path class="fil2" d="M716.98 422.99c0,2.19 -28.07,4.55 -71.81,-18.49 -9.42,-5.03 -12.25,-29.31 -14.92,-51.64 -0.23,-1.21 -0.23,-2.16 -0.46,-3.37 -0.98,-6.5 -1.2,-8.4 -1.2,-12.73 45.15,8.43 88.39,73.98 88.39,86.23z"/>
   <path class="fil3 str0" d="M716.98 422.99c0,2.19 -28.07,4.55 -71.81,-18.49 -9.42,-5.03 -12.25,-29.31 -14.92,-51.64 -0.23,-1.21 -0.23,-2.16 -0.46,-3.37 -0.98,-6.5 -1.2,-8.4 -1.2,-12.73 45.15,8.43 88.39,73.98 88.39,86.23z"/>
   <path class="fil2" d="M182.27 336.29l-4.1 22.54 0 0.24 -8.88 47.83c-55.99,32.2 -73.27,6.93 -66.3,-2.65 17.78,-24.49 55.71,-55.77 79.28,-67.96z"/>
   <path class="fil3 str0" d="M182.27 336.29l-4.1 22.54 0 0.24 -8.88 47.83c-55.99,32.2 -73.27,6.93 -66.3,-2.65 17.78,-24.49 55.71,-55.77 79.28,-67.96z"/>
   <path class="fil1" d="M620.7 465.51c0,3.34 -0.29,6.01 -0.29,8.43 -0.47,14.13 -3.59,28.57 -6.68,42.25 -6.71,31 -122.56,225.61 -155.46,230.86 -54.53,9.14 -100.37,8.68 -145.83,-26.43 -54.51,-42.04 -83.08,-98.99 -102.58,-162.6 -6.71,-22.1 -10.31,-44.47 -14.67,-67.03 -5.48,-28.38 -7.16,-56.22 -5.73,-84.28 2.42,-20.26 5.51,-38.95 9.11,-56.53 3.88,-18.26 8.17,-35.29 12.98,-50.92 33.91,-110.24 90.35,-159.46 122.29,-178.73 15.37,-9.33 128.51,-57.86 227.72,87.7 10.59,20.89 19.46,42.52 26.69,64.12 7.67,23.07 13.42,45.88 17.98,67.51 11.57,54.79 14.47,102.38 14.47,125.65z"/>
   <path class="fil1" d="M557.71 154.68c-31.24,6.21 -62.2,-72.55 4.84,-72.55 36.21,0 54.75,61.22 -4.84,72.55z"/>
   <path class="fil1" d="M294.21 120.79c-4.81,22.55 -18.77,28.85 -36.3,33.88 -18.23,5.51 -64.65,-51.92 -9.58,-71.14 20.9,-7.17 51.16,13.26 45.88,37.26z"/>
   <path class="fil2" d="M600.25 185.4c-4.81,2.17 -10.37,2.89 -15.6,4.08 -9.85,2.41 -16.58,-4.33 -18.77,-11.05 -1.23,-4.3 4.81,-14.16 9.62,-15.84 13.96,-4.81 25.45,-16.1 31.24,-29.08 18.06,-67.48 -69.46,-93.42 -97.27,-32.65 -2.67,5.98 -12.5,9.33 -19.02,5.26 -17.81,-11.27 -16.55,-10.79 -9.13,-29.31 12.78,-32.42 75.18,-70.38 117.97,-41.49 78.07,52.06 32.42,135.95 0.96,150.08z"/>
   <path class="fil3 str0" d="M600.25 185.4c-4.81,2.17 -10.37,2.89 -15.6,4.08 -9.85,2.41 -16.58,-4.33 -18.77,-11.05 -1.23,-4.3 4.81,-14.16 9.62,-15.84 13.96,-4.81 25.45,-16.1 31.24,-29.08 18.06,-67.48 -69.46,-93.42 -97.27,-32.65 -2.67,5.98 -12.5,9.33 -19.02,5.26 -17.81,-11.27 -16.55,-10.79 -9.13,-29.31 12.78,-32.42 75.18,-70.38 117.97,-41.49 78.07,52.06 32.42,135.95 0.96,150.08z"/>
   <path class="fil2" d="M271.14 38.39c-2.69,9.11 -3.84,20.21 -4.1,31.47 -57.9,-12.73 -95.35,60.29 -19.69,96.12 6.71,3.12 -14.89,30.25 -19.02,36.52 -7.89,-5.08 -16.02,-10.11 -23.96,-15.43 -20.91,-13.7 -31.22,-36.49 -34.65,-57.9 -2.61,-18.97 4.13,-41.3 16.64,-58.1 27.36,-31.49 58.12,-37.96 84.78,-32.68z"/>
   <path class="fil3 str0" d="M271.14 38.39c-2.69,9.11 -3.84,20.21 -4.1,31.47 -57.9,-12.73 -95.35,60.29 -19.69,96.12 6.71,3.12 -14.89,30.25 -19.02,36.52 -7.89,-5.08 -16.02,-10.11 -23.96,-15.43 -20.91,-13.7 -31.22,-36.49 -34.65,-57.9 -2.61,-18.97 4.13,-41.3 16.64,-58.1 27.36,-31.49 58.12,-37.96 84.78,-32.68z"/>
   <path class="fil1 str0" d="M341.54 96.52c-6.77,3.15 -13.94,6.04 -20.43,9.61 -4.52,2.66 -9.13,6.26 -13.01,10.11 -2.38,2.17 -3.09,-5.06 -6.21,-14.18 -1.43,-3.88 -3.09,-7.93 -5.5,-12 -4.87,-8.18 -12.25,-15.62 -24.75,-19.25 -1.47,-0.45 -3.18,-0.7 -4.58,-0.95 0.24,-11.27 1.4,-22.36 4.1,-31.47 8.09,1.71 16.07,4.29 23.29,7.7 4.35,2.16 8.12,4.3 12.02,6.74 9.84,6.24 17.98,13.43 24,20.65 7.22,8.65 11.27,17.05 11.07,23.04z"/>
   <path class="fil3" d="M294.21 120.72c-4.86,22.61 -18.83,28.88 -36.19,34.02 -18.34,5.45 -64.76,-52.06 -9.64,-71.19 20.8,-7.22 51.05,13.23 45.83,37.17z"/>
   <path class="fil3" d="M557.86 154.74c-31.39,6.07 -62.4,-72.71 4.66,-72.71 36.18,0 54.79,61.3 -4.66,72.71z"/>
   <path class="fil4" d="M620.48 474.02c-0.5,14.1 -3.62,28.38 -6.71,42.31 -6.77,30.74 -122.63,225.41 -155.39,230.78 -54.7,8.97 -100.56,8.46 -145.93,-26.49 -54.53,-42.04 -83.05,-98.99 -102.46,-162.54 -6.77,-22.02 -10.37,-44.61 -14.81,-67.09 -5.42,-28.26 -7.05,-56.16 -5.56,-84.28 2.31,-20.15 5.42,-38.97 9.02,-56.59 3.73,-18.24 8.15,-35.23 12.98,-50.97 33.77,-110.1 90.32,-159.27 122.07,-178.68 15.37,-9.25 128.73,-57.8 227.91,87.83 10.57,20.87 19.36,42.48 26.49,64.05 7.76,22.96 13.58,45.8 18.18,67.46l0 0.05c13.09,62.51 14.78,115.42 14.21,134.16z"/>
   <path class="fil2" d="M628.18 753.14c-23.01,0.25 -46.07,0.2 -69.06,0.2 -20.73,0 -41.43,0.13 -62.2,-0.2 0,0 -0.03,0 -0.03,-0.04 -1.43,-1.87 28.38,-45.59 81.28,-35 8.68,1.83 16.35,4.92 22.93,8.94 0.02,-0.09 0.14,0 0.17,0.02 0.05,-0.02 0.16,0 0.19,0.06 18.4,10.79 28.13,26.02 26.72,26.02z"/>
   <path class="fil3 str0" d="M628.18 753.14c-23.01,0.25 -46.07,0.2 -69.06,0.2 -20.73,0 -41.43,0.13 -62.2,-0.2 0,0 -0.03,0 -0.03,-0.04 -1.43,-1.87 28.38,-45.59 81.28,-35 8.68,1.83 16.35,4.92 22.93,8.94 0.02,-0.09 0.14,0 0.17,0.02 0.05,-0.02 0.16,0 0.19,0.06 18.4,10.79 28.13,26.02 26.72,26.02z"/>
   <path class="fil2" d="M313.89 753.26c-19.61,0.11 -39.19,0.05 -58.8,0.05 -18.43,0 -36.92,0.26 -55.32,-0.19 -3.6,-0.14 -3.6,-20.48 43.47,-34.48 30.87,-7.27 53.24,9.53 74.78,27.9 1.15,0.98 -2.08,6.72 -4.13,6.72z"/>
   <path class="fil3 str0" d="M313.89 753.26c-19.61,0.11 -39.19,0.05 -58.8,0.05 -18.43,0 -36.92,0.26 -55.32,-0.19 -3.6,-0.14 -3.6,-20.48 43.47,-34.48 30.87,-7.27 53.24,9.53 74.78,27.9 1.15,0.98 -2.08,6.72 -4.13,6.72z"/>
   <path class="fil2" d="M606.24 339.86c-4.58,-21.61 -10.34,-44.45 -17.99,-67.49 -7.21,-21.63 -16.12,-43.24 -26.68,-64.11 -99.21,-145.59 -212.35,-97.08 -227.72,-87.72 -31.97,19.24 -88.38,68.5 -122.33,178.75 -4.77,15.62 -9.07,32.64 -12.94,50.9 -3.6,17.56 -6.72,36.27 -9.11,56.5 -1.46,28.07 0.23,55.94 5.7,84.29 4.39,22.56 7.98,44.93 14.67,67.04 19.53,63.61 48.08,120.56 102.6,162.62 45.46,35.08 91.29,35.56 145.82,26.4 32.9,-5.25 125.41,-94.65 155.46,-230.86 3.11,-13.68 6.2,-28.1 6.71,-42.22 0.72,-18.78 -0.96,-71.65 -14.19,-134.1zm-122.5 -119.61l0 0c7.42,-9.63 31.95,42.04 4.08,64.14 -4.08,3.09 -32.17,-28.37 -4.08,-64.14zm-93.92 132.83l0 0c5.03,-5.05 3.57,-8.84 -2.36,-10.78 -5.08,-1.46 -11.83,-5.53 -12.78,-9.64 -1.44,-5.98 -2.39,-14.86 9.83,-20.17 10.08,-4.55 15.43,-4.81 25.23,-4.81 13.43,-0.22 33.86,17.54 13.43,29.56 -11.74,7 -4.78,13.93 3.4,19.47 16.07,10.79 30.71,7.42 44.67,-4.1 5.28,-4.58 9.58,-9.86 14.89,-14.66 0.73,-0.71 4.07,-0.23 4.58,0.5 0.98,1.91 -3.6,16.8 -32.95,32.65 -4.53,2.41 -10.57,5.76 -14.86,10.56 -5.04,5.79 -6.25,12.73 -10.6,18.99 -6.69,9.36 -18.49,13.43 -30.96,11.3 -16.35,4.8 -29.33,-4.56 -34.13,-19 -4.11,-12.47 -13.43,-13.2 -21.08,-18.51 -6.51,-4.05 -37.76,-23.04 -31.04,-30.99 5.28,-5.73 11.97,7.5 18.51,11.58 21.6,13.87 41.33,12.95 56.22,-1.95zm-75.91 -132.83l0 0c7.44,-9.63 31.91,42.04 4.07,64.14 -4.07,3.09 -32.37,-28.37 -4.07,-64.14zm107.4 430.93l0 0c-36.52,14.92 -127.6,-99.65 -136.99,-139.3 -18.96,-78.07 76.42,-46.38 116.32,-12.03 0.92,-0.97 2.41,0.96 3.57,3.16 2.44,2.13 4.58,4.55 6.32,6.68 27.79,-64.81 111.65,-86.42 128,-14.38 11.49,57.93 -77.88,139.54 -117.22,155.87z"/>
   <path class="fil5 str1" d="M606.24 339.86c-4.58,-21.61 -10.34,-44.45 -17.99,-67.49 -7.21,-21.63 -16.12,-43.24 -26.68,-64.11 -99.21,-145.59 -212.35,-97.08 -227.72,-87.72 -31.97,19.24 -88.38,68.5 -122.33,178.75 -4.77,15.62 -9.07,32.64 -12.94,50.9 -3.6,17.56 -6.72,36.27 -9.11,56.5 -1.46,28.07 0.23,55.94 5.7,84.29 4.39,22.56 7.98,44.93 14.67,67.04 19.53,63.61 48.08,120.56 102.6,162.62 45.46,35.08 91.29,35.56 145.82,26.4 32.9,-5.25 125.41,-94.65 155.46,-230.86 3.11,-13.68 6.2,-28.1 6.71,-42.22 0.72,-18.78 -0.96,-71.65 -14.19,-134.1zm-122.5 -119.61l0 0c7.42,-9.63 31.95,42.04 4.08,64.14 -4.08,3.09 -32.17,-28.37 -4.08,-64.14zm-93.92 132.83l0 0c5.03,-5.05 3.57,-8.84 -2.36,-10.78 -5.08,-1.46 -11.83,-5.53 -12.78,-9.64 -1.44,-5.98 -2.39,-14.86 9.83,-20.17 10.08,-4.55 15.43,-4.81 25.23,-4.81 13.43,-0.22 33.86,17.54 13.43,29.56 -11.74,7 -4.78,13.93 3.4,19.47 16.07,10.79 30.71,7.42 44.67,-4.1 5.28,-4.58 9.58,-9.86 14.89,-14.66 0.73,-0.71 4.07,-0.23 4.58,0.5 0.98,1.91 -3.6,16.8 -32.95,32.65 -4.53,2.41 -10.57,5.76 -14.86,10.56 -5.04,5.79 -6.25,12.73 -10.6,18.99 -6.69,9.36 -18.49,13.43 -30.96,11.3 -16.35,4.8 -29.33,-4.56 -34.13,-19 -4.11,-12.47 -13.43,-13.2 -21.08,-18.51 -6.51,-4.05 -37.76,-23.04 -31.04,-30.99 5.28,-5.73 11.97,7.5 18.51,11.58 21.6,13.87 41.33,12.95 56.22,-1.95zm-75.91 -132.83l0 0c7.44,-9.63 31.91,42.04 4.07,64.14 -4.07,3.09 -32.37,-28.37 -4.07,-64.14zm107.4 430.93l0 0c-36.52,14.92 -127.6,-99.65 -136.99,-139.3 -18.96,-78.07 76.42,-46.38 116.32,-12.03 0,0 1.74,1.44 3.57,3.16 2.33,2.24 4.58,4.55 6.32,6.68 27.79,-64.81 111.65,-86.42 128,-14.38 11.49,57.93 -77.88,139.54 -117.22,155.87z"/>
   <path class="fil3 str2" d="M606.24 339.86c-4.58,-21.61 -10.34,-44.45 -17.99,-67.49 -7.21,-21.63 -16.12,-43.24 -26.68,-64.11 -99.21,-145.59 -212.35,-97.08 -227.72,-87.72 -31.97,19.24 -88.38,68.5 -122.33,178.75 -4.77,15.62 -9.07,32.64 -12.94,50.9 -3.6,17.56 -6.72,36.27 -9.11,56.5 -1.46,28.07 0.23,55.94 5.7,84.29 4.39,22.56 7.98,44.93 14.67,67.04 19.53,63.61 48.08,120.56 102.6,162.62 45.46,35.08 91.29,35.56 145.82,26.4 32.9,-5.25 125.41,-94.65 155.46,-230.86 3.11,-13.68 6.2,-28.1 6.71,-42.22 0.72,-18.78 -0.96,-71.65 -14.19,-134.1z"/>
   <path class="fil5 str3" d="M483.73 220.25c7.44,-9.63 31.95,42.03 4.07,64.14 -4.07,3.09 -32.14,-28.38 -4.07,-64.14z"/>
   <path class="fil0 str2" d="M389.81 353.08c5.03,-5.05 3.57,-8.84 -2.35,-10.78 -5.09,-1.46 -11.84,-5.53 -12.78,-9.64 -1.44,-5.98 -2.39,-14.86 9.85,-20.17 10.09,-4.55 15.4,-4.81 25.2,-4.81 13.43,-0.22 33.86,17.54 13.43,29.56 -11.74,7 -4.75,13.93 3.4,19.47 16.07,10.79 30.71,7.42 44.67,-4.1 5.31,-4.58 9.61,-9.86 14.89,-14.66 0.74,-0.71 4.11,-0.23 4.58,0.5 0.99,1.91 -3.59,16.8 -32.92,32.65 -4.56,2.41 -10.59,5.76 -14.89,10.56 -5,5.79 -6.24,12.73 -10.59,18.99 -6.69,9.36 -18.47,13.43 -30.97,11.3 -16.35,4.8 -29.33,-4.56 -34.13,-19 -4.07,-12.47 -13.43,-13.2 -21.08,-18.51 -6.49,-4.05 -37.73,-23.04 -31.04,-30.99 5.28,-5.73 11.99,7.5 18.52,11.58 21.6,13.87 41.35,12.95 56.21,-1.95z"/>
   <path class="fil5 str3" d="M313.92 220.25c7.44,-9.63 31.91,42.03 4.04,64.14 -4.04,3.09 -32.36,-28.38 -4.04,-64.14z"/>
   <path class="fil3" d="M432.27 381.73c-20.34,32.78 -24.02,4.29 -25.54,0 -7.5,-21.95 31.53,-9.72 25.54,0z"/>
   <path class="fil3" d="M374.54 381.73c20.01,32.78 23.6,4.29 25.12,0 7.41,-21.95 -30.97,-9.72 -25.12,0z"/>
   <path class="fil0 str2" d="M487.81 284.39c-4.02,3.14 -32.22,-28.38 -4.02,-64.23 7.56,-9.55 31.94,42.03 4.02,64.23z"/>
   <path class="fil0 str2" d="M317.83 284.39c-3.94,3.14 -32.2,-28.38 -3.94,-64.23 7.48,-9.55 31.87,42.03 3.94,64.23z"/>
   <path class="fil0 str2" d="M421.24 651.16c-36.47,14.89 -127.61,-99.77 -136.85,-139.24 -19.11,-78.21 76.39,-46.47 116.31,-12.08 1.21,1.01 2.47,2.13 3.6,3.2l0 0.03c2.41,3.9 4.88,9.41 6.29,6.63 27.79,-64.93 111.57,-86.36 127.81,-14.38 11.6,57.96 -77.75,139.63 -117.16,155.84z"/>
   <path class="fil3" d="M341.68 537.56c0,4.11 -3.31,7.36 -7.36,7.36 -4.08,0 -7.39,-3.25 -7.39,-7.36 0,-4.04 3.31,-7.41 7.39,-7.41 4.05,0 7.36,3.37 7.36,7.41z"/>
   <path class="fil3" d="M334.31 495.95c0,4.05 -3.32,7.39 -7.42,7.39 -4.04,0 -7.36,-3.34 -7.36,-7.39 0,-4.1 3.32,-7.41 7.36,-7.41 4.1,0 7.42,3.31 7.42,7.41z"/>
   <path class="fil3" d="M373.28 523.64c0,4.04 -3.29,7.39 -7.41,7.39 -4.05,0 -7.37,-3.35 -7.37,-7.39 0,-4.11 3.32,-7.36 7.37,-7.36 4.12,0 7.41,3.25 7.41,7.36z"/>
   <path class="fil3" d="M442.37 577.66c0,4.07 -3.32,7.39 -7.37,7.39 -4.07,0 -7.41,-3.32 -7.41,-7.39 0,-4.04 3.34,-7.35 7.41,-7.35 4.05,0 7.37,3.31 7.37,7.35z"/>
   <path class="fil3" d="M467.11 519.71c0,4.11 -3.31,7.37 -7.36,7.37 -4.1,0 -7.36,-3.26 -7.36,-7.37 0,-4.1 3.26,-7.36 7.36,-7.36 4.05,0 7.36,3.26 7.36,7.36z"/>
   <path class="fil3" d="M491.32 488.55c0,4.12 -3.29,7.41 -7.34,7.41 -4.1,0 -7.41,-3.29 -7.41,-7.41 0,-4.05 3.31,-7.37 7.41,-7.37 4.05,0 7.34,3.32 7.34,7.37z"/>
   <path class="fil3" d="M506.84 530.15c0,4.1 -3.26,7.42 -7.34,7.42 -4.1,0 -7.41,-3.32 -7.41,-7.42 0,-4.05 3.31,-7.36 7.41,-7.36 4.08,0 7.34,3.31 7.34,7.36z"/>
   <path class="fil3" d="M425.37 544.09c0,4.04 -3.32,7.36 -7.39,7.36 -4.08,0 -7.42,-3.32 -7.42,-7.36 0,-4.05 3.34,-7.42 7.42,-7.42 4.07,0 7.39,3.37 7.39,7.42z"/>
   <path class="fil3" d="M483.97 564.83c0,4.04 -3.31,7.35 -7.41,7.35 -4.05,0 -7.39,-3.31 -7.39,-7.35 0,-4.11 3.34,-7.39 7.39,-7.39 4.1,0 7.41,3.28 7.41,7.39z"/>
   <path class="fil3" d="M415.49 613.81c0,4.1 -3.31,7.42 -7.39,7.42 -4.1,0 -7.41,-3.32 -7.41,-7.42 0,-4.05 3.31,-7.39 7.41,-7.39 4.08,0 7.39,3.34 7.39,7.39z"/>
   <path class="fil3" d="M379.94 572.19c0,4.05 -3.28,7.43 -7.36,7.43 -4.13,0 -7.39,-3.38 -7.39,-7.43 0,-4.1 3.26,-7.36 7.39,-7.36 4.08,0 7.36,3.26 7.36,7.36z"/>
   <path class="fil6" d="M322.77 324.63c0,13.71 -12.84,24.89 -28.68,24.89 -15.85,0 -28.66,-11.18 -28.66,-24.89 0,-13.74 12.81,-24.92 28.66,-24.92 15.84,0 28.68,11.18 28.68,24.92z"/>
   <path class="fil6" d="M536.95 320.22c0,13.79 -12.85,24.89 -28.74,24.89 -15.82,0 -28.63,-11.1 -28.63,-24.89 0,-13.76 12.81,-24.89 28.63,-24.89 15.89,0 28.74,11.13 28.74,24.89z"/>
   <path class="fil7" d="M359.28 318.9c-75.6,-11.29 -150.7,-24.75 -227.35,-25.47 -1.74,-0.04 -3.9,2.58 -1.34,2.61 76.67,0.73 151.73,14.18 227.35,25.48 1.76,0.28 3.87,-2.25 1.34,-2.62z"/>
   <path class="fil7" d="M451.46 316.2c73.42,-23.36 145.98,-48.84 222.15,-61.9 1.77,-0.31 3.17,-2.48 0.54,-2.02 -76.51,13.11 -149.42,38.65 -223.16,62.12 -2.23,0.67 -1.8,2.5 0.47,1.8z"/>
   <path class="fil7" d="M177.03 358.61c-9.92,5.17 -18.79,11.66 -26.55,19.75 -1.04,1.07 2.72,0.76 3.48,-0.05 7.39,-7.67 15.94,-13.83 25.37,-18.74 2.25,-1.18 -1.17,-1.55 -2.3,-0.96z"/>
   <path class="fil7" d="M179.25 359.04c52.15,-24.47 110.39,-21.97 166.56,-21.8 0.75,0 4.29,-1.46 2.46,-1.46 -57.87,-0.2 -117.6,-2.33 -171.18,22.84 -2.25,1.07 1.32,0.82 2.16,0.42z"/>
   <path class="fil7" d="M457.4 329.54c64.03,-0.17 143.99,-6.41 193.86,41.61 0.75,0.7 4.23,-0.68 3.57,-1.36 -50.41,-48.49 -131.21,-42.08 -195.83,-41.89 -1.09,0 -4.13,1.64 -1.6,1.64z"/>
   <path class="fil8" d="M551.35 78.23c0.22,6.01 0.22,12.02 0,17.73 -0.76,19.1 -4.44,36.3 -8.85,47.03 -3.14,8.63 -6.83,13.06 -9.69,10.67 -47.51,-38.6 -76.17,-45.93 -104.15,-46.69 -8.32,-0.28 -16.67,0.26 -25.29,0.53 -7.34,0.23 -14.13,1.05 -20.62,1.8 -65.52,8.63 -98.73,42.85 -98.73,42.85 -1.74,1.51 -3.82,1.79 -5.7,0.5 -8.63,-4.19 -16.18,-32.62 -17.73,-62.65 -0.56,-4.97 -0.56,-10.17 -0.56,-15.14 0.28,-12.25 1.54,-24.31 4.46,-34.2 1.8,-6.77 4.45,-12.8 7.82,-17.5 5.5,-7 12.81,-10.7 22.47,-9.13 44.37,7.33 47.74,27.4 90.3,61.36 1.8,1.55 3.65,2.84 5.48,4.44 3.91,2.83 28.2,0 28.2,0 0,0 2.08,-2.36 5.99,-6.01 19.08,-18.54 79.62,-74.68 99.71,-58.21 1.83,1.54 3.63,3.11 5.26,4.94 4.69,4.72 8.39,10.2 11.2,16.19 6.22,12.55 9.36,27.16 10.43,41.49z"/>
   <path class="fil7 str4" d="M551.35 78.23c0.22,6.01 0.22,12.02 0,17.73 -0.76,19.1 -4.44,36.3 -8.85,47.03 -3.14,8.63 -6.83,13.06 -9.69,10.67 -47.51,-38.6 -76.17,-45.93 -104.15,-46.69 -8.32,-0.28 -16.67,0.26 -25.29,0.53 -7.34,0.23 -14.13,1.05 -20.62,1.8 -65.52,8.63 -98.73,42.85 -98.73,42.85 -1.74,1.51 -3.82,1.79 -5.7,0.5 -8.63,-4.19 -16.18,-32.62 -17.73,-62.65 -0.56,-4.97 -0.56,-10.17 -0.56,-15.14 0.28,-12.25 1.54,-24.31 4.46,-34.2 1.8,-6.77 4.45,-12.8 7.82,-17.5 5.5,-7 12.81,-10.7 22.47,-9.13 44.37,7.33 47.74,27.4 90.3,61.36 1.8,1.55 3.65,2.84 5.48,4.44 3.91,2.83 28.2,0 28.2,0 0,0 2.08,-2.36 5.99,-6.01 19.08,-18.54 79.62,-74.68 99.71,-58.21 1.83,1.54 3.63,3.11 5.26,4.94 4.69,4.72 8.39,10.2 11.2,16.19 6.22,12.55 9.36,27.16 10.43,41.49z"/>
   <path class="fil8" d="M385.05 75.5c-6.18,5.76 -8.18,27.59 -2.39,33.78 7.59,8.06 35.71,6.99 44.31,0 6.52,-5.37 5.28,-27.23 0,-33.78 -6.63,-8.11 -34.25,-7.13 -41.92,0z"/>
   <path class="fil7 str4" d="M385.05 75.5c-6.18,5.76 -8.18,27.59 -2.39,33.78 7.59,8.06 35.71,6.99 44.31,0 6.52,-5.37 5.28,-27.23 0,-33.78 -6.63,-8.11 -34.25,-7.13 -41.92,0z"/>
   <path class="fil9" d="M371.56 96.73c0,0 -0.05,-0.37 -0.17,-1.04 -0.05,-0.71 -0.44,-1.66 -1.14,-2.7 -1.38,-2.16 -4.41,-4.38 -8.4,-6.15 -8.02,-3.57 -19.64,-5.96 -31.3,-7.05 -11.69,-1.21 -23.52,-1.04 -32.23,0.2 -4.33,0.64 -7.9,1.54 -10.29,2.56 -2.35,1.01 -3.51,1.96 -3.51,1.96 0,0 1.1,-1.01 3.44,-2.2 2.32,-1.12 5.83,-2.39 10.22,-3.17 8.76,-1.65 20.71,-1.96 32.5,-0.84 11.75,1.21 23.5,3.74 31.53,7.78 4.02,1.91 6.94,4.52 8.26,6.77 0.65,1.12 0.98,2.17 0.98,2.84 0.06,0.67 0.11,1.04 0.11,1.04z"/>
   <path class="fil9" d="M431.4 89.75c0,0 4.92,-0.28 12.28,-0.92 7.34,-0.65 17.14,-1.57 26.83,-3.18 9.67,-1.51 19.31,-3.76 25.82,-7.08 1.64,-0.84 3.01,-1.77 4.16,-2.69 1.12,-0.99 1.91,-2 2.45,-2.9 0.98,-1.94 0.82,-3.26 0.9,-3.23 -0.12,-0.03 0.16,1.29 -0.68,3.32 -0.5,0.98 -1.24,2.08 -2.33,3.2 -1.12,1.01 -2.47,2.08 -4.1,3.01 -6.52,3.76 -16.3,6.15 -25.99,7.78 -19.55,3.17 -39.34,2.69 -39.34,2.69z"/>
   <path class="fil3" d="M511.12 50.66c0,4.44 -3.53,8.01 -7.98,8.01 -4.43,0 -8.03,-3.57 -8.03,-8.01 0,-4.43 3.6,-8 8.03,-8 4.45,0 7.98,3.57 7.98,8z"/>
   <path class="fil3" d="M529.81 93.44c0,4.4 -3.59,8.04 -8.03,8.04 -4.47,0 -7.98,-3.64 -7.98,-8.04 0,-4.44 3.51,-8.07 7.98,-8.07 4.44,0 8.03,3.63 8.03,8.07z"/>
   <path class="fil3" d="M305.48 50.66c0,4.44 -3.59,8.01 -8.03,8.01 -4.44,0 -8.04,-3.57 -8.04,-8.01 0,-4.43 3.6,-8 8.04,-8 4.44,0 8.03,3.57 8.03,8z"/>
   <path class="fil3" d="M300.09 104.79c0,4.43 -3.57,8 -8,8 -4.45,0 -8.07,-3.57 -8.07,-8 0,-4.47 3.62,-8.07 8.07,-8.07 4.43,0 8,3.6 8,8.07z"/>
   <path class="fil0" d="M206.31 817.78c4.35,0 8.57,1.24 12.67,3.7 1.91,1.16 3.23,1.75 3.99,1.75 0.53,0 1.38,-0.17 2.59,-0.5 0.39,-0.15 0.81,-0.2 1.29,-0.2 1.57,0 2.92,0.95 4.1,2.81 2.9,4.49 4.3,10.06 4.3,16.72 0,4.69 -1.23,8.11 -3.71,10.28 -1.35,1.14 -2.87,1.74 -4.55,1.74 -1.52,0 -2.75,-0.42 -3.71,-1.26 -0.96,-0.88 -1.88,-2.39 -2.81,-4.56 -1.29,-3.06 -2.3,-5.25 -3.12,-6.6 -0.82,-1.32 -1.8,-2.53 -2.97,-3.63 -2.9,-2.61 -5.94,-3.93 -9.11,-3.93 -3.09,0 -5.53,1.43 -7.33,4.33 -1.83,2.89 -2.73,6.74 -2.73,11.57 0,6.66 1.29,12.76 3.91,18.3 3.54,7.38 8.6,11.09 15.17,11.09 2.42,0 4.83,-0.53 7.19,-1.57 2.39,-1.04 4.24,-2.42 5.57,-4.04 1.12,-1.41 2.04,-2.11 2.78,-2.11 1.04,0 1.96,0.62 2.7,1.88 0.72,1.26 1.12,2.78 1.12,4.57 0,2.23 -0.53,4.76 -1.58,7.54 -1.03,2.78 -2.3,4.97 -3.79,6.57 -0.62,0.64 -1.91,1.24 -3.88,1.74 -1.14,0.26 -2.67,0.96 -4.54,2.14 -4.42,2.75 -9.03,4.13 -13.83,4.13 -5,0 -9.97,-1.46 -14.95,-4.39 -5.78,-3.33 -10.34,-8.51 -13.68,-15.47 -3.31,-6.78 -4.95,-13.86 -4.95,-21.24 0,-8.6 2.06,-16.44 6.18,-23.52 3.6,-6.18 8.29,-10.87 14.08,-14.14 4.38,-2.46 8.94,-3.7 13.6,-3.7zm61.33 47.56c-1.15,0 -1.88,0.46 -2.19,1.32 -0.31,0.9 -0.48,2.95 -0.48,6.22 0,4.91 0.26,8.76 0.73,11.49 0.15,0.78 0.37,1.4 0.68,1.82 0.3,0.42 0.87,0.96 1.71,1.57 1.8,1.27 2.67,2.96 2.67,5.03 0,2.56 -1.23,4.36 -3.73,5.45 -2.5,1.07 -6.72,1.6 -12.67,1.6 -11.11,0 -16.64,-2.72 -16.64,-8.14 0,-0.93 0.17,-1.68 0.48,-2.22 0.34,-0.6 1.1,-1.35 2.27,-2.36 1.33,-1.13 2.19,-2.47 2.67,-3.99 0.46,-1.52 0.76,-4.16 0.96,-7.93 0.14,-2.72 0.22,-12.58 0.22,-29.55 0,-5.37 -0.19,-9.05 -0.61,-10.99 -0.42,-1.91 -1.32,-3.31 -2.7,-4.21 -1.32,-0.82 -2.19,-1.57 -2.65,-2.25 -0.44,-0.67 -0.67,-1.57 -0.67,-2.64 0,-1.43 0.43,-2.7 1.27,-3.73 0.84,-1.07 2.05,-1.89 3.59,-2.37 1.27,-0.42 3.04,-0.61 5.28,-0.61 0.99,0 3.46,0.17 7.39,0.56 0.76,0.08 1.97,0.11 3.57,0.11 2.7,0 6.27,-0.23 10.76,-0.67 2.87,-0.29 4.83,-0.42 5.99,-0.42 6.4,0 11.71,1.99 15.9,5.98 3.76,3.6 5.65,8.57 5.65,14.98 0,3.57 -0.65,6.79 -2,9.71 -1.29,2.93 -3.12,5.12 -5.42,6.61 -0.96,0.62 -1.44,1.35 -1.44,2.19 0,1.12 0.74,2.02 2.23,2.73 3.14,1.49 5.42,3.7 6.88,6.68 1.49,2.98 2.53,7.56 3.14,13.68 0.29,2.59 0.68,4.25 1.19,5 0.5,0.74 1.68,1.49 3.54,2.17 0.58,0.22 1.06,0.7 1.43,1.46 0.39,0.79 0.59,1.63 0.59,2.55 0,1.18 -0.34,2.39 -1.07,3.63 -0.73,1.21 -1.66,2.16 -2.81,2.86 -2.5,1.53 -5.93,2.28 -10.31,2.28 -5.82,0 -10.03,-2 -12.53,-6.01 -1.12,-1.74 -2.1,-4.02 -2.89,-6.71 -0.79,-2.7 -1.75,-6.92 -2.81,-12.68 -0.68,-3.67 -1.55,-6.23 -2.62,-7.78 -1.06,-1.49 -2.58,-2.31 -4.55,-2.42zm-2.61 -29.61l-0.5 13.52 0 0.53c0,1.38 0.16,2.3 0.47,2.78 0.31,0.45 0.96,0.7 1.91,0.7 2.64,0 4.55,-0.87 5.73,-2.64 1.21,-1.77 1.83,-4.57 1.83,-8.45 0,-7.48 -2.05,-11.22 -6.18,-11.22 -1.15,0 -1.96,0.37 -2.44,1.07 -0.48,0.68 -0.77,1.91 -0.82,3.71zm108.2 12.73l0 14.16c0,8.54 -0.48,14.61 -1.49,18.17 -2.11,7.51 -6.8,12.93 -14,16.31 -4.38,2.1 -9.3,3.14 -14.8,3.14 -9.61,0 -17.31,-2.95 -23.1,-8.88 -2.81,-2.92 -4.74,-6.29 -5.81,-10.11 -1.1,-3.83 -1.63,-9.38 -1.63,-16.61 0,-2.81 0.05,-7.47 0.22,-13.94 0.09,-4.54 0.14,-7.58 0.14,-9.04 0,-3.23 -0.2,-5.45 -0.56,-6.68 -0.39,-1.25 -1.18,-2.43 -2.44,-3.52 -2,-1.63 -2.98,-3.48 -2.98,-5.53 0,-1.52 0.5,-2.87 1.49,-4.02 1.01,-1.18 2.36,-1.97 3.99,-2.39 3.28,-0.84 7.19,-1.29 11.66,-1.29 4.94,0 9.05,0.51 12.31,1.49 3.2,0.9 4.83,3.01 4.83,6.32 0,1.62 -0.48,2.89 -1.41,3.88 -0.22,0.22 -1.12,0.81 -2.7,1.79 -0.98,0.53 -1.6,1.55 -1.94,2.95 -0.33,1.44 -0.53,3.83 -0.53,7.11 0,3.38 -0.11,10.65 -0.37,21.8 -0.13,6.66 1.24,11.75 4.19,15.23 2.39,2.87 5.48,4.33 9.24,4.33 2.39,0 4.56,-0.59 6.52,-1.74 1.94,-1.13 3.43,-2.7 4.44,-4.67 0.82,-1.52 1.35,-3.2 1.69,-5.05 0.28,-1.86 0.42,-4.38 0.42,-7.62l0 -12.78c-0.14,-9.78 -0.37,-15.51 -0.64,-17.19 -0.29,-1.69 -1.25,-3.01 -2.9,-3.99 -1.55,-0.88 -2.62,-1.69 -3.2,-2.43 -0.56,-0.75 -0.85,-1.65 -0.85,-2.74 0,-2.34 1.07,-4.02 3.21,-5.09 2.16,-1.07 5.59,-1.6 10.31,-1.6 4.63,0 8.01,0.53 10.09,1.57 2.08,1.07 3.11,2.73 3.11,5.01 0,1.12 -0.19,1.96 -0.53,2.5 -0.37,0.55 -1.29,1.37 -2.84,2.5 -1.58,1.14 -2.48,2.41 -2.72,3.73 -0.22,1.35 -0.34,6.29 -0.42,14.92zm18.87 -29.05l23.04 0c4.69,0 8.09,-0.12 10.23,-0.37 2.16,-0.28 4.24,-0.78 6.26,-1.57 0.65,-0.2 1.16,-0.33 1.49,-0.33 1.58,0 2.93,1.09 4.14,3.25 1.99,3.54 2.94,7.78 2.94,12.79 0,2.5 -0.42,4.49 -1.21,5.95 -0.83,1.44 -1.96,2.16 -3.4,2.16 -0.98,0 -1.77,-0.25 -2.3,-0.78 -0.56,-0.51 -1.32,-1.69 -2.21,-3.49 -1.33,-2.61 -3.01,-4.35 -5,-5.22 -2.06,-0.87 -5.35,-1.32 -9.98,-1.32 -3.43,0 -5.51,0.84 -6.26,2.42 -0.43,0.83 -0.66,1.96 -0.71,3.42 -0.08,1.4 -0.11,5.06 -0.11,10.96 0,2.3 0.31,3.77 0.9,4.32 0.59,0.57 2.16,0.85 4.69,0.85 1.26,0 2.19,-0.34 2.75,-1.01 0.57,-0.7 0.93,-1.91 1.1,-3.63 0.19,-2.27 0.42,-3.79 0.65,-4.61 0.19,-0.84 0.61,-1.57 1.2,-2.19 0.65,-0.7 1.38,-1.03 2.22,-1.03 1.21,0 2.28,0.72 3.15,2.24 0.62,1.13 1.15,3.12 1.6,5.96 0.42,2.84 0.64,5.81 0.64,8.9 0,6.13 -0.72,11.13 -2.19,15.06 -0.81,2.11 -2.04,3.18 -3.68,3.18 -1.03,0 -1.74,-0.34 -2.13,-1.01 -0.37,-0.68 -0.68,-2.08 -0.9,-4.19 -0.45,-4.41 -2.45,-6.58 -5.93,-6.58 -1.35,0 -2.24,0.54 -2.75,1.67 -0.5,1.09 -0.76,3.14 -0.76,6.12 0,1.83 0.11,4.16 0.31,7.05 0.19,2.89 0.39,4.78 0.62,5.73 0.22,1.13 0.98,1.97 2.22,2.39 1.23,0.45 3.31,0.67 6.21,0.67 4.49,0 7.86,-0.75 10.14,-2.24 2.28,-1.49 4.13,-4.16 5.56,-8.1 0.84,-2.24 1.61,-3.76 2.27,-4.52 0.68,-0.79 1.55,-1.18 2.62,-1.18 1.26,0 2.31,0.74 3.14,2.14 0.82,1.4 1.21,3.17 1.21,5.31 0,2.3 -0.44,5.22 -1.38,8.7 -0.92,3.49 -2.04,6.58 -3.4,9.31 -0.7,1.32 -1.25,2.19 -1.71,2.64 -0.44,0.42 -1.01,0.64 -1.71,0.67 -0.56,-0.03 -1.38,-0.14 -2.47,-0.36 -1.91,-0.45 -4.47,-0.76 -7.67,-0.88l-38.07 0c-1.55,0 -2.7,-0.42 -3.57,-1.32 -0.81,-0.83 -1.24,-2.08 -1.24,-3.68 0,-1.12 0.17,-1.93 0.54,-2.41 0.36,-0.51 1.18,-1.16 2.47,-1.94 0.9,-0.48 1.57,-1.13 1.99,-1.83 0.43,-0.75 0.76,-1.82 1.02,-3.25 0.98,-5.85 1.49,-13.74 1.49,-23.67 0,-14.91 -0.74,-24.35 -2.17,-28.25 -0.28,-0.79 -0.61,-1.32 -0.98,-1.64 -0.37,-0.31 -1.12,-0.67 -2.25,-1.09 -1.68,-0.67 -2.55,-2.14 -2.55,-4.42 0,-1.25 0.28,-2.32 0.87,-3.31 0.56,-0.98 1.29,-1.6 2.22,-1.93 1.18,-0.35 3.42,-0.51 6.79,-0.51zm83.08 25.37l0 26.66c0,6.02 0.42,9.86 1.24,11.61 0.98,2.04 3.06,3.09 6.24,3.09 3.42,0 6.09,-0.99 8.09,-2.9 1.96,-1.94 3.34,-4.97 4.13,-9.07 0.42,-2.5 1.46,-3.79 3.03,-3.79 1.6,0 2.87,0.95 3.88,2.78 1.01,1.82 1.51,4.21 1.51,7.16 0,4.81 -1.37,9.92 -4.12,15.4 -0.88,1.73 -1.64,2.92 -2.28,3.57 -0.68,0.64 -1.49,0.95 -2.39,0.95l-9.97 -1.58 -31.39 0c-2.04,0 -3.51,-0.31 -4.35,-0.92 -1.24,-0.9 -1.83,-2.22 -1.83,-4.02 0,-1.07 0.2,-1.88 0.59,-2.41 0.4,-0.51 1.38,-1.27 2.96,-2.23 1.68,-1.03 2.78,-2.5 3.28,-4.41 0.4,-1.6 0.56,-6.2 0.56,-13.87 0,-3.57 -0.05,-8.68 -0.22,-15.4 -0.14,-6.41 -0.22,-11.24 -0.28,-14.5 0,-3.09 -0.17,-5.22 -0.53,-6.38 -0.4,-1.15 -1.19,-1.97 -2.37,-2.44 -1.99,-0.9 -3.23,-1.6 -3.76,-2.16 -0.98,-0.99 -1.46,-2.06 -1.46,-3.32 0,-2.81 1.82,-4.97 5.45,-6.43 3.09,-1.27 7.2,-1.94 12.39,-1.94 5.81,0 10.14,0.4 13.01,1.18 3.7,1.06 5.56,3.12 5.56,6.26 0,1.29 -0.26,2.25 -0.73,2.87 -0.48,0.61 -1.72,1.43 -3.63,2.47 -1.12,0.68 -1.85,1.8 -2.13,3.38 -0.31,1.6 -0.48,5.05 -0.48,10.39zm44.31 -25.37l23.66 0c2.55,-0.12 4.85,-0.56 6.93,-1.33 0.93,-0.33 1.72,-0.47 2.42,-0.47 2.39,0 4.77,2.31 7.05,6.96 2.28,4.64 3.43,9.42 3.43,14.34 0,3.37 -0.78,5.81 -2.36,7.38 -1.21,1.16 -2.64,1.75 -4.33,1.75 -1.57,0 -2.97,-0.59 -4.13,-1.72 -1.15,-1.15 -2.3,-3.03 -3.46,-5.67 -0.97,-2.39 -1.76,-3.96 -2.32,-4.69 -0.6,-0.74 -1.27,-1.1 -2.09,-1.1 -1.09,0 -1.9,0.59 -2.35,1.8 -0.48,1.21 -0.74,3.17 -0.74,5.93l0 32.48c0,3.34 0.29,5.79 0.82,7.3 0.54,1.49 1.55,2.64 3.04,3.48 1.62,0.88 2.72,1.72 3.31,2.5 0.59,0.82 0.87,1.89 0.87,3.29 0,2.78 -1.46,4.87 -4.35,6.21 -2.92,1.35 -7.42,2.02 -13.46,2.05 -7.45,-0.03 -12.92,-0.81 -16.55,-2.41 -3.01,-1.29 -4.52,-3.43 -4.52,-6.38 0,-1.57 0.53,-2.81 1.63,-3.71 0.25,-0.2 1.31,-0.67 3.17,-1.41 1.16,-0.39 1.91,-1.21 2.36,-2.41 0.45,-1.21 0.79,-3.51 1.07,-6.91 0.23,-3.04 0.45,-7.93 0.67,-14.67 0.2,-6.77 0.31,-12.62 0.31,-17.56 0,-3.48 -0.22,-5.95 -0.62,-7.42 -0.42,-1.49 -1.12,-2.21 -2.08,-2.21 -1.18,0 -2.3,1.07 -3.4,3.22 -2.02,3.97 -3.68,6.58 -4.94,7.84 -1.52,1.52 -3.01,2.28 -4.46,2.28 -1.6,0 -2.96,-0.79 -3.97,-2.36 -1.07,-1.58 -1.6,-3.57 -1.6,-6.01 0,-2.39 0.42,-5.04 1.27,-7.93 0.84,-2.86 1.96,-5.53 3.36,-7.98 2.28,-3.95 4.53,-5.9 6.72,-5.9 0.62,0 1.3,0.11 2.08,0.34 1.63,0.43 2.95,0.71 3.99,0.87 1.01,0.15 2.22,0.23 3.57,0.23zm64.14 -1.24c5.87,0 10.34,0.42 13.43,1.24 1.4,0.36 2.56,1.04 3.37,2.05 0.87,1.04 1.29,2.22 1.29,3.51 0,1.01 -0.33,2.05 -0.98,3.09 -0.95,1.6 -1.43,2.73 -1.43,3.4 0,1.44 0.84,3.65 2.55,6.69 1.1,1.99 2.14,2.97 3.15,2.97 0.65,0 1.23,-0.27 1.82,-0.9 0.63,-0.59 1.41,-1.68 2.34,-3.2 1.18,-1.91 1.74,-3.42 1.74,-4.55 0,-0.7 -0.05,-1.21 -0.2,-1.57 -0.14,-0.37 -0.59,-1.18 -1.45,-2.5 -0.59,-0.9 -0.9,-2.08 -0.9,-3.59 0,-4.36 4.57,-6.58 13.76,-6.58 5.17,0 8.51,0.33 10.09,0.95 1.01,0.39 1.8,1.1 2.44,2.22 0.65,1.07 0.98,2.22 0.98,3.46 0,1.6 -0.39,2.8 -1.14,3.59 -0.74,0.82 -2.03,1.44 -3.88,1.89 -1.72,0.39 -3.2,1.26 -4.45,2.5 -1.26,1.29 -3.59,4.21 -6.93,8.87 -4.05,5.68 -6.61,9.87 -7.59,12.56 -1.01,2.7 -1.52,6.72 -1.52,12.06 0,4.49 0.11,8.65 0.43,12.47 0.14,2.36 0.42,4.02 0.84,4.92 0.42,0.9 1.27,1.8 2.61,2.7 2.17,1.45 3.24,3.31 3.24,5.5 0,5.29 -5.99,7.92 -18.02,7.92 -4.97,0 -9.6,-0.64 -14.02,-1.88 -3.71,-1.04 -5.56,-3.09 -5.56,-6.21 0,-2.39 1.13,-4.12 3.43,-5.17 1.68,-0.75 2.76,-1.74 3.17,-2.94 0.96,-2.67 1.43,-9 1.43,-18.94 0,-3.09 -0.24,-5.51 -0.72,-7.25 -0.46,-1.71 -1.52,-3.93 -3.12,-6.69 -3.4,-5.7 -6.88,-10.81 -10.48,-15.36 -1.55,-2 -3.04,-3.32 -4.5,-4.05 -2.02,-0.95 -3.25,-1.66 -3.68,-2.14 -0.84,-0.92 -1.24,-2.16 -1.24,-3.7 0,-2.59 1.49,-4.47 4.53,-5.59 3.03,-1.16 8.06,-1.75 15.17,-1.75z"/>
   <path class="fil0" d="M308.86 937.96c-2.08,0 -3.34,0.71 -3.82,2.05 -0.37,1.02 -0.7,2.98 -1.01,5.93 -0.34,2.92 -0.48,5.59 -0.48,7.98 0,1.46 0.37,2.44 1.07,2.98 0.73,0.53 2.07,0.81 4.04,0.81 1.32,0 2.3,-0.3 2.92,-0.92 0.62,-0.62 1.07,-1.66 1.29,-3.13 0.71,-4.23 2.12,-6.34 4.25,-6.34 3.65,0 5.48,5.64 5.48,16.97 0,7.13 -0.82,12.41 -2.39,15.76 -0.96,2.08 -2.28,3.12 -3.93,3.12 -1.77,0 -2.82,-1.54 -3.07,-4.61 -0.17,-1.97 -0.34,-3.37 -0.59,-4.19 -0.19,-0.81 -0.65,-1.6 -1.26,-2.32 -0.99,-1.19 -2.42,-1.8 -4.33,-1.8 -1.31,0 -2.25,0.31 -2.72,0.95 -0.45,0.59 -0.67,1.77 -0.62,3.54 0,0.31 -0.03,2.11 -0.05,5.4 0,6.68 0.55,10.76 1.62,12.25 0.37,0.59 0.73,0.95 1.1,1.12 0.37,0.17 1.35,0.42 2.95,0.73 0.75,0.14 1.43,0.67 1.96,1.57 0.54,0.88 0.82,1.91 0.82,3.09 0,2.95 -1.35,4.89 -4.05,5.73 -3.9,1.21 -9.35,1.83 -16.37,1.83 -6.18,0 -10.43,-0.5 -12.76,-1.44 -1.07,-0.39 -1.91,-1.17 -2.56,-2.3 -0.64,-1.15 -1.01,-2.35 -1.01,-3.71 0,-1.71 0.48,-3.09 1.46,-4.12 0.23,-0.23 1.04,-0.74 2.44,-1.47 1.69,-0.87 2.7,-2.8 3.01,-5.92 0.56,-4.75 0.82,-15.63 0.82,-32.57 0,-7.3 -0.2,-12.05 -0.59,-14.22 -0.37,-2.19 -1.33,-3.67 -2.82,-4.52 -1.48,-0.84 -2.46,-1.62 -2.94,-2.24 -0.48,-0.65 -0.7,-1.58 -0.7,-2.76 0,-1.71 0.64,-3.15 1.93,-4.29 1.29,-1.13 2.87,-1.69 4.78,-1.69 1.18,0 2.92,0.11 5.23,0.36 4.89,0.48 10.73,0.73 17.52,0.73 10.88,0 18.19,-0.39 21.95,-1.18 0.5,-0.05 0.89,-0.08 1.18,-0.08 1.04,0 2.05,0.76 3,2.3 2.65,4.36 3.97,9.13 3.97,14.42 0,2.39 -0.45,4.32 -1.32,5.76 -0.88,1.4 -2,2.13 -3.4,2.13 -1.07,0 -1.86,-0.28 -2.39,-0.81 -0.54,-0.57 -1.91,-2.45 -4.14,-5.7 -1.31,-2 -2.97,-3.33 -4.85,-3.94 -1.91,-0.62 -5.45,-1.04 -10.62,-1.24zm57.23 34c-1.12,0 -1.86,0.42 -2.17,1.32 -0.31,0.9 -0.47,2.95 -0.47,6.21 0,4.92 0.22,8.76 0.7,11.49 0.17,0.78 0.4,1.37 0.67,1.8 0.34,0.45 0.87,0.95 1.72,1.57 1.8,1.29 2.7,2.98 2.7,5.06 0,2.56 -1.24,4.36 -3.74,5.42 -2.5,1.07 -6.71,1.63 -12.7,1.63 -11.07,0 -16.61,-2.73 -16.61,-8.17 0,-0.9 0.17,-1.67 0.48,-2.22 0.34,-0.57 1.1,-1.35 2.28,-2.36 1.29,-1.13 2.19,-2.45 2.64,-3.97 0.48,-1.54 0.78,-4.18 0.98,-7.92 0.15,-2.75 0.23,-12.59 0.23,-29.56 0,-5.37 -0.23,-9.04 -0.62,-10.98 -0.45,-1.91 -1.32,-3.34 -2.73,-4.21 -1.29,-0.82 -2.19,-1.58 -2.61,-2.26 -0.48,-0.67 -0.67,-1.57 -0.67,-2.66 0,-1.41 0.42,-2.67 1.26,-3.71 0.84,-1.07 2.02,-1.89 3.57,-2.36 1.29,-0.45 3.06,-0.65 5.28,-0.65 1.02,0 3.48,0.2 7.42,0.57 0.73,0.08 1.93,0.13 3.54,0.13 2.69,0 6.29,-0.22 10.79,-0.7 2.83,-0.28 4.83,-0.39 5.95,-0.39 6.41,0 11.75,1.99 15.91,5.98 3.76,3.6 5.64,8.57 5.64,14.97 0,3.55 -0.64,6.81 -1.96,9.73 -1.33,2.92 -3.13,5.11 -5.43,6.58 -0.98,0.61 -1.43,1.37 -1.43,2.21 0,1.12 0.73,2.02 2.19,2.73 3.14,1.46 5.45,3.71 6.91,6.68 1.47,2.98 2.53,7.56 3.15,13.69 0.28,2.55 0.64,4.21 1.18,4.97 0.47,0.76 1.68,1.49 3.54,2.19 0.56,0.23 1.04,0.71 1.43,1.46 0.39,0.79 0.59,1.6 0.59,2.56 0,1.18 -0.36,2.39 -1.06,3.6 -0.74,1.23 -1.66,2.19 -2.82,2.89 -2.5,1.49 -5.95,2.25 -10.31,2.25 -5.84,0 -10.03,-1.97 -12.53,-5.99 -1.15,-1.76 -2.11,-4.02 -2.89,-6.71 -0.82,-2.7 -1.74,-6.94 -2.81,-12.67 -0.7,-3.68 -1.54,-6.27 -2.61,-7.79 -1.1,-1.51 -2.59,-2.32 -4.58,-2.41zm-2.61 -29.64l-0.48 13.54 0 0.5c0,1.41 0.14,2.34 0.48,2.82 0.3,0.44 0.95,0.67 1.88,0.67 2.64,0 4.55,-0.87 5.76,-2.61 1.21,-1.78 1.8,-4.59 1.8,-8.49 0,-7.47 -2.06,-11.18 -6.16,-11.18 -1.15,0 -1.99,0.37 -2.47,1.04 -0.48,0.7 -0.73,1.94 -0.81,3.71zm53.94 -16.32l23.06 0c4.67,0 8.07,-0.09 10.23,-0.37 2.14,-0.25 4.22,-0.76 6.27,-1.54 0.62,-0.2 1.12,-0.35 1.46,-0.35 1.57,0 2.95,1.07 4.13,3.27 2,3.53 2.97,7.78 2.97,12.75 0,2.53 -0.42,4.5 -1.23,5.99 -0.84,1.43 -1.97,2.13 -3.37,2.13 -1.01,0 -1.77,-0.25 -2.33,-0.75 -0.57,-0.55 -1.3,-1.72 -2.22,-3.52 -1.33,-2.58 -3.01,-4.33 -5.01,-5.2 -2.02,-0.9 -5.33,-1.32 -9.94,-1.32 -3.46,0 -5.54,0.81 -6.29,2.39 -0.39,0.87 -0.65,1.99 -0.7,3.42 -0.06,1.44 -0.12,5.09 -0.12,11 0,2.3 0.31,3.75 0.9,4.29 0.59,0.6 2.16,0.87 4.72,0.87 1.24,0 2.16,-0.34 2.72,-1.01 0.57,-0.7 0.93,-1.91 1.1,-3.62 0.2,-2.28 0.42,-3.8 0.65,-4.64 0.22,-0.84 0.62,-1.57 1.23,-2.16 0.62,-0.7 1.35,-1.07 2.2,-1.07 1.23,0 2.27,0.76 3.14,2.28 0.62,1.12 1.15,3.09 1.61,5.96 0.42,2.83 0.64,5.81 0.64,8.9 0,6.12 -0.73,11.12 -2.19,15.03 -0.82,2.13 -2.05,3.2 -3.71,3.2 -1.01,0 -1.71,-0.34 -2.1,-1.01 -0.37,-0.67 -0.68,-2.08 -0.9,-4.22 -0.46,-4.38 -2.42,-6.54 -5.9,-6.54 -1.36,0 -2.28,0.53 -2.78,1.63 -0.48,1.12 -0.74,3.15 -0.74,6.12 0,1.83 0.11,4.19 0.28,7.08 0.2,2.87 0.39,4.78 0.62,5.71 0.23,1.15 0.98,1.96 2.22,2.41 1.24,0.45 3.32,0.65 6.24,0.65 4.46,0 7.84,-0.73 10.12,-2.22 2.26,-1.49 4.12,-4.19 5.59,-8.12 0.83,-2.22 1.56,-3.74 2.24,-4.53 0.7,-0.75 1.55,-1.14 2.64,-1.14 1.24,0 2.28,0.7 3.12,2.1 0.81,1.43 1.21,3.21 1.21,5.31 0,2.34 -0.45,5.26 -1.35,8.74 -0.96,3.49 -2.08,6.58 -3.43,9.3 -0.7,1.29 -1.26,2.17 -1.71,2.64 -0.45,0.42 -1.01,0.65 -1.71,0.67 -0.57,-0.02 -1.38,-0.13 -2.48,-0.36 -1.91,-0.45 -4.47,-0.76 -7.67,-0.87l-38.07 0c-1.52,0 -2.72,-0.45 -3.54,-1.32 -0.84,-0.87 -1.26,-2.11 -1.26,-3.68 0,-1.12 0.17,-1.94 0.56,-2.45 0.34,-0.47 1.18,-1.14 2.44,-1.91 0.9,-0.5 1.58,-1.12 2,-1.85 0.45,-0.73 0.78,-1.83 1.01,-3.23 0.98,-5.85 1.49,-13.77 1.49,-23.66 0,-14.94 -0.73,-24.35 -2.16,-28.29 -0.28,-0.76 -0.62,-1.29 -0.99,-1.63 -0.36,-0.28 -1.12,-0.67 -2.25,-1.07 -1.68,-0.7 -2.55,-2.13 -2.55,-4.43 0,-1.24 0.28,-2.34 0.87,-3.32 0.56,-0.95 1.32,-1.61 2.22,-1.91 1.18,-0.34 3.45,-0.53 6.8,-0.53zm63.52 0l23.07 0c4.69,0 8.09,-0.09 10.23,-0.37 2.15,-0.25 4.23,-0.76 6.26,-1.54 0.65,-0.2 1.13,-0.35 1.49,-0.35 1.54,0 2.92,1.07 4.13,3.27 1.97,3.53 2.95,7.78 2.95,12.75 0,2.53 -0.43,4.5 -1.24,5.99 -0.81,1.43 -1.93,2.13 -3.37,2.13 -0.99,0 -1.77,-0.25 -2.3,-0.75 -0.56,-0.55 -1.32,-1.72 -2.25,-3.52 -1.29,-2.58 -2.98,-4.33 -5,-5.2 -2.03,-0.9 -5.34,-1.32 -9.94,-1.32 -3.46,0 -5.54,0.81 -6.27,2.39 -0.42,0.87 -0.65,1.99 -0.73,3.42 -0.06,1.44 -0.12,5.09 -0.12,11 0,2.3 0.34,3.75 0.93,4.29 0.6,0.6 2.16,0.87 4.7,0.87 1.26,0 2.19,-0.34 2.74,-1.01 0.57,-0.7 0.94,-1.91 1.07,-3.62 0.2,-2.28 0.42,-3.8 0.66,-4.64 0.22,-0.84 0.64,-1.57 1.23,-2.16 0.64,-0.7 1.38,-1.07 2.21,-1.07 1.21,0 2.28,0.76 3.16,2.28 0.61,1.12 1.14,3.09 1.57,5.96 0.45,2.83 0.67,5.81 0.67,8.9 0,6.12 -0.75,11.12 -2.22,15.03 -0.81,2.13 -2.05,3.2 -3.68,3.2 -1.01,0 -1.71,-0.34 -2.11,-1.01 -0.39,-0.67 -0.67,-2.08 -0.9,-4.22 -0.44,-4.38 -2.41,-6.54 -5.92,-6.54 -1.35,0 -2.28,0.53 -2.76,1.63 -0.5,1.12 -0.76,3.15 -0.76,6.12 0,1.83 0.12,4.19 0.31,7.08 0.2,2.87 0.39,4.78 0.59,5.71 0.26,1.15 0.98,1.96 2.25,2.41 1.23,0.45 3.32,0.65 6.21,0.65 4.49,0 7.87,-0.73 10.14,-2.22 2.28,-1.49 4.13,-4.19 5.57,-8.12 0.84,-2.22 1.6,-3.74 2.27,-4.53 0.67,-0.75 1.55,-1.14 2.62,-1.14 1.26,0 2.3,0.7 3.11,2.1 0.84,1.43 1.24,3.21 1.24,5.31 0,2.34 -0.45,5.26 -1.37,8.74 -0.94,3.49 -2.08,6.58 -3.44,9.3 -0.67,1.29 -1.26,2.17 -1.68,2.64 -0.45,0.42 -1.04,0.65 -1.72,0.67 -0.56,-0.02 -1.37,-0.13 -2.47,-0.36 -1.91,-0.45 -4.46,-0.76 -7.67,-0.87l-38.06 0c-1.55,0 -2.73,-0.45 -3.57,-1.32 -0.82,-0.87 -1.27,-2.11 -1.27,-3.68 0,-1.12 0.2,-1.94 0.57,-2.45 0.36,-0.47 1.18,-1.14 2.47,-1.91 0.86,-0.5 1.57,-1.12 1.99,-1.85 0.42,-0.73 0.76,-1.83 1.01,-3.23 0.95,-5.85 1.49,-13.77 1.49,-23.66 0,-14.94 -0.73,-24.35 -2.16,-28.29 -0.31,-0.76 -0.65,-1.29 -0.99,-1.63 -0.36,-0.28 -1.12,-0.67 -2.24,-1.07 -1.72,-0.7 -2.56,-2.13 -2.56,-4.43 0,-1.24 0.28,-2.34 0.84,-3.32 0.59,-0.95 1.33,-1.61 2.25,-1.91 1.15,-0.34 3.43,-0.53 6.77,-0.53z"/>
  </g>
 </g>
</svg>
