<?xml version="1.0" encoding="UTF-8"?>
<!DOCTYPE svg PUBLIC "-//W3C//DTD SVG 1.1//EN" "http://www.w3.org/Graphics/SVG/1.1/DTD/svg11.dtd">
<!-- Creator: CorelDRAW -->
<svg xmlns="http://www.w3.org/2000/svg" xml:space="preserve" width="10.1598mm" height="10.1598mm" version="1.1" style="shape-rendering:geometricPrecision; text-rendering:geometricPrecision; image-rendering:optimizeQuality; fill-rule:evenodd; clip-rule:evenodd"
viewBox="0 0 1015.98 1015.98"
 xmlns:xlink="http://www.w3.org/1999/xlink"
 xmlns:xodm="http://www.corel.com/coreldraw/odm/2003">
 <defs>
  <style type="text/css">
   <![CDATA[
    .str0 {stroke:#201E1E;stroke-width:27.23;stroke-miterlimit:22.926}
    .fil2 {fill:#FEFEFE}
    .fil0 {fill:#201E1E}
    .fil1 {fill:#FEFEFE;fill-rule:nonzero}
   ]]>
  </style>
 </defs>
 <g id="Camada_x0020_1">
  <metadata id="CorelCorpID_0Corel-Layer"/>
  <g id="_1835842431120">
   <path class="fil0 str0" d="M26.61 432.54c25.57,96.19 91.83,146.55 187.9,156.44 -31.1,83.45 -36.61,164.75 -16.54,243.94 16.14,68.73 52.1,95.28 107.92,79.68 57.07,-19.78 100.39,-55.45 105.66,-104.57 0.09,-5.87 -4.67,-11.21 -14.31,-15.97 -18.43,-16.07 -33.03,-46.78 -43.8,-92.09 -11.95,-45.79 -14.84,-93.41 -8.71,-142.82 128.1,-41.87 244.16,-104.62 348.15,-188.26l-49.86 -196.69c-156.78,-28.84 -311.79,-25.21 -465.03,10.86 -124.44,28.14 -174.44,125.79 -151.38,249.48z"/>
   <polygon class="fil0" points="652.56,161.06 747.89,136.89 801.77,349.42 706.43,373.59 "/>
   <path class="fil1" d="M650.41 152.49l103.88 -26.34 58.23 229.68 -112.48 28.52 -58.23 -229.68 8.6 -2.18zm91.08 -4.85l-78.18 19.83 49.53 195.38 78.18 -19.83 -49.53 -195.38z"/>
   <path class="fil0" d="M791.38 145.46c17.42,-27.42 31.69,-23.31 50.52,-17.88 9.83,2.8 20.93,6.02 34.44,4.8 14.05,-1.23 24.5,-3.13 34.05,-6.73 9.53,-3.59 18.25,-8.92 28.89,-17.09l12.46 -9.52 -9.65 12.35c-6.32,8.07 -10.72,13.05 -16.18,16.85 -5.45,3.77 -11.8,6.24 -21.95,9.21l-2.35 0.68c-25.17,7.35 -30.15,8.79 -54.19,1.92 -3.37,-0.99 -6.53,-1.93 -9.35,-2.8 -21.41,-6.41 -23.88,-7.15 -43.65,10.77l-11.02 10.01 7.98 -12.57zm43.09 169.99c17.41,-27.45 31.69,-23.34 50.51,-17.91 9.84,2.79 20.93,6.02 34.46,4.82 14.03,-1.25 24.48,-3.15 34.04,-6.75 9.52,-3.6 18.24,-8.92 28.89,-17.09l12.45 -9.52 -9.63 12.37c-6.34,8.04 -10.73,13.05 -16.19,16.83 -5.45,3.79 -11.81,6.24 -21.96,9.21l-2.35 0.68c-25.17,7.34 -30.14,8.79 -54.18,1.92 -3.37,-0.99 -6.53,-1.91 -9.35,-2.78 -21.42,-6.44 -23.88,-7.17 -43.65,10.77l-11.03 9.99 7.99 -12.54zm-22.32 -88.05c17.41,-27.45 31.69,-23.33 50.51,-17.9 9.84,2.81 20.93,6.01 34.46,4.81 14.04,-1.24 24.48,-3.14 34.04,-6.75 9.53,-3.56 18.24,-8.91 28.9,-17.06l12.44 -9.55 -9.63 12.37c-6.33,8.05 -10.73,13.06 -16.18,16.86 -5.47,3.74 -11.82,6.21 -21.97,9.19l-2.34 0.68c-25.17,7.36 -30.17,8.8 -54.19,1.92 -3.37,-0.97 -6.53,-1.92 -9.35,-2.78 -21.41,-6.44 -23.88,-7.18 -43.65,10.76l-11.03 10 7.99 -12.55z"/>
   <path class="fil2" d="M154.89 482.6c-1.54,-5.46 -1.33,-10.67 0.62,-15.67 1.93,-4.97 5.22,-9.38 9.9,-13.16 4.68,-3.79 10.6,-6.91 17.79,-9.32 7.18,-2.39 15.28,-3.71 24.23,-3.97 1.8,-5.61 3.21,-11.49 4.22,-17.63 1.02,-6.17 1.82,-12.84 2.43,-20.07 0.62,-7.19 1.06,-15.01 1.29,-23.41 0.23,-8.41 0.39,-17.71 0.41,-27.92 -5.01,0.23 -11.03,-0.31 -18.08,-1.67 -7.02,-1.33 -14.05,-3.41 -21.11,-6.26 -7.03,-2.84 -13.43,-6.42 -19.14,-10.72 -5.74,-4.32 -9.81,-9.38 -12.26,-15.23 -1.75,-4.04 -2.48,-7.77 -2.22,-11.16 0.32,-3.44 1.17,-6.55 2.62,-9.36 1.46,-2.84 3.31,-5.3 5.52,-7.39 2.2,-2.08 4.35,-3.89 6.37,-5.45 4,-2.85 7.12,-3.45 9.37,-1.76 2.25,1.66 3.55,4.15 3.87,7.42 0.26,3.1 1.88,6.53 4.84,10.29 2.97,3.78 6.54,7.49 10.8,11.14 4.22,3.62 8.86,6.8 13.86,9.47 5.01,2.71 9.78,4.29 14.32,4.83 0.16,-3.48 0.16,-7.53 -0.03,-12.18 -0.18,-4.65 -0.28,-9.51 -0.29,-14.61 0.04,-5.11 0.27,-10.24 0.73,-15.42 0.43,-5.19 1.22,-10.01 2.31,-14.5 1.09,-4.49 2.71,-8.36 4.86,-11.65 2.13,-3.27 4.97,-5.6 8.61,-7.01 4.92,-1.89 9.55,-2.47 13.91,-1.7 4.35,0.78 8.4,2.57 12.15,5.38 3.71,2.79 7.02,6.43 9.87,10.89 2.84,4.46 5.14,9.38 6.83,14.77 2.45,8.3 3.49,16.08 3.07,23.33 -0.4,7.21 -2.06,13.81 -4.95,19.72 -2.9,5.97 -6.96,11.03 -12.12,15.2 -5.18,4.16 -11.33,7.33 -18.43,9.51 0.26,6.5 0.34,14.22 0.18,23.14 -0.12,8.94 -0.41,17.93 -0.89,26.96 -0.47,9.06 -1.18,17.61 -2.15,25.62 -0.94,8.04 -2.12,14.38 -3.51,19.09 19.32,0.62 36.01,0.39 50.15,-0.72 14.1,-1.11 25.19,-3.41 33.27,-6.9 1.74,-0.88 3.21,-1.73 4.4,-2.57 1.18,-0.84 2.25,-1.4 3.18,-1.63 0.94,-0.3 1.73,-0.07 2.36,0.63 0.69,0.68 1.34,2.21 2.08,4.57 0.84,2.69 1.54,5.68 2.05,8.98 0.51,3.28 0.63,6.5 0.33,9.64 -0.31,3.13 -1.14,6.11 -2.5,8.9 -1.41,2.8 -3.56,5.03 -6.48,6.74 -3.34,2.06 -7.74,3.33 -13.1,3.8 -5.41,0.46 -11.17,0.39 -17.37,-0.24 -6.19,-0.61 -12.56,-1.59 -19.1,-2.91 -6.56,-1.34 -12.77,-2.73 -18.61,-4.17 -5.86,-1.41 -11.08,-2.74 -15.71,-3.96 -4.62,-1.25 -8.16,-2.12 -10.64,-2.7 -5.27,12.8 -11.37,22.53 -18.32,29.18 -6.95,6.67 -14.88,10.96 -23.76,12.89 -7.35,1.51 -13.99,0.75 -19.86,-2.24 -5.88,-3.02 -9.93,-8.64 -12.17,-16.83zm268.83 -209.3c1.85,-2.97 4.03,-5.48 6.46,-7.44 2.45,-1.99 4.97,-3.49 7.61,-4.5 3.94,-1.51 7.78,-2.03 11.58,-1.52 3.78,0.52 7.15,2.38 10.1,5.61 0.05,-1.36 0.1,-2.31 0.15,-2.89 0.06,-0.61 0.24,-1.69 0.54,-3.33 0.34,-2.61 2.1,-4.45 5.34,-5.62 3.26,-1.15 6.64,-1.66 10.17,-1.51 3.58,0.11 6.82,0.82 9.72,2.02 2.95,1.24 4.29,3.05 4.05,5.39 -0.43,8.11 -0.69,16.09 -0.77,23.95 -0.08,7.86 0,15.14 0.25,21.84 0.2,6.71 0.74,12.56 1.52,17.54 0.81,4.98 1.84,8.64 3.1,10.97 0.83,1.18 1.66,1.68 2.42,1.48 0.77,-0.22 1.49,-0.78 2.17,-1.7 0.68,-0.92 1.27,-1.98 1.73,-3.21 0.48,-1.22 0.87,-2.18 1.15,-2.87 1.89,-4.85 3.57,-11.02 5.03,-18.5 1.47,-7.46 2.74,-15.05 3.77,-22.83 1.06,-7.78 1.91,-15.14 2.52,-22.06 0.63,-6.95 1.13,-12.39 1.5,-16.3 0,-0.96 0.55,-1.63 1.6,-2.04 1.07,-0.43 2.18,-0.61 3.32,-0.57 1.16,0.03 2.24,0.27 3.24,0.73 1.06,0.44 1.55,1.14 1.55,2.08 -0.41,1.85 -0.73,5.61 -0.88,11.23 -0.2,5.66 -0.51,12.2 -0.93,19.61 -0.45,7.47 -1.04,15.29 -1.83,23.52 -0.78,8.26 -1.95,16.01 -3.55,23.34 -1.61,7.31 -3.7,13.67 -6.28,18.96 -2.56,5.35 -5.81,8.77 -9.74,10.31 -4.27,1.64 -8.58,1.61 -12.93,-0.1 -4.34,-1.73 -7.97,-4.86 -10.87,-9.41 -0.27,2.22 -0.79,4.52 -1.53,6.99 -0.77,2.45 -1.73,4.81 -2.94,7.05 -1.22,2.27 -2.73,4.37 -4.52,6.3 -1.79,1.93 -3.98,3.46 -6.55,4.64 -7.04,2.75 -13.91,2.61 -20.53,-0.4 -4,-1.8 -7.49,-4.85 -10.43,-9.06 -1.49,6.42 -3.41,12.08 -5.75,17.02 -2.62,5.45 -6.07,9.01 -10.35,10.65 -2.95,1.16 -5.92,1.82 -8.98,2.07 -3.02,0.22 -5.92,-0.22 -8.7,-1.32 -2.77,-1.09 -5.46,-2.99 -8,-5.7 -2.55,-2.68 -4.83,-6.37 -6.83,-11.07 -2.35,-5.58 -4.42,-12.49 -6.32,-20.7l-1.59 2.09c-3.63,4.52 -7.75,7.46 -12.3,8.86 1.48,13.59 0.44,25.57 -3.18,36.05 -3.6,10.47 -10.09,17.51 -19.45,21.11 -3.62,1.41 -7.82,1.99 -12.62,1.78 -6.52,-0.71 -12.19,-3.59 -17.1,-8.68 -4.89,-5.09 -8.82,-11.51 -11.83,-19.22 -2.9,-7.57 -4.82,-15.83 -5.74,-24.8 -0.95,-9.02 -0.75,-17.66 0.54,-26.01 1.32,-8.34 3.7,-15.68 7.19,-22.04 3.49,-6.36 8.2,-10.67 14.1,-12.97 1.01,-0.36 2.31,-0.77 3.94,-1.21 1.63,-0.47 3.41,-0.51 5.4,-0.27 2,0.27 4.17,0.96 6.46,2.04 2.31,1.1 4.55,2.93 6.68,5.51 4.39,0.17 8.77,2.73 13.14,7.67 4.38,4.9 7.73,13.15 10.11,24.65 1.37,-0.32 3.19,-1.4 5.42,-3.2 2.22,-1.83 4.39,-4.49 6.52,-8.04l0.73 -1.34c-0.91,-5.43 -1.76,-11.1 -2.55,-16.94 -1.52,-11.2 -2.72,-22.63 -3.63,-34.26 -0.92,-11.66 -1.52,-22.51 -1.84,-32.57 -0.33,-10.07 -0.41,-18.87 -0.3,-26.37 0.13,-7.52 0.53,-12.83 1.23,-15.91 0.51,-2.64 2.37,-4.59 5.68,-5.86 2.61,-1.04 5.56,-1.57 8.79,-1.72 3.27,-0.13 6.27,0.15 9.01,0.91 2.74,0.73 4.91,2.03 6.58,3.83 1.64,1.82 2.16,4.15 1.57,7.04 -0.59,2.3 -1.07,7.33 -1.37,15.11 -0.29,7.75 -0.45,16.97 -0.5,27.67 -0.02,10.66 0.13,22.03 0.45,34.07 0.31,12.06 0.94,23.55 1.82,34.41 0.91,10.89 2.1,20.48 3.64,28.77 1.51,8.28 3.39,13.87 5.63,16.79 0.73,0.87 1.54,1.19 2.54,1.02 0.95,-0.18 1.76,-0.69 2.38,-1.51 1.99,-2.63 3.92,-6.9 5.85,-12.73 1.67,-5.15 3.15,-11.06 4.5,-17.71 -0.52,-2.25 -0.95,-4.59 -1.33,-7.04 -1.2,-7.46 -1.83,-14.86 -1.94,-22.16 -0.09,-7.33 0.36,-14.16 1.3,-20.49 0.95,-6.3 2.51,-11.29 4.69,-14.98zm35.13 12.49c-0.2,-0.49 -0.54,-1.27 -1.05,-2.32 -0.46,-1 -1.06,-1.98 -1.66,-2.85 -0.66,-0.91 -1.33,-1.67 -2.04,-2.32 -0.73,-0.68 -1.43,-0.88 -2.09,-0.63 -1.99,0.75 -3.56,3.1 -4.78,7.08 -1.2,3.94 -2.02,8.65 -2.46,14.13 -0.41,5.45 -0.55,11.34 -0.37,17.68 0.18,6.34 0.67,12.2 1.42,17.57 0.25,1.62 0.62,3.84 1.15,6.66 0.52,2.79 1.23,5.51 2.16,8.09 0.87,2.58 1.94,4.72 3.18,6.42 1.2,1.68 2.64,2.23 4.3,1.59 2.13,-0.83 3.79,-2.84 4.99,-6.04 1.22,-3.24 2.04,-7.07 2.48,-11.58 0.45,-4.52 0.55,-9.37 0.43,-14.63 -0.12,-5.24 -0.44,-10.33 -0.96,-15.32 -0.52,-5 -1.2,-9.61 -2.08,-13.81 -0.87,-4.19 -1.74,-7.43 -2.62,-9.72zm-126.16 122.69c2.27,-0.89 4.02,-3 5.23,-6.26 1.15,-3.3 1.95,-7.15 2.33,-11.54 0.37,-4.38 0.32,-8.91 -0.15,-13.54 -0.48,-4.63 -1.2,-8.74 -2.21,-12.3 -1.85,-0.41 -3.68,-1.4 -5.53,-2.97 -1.81,-1.55 -3.49,-3.41 -4.98,-5.58 -1.49,-2.15 -2.77,-4.46 -3.81,-6.88 -1.02,-2.42 -1.49,-4.69 -1.36,-6.82 -1.98,1.71 -3.49,4.64 -4.53,8.8 -1.03,4.18 -1.58,8.89 -1.76,14.14 -0.11,5.26 0.13,10.67 0.77,16.28 0.68,5.6 1.68,10.52 3.07,14.82 1.37,4.29 3.13,7.61 5.26,9.99 2.13,2.38 4.71,3 7.67,1.86zm-92.16 -85.28c4.25,-0.71 7.7,-2.68 10.32,-5.87 2.66,-3.17 4.54,-6.97 5.66,-11.36 1.13,-4.42 1.56,-9.18 1.28,-14.23 -0.24,-5.09 -1.31,-10.03 -3.15,-14.77 -0.78,-2 -1.7,-3.92 -2.77,-5.74 -1.12,-1.84 -2.18,-3.26 -3.21,-4.29 -1.06,-0.98 -2.14,-1.57 -3.23,-1.73 -1.09,-0.15 -1.93,0.47 -2.54,1.86 -1.15,2.33 -1.99,5.58 -2.47,9.72 -0.48,4.15 -0.71,8.77 -0.72,13.87 -0.01,5.1 0.07,10.45 0.25,16.05 0.21,5.58 0.36,11.06 0.58,16.49zm-39.78 133.73c-2.82,-0.03 -5.72,0.38 -8.73,1.25 -2.94,0.86 -5.64,2 -8,3.38 -2.4,1.41 -4.48,2.98 -6.27,4.7 -1.78,1.73 -3.01,3.47 -3.63,5.24 -0.86,2.23 -0.99,4.03 -0.42,5.53 0.59,1.49 1.51,2.57 2.84,3.3 1.32,0.71 2.89,0.91 4.74,0.58 1.84,-0.36 3.63,-1.22 5.34,-2.65 2.85,-2.41 5.56,-5.6 8.09,-9.48 2.57,-3.93 4.56,-7.87 6.04,-11.85z"/>
   <polygon class="fil2" points="501.07,462.95 476.83,452.72 454.72,466.9 456.94,440.72 436.6,424.04 462.19,418.06 471.77,393.59 485.39,416.07 511.61,417.64 494.43,437.53 "/>
   <polygon class="fil2" points="580.26,425.19 558.82,420.32 542.65,435.23 540.65,413.36 521.46,402.57 541.67,393.9 545.95,372.34 560.48,388.87 582.3,386.32 571.06,405.21 "/>
   <polygon class="fil2" points="628.33,371.9 611.07,371.79 601.2,385.92 595.98,369.47 579.46,364.45 593.51,354.4 593.17,337.17 607.06,347.39 623.38,341.78 617.94,358.13 "/>
   <path class="fil0" d="M406.54 590.69l17.57 -5.55c0.36,-0.07 0.63,-0.16 0.83,-0.21 11.19,-3.54 18.4,-0.16 21.66,10.13l3.52 11.16c2.38,7.6 -0.07,13.79 -7.44,18.5 -1.75,1.13 -4.5,2.26 -8.17,3.43l-2.07 0.66 9.99 31.64 -12.61 3.97 -23.28 -73.73zm15.94 6.51l6.66 21.1 2.88 -0.92c1.76,-0.56 2.96,-1.02 3.51,-1.48 2.05,-1.48 2.72,-3.4 1.96,-5.71l-3.49 -11.13c-1.06,-3.33 -3.42,-4.42 -7.06,-3.29l-4.46 1.43zm25.08 -19.73l17.28 -6.36c0.35,-0.09 0.6,-0.19 0.8,-0.26 11.02,-4.06 18.4,-1.01 22.11,9.1l4.05 10.98c2.33,6.36 0.64,11.75 -5.13,16.16l26.4 28.66 -13.63 5.01 -22.95 -27.81 -1.49 0.78 11.67 31.75 -12.42 4.57 -26.69 -72.58zm16.19 5.75l7.66 20.76 2.84 -1.04c1.75,-0.63 2.88,-1.18 3.45,-1.65 1.97,-1.58 2.52,-3.51 1.7,-5.8l-4.04 -10.97c-1.24,-3.29 -3.62,-4.24 -7.21,-2.92l-4.4 1.62zm82.18 21.87c4.31,9.94 0.66,17.41 -11,22.46 -11.61,5.04 -19.55,2.62 -23.87,-7.32l-18.85 -43.34c-4.3,-9.97 -0.67,-17.47 10.93,-22.52 11.63,-5.05 19.61,-2.59 23.96,7.34l18.83 43.38zm-31 -38.09c-1.37,-3.2 -3.82,-4.05 -7.36,-2.56 -3.54,1.56 -4.63,3.93 -3.22,7.17l18.85 43.35c1.38,3.22 3.84,4.05 7.35,2.51 3.55,-1.55 4.62,-3.91 3.22,-7.09l-18.84 -43.38zm43.7 -37.38l4.86 9.87 -11.09 5.47 29.31 59.49 -11.88 5.86 -29.32 -59.51 -11.09 5.47 -4.86 -9.86 34.07 -16.79zm4.16 -2.32l30.02 -16.6 5.31 9.6 -18.44 10.21 10.71 19.37 15.9 -8.78 5.31 9.63 -15.86 8.8 10.74 19.4 18.43 -10.21 5.34 9.63 -30.01 16.62 -37.45 -67.67zm86.93 40.07c-8.56,3.84 -15.29,1.84 -20.23,-6.01l-25.27 -39.95c-5.81,-9.18 -3.35,-17.13 7.34,-23.89 10.73,-6.78 18.98,-5.59 24.77,3.59l5.55 8.77 -11.19 7.08 -5.53 -8.77c-1.88,-2.96 -4.43,-3.41 -7.68,-1.41 -3.27,2.06 -3.96,4.6 -2.09,7.56l25.28 39.97c1.87,2.94 4.42,3.39 7.63,1.34 3.29,-2.07 3.98,-4.55 2.12,-7.51l-5.56 -8.82 11.17 -7.07 5.57 8.84c5.74,9.07 3.36,16.94 -7.14,23.71l0.56 2.76c0.67,-1.11 1.42,-1.94 2.25,-2.47 0.81,-0.51 1.72,-0.74 2.73,-0.67 1.05,0.03 1.97,0.68 2.77,1.95l2.38 3.75c1.34,2.12 0.73,4.16 -1.84,6.07 -0.39,0.29 -0.81,0.61 -1.3,0.93 -0.27,0.17 -0.53,0.31 -0.83,0.45 -3.15,1.92 -5.49,1.71 -6.93,-0.58l-0.71 -1.08 4.66 -2.96 0.7 1.11c0.23,0.38 0.61,0.39 1.14,0.06 0.54,-0.32 0.69,-0.68 0.45,-1.08l-2.36 -3.72c-0.28,-0.44 -0.67,-0.53 -1.16,-0.24l-0.07 0.04c-0.44,0.27 -0.63,0.72 -0.55,1.24l-4.46 2.82 -2.17 -5.81zm44.31 -64.27l19.28 20.02 -10.91 7.68 -11.55 -11.99 -11.08 7.74 7.31 14.98 -10.92 7.65 -12.17 -24.83 -21.08 -46.29 14.86 -10.43 36.26 35.47zm-10.96 7.69l-22.55 -23.4 14.28 29.21 8.27 -5.81zm-41.77 -34.01l-7.12 1.02 -0.5 -3.55c-0.6,-4.49 0.42,-7.78 3.03,-9.84l0.28 -0.18c1.71,-1.18 4.47,-1.94 8.32,-2.24 1.84,-0.12 3.17,-0.49 4.04,-1.08 0.71,-0.51 1.05,-1.18 1.05,-2.02l-0.14 -3.53 7.19 -0.34 0.15 3.58c0.12,3.65 -0.96,6.37 -3.27,8.16l-0.27 0.2c-1.74,1.2 -4.48,1.92 -8.26,2.18 -2.4,0.17 -3.78,0.34 -4.12,0.53l-0.17 0.1c-0.71,0.5 -0.94,1.68 -0.7,3.48l0.49 3.53zm100.9 7.56c6.25,8.86 4.19,16.92 -6.17,24.22 -10.36,7.3 -18.64,6.52 -24.88,-2.31l-27.22 -38.67c-6.26,-8.89 -4.19,-16.95 6.15,-24.24 10.36,-7.3 18.66,-6.51 24.91,2.35l27.21 38.65zm-38.03 -31.02c-2.01,-2.87 -4.57,-3.22 -7.72,-1.02 -3.19,2.23 -3.75,4.79 -1.71,7.65l27.2 38.68c2.01,2.84 4.59,3.16 7.76,0.96 3.13,-2.25 3.7,-4.78 1.69,-7.63l-27.22 -38.64z"/>
   <path class="fil0" d="M505.78 676.42l3.93 10.25 -11.56 4.46 23.78 61.91 -12.36 4.74 -23.77 -61.9 -11.55 4.42 -3.94 -10.27 35.47 -13.61zm4.24 -1.77l31.39 -13.86 4.45 10.06 -19.29 8.51 8.95 20.25 16.59 -7.31 4.45 10.06 -16.58 7.32 8.96 20.3 19.27 -8.54 4.47 10.09 -31.38 13.86 -31.28 -70.74zm25.29 -23.53l-8.53 12.44 -9.49 4.17 7.12 -15.52 9.51 -4.21 1.39 3.12zm11.1 7.41l16.51 -8.19c0.36,-0.14 0.6,-0.26 0.76,-0.35 10.52,-5.21 18.17,-2.97 22.98,6.68l5.18 10.47c3.03,6.11 1.88,11.66 -3.37,16.66l29.31 25.65 -13 6.43 -25.78 -25.19 -1.41 0.94 15.01 30.29 -11.85 5.88 -34.34 -69.27zm16.71 3.97l9.86 19.83 2.72 -1.35c1.65,-0.82 2.74,-1.47 3.25,-2.01 1.77,-1.79 2.13,-3.76 1.04,-5.95l-5.18 -10.48c-1.57,-3.11 -4.05,-3.82 -7.49,-2.12l-4.2 2.08zm74.59 8.23l-12.48 -53.68 11.54 -6.47 37.81 67.45 -11.07 6.18 -21.23 -37.88 11.36 43.42 -7.85 4.38 -31.36 -32.21 21.23 37.89 -11.19 6.27 -37.79 -67.45 11.53 -6.47 39.5 38.57zm7.5 -65.51l11.31 -6.82 39.9 66.25 -11.34 6.82 -39.87 -66.25zm84.79 20.56c5.83,9.12 3.4,17.1 -7.3,23.92 -10.68,6.81 -18.92,5.66 -24.75,-3.47l-25.4 -39.89c-5.84,-9.15 -3.41,-17.12 7.24,-23.92 10.7,-6.83 18.97,-5.65 24.81,3.5l5.58 8.76 -11.16 7.13 -5.59 -8.79c-1.87,-2.94 -4.43,-3.38 -7.67,-1.36 -3.28,2.07 -3.96,4.6 -2.05,7.58l25.4 39.87c1.87,2.93 4.43,3.38 7.66,1.3 3.27,-2.06 3.95,-4.57 2.07,-7.5l-5.59 -8.81 11.17 -7.1 5.58 8.78zm32.58 -36.47l18.82 20.46 -11.13 7.44 -11.28 -12.28 -11.23 7.5 6.93 15.14 -11.06 7.38 -11.58 -25.12 -19.95 -46.8 15.09 -10.05 35.39 36.33zm-11.14 7.42l-21.98 -23.93 13.6 29.54 8.38 -5.61z"/>
  </g>
 </g>
</svg>
