<svg xmlns="http://www.w3.org/2000/svg" width="24" height="24" fill="#1a1a1a" viewBox="0 0 256 256"><rect x="40" y="40" width="80" height="80" rx="16"></rect><rect x="40" y="136" width="80" height="80" rx="16"></rect><rect x="136" y="40" width="80" height="80" rx="16"></rect><path d="M144,184a8,8,0,0,0,8-8V144a8,8,0,0,0-16,0v32A8,8,0,0,0,144,184Z"></path><path d="M208,152H184v-8a8,8,0,0,0-16,0v56H144a8,8,0,0,0,0,16h32a8,8,0,0,0,8-8V168h24a8,8,0,0,0,0-16Z"></path><path d="M208,184a8,8,0,0,0-8,8v16a8,8,0,0,0,16,0V192A8,8,0,0,0,208,184Z"></path></svg>